<?xml version="1.0" encoding="UTF-8" standalone="no"?>
<svg xmlns="http://www.w3.org/2000/svg" version="1.2" viewBox="0 0 1214.772 256.515">
  <title>A music staff representing a call from a crow</title>
  <path fill="none" stroke="#000" stroke-linejoin="bevel" stroke-width="2.73" d="M336.598 386.198 1551.37 386.198M336.598 410.998 1551.37 410.998M336.598 435.798 1551.37 435.798M336.598 460.598 1551.37 460.598M336.598 485.398 1551.37 485.398" class="StaffLines" transform="translate(-336.598 -340.659)"/>
  <path fill-rule="evenodd" stroke="#000" stroke-linecap="round" stroke-linejoin="round" stroke-width="1.24" d="M612.564 179.459c22.518 24.018 72.718 30.218 100.408 12.4-28.66 25.694-78.862 19.494-100.408-12.4M342.822 179.459c22.518 24.018 72.72 30.218 100.405 12.4-28.658 25.694-78.86 19.494-100.405-12.4" class="SlurSegment"/>
  <path fill="none" stroke="#000" stroke-linejoin="bevel" stroke-width="4.46" d="M1526.32 384.834 1526.32 486.762" class="BarLine" transform="translate(-336.598 -340.659)"/>
  <path fill="none" stroke="#000" stroke-linejoin="bevel" stroke-width="13.64" d="M1544.55 384.834 1544.55 486.762" class="BarLine" transform="translate(-336.598 -340.659)"/>
  <path fill="none" stroke="#000" stroke-linejoin="bevel" stroke-width="4.46" d="M899.818 384.834 899.818 486.762M1169.56 384.834 1169.56 486.762" class="BarLine" transform="translate(-336.598 -340.659)"/>
  <path fill="none" stroke="#000" stroke-linejoin="bevel" stroke-width="3.97" d="M1025.27 510.198 1073.86 510.198M755.529 510.198 804.121 510.198" class="LedgerLine" transform="translate(-336.598 -340.659)"/>
  <path fill="none" stroke="#000" stroke-linejoin="bevel" stroke-width="2.48" d="M694.292 493.83 694.292 410.998M1064.44 506.23 1064.44 423.398M794.697 506.23 794.697 423.398M1474.75 456.63 1474.75 373.798M1394.43 456.63 1394.43 373.798M964.035 493.83 964.035 410.998M1233.78 456.63 1233.78 373.798M1314.1 456.63 1314.1 373.798" class="Stem" transform="translate(-336.598 -340.659)"/>
  <path d="M1107.162 124.109c0 4.263 3.069 9.021 11.114 9.021 10.308 0 21.127-8.432 21.127-17.159 0-5.859-4.96-9.129-11.113-9.129-9.625 0-21.126 8.137-21.126 17.267M427.115 173.709c0 4.263 3.069 9.021 11.113 9.021 10.308 0 21.127-8.432 21.127-17.159 0-5.859-4.96-9.129-11.113-9.129-9.625 0-21.127 8.137-21.127 17.267M617.579 144.042c-9.625 0-21.127 8.044-21.127 17.267 0 4.263 3.069 9.021 11.113 9.021 10.308 0 21.127-8.432 21.127-17.159 0-5.859-4.96-9.129-11.113-9.129m-2.681 17.468c-.295.186-7.533 4.154-11.005 4.154-3.27 0-3.968-2.666-3.968-3.565 0-4.169 9.92-9.021 10.323-9.223.387-.201 7.44-4.169 11.005-4.169 2.387 0 3.968 1.395 3.968 3.565 0 4.278-10.013 9.037-10.323 9.238M696.862 173.709c0 4.263 3.069 9.021 11.113 9.021 10.308 0 21.127-8.432 21.127-17.159 0-5.859-4.96-9.129-11.113-9.129-9.625 0-21.127 8.137-21.127 17.267M347.836 144.042c-9.625 0-21.127 8.044-21.127 17.267 0 4.263 3.069 9.021 11.113 9.021 10.308 0 21.127-8.432 21.127-17.159 0-5.859-4.96-9.129-11.113-9.129m-2.681 17.468c-.295.186-7.533 4.154-11.005 4.154-3.27 0-3.968-2.666-3.968-3.565 0-4.169 9.92-9.021 10.323-9.223.387-.201 7.44-4.169 11.005-4.169 2.387 0 3.968 1.395 3.968 3.565 0 4.278-10.013 9.037-10.323 9.238M866.192 124.109c0 4.263 3.069 9.021 11.113 9.021 10.308 0 21.127-8.432 21.127-17.159 0-5.859-4.96-9.129-11.113-9.129-9.625 0-21.127 8.137-21.127 17.267M946.522 124.109c0 4.263 3.069 9.021 11.113 9.021 10.308 0 21.127-8.432 21.127-17.159 0-5.859-4.96-9.129-11.113-9.129-9.625 0-21.127 8.137-21.127 17.267M1026.842 124.109c0 4.263 3.069 9.021 11.114 9.021 10.308 0 21.127-8.432 21.127-17.159 0-5.859-4.96-9.129-11.113-9.129-9.625 0-21.126 8.137-21.126 17.267" class="Note" style="stroke-width:.992"/>
  <path d="M524.008 113.423c.403.496 1.101.791 1.689.791.201 0 .496-.093.697-.201.295-.186.496-.496.496-.884 0-.294-.093-.604-.403-.992l-19.344-22.924c1.891.806 3.875 1.193 5.657 1.193.791 0 1.488-.093 2.185-.201 1.984-.295 3.767-.992 5.162-1.984 2.185-1.178 3.565-3.565 3.565-6.138 0-.31 0-.697-.093-.992-.496-3.58-3.581-6.06-6.944-6.06-.403 0-.899 0-1.302.108-3.472.589-5.952 3.658-5.844 7.037 0 .295 0 .496 0 .791.295 1.891 1.194 3.472 2.48 4.572-1.596-.109-3.177-.496-4.665-1.302-4.867-2.573-8.835-7.936-9.222-8.432-.294-.294-.697-.589-1.193-.589 0 0-.093 0-.201 0-.201 0-.496 0-.697.093-.387.31-.589.698-.589 1.101 0 .201.093.496.295.791l18.259 22.026c-1.782-.697-3.472-.992-5.161-.992-.791 0-1.581.093-2.279.202-1.984.295-3.875.992-5.254 1.876-2.185 1.287-3.58 3.674-3.472 6.247 0 .31 0 .697 0 .992.589 3.472 3.565 6.06 7.037 6.06.403 0 .791-.108 1.193-.108 3.472-.589 5.844-3.565 5.952-6.944 0-.295 0-.589-.108-.884-.186-1.891-1.085-3.472-2.48-4.665 1.596.093 3.286.496 4.774 1.287 4.851 2.589 8.633 7.642 9.129 8.231l.682.899M794.839 112.917c.403.496 1.101.791 1.689.791.201 0 .496-.093.697-.201.295-.186.496-.496.496-.884 0-.294-.093-.604-.403-.992l-19.344-22.924c1.891.806 3.875 1.193 5.657 1.193.791 0 1.488-.093 2.185-.201 1.984-.295 3.767-.992 5.162-1.984 2.185-1.178 3.565-3.565 3.565-6.138 0-.31 0-.697-.093-.992-.496-3.58-3.581-6.06-6.944-6.06-.403 0-.899 0-1.302.108-3.472.589-5.952 3.658-5.844 7.037 0 .295 0 .496 0 .791.295 1.891 1.194 3.472 2.48 4.572-1.596-.109-3.177-.496-4.665-1.302-4.867-2.573-8.835-7.936-9.222-8.432-.294-.294-.697-.589-1.193-.589 0 0-.093 0-.201 0-.201 0-.496 0-.697.093-.387.31-.589.698-.589 1.101 0 .201.093.496.295.791l18.259 22.026c-1.782-.697-3.472-.992-5.161-.992-.791 0-1.581.093-2.279.201-1.984.295-3.875.992-5.254 1.876-2.185 1.287-3.58 3.674-3.472 6.247 0 .31 0 .697 0 .992.589 3.472 3.565 6.06 7.037 6.06.403 0 .791-.108 1.193-.108 3.472-.589 5.844-3.565 5.952-6.944 0-.295 0-.589-.108-.884-.186-1.891-1.085-3.472-2.48-4.665 1.596.093 3.286.496 4.774 1.287 4.851 2.589 8.633 7.642 9.129 8.231l.682.899" class="Symbol" style="stroke-width:.992"/>
  <path d="m 74.353475,122.01605 c 0,7.0525 -2.88295,14.291 -9.92,17.17405 -2.07695,-11.90405 -4.758425,-27.68305 -5.456,-32.0541 8.928,0 15.376,6.06054 15.376,14.88005 M 60.264,140.3681 c -1.984,0.40295 -3.859475,0.60442 -5.750525,0.60442 -14.182425,0 -26.28797,-9.92 -26.28797,-24.90847 0,-12.09005 8.52502,-22.909 17.26702,-30.457525 1.674,-1.488 3.270525,-2.867475 4.758525,-4.355475 C 51.134525,86.598525 51.832,91.264 52.529475,95.340525 43.49305,98.022 37.35505,107.53905 37.35505,116.87005 c 0,6.944 5.456,16.461 13.392,16.461 0.790425,0 1.689475,-0.40295 1.689475,-1.28653 0,-0.89895 -0.992,-1.39495 -2.185475,-2.18547 -3.87505,-2.387 -6.060525,-4.96 -6.060525,-9.827 0,-6.045 4.464,-10.91205 10.32295,-12.29153 L 60.264,140.3681 M 51.537475,38.393574 c 0.89905,-3.968 5.456,-14.384 10.617575,-14.384 1.488,0 3.859475,4.851476 3.859475,11.702426 0,10.32305 -7.626,18.057574 -14.47705,24.8 -0.58895,-3.968 -1.08495,-7.827475 -1.08495,-11.99695 0,-3.673476 0.294525,-7.052525 1.08495,-10.121476 m -20.832,132.431996 c 0,6.55653 5.05305,15.19 18.44505,15.19 4.665475,0 8.742,-1.19347 12.30695,-3.37905 C 66.820525,178.8701 68.2,172.31357 68.2,166.06705 c 0,-3.85948 -0.58895,-8.32348 -1.58095,-13.98095 -0.294525,-1.984 -0.89905,-4.96 -1.488,-8.83505 9.718425,-3.17748 16.95695,-13.29895 16.95695,-23.5135 0,-14.97303 -10.617475,-25.0945 -25.094525,-25.0945 -0.992,-5.952 -1.984,-11.81105 -2.88295,-17.36 10.524525,-11.020525 17.76295,-23.420525 17.76295,-39.184 0,-9.036525 -2.774425,-16.368 -4.37095,-19.948128 C 65.13105,13.097674 62.248,9.6256736 60.465475,9.6256736 c -0.697475,0 -3.766425,1.1933764 -7.03695,5.0532484 -6.35505,7.548128 -8.137475,20.242652 -8.137475,28.566128 0,5.36295 0.496,10.23 2.185475,21.343475 -0.108525,0.09305 -5.27,5.347475 -7.34705,7.037049 C 31.09305,80.057574 18.6,92.054525 18.6,111.91005 c 0,18.53805 16.166525,33.12352 34.62705,33.12352 2.867475,0 5.54895,-0.29452 7.827475,-0.69747 1.89095,9.53242 2.976,16.47642 2.976,21.73095 0,10.32305 -5.254525,15.77905 -15.267475,15.77905 -2.38705,0 -4.464,-0.496 -4.665575,-0.496 -0.09295,-0.10853 -0.294425,-0.20158 -0.294425,-0.29453 0,-0.20147 0.201475,-0.31 0.496,-0.40305 4.665475,-0.69747 9.315475,-4.66547 9.315475,-11.00495 0,-5.36305 -4.06105,-11.02052 -11.50105,-11.02052 -6.944,0 -11.408,5.65747 -11.408,12.19852" class="Clef" style="stroke-width:.992"/>
  <path d="M123.784 35.123c.605-.093 1.101-.791 1.101-1.395v-5.843c0-.791-.605-1.395-1.395-1.395-.093 0-.093 0-.201 0L120.017 27.187V12.4h-2.775v15.376l-8.835 1.798V15.578H105.633V30.163l-3.875.791C101.169 31.062 100.673 31.744 100.673 32.349V32.55 38.301 38.099c0 .79.589 1.395 1.395 1.395.093 0 .186 0 .295 0l3.271-.698v16.368l-3.875.79c-.589.093-1.085.791-1.085 1.395v5.75c0 .791.589 1.38 1.395 1.38.093 0 .186 0 .295 0l3.271-.682v14.771h2.775v-15.376l8.835-1.783V75.408H120.017V60.822l3.767-.698c.605-.108 1.101-.79 1.101-1.395V52.886c0-.806-.605-1.395-1.395-1.395-.093 0-.093 0-.201 0l-3.271.698v-16.368l3.767-.697m-15.376 3.069 8.835-1.783v16.368l-8.835 1.891V38.192M150.955 72.323c.605-.093 1.101-.791 1.101-1.395v-5.843c0-.791-.605-1.395-1.395-1.395-.093 0-.093 0-.201 0L147.188 64.387V49.6h-2.775v15.376l-8.835 1.798V52.778H132.804V67.363l-3.875.791C128.34 68.262 127.844 68.944 127.844 69.549V69.75 75.501 75.299c0 .79.589 1.395 1.395 1.395.093 0 .186 0 .295 0l3.271-.698v16.368l-3.875.79c-.589.093-1.085.791-1.085 1.395v5.75c0 .791.589 1.38 1.395 1.38.093 0 .186 0 .295 0l3.271-.682v14.771h2.775v-15.376l8.835-1.783v13.997H147.188V98.022l3.767-.698c.605-.108 1.101-.79 1.101-1.395V90.086c0-.806-.605-1.395-1.395-1.395-.093 0-.093 0-.201 0l-3.271.698v-16.368l3.767-.697m-15.376 3.069 8.835-1.783v16.368l-8.835 1.891V75.392M178.127 22.723c.605-.093 1.101-.791 1.101-1.395v-5.843c0-.791-.605-1.395-1.395-1.395-.093 0-.093 0-.201 0L174.36 14.787V0h-2.775v15.376l-8.835 1.798V3.178H159.976V17.763l-3.875.791C155.512 18.662 155.016 19.344 155.016 19.949V20.15 25.901 25.699c0 .79.589 1.395 1.395 1.395.093 0 .186 0 .295 0l3.271-.698v16.368l-3.875.79c-.589.093-1.085.791-1.085 1.395v5.75c0 .791.589 1.38 1.395 1.38.093 0 .186 0 .295 0l3.271-.682v14.771h2.775v-15.376l8.835-1.783V63.008H174.36V48.422l3.767-.698c.605-.108 1.101-.79 1.101-1.395V40.486c0-.806-.605-1.395-1.395-1.395-.093 0-.093 0-.201 0L174.36 39.789v-16.368l3.767-.697m-15.376 3.069 8.835-1.783v16.368l-8.835 1.891V25.792M205.283 59.923c.605-.093 1.101-.791 1.101-1.395v-5.843c0-.791-.605-1.395-1.395-1.395-.093 0-.093 0-.201 0L201.516 51.987V37.2h-2.775v15.376l-8.835 1.798V40.378H187.132V54.963l-3.875.791C182.668 55.862 182.172 56.544 182.172 57.149V57.35 63.101 62.899c0 .79.589 1.395 1.395 1.395.093 0 .186 0 .295 0l3.271-.698v16.368l-3.875.79c-.589.093-1.085.791-1.085 1.395v5.75c0 .791.589 1.38 1.395 1.38.093 0 .186 0 .295 0l3.271-.682v14.771h2.775V87.994l8.835-1.783v13.997H201.516V85.622l3.767-.698c.605-.108 1.101-.79 1.101-1.395V77.686c0-.806-.605-1.395-1.395-1.395-.093 0-.093 0-.201 0l-3.271.698v-16.368l3.767-.697m-15.376 3.069 8.835-1.783v16.368l-8.835 1.891V62.992" class="KeySig" style="stroke-width:.992"/>
  <path d="m 263.423,75.987 c -2.48,1.596525 -4.26252,4.464 -4.26252,7.641574 0,0.402971 0,0.790476 0.093,1.193476 0.496,4.061 3.782,7.238495 7.84296,7.734495 0.29452,0 0.79052,0 1.08504,0 4.96,0 8.928,-3.968 8.928,-8.927971 0,0 0,-0.294524 0,-0.589049 0,-0.402951 -0.093,-1.100525 -0.186,-1.488 -0.89904,-4.262525 -4.774,-13.392 -21.638,-13.392 -21.62252,0 -24.10252,17.94902 -24.10252,24.39702 0,11.810975 1.488,26.598025 26.288,26.598025 9.82705,0 17.46852,-5.766 17.856,-16.38352 0,-0.496 -0.29452,-0.7905 -0.79052,-0.7905 h -1.28643 c -0.40305,0 -0.79053,0.403 -0.79053,0.7905 -0.40304,8.24605 -6.262,13.20605 -14.98852,13.20605 -8.63348,0 -12.80295,-4.66558 -12.80295,-13.39205 V 83.628574 c 0,-5.549049 2.18547,-11.904 11.02043,-11.904 4.66557,0 6.74252,1.689476 7.84304,3.378951 0.093,0.201475 0.093,0.294525 0.093,0.496 0,0.09305 0,0.294525 -0.20148,0.387475" class="TimeSig" style="stroke-width:.992"/>
  <path d="M959.827 159.907c1.597 1.488 3.968 1.488 5.565 0 1.488-1.596 1.488-3.968 0-5.456-1.596-1.596-3.968-1.596-5.564 0-1.488 1.488-1.488 3.86 0 5.456M879.497 159.907c1.597 1.488 3.968 1.488 5.565 0 1.488-1.596 1.488-3.968 0-5.456-1.596-1.596-3.968-1.596-5.564 0-1.488 1.488-1.488 3.86 0 5.456M1040.147 159.907c1.597 1.488 3.968 1.488 5.565 0 1.488-1.596 1.488-3.968 0-5.456-1.596-1.596-3.968-1.596-5.564 0-1.488 1.488-1.488 3.86 0 5.456M1120.477 159.907c1.597 1.488 3.968 1.488 5.565 0 1.488-1.596 1.488-3.968 0-5.456-1.596-1.596-3.968-1.596-5.564 0-1.488 1.488-1.488 3.86 0 5.456" class="Articulation" style="stroke-width:.992"/>
  <path d="M876.152 248.421c-1.6 3.594-3.3 5.047-5.89 5.047-4 0-6.5-3.656-6.5-9.5 0-6.11 2.45-10.11 6.14-10.11 1.5 0 2.81.704 2.81 1.5 0 .157-.06.313-.31.61-.8.953-1 1.453-1 2.297 0 1.656 1.25 2.797 3 2.797 1.81 0 3.06-1.391 3.06-3.391 0-3.406-3.36-5.953-7.81-5.953-6.5 0-11.14 5.297-11.14 12.797 0 7.093 4.25 12 10.45 12 4.44 0 7-2.047 9.14-7.344l-1.95-.75m25.25-8.75c0-3.156-.55-4.75-2-5.953-1.64-1.36-4.1-2-7.3-2-5.64 0-9.75 2.64-9.75 6.297 0 1.843 1.16 3.047 2.91 3.047 1.59 0 2.7-1.047 2.7-2.547 0-.657-.25-1.344-.75-2.047-.31-.36-.36-.453-.36-.703 0-1 2-1.907 4.41-1.907 1.59 0 3.34.5 4.14 1.25.95.813 1.31 2 1.31 4.25v1.954c-5.2.906-6.86 1.296-9.31 2.25-4.35 1.609-6.39 3.906-6.39 7.109 0 3.594 2.79 5.844 7.25 5.844 3.45 0 6.54-1.407 8.7-3.953.8 2.546 2.05 3.546 4.39 3.546 2.25 0 4.61-1.437 4.61-2.89 0-.36-.2-.61-.5-.61-.2 0-.41.063-.75.204-.7.296-1 .359-1.41.359-1.4 0-1.9-.906-1.9-3.453v-10.047m-4.69 6.094c0 3-.16 3.703-1 5-1.25 1.843-3.5 3.093-5.7 3.093-2.3 0-3.96-1.64-3.96-3.89 0-2.11 1.05-3.61 3.25-4.656 1.55-.704 3.5-1.204 7.41-1.844v2.297M592.017 219.312h-1.906l-2 2.953c-3.64-2.657-5.5-3.36-8.953-3.36-4.75 0-8.797 2-12.141 6-3.203 3.813-4.703 8.016-4.703 13.157 0 10.796 7.047 18.453 16.907 18.453 8 0 13.093-4.703 14.25-13.094l-2.36-.406c-1.344 7.453-5.14 11.156-11.297 11.156-7.406 0-10.906-5.109-10.906-15.906 0-5.703.75-9.453 2.453-12.453 1.547-2.797 4.61-4.547 7.86-4.547 3.5 0 6.593 1.843 8.5 5.047.953 1.656 1.64 3.5 2.843 7.453h2.203l-.75-14.453m25.641 20.359c0-3.156-.547-4.75-2-5.953-1.641-1.36-4.094-2-7.297-2-5.64 0-9.75 2.64-9.75 6.297 0 1.843 1.156 3.047 2.906 3.047 1.594 0 2.704-1.047 2.704-2.547 0-.657-.25-1.344-.75-2.047-.313-.36-.36-.453-.36-.703 0-1 2-1.907 4.406-1.907 1.594 0 3.344.5 4.141 1.25.953.813 1.313 2 1.313 4.25v1.954c-5.204.906-6.86 1.296-9.313 2.25-4.344 1.609-6.391 3.906-6.391 7.109 0 3.594 2.797 5.844 7.25 5.844 3.454 0 6.547-1.407 8.704-3.953.796 2.546 2.046 3.546 4.39 3.546 2.25 0 4.61-1.437 4.61-2.89 0-.36-.204-.61-.5-.61-.204 0-.407.063-.75.204-.704.296-1 .359-1.407.359-1.406 0-1.906-.906-1.906-3.453v-10.047m-4.687 6.094c0 3-.157 3.703-1 5-1.25 1.843-3.5 3.093-5.704 3.093-2.296 0-3.953-1.64-3.953-3.89 0-2.11 1.047-3.61 3.25-4.656 1.547-.704 3.5-1.204 7.407-1.844v2.297m35.453 3.547-4.907-12.844c-.156-.36-.203-.656-.203-1.047 0-.906.453-1.156 2.094-1.156h1.203v-1.797h-11.203v1.797h.859c1.594.047 2.25.453 2.641 1.843l.406 1.313-4.406 11.641-4.844-12.547c-.093-.344-.203-.797-.203-1.094 0-.859.547-1.156 2.047-1.156h.906v-1.797h-11v1.797h.907c1.39.047 2.046.656 2.593 2.453l7.5 19.797h1.75l5.953-15.797 6.094 15.797h1.563l7-18.453c1.093-2.954 1.843-3.75 3.687-3.797h.36v-1.797h-9.454v1.797h.844c1.75 0 2.453.5 2.453 1.843 0 .5-.14 1.157-.39 1.813l-4.25 11.391M956.472 248.421c-1.59 3.594-3.29 5.047-5.89 5.047-4 0-6.5-3.656-6.5-9.5 0-6.11 2.46-10.11 6.14-10.11 1.5 0 2.82.704 2.82 1.5 0 .157-.07.313-.32.61-.79.953-1 1.453-1 2.297 0 1.656 1.25 2.797 3 2.797 1.82 0 3.07-1.391 3.07-3.391 0-3.406-3.36-5.953-7.82-5.953-6.5 0-11.14 5.297-11.14 12.797 0 7.093 4.25 12 10.46 12 4.43 0 7-2.047 9.14-7.344l-1.96-.75m25.25-8.75c0-3.156-.54-4.75-2-5.953-1.64-1.36-4.09-2-7.29-2-5.64 0-9.75 2.64-9.75 6.297 0 1.843 1.15 3.047 2.9 3.047 1.6 0 2.71-1.047 2.71-2.547 0-.657-.25-1.344-.75-2.047-.32-.36-.36-.453-.36-.703 0-1 2-1.907 4.4-1.907 1.6 0 3.35.5 4.14 1.25.96.813 1.32 2 1.32 4.25v1.954c-5.21.906-6.86 1.296-9.32 2.25-4.34 1.609-6.39 3.906-6.39 7.109 0 3.594 2.8 5.844 7.25 5.844 3.46 0 6.55-1.407 8.71-3.953.79 2.546 2.04 3.546 4.39 3.546 2.25 0 4.61-1.437 4.61-2.89 0-.36-.21-.61-.5-.61-.21 0-.41.063-.75.204-.71.296-1 .359-1.41.359-1.41 0-1.91-.906-1.91-3.453v-10.047m-4.68 6.094c0 3-.16 3.703-1 5-1.25 1.843-3.5 3.093-5.71 3.093-2.29 0-3.95-1.64-3.95-3.89 0-2.11 1.05-3.61 3.25-4.656 1.55-.704 3.5-1.204 7.41-1.844v2.297M1036.802 248.421c-1.6 3.594-3.3 5.047-5.89 5.047-4 0-6.5-3.656-6.5-9.5 0-6.11 2.45-10.11 6.14-10.11 1.5 0 2.81.704 2.81 1.5 0 .157-.06.313-.31.61-.8.953-1 1.453-1 2.297 0 1.656 1.25 2.797 3 2.797 1.81 0 3.06-1.391 3.06-3.391 0-3.406-3.36-5.953-7.81-5.953-6.5 0-11.14 5.297-11.14 12.797 0 7.093 4.25 12 10.45 12 4.44 0 7-2.047 9.14-7.344l-1.95-.75m25.25-8.75c0-3.156-.55-4.75-2-5.953-1.64-1.36-4.1-2-7.3-2-5.64 0-9.75 2.64-9.75 6.297 0 1.843 1.16 3.047 2.91 3.047 1.59 0 2.7-1.047 2.7-2.547 0-.657-.25-1.344-.75-2.047-.31-.36-.36-.453-.36-.703 0-1 2-1.907 4.41-1.907 1.59 0 3.34.5 4.14 1.25.95.813 1.31 2 1.31 4.25v1.954c-5.2.906-6.86 1.296-9.31 2.25-4.35 1.609-6.39 3.906-6.39 7.109 0 3.594 2.79 5.844 7.25 5.844 3.45 0 6.54-1.407 8.7-3.953.8 2.546 2.05 3.546 4.39 3.546 2.25 0 4.61-1.437 4.61-2.89 0-.36-.2-.61-.5-.61-.2 0-.41.063-.75.204-.7.296-1 .359-1.41.359-1.4 0-1.9-.906-1.9-3.453v-10.047m-4.69 6.094c0 3-.16 3.703-1 5-1.25 1.843-3.5 3.093-5.7 3.093-2.3 0-3.96-1.64-3.96-3.89 0-2.11 1.05-3.61 3.25-4.656 1.55-.704 3.5-1.204 7.41-1.844v2.297M1117.122 248.421c-1.59 3.594-3.3 5.047-5.89 5.047-4 0-6.5-3.656-6.5-9.5 0-6.11 2.45-10.11 6.14-10.11 1.5 0 2.81.704 2.81 1.5 0 .157-.06.313-.31.61-.8.953-1 1.453-1 2.297 0 1.656 1.25 2.797 3 2.797 1.81 0 3.06-1.391 3.06-3.391 0-3.406-3.36-5.953-7.81-5.953-6.5 0-11.14 5.297-11.14 12.797 0 7.093 4.25 12 10.45 12 4.44 0 7-2.047 9.14-7.344l-1.95-.75m25.25-8.75c0-3.156-.55-4.75-2-5.953-1.64-1.36-4.09-2-7.3-2-5.64 0-9.75 2.64-9.75 6.297 0 1.843 1.16 3.047 2.91 3.047 1.59 0 2.7-1.047 2.7-2.547 0-.657-.25-1.344-.75-2.047-.31-.36-.36-.453-.36-.703 0-1 2-1.907 4.41-1.907 1.59 0 3.34.5 4.14 1.25.95.813 1.31 2 1.31 4.25v1.954c-5.2.906-6.86 1.296-9.31 2.25-4.34 1.609-6.39 3.906-6.39 7.109 0 3.594 2.8 5.844 7.25 5.844 3.45 0 6.55-1.407 8.7-3.953.8 2.546 2.05 3.546 4.39 3.546 2.25 0 4.61-1.437 4.61-2.89 0-.36-.2-.61-.5-.61-.2 0-.4.063-.75.204-.7.296-1 .359-1.4.359-1.41 0-1.91-.906-1.91-3.453v-10.047m-4.69 6.094c0 3-.15 3.703-1 5-1.25 1.843-3.5 3.093-5.7 3.093-2.3 0-3.95-1.64-3.95-3.89 0-2.11 1.04-3.61 3.25-4.656 1.54-.704 3.5-1.204 7.4-1.844v2.297M322.275 219.312h-1.906l-2 2.953c-3.641-2.657-5.5-3.36-8.954-3.36-4.75 0-8.796 2-12.14 6-3.203 3.813-4.703 8.016-4.703 13.157 0 10.796 7.047 18.453 16.906 18.453 8 0 13.094-4.703 14.25-13.094l-2.359-.406c-1.344 7.453-5.141 11.156-11.297 11.156-7.407 0-10.907-5.109-10.907-15.906 0-5.703.75-9.453 2.454-12.453 1.546-2.797 4.609-4.547 7.859-4.547 3.5 0 6.594 1.843 8.5 5.047.953 1.656 1.641 3.5 2.844 7.453h2.203l-.75-14.453m25.64 20.359c0-3.156-.546-4.75-2-5.953-1.64-1.36-4.093-2-7.296-2-5.641 0-9.75 2.64-9.75 6.297 0 1.843 1.156 3.047 2.906 3.047 1.594 0 2.703-1.047 2.703-2.547 0-.657-.25-1.344-.75-2.047-.313-.36-.359-.453-.359-.703 0-1 2-1.907 4.406-1.907 1.594 0 3.344.5 4.14 1.25.954.813 1.313 2 1.313 4.25v1.954c-5.203.906-6.859 1.296-9.313 2.25-4.343 1.609-6.39 3.906-6.39 7.109 0 3.594 2.797 5.844 7.25 5.844 3.453 0 6.547-1.407 8.703-3.953.797 2.546 2.047 3.546 4.391 3.546 2.25 0 4.609-1.437 4.609-2.89 0-.36-.203-.61-.5-.61-.203 0-.406.063-.75.204-.703.296-1 .359-1.406.359-1.407 0-1.907-.906-1.907-3.453v-10.047m-4.687 6.094c0 3-.156 3.703-1 5-1.25 1.843-3.5 3.093-5.703 3.093-2.297 0-3.953-1.64-3.953-3.89 0-2.11 1.047-3.61 3.25-4.656 1.547-.704 3.5-1.204 7.406-1.844v2.297m35.453 3.547-4.906-12.844c-.156-.36-.203-.656-.203-1.047 0-.906.453-1.156 2.093-1.156h1.204v-1.797h-11.204v1.797h.86c1.594.047 2.25.453 2.64 1.843l.407 1.313-4.407 11.641-4.843-12.547c-.094-.344-.203-.797-.203-1.094 0-.859.546-1.156 2.046-1.156h.907v-1.797h-11v1.797h.906c1.391.047 2.047.656 2.594 2.453l7.5 19.797h1.75l5.953-15.797 6.094 15.797h1.562l7-18.453c1.094-2.954 1.844-3.75 3.688-3.797h.359v-1.797h-9.453v1.797h.844c1.75 0 2.453.5 2.453 1.843 0 .5-.141 1.157-.391 1.813l-4.25 11.391" class="Lyrics"/>
</svg>
