<?xml version="1.0" encoding="UTF-8" standalone="no"?>
<svg xmlns="http://www.w3.org/2000/svg" version="1.2" viewBox="0 0 551.467 216.655">
  <title>1 bar of musical notation representing the call of a crow.</title>
  <path fill="none" stroke="#000" stroke-linejoin="bevel" stroke-width="2.73" d="M336.598 386.198 888.065 386.198M336.598 410.998 888.065 410.998M336.598 435.798 888.065 435.798M336.598 460.598 888.065 460.598M336.598 485.398 888.065 485.398" class="StaffLines" transform="translate(-336.598 -350.285)"/>
  <path fill="none" stroke="#000" stroke-linejoin="bevel" stroke-width="4.46" d="M863.017 384.834 863.017 486.762" class="BarLine" transform="translate(-336.598 -350.285)"/>
  <path fill="none" stroke="#000" stroke-linejoin="bevel" stroke-width="13.64" d="M881.245 384.834 881.245 486.762" class="BarLine" transform="translate(-336.598 -350.285)"/>
  <path fill="none" stroke="#000" stroke-linejoin="bevel" stroke-width="2.48" d="M540.237 439.965 540.237 510.198M595.437 439.965 595.437 510.198M650.637 439.965 650.637 510.198M705.837 439.965 705.837 510.198M792.601 439.965 792.601 516.299" class="Stem" transform="translate(-336.598 -350.285)"/>
  <path d="m 454.763,166.02038 c 0,0.682 0.589,1.2865 1.2865,1.2865 0.496,0 1.1005,-0.403 1.1935,-0.7905 0,-0.1085 0.899,-3.58051 0.992,-3.875 0.093,-0.403 0.992,-4.16951 4.557,-10.01305 3.875,-6.448 9.827,-11.11348 14.787,-18.05748 4.86705,-6.944 7.84305,-13.50052 7.84305,-22.22695 0,-9.02105 -2.09253,-16.569574 -7.34705,-26.195049 -0.29452,-0.697475 -0.89895,-1.08495 -1.488,-1.08495 -0.20148,0 -0.40295,0 -0.496,0.09295 -0.496,0.201475 -0.69748,0.604525 -0.69748,1.193475 0,0.294525 0.10853,0.790525 0.29453,1.193575 3.968,9.222425 5.56443,14.476949 5.56443,21.622429 0,8.23052 -2.88296,12.50852 -4.66548,15.57757 -6.448,11.00495 -16.864,16.368 -21.0335,17.76295 -0.6975,0.29453 -0.7905,0.79053 -0.7905,1.08505 v 22.42848" class="Hook" style="stroke-width:.992"/>
  <path d="M202.399 89.683c0 4.262 3.069 9.021 11.113 9.021 10.308 0 21.127-8.432 21.127-17.159 0-5.859-4.96-9.129-11.113-9.129-9.625 0-21.127 8.137-21.127 17.267M257.599 89.683c0 4.262 3.069 9.021 11.113 9.021 10.308 0 21.127-8.432 21.127-17.159 0-5.859-4.96-9.129-11.113-9.129-9.625 0-21.127 8.137-21.127 17.267M312.799 89.683c0 4.262 3.069 9.021 11.113 9.021 10.308 0 21.127-8.432 21.127-17.159 0-5.859-4.96-9.129-11.113-9.129-9.625 0-21.127 8.137-21.127 17.267M367.999 89.683c0 4.262 3.069 9.021 11.113 9.021 10.308 0 21.127-8.432 21.127-17.159 0-5.859-4.96-9.129-11.113-9.129-9.625 0-21.127 8.137-21.127 17.267M454.763 89.683c0 4.262 3.069 9.021 11.113 9.021 10.308 0 21.127-8.432 21.127-17.159 0-5.859-4.96-9.129-11.113-9.129-9.625 0-21.127 8.137-21.127 17.267" class="Note" style="stroke-width:.992"/>
  <path d="m 74.353475,112.39038 c 0,7.0525 -2.88295,14.291 -9.92,17.17405 -2.07695,-11.90405 -4.758425,-27.68305 -5.456,-32.054104 8.928,0 15.376,6.060544 15.376,14.880054 M 60.264,130.74243 c -1.984,0.40295 -3.859475,0.60442 -5.750525,0.60442 -14.182425,0 -26.28797,-9.92 -26.28797,-24.90847 0,-12.090054 8.52502,-22.909004 17.26702,-30.457529 1.674,-1.488 3.270525,-2.867475 4.758525,-4.355475 0.883475,5.347475 1.58095,10.01295 2.278425,14.089475 -9.036425,2.681475 -15.174425,12.198525 -15.174425,21.529529 0,6.944 5.456,16.461 13.392,16.461 0.790425,0 1.689475,-0.40295 1.689475,-1.28653 0,-0.89895 -0.992,-1.39495 -2.185475,-2.18547 -3.87505,-2.387 -6.060525,-4.96 -6.060525,-9.827 0,-6.045 4.464,-10.912054 10.32295,-12.291529 L 60.264,130.74243 M 51.537475,28.767901 c 0.89905,-3.968 5.456,-14.384 10.617575,-14.384 1.488,0 3.859475,4.851475 3.859475,11.702425 0,10.32305 -7.626,18.057575 -14.47705,24.8 -0.58895,-3.968 -1.08495,-7.827475 -1.08495,-11.99695 0,-3.673475 0.294525,-7.052525 1.08495,-10.121475 m -20.832,132.431999 c 0,6.55653 5.05305,15.19 18.44505,15.19 4.665475,0 8.742,-1.19347 12.30695,-3.37905 C 66.820525,169.24443 68.2,162.6879 68.2,156.44138 c 0,-3.85948 -0.58895,-8.32348 -1.58095,-13.98095 -0.294525,-1.984 -0.89905,-4.96 -1.488,-8.83505 9.718425,-3.17748 16.95695,-13.29895 16.95695,-23.5135 0,-14.973029 -10.617475,-25.094504 -25.094525,-25.094504 -0.992,-5.952 -1.984,-11.81105 -2.88295,-17.36 10.524525,-11.020525 17.76295,-23.420525 17.76295,-39.184 0,-9.036525 -2.774425,-16.368 -4.37095,-19.948128 C 65.13105,3.472 62.248,0 60.465475,0 59.768,0 56.69905,1.193376 53.428525,5.053248 c -6.35505,7.548128 -8.137475,20.242653 -8.137475,28.566128 0,5.36295 0.496,10.23 2.185475,21.343475 -0.108525,0.09305 -5.27,5.347475 -7.34705,7.03705 C 31.09305,70.431901 18.6,82.428851 18.6,102.28438 c 0,18.53805 16.166525,33.12352 34.62705,33.12352 2.867475,0 5.54895,-0.29452 7.827475,-0.69747 1.89095,9.53242 2.976,16.47642 2.976,21.73095 0,10.32305 -5.254525,15.77905 -15.267475,15.77905 -2.38705,0 -4.464,-0.496 -4.665575,-0.496 -0.09295,-0.10853 -0.294425,-0.20158 -0.294425,-0.29453 0,-0.20147 0.201475,-0.31 0.496,-0.40305 4.665475,-0.69747 9.315475,-4.66547 9.315475,-11.00495 0,-5.36305 -4.06105,-11.02052 -11.50105,-11.02052 -6.944,0 -11.408,5.65747 -11.408,12.19852" class="Clef" style="stroke-width:.992"/>
  <path d="m 139.113,66.361326 c -2.48,1.596525 -4.26252,4.464 -4.26252,7.641575 0,0.40297 0,0.790475 0.093,1.193475 0.496,4.061 3.782,7.238495 7.84296,7.734495 0.29452,0 0.79052,0 1.08504,0 4.96,0 8.928,-3.968 8.928,-8.92797 0,0 0,-0.294525 0,-0.58905 0,-0.40295 -0.093,-1.100525 -0.186,-1.488 -0.89904,-4.262525 -4.774,-13.392 -21.638,-13.392 -21.62252,0 -24.10252,17.94902 -24.10252,24.39702 0,11.81098 1.488,26.598029 26.288,26.598029 9.82705,0 17.46852,-5.766 17.856,-16.383524 0,-0.496 -0.29452,-0.790495 -0.79052,-0.790495 h -1.28643 c -0.40305,0 -0.79053,0.403 -0.79053,0.790495 -0.40304,8.246054 -6.262,13.206054 -14.98852,13.206054 -8.63348,0 -12.80295,-4.66558 -12.80295,-13.392054 V 74.002901 c 0,-5.54905 2.18547,-11.904 11.02043,-11.904 4.66557,0 6.74252,1.689475 7.84304,3.37895 0.093,0.201475 0.093,0.294525 0.093,0.496 0,0.09305 0,0.294525 -0.20148,0.387475" class="TimeSig" style="stroke-width:.992"/>
  <path d="m 439.11348,65.378851 c -0.093,0 -0.29443,-0.108525 -0.40296,-0.108525 -0.58904,0 -1.08504,0.31 -1.28652,0.806 -0.40295,0.58905 -3.472,6.448 -7.936,9.718545 -1.28652,0.992 -2.88295,1.689505 -4.464,1.984 1.08505,-1.286495 1.78252,-2.88297 1.78252,-4.758545 0,-3.87495 -3.17747,-7.052425 -7.03702,-7.052425 -3.968,0 -7.1455,3.177475 -7.1455,7.052425 0,3.06905 1.891,5.54905 4.464,6.63405 1.488,0.697495 3.472,1.193495 5.456,1.193495 2.88305,0 5.952,-0.883495 8.63348,-2.867495 1.19357,-0.899 2.37157,-2.092505 3.472,-3.28605 l -11.31496,35.324524 2.68148,0.79053 13.888,-43.741054 c 0.10852,-0.108425 0.10852,-0.31 0.10852,-0.496 0,-0.496 -0.31,-0.89895 -0.89904,-1.193475" class="Rest" style="stroke-width:.992"/>
  <path d="M215.706 51.103c1.597 1.488 3.968 1.488 5.565 0 1.488-1.597 1.488-3.968 0-5.456-1.596-1.597-3.968-1.597-5.564 0-1.488 1.488-1.488 3.859 0 5.456M270.906 51.103c1.597 1.488 3.968 1.488 5.565 0 1.488-1.597 1.488-3.968 0-5.456-1.596-1.597-3.968-1.597-5.564 0-1.488 1.488-1.488 3.859 0 5.456M326.106 51.103c1.597 1.488 3.968 1.488 5.565 0 1.488-1.597 1.488-3.968 0-5.456-1.596-1.597-3.968-1.597-5.564 0-1.488 1.488-1.488 3.859 0 5.456M381.306 51.103c1.597 1.488 3.968 1.488 5.565 0 1.488-1.597 1.488-3.968 0-5.456-1.596-1.597-3.968-1.597-5.564 0-1.488 1.488-1.488 3.859 0 5.456M468.069 51.103c1.597 1.488 3.968 1.488 5.565 0 1.488-1.597 1.488-3.968 0-5.456-1.596-1.597-3.968-1.597-5.564 0-1.488 1.488-1.488 3.859 0 5.456" class="Articulation" style="stroke-width:.992"/>
  <path fill-rule="evenodd" d="M202.399 153.713h168.08v12.4h-168.08v-12.4M202.399 135.113h168.08v12.4h-168.08v-12.4" class="Beam"/>
  <path d="M212.355 208.562c-1.593 3.593-3.296 5.047-5.89 5.047-4 0-6.5-3.657-6.5-9.5 0-6.11 2.453-10.11 6.14-10.11 1.5 0 2.813.703 2.813 1.5 0 .156-.063.313-.313.61-.796.953-1 1.453-1 2.296 0 1.657 1.25 2.797 3 2.797 1.813 0 3.063-1.39 3.063-3.39 0-3.407-3.359-5.953-7.813-5.953-6.5 0-11.14 5.296-11.14 12.796 0 7.094 4.25 12 10.453 12 4.437 0 7-2.046 9.141-7.343l-1.954-.75m25.25-8.75c0-3.157-.546-4.75-2-5.953-1.64-1.36-4.093-2-7.296-2-5.641 0-9.75 2.64-9.75 6.296 0 1.844 1.156 3.047 2.906 3.047 1.594 0 2.703-1.047 2.703-2.547 0-.656-.25-1.343-.75-2.046-.313-.36-.359-.454-.359-.704 0-1 2-1.906 4.406-1.906 1.594 0 3.344.5 4.14 1.25.954.813 1.313 2 1.313 4.25v1.953c-5.203.907-6.859 1.297-9.313 2.25-4.343 1.61-6.39 3.907-6.39 7.11 0 3.593 2.797 5.843 7.25 5.843 3.453 0 6.547-1.406 8.703-3.953.797 2.547 2.047 3.547 4.391 3.547 2.25 0 4.609-1.437 4.609-2.89 0-.36-.203-.61-.5-.61-.203 0-.406.063-.75.203-.703.297-1 .36-1.406.36-1.407 0-1.907-.907-1.907-3.453v-10.047m-4.687 6.093c0 3-.156 3.704-1 5-1.25 1.844-3.5 3.094-5.703 3.094-2.297 0-3.953-1.64-3.953-3.89 0-2.11 1.047-3.61 3.25-4.657 1.547-.703 3.5-1.203 7.406-1.843v2.296M267.555 208.562c-1.593 3.593-3.296 5.047-5.89 5.047-4 0-6.5-3.657-6.5-9.5 0-6.11 2.453-10.11 6.14-10.11 1.5 0 2.813.703 2.813 1.5 0 .156-.063.313-.313.61-.796.953-1 1.453-1 2.296 0 1.657 1.25 2.797 3 2.797 1.813 0 3.063-1.39 3.063-3.39 0-3.407-3.359-5.953-7.813-5.953-6.5 0-11.14 5.296-11.14 12.796 0 7.094 4.25 12 10.453 12 4.437 0 7-2.046 9.141-7.343l-1.954-.75m25.25-8.75c0-3.157-.546-4.75-2-5.953-1.64-1.36-4.093-2-7.296-2-5.641 0-9.75 2.64-9.75 6.296 0 1.844 1.156 3.047 2.906 3.047 1.594 0 2.703-1.047 2.703-2.547 0-.656-.25-1.343-.75-2.046-.313-.36-.359-.454-.359-.704 0-1 2-1.906 4.406-1.906 1.594 0 3.344.5 4.14 1.25.954.813 1.313 2 1.313 4.25v1.953c-5.203.907-6.859 1.297-9.313 2.25-4.343 1.61-6.39 3.907-6.39 7.11 0 3.593 2.797 5.843 7.25 5.843 3.453 0 6.547-1.406 8.703-3.953.797 2.547 2.047 3.547 4.391 3.547 2.25 0 4.609-1.437 4.609-2.89 0-.36-.203-.61-.5-.61-.203 0-.406.063-.75.203-.703.297-1 .36-1.406.36-1.407 0-1.907-.907-1.907-3.453v-10.047m-4.687 6.093c0 3-.156 3.704-1 5-1.25 1.844-3.5 3.094-5.703 3.094-2.297 0-3.953-1.64-3.953-3.89 0-2.11 1.047-3.61 3.25-4.657 1.547-.703 3.5-1.203 7.406-1.843v2.296M322.755 208.562c-1.593 3.593-3.296 5.047-5.89 5.047-4 0-6.5-3.657-6.5-9.5 0-6.11 2.453-10.11 6.14-10.11 1.5 0 2.813.703 2.813 1.5 0 .156-.063.313-.313.61-.796.953-1 1.453-1 2.296 0 1.657 1.25 2.797 3 2.797 1.813 0 3.063-1.39 3.063-3.39 0-3.407-3.359-5.953-7.813-5.953-6.5 0-11.14 5.296-11.14 12.796 0 7.094 4.25 12 10.453 12 4.437 0 7-2.046 9.141-7.343l-1.954-.75m25.25-8.75c0-3.157-.546-4.75-2-5.953-1.64-1.36-4.093-2-7.296-2-5.641 0-9.75 2.64-9.75 6.296 0 1.844 1.156 3.047 2.906 3.047 1.594 0 2.703-1.047 2.703-2.547 0-.656-.25-1.343-.75-2.046-.313-.36-.359-.454-.359-.704 0-1 2-1.906 4.406-1.906 1.594 0 3.344.5 4.14 1.25.954.813 1.313 2 1.313 4.25v1.953c-5.203.907-6.859 1.297-9.313 2.25-4.343 1.61-6.39 3.907-6.39 7.11 0 3.593 2.797 5.843 7.25 5.843 3.453 0 6.547-1.406 8.703-3.953.797 2.547 2.047 3.547 4.391 3.547 2.25 0 4.609-1.437 4.609-2.89 0-.36-.203-.61-.5-.61-.203 0-.406.063-.75.203-.703.297-1 .36-1.406.36-1.407 0-1.907-.907-1.907-3.453v-10.047m-4.687 6.093c0 3-.156 3.704-1 5-1.25 1.844-3.5 3.094-5.703 3.094-2.297 0-3.953-1.64-3.953-3.89 0-2.11 1.047-3.61 3.25-4.657 1.547-.703 3.5-1.203 7.406-1.843v2.296M377.955 208.562c-1.593 3.593-3.296 5.047-5.89 5.047-4 0-6.5-3.657-6.5-9.5 0-6.11 2.453-10.11 6.14-10.11 1.5 0 2.813.703 2.813 1.5 0 .156-.063.313-.313.61-.796.953-1 1.453-1 2.296 0 1.657 1.25 2.797 3 2.797 1.813 0 3.063-1.39 3.063-3.39 0-3.407-3.359-5.953-7.813-5.953-6.5 0-11.14 5.296-11.14 12.796 0 7.094 4.25 12 10.453 12 4.437 0 7-2.046 9.141-7.343l-1.954-.75m25.25-8.75c0-3.157-.546-4.75-2-5.953-1.64-1.36-4.093-2-7.296-2-5.641 0-9.75 2.64-9.75 6.296 0 1.844 1.156 3.047 2.906 3.047 1.594 0 2.703-1.047 2.703-2.547 0-.656-.25-1.343-.75-2.046-.313-.36-.359-.454-.359-.704 0-1 2-1.906 4.406-1.906 1.594 0 3.344.5 4.14 1.25.954.813 1.313 2 1.313 4.25v1.953c-5.203.907-6.859 1.297-9.313 2.25-4.343 1.61-6.39 3.907-6.39 7.11 0 3.593 2.797 5.843 7.25 5.843 3.453 0 6.547-1.406 8.703-3.953.797 2.547 2.047 3.547 4.391 3.547 2.25 0 4.609-1.437 4.609-2.89 0-.36-.203-.61-.5-.61-.203 0-.406.063-.75.203-.703.297-1 .36-1.406.36-1.407 0-1.907-.907-1.907-3.453v-10.047m-4.687 6.093c0 3-.156 3.704-1 5-1.25 1.844-3.5 3.094-5.703 3.094-2.297 0-3.953-1.64-3.953-3.89 0-2.11 1.047-3.61 3.25-4.657 1.547-.703 3.5-1.203 7.406-1.843v2.296M450.328 179.452h-1.906l-2 2.953c-3.641-2.656-5.5-3.359-8.953-3.359-4.75 0-8.797 2-12.141 6-3.203 3.813-4.703 8.016-4.703 13.156 0 10.797 7.047 18.453 16.906 18.453 8 0 13.094-4.703 14.25-13.093l-2.359-.407c-1.344 7.454-5.141 11.157-11.297 11.157-7.406 0-10.906-5.11-10.906-15.907 0-5.703.75-9.453 2.453-12.453 1.547-2.797 4.609-4.547 7.859-4.547 3.5 0 6.594 1.844 8.5 5.047.953 1.657 1.641 3.5 2.844 7.453h2.203l-.75-14.453m25.641 20.36c0-3.157-.547-4.75-2-5.953-1.641-1.36-4.094-2-7.297-2-5.641 0-9.75 2.64-9.75 6.296 0 1.844 1.156 3.047 2.906 3.047 1.594 0 2.703-1.047 2.703-2.547 0-.656-.25-1.343-.75-2.046-.312-.36-.359-.454-.359-.704 0-1 2-1.906 4.406-1.906 1.594 0 3.344.5 4.141 1.25.953.813 1.312 2 1.312 4.25v1.953c-5.203.907-6.859 1.297-9.312 2.25-4.344 1.61-6.391 3.907-6.391 7.11 0 3.593 2.797 5.843 7.25 5.843 3.453 0 6.547-1.406 8.703-3.953.797 2.547 2.047 3.547 4.391 3.547 2.25 0 4.609-1.437 4.609-2.89 0-.36-.203-.61-.5-.61-.203 0-.406.063-.75.203-.703.297-1 .36-1.406.36-1.406 0-1.906-.907-1.906-3.453v-10.047m-4.688 6.093c0 3-.156 3.704-1 5-1.25 1.844-3.5 3.094-5.703 3.094-2.297 0-3.953-1.64-3.953-3.89 0-2.11 1.047-3.61 3.25-4.657 1.547-.703 3.5-1.203 7.406-1.843v2.296m35.453 3.547-4.906-12.843c-.156-.36-.203-.657-.203-1.047 0-.907.453-1.157 2.094-1.157h1.203v-1.796h-11.203v1.796h.859c1.594.047 2.25.454 2.641 1.844l.406 1.313-4.406 11.64-4.844-12.547c-.094-.343-.203-.796-.203-1.093 0-.86.547-1.157 2.047-1.157h.906v-1.796h-11v1.796h.906c1.391.047 2.047.657 2.594 2.454l7.5 19.796h1.75l5.953-15.796 6.094 15.796h1.562l7-18.453c1.094-2.953 1.844-3.75 3.688-3.797h.359v-1.796h-9.453v1.796h.844c1.75 0 2.453.5 2.453 1.844 0 .5-.141 1.156-.391 1.813l-4.25 11.39" class="Lyrics"/>
</svg>
