<?xml version="1.0" encoding="utf-8"?>
<svg xmlns="http://www.w3.org/2000/svg" version="1.2" viewBox="0 0 1003.442 176.39">
	<title>Three bars of musical notation depicting the call of Silverspot the Crow. This call would translate in English to “attention.”</title>
	<path d="m 0,34.546875 v 2.730469 h 45.376953 c -0.04427,-0.928961 -0.06996,-1.828205 -0.08008,-2.730469 z m 50.613281,0 c -0.0708,0.889995 -0.116932,1.800238 -0.140625,2.730469 h 12.449219 c 0.494142,-0.888303 0.942585,-1.797856 1.333984,-2.730469 z m 20.890625,0 c -0.113931,0.921852 -0.253629,1.831852 -0.417969,2.730469 H 232.14453 v -2.730469 z m 163.121094,0 v 2.730469 h 202.05469 v -2.728516 h 4.46093 v 2.728516 h 60.7461 v -2.730469 z m 269.74219,0 v 2.730469 h 202.05468 v -2.728516 h 4.46094 v 2.728516 h 60.75 v -2.730469 z m 269.74609,0 v 2.730469 h 202.04883 v -2.728516 h 4.46094 v 2.728516 h 9.17968 v -2.728516 h 13.63867 v -0.002 z M 0,59.347656 v 2.730469 h 40.044922 c 0.02794,-0.02608 0.05611,-0.05212 0.08398,-0.07813 0.71414,-0.580917 1.793511,-1.583259 2.90625,-2.652344 z m 61.146484,0 c -0.678091,0.921177 -1.381466,1.83102 -2.109375,2.730469 h 57.958981 c 1.85146,-1.166742 4.03562,-2.110821 6.60743,-2.730469 z m 77.769536,0 c 2.78293,0.634288 5.01094,1.596058 6.79492,2.730469 h 86.43359 v -2.730469 z m 95.70898,0 v 2.730469 h 202.05469 v -2.730469 z m 206.51562,0 v 2.730469 h 60.7461 v -2.730469 z m 63.22657,0 v 2.730469 h 202.05468 v -2.730469 z m 206.51562,0 v 2.730469 h 60.75 v -2.730469 z m 63.23047,0 v 2.730469 h 202.04883 v -2.730469 z m 206.50977,0 v 2.730469 h 9.17968 V 59.347656 Z M 0,84.148437 v 2.728516 h 21.367187 c 0.351992,-0.932669 0.732283,-1.841872 1.136719,-2.728516 z m 37.453125,0 c -0.729138,0.886802 -1.43201,1.79686 -2.103516,2.728516 h 14.228516 c 0.943252,-0.468048 1.929052,-0.858805 2.951172,-1.162109 -0.08773,-0.512751 -0.175602,-1.034825 -0.263672,-1.566407 z m 19.396484,0 c 0.04831,0.289475 0.09621,0.579197 0.144532,0.869141 3.663945,0 7.080738,0.64826 10.140625,1.859375 h 39.820314 c -0.0437,-0.917833 -0.0667,-1.82983 -0.0762,-2.728516 z m 63.507811,0 v 2.728516 h 94.23242 c 2.90061,-1.306534 6.00537,-2.060547 8.93555,-2.060547 2.86698,0 5.47541,0.709668 7.44336,2.060547 h 1.17578 v -2.728516 z m 114.26758,0 v 2.728516 h 50.18164 l -2.26172,-2.728516 z m 51.10742,0 2.30274,2.728516 h 148.64453 v -2.728516 h -68.16602 v 0.373047 c 0,1.395 1e-4,1.394532 -1.3789,1.394532 h -29.4668 c -1.395,0 -1.39453,4.68e-4 -1.39453,-1.394532 v -0.373047 z m 155.4082,0 v 2.728516 h 43.19336 c 2.90061,-1.306534 6.00537,-2.060547 8.93555,-2.060547 2.86702,0 5.4754,0.709646 7.44336,2.060547 h 1.17383 v -2.728516 z m 63.22657,0 v 2.728516 h 50.18359 l -2.26172,-2.728516 z m 51.10937,0 2.30274,2.728516 h 148.64257 v -2.728516 h -68.16601 v 0.373047 c 0,1.395 9e-5,1.394532 -1.37891,1.394532 h -29.46679 c -1.395,0 -1.39454,4.68e-4 -1.39454,-1.394532 v -0.373047 z m 155.40625,0 v 2.728516 h 43.19141 c 2.90061,-1.306534 6.00536,-2.060547 8.93555,-2.060547 2.86636,0 5.47405,0.710001 7.4414,2.060547 h 1.18164 v -2.728516 z m 63.23047,0 v 2.728516 h 50.17969 l -2.26172,-2.728516 z m 51.10547,0 2.30273,2.728516 h 148.64063 v -2.728516 h -68.16016 v 0.373047 c 0,1.395 1e-4,1.394532 -1.3789,1.394532 h -29.4668 c -1.39494,0 -1.39453,2.87e-4 -1.39453,-1.394532 v -0.373047 z m 155.4043,0 v 2.728516 h 9.17968 V 84.148437 Z M 0,108.94727 v 2.73046 h 20.035156 c -0.280703,-0.89419 -0.521663,-1.80488 -0.722656,-2.73046 z m 28.339844,0 c 0.08724,0.93304 0.222874,1.84363 0.404297,2.73046 h 9.257812 c -0.256169,-0.9195 -0.440511,-1.83711 -0.544922,-2.73046 z m 15.939453,0 c -0.05809,0.47759 -0.08789,0.96434 -0.08789,1.45898 0,0.44225 0.01897,0.86555 0.05469,1.27148 h 12.658203 l -0.482422,-2.73046 z m 16.609375,0 c 0.150352,0.88577 0.30406,1.79823 0.46289,2.73046 h 12.988282 c -0.03792,-0.94547 -0.152255,-1.85706 -0.335938,-2.73046 z m 21.177734,0 c 0.01439,0.38464 0.02148,0.77269 0.02148,1.16406 0,0.52268 -0.01937,1.04512 -0.05664,1.5664 h 354.64844 v -2.73046 h -213.8418 c -2.93756,1.35858 -6.15558,2.15625 -9.32617,2.15625 -3.40228,0 -5.91508,-0.85127 -7.68164,-2.15625 h -67.49024 c -1.63111,0.3861 -3.36841,0.58203 -5.17968,0.58203 -2.90991,0 -5.4995,-0.20358 -7.80274,-0.58203 z m 359.074214,0 v 2.73046 h 265.28125 v -2.73046 H 492.58203 c -2.93756,1.35858 -6.15558,2.15625 -9.32617,2.15625 -3.40228,0 -5.91508,-0.85127 -7.68164,-2.15625 z m 269.74219,0 v 2.73046 h 265.2793 v -2.73046 h -213.8418 c -2.93756,1.35858 -6.15558,2.15625 -9.32617,2.15625 -3.40228,0 -5.91353,-0.85127 -7.67969,-2.15625 z m 269.74024,0 v 2.73046 h 9.17968 v -2.73046 z M 0,133.74805 v 2.73047 h 61.402344 c -0.112457,-0.57911 -0.228763,-1.16823 -0.347657,-1.76758 -2.278524,0.40295 -4.96065,0.69726 -7.828125,0.69726 -3.686426,0 -7.280832,-0.5816 -10.673828,-1.66015 z m 65.150391,0 c 0.147807,0.96723 0.295233,1.87788 0.439453,2.73047 H 1003.4414 v -0.002 h -13.63867 v -2.72851 h -9.17968 v 2.72851 h -4.46094 v -2.72851 h -265.2793 v 2.72851 h -4.46094 v -2.72851 H 441.14062 v 2.72851 h -4.46093 v -2.72851 z" style="baseline-shift:baseline;display:inline;overflow:visible;opacity:1;vector-effect:none;stroke-linejoin:bevel;enable-background:accumulate;stop-color:#000;stop-opacity:1"/>
	<path d="M436.68 34.549V136.477h4.461V34.549Zm269.742 0V136.477h4.461V34.549Zm269.74 0V136.477h4.461V34.549ZM989.803 34.549V136.477h13.639V34.549ZM232.145 17.313v70.523c1.451 1.406 2.36 3.282 2.48 5.582V17.313Zm269.742 0v70.521c1.444 1.399 2.352 3.262 2.48 5.547V17.313Zm269.746 0v70.529c1.474 1.431 2.388 3.347 2.48 5.703V17.313Z" style="baseline-shift:baseline;display:inline;overflow:visible;opacity:1;vector-effect:none;stroke-linejoin:bevel;enable-background:accumulate;stop-color:#000;stop-opacity:1"/>
	<path d="M223.525 84.816c-9.625 0-21.127 8.136-21.127 17.266 0 4.263 3.069 9.021 11.113 9.021 10.308 0 21.127-8.431 21.127-17.158 0-5.859-4.96-9.129-11.113-9.129zm269.744 0c-9.625 0-21.127 8.136-21.127 17.266 0 4.263 3.069 9.021 11.113 9.021 10.308 0 21.127-8.431 21.127-17.158 0-5.859-4.96-9.129-11.113-9.129zm269.74 0c-9.625 0-21.127 8.136-21.127 17.266 0 4.263 3.067 9.021 11.111 9.021 10.308 0 21.127-8.431 21.127-17.158 0-5.859-4.958-9.129-11.111-9.129zM290.57 64.402c-.403 0-.9-.001-1.303.107-3.472.589-5.952 3.658-5.844 7.037v.791c.295 1.891 1.194 3.472 2.48 4.572-1.596-.109-3.178-.497-4.666-1.303-4.867-2.573-8.834-7.936-9.221-8.432-.294-.294-.697-.588-1.193-.588h-.201c-.201 0-.496-.001-.697.092-.387.31-.588.699-.588 1.102 0 .201.093.496.295.791l18.258 22.025c-1.782-.698-3.471-.992-5.16-.992-.791 0-1.581.093-2.279.201-1.984.295-3.875.993-5.254 1.877-2.185 1.286-3.581 3.672-3.473 6.246v.992c.589 3.472 3.565 6.061 7.037 6.061.403 0 .791-.109 1.193-.109 3.472-.589 5.843-3.564 5.951-6.943 0-.295.001-.588-.107-.883-.186-1.891-1.085-3.473-2.48-4.666 1.596.093 3.287.496 4.775 1.287 4.851 2.589 8.633 7.64 9.129 8.23l.682.9c.403.494 1.101.787 1.688.787.201 0 .496-.093.697-.201.295-.186.496-.497.496-.885 0-.294-.092-.604-.402-.992l-19.346-22.924c1.891.806 3.876 1.193 5.658 1.193.791 0 1.489-.093 2.186-.201 1.984-.295 3.767-.992 5.162-1.984 2.185-1.178 3.564-3.566 3.564-6.139 0-.31-.001-.695-.094-.99-.496-3.58-3.58-6.061-6.943-6.061zm269.742 0c-.403 0-.898-.001-1.301.107-3.472.589-5.952 3.658-5.844 7.037v.791c.295 1.891 1.193 3.472 2.479 4.572-1.596-.109-3.176-.497-4.664-1.303-4.867-2.573-8.836-7.936-9.223-8.432-.294-.294-.697-.588-1.193-.588h-.201c-.201 0-.494-.001-.695.092-.387.31-.59.699-.59 1.102 0 .201.093.496.295.791l18.26 22.025c-1.782-.698-3.473-.992-5.162-.992-.791 0-1.581.093-2.279.201-1.984.295-3.875.993-5.254 1.877-2.185 1.286-3.579 3.672-3.471 6.246v.992c.589 3.472 3.565 6.061 7.037 6.061.403 0 .789-.109 1.191-.109 3.472-.589 5.845-3.564 5.953-6.943 0-.295.001-.588-.107-.883-.186-1.891-1.085-3.473-2.48-4.666 1.596.093 3.285.496 4.773 1.287 4.851 2.589 8.633 7.64 9.129 8.23l.682.9v-.004c.403.496 1.101.791 1.689.791.201 0 .494-.093.695-.201.295-.186.496-.497.496-.885 0-.294-.092-.604-.402-.992L550.781 78.584c1.891.806 3.874 1.193 5.656 1.193.791 0 1.489-.093 2.186-.201 1.984-.295 3.767-.992 5.162-1.984 2.185-1.178 3.564-3.566 3.564-6.139 0-.31.001-.695-.092-.99-.496-3.58-3.582-6.061-6.945-6.061zm269.744 0c-.403 0-.9-.001-1.303.107-3.472.589-5.952 3.658-5.844 7.037v.791c.295 1.891 1.194 3.472 2.48 4.572-1.596-.109-3.178-.497-4.666-1.303-4.867-2.573-8.834-7.936-9.221-8.432-.294-.294-.697-.588-1.193-.588h-.201c-.201 0-.496-.001-.697.092-.387.31-.59.699-.59 1.102 0 .201.093.496.295.791l18.26 22.025c-1.782-.698-3.471-.992-5.16-.992-.791 0-1.581.093-2.279.201-1.984.295-3.875.993-5.254 1.877-2.185 1.286-3.581 3.672-3.473 6.246v.992c.589 3.472 3.565 6.061 7.037 6.061.403 0 .791-.109 1.193-.109 3.472-.589 5.843-3.564 5.951-6.943 0-.295.001-.588-.107-.883-.186-1.891-1.085-3.473-2.48-4.666 1.596.093 3.285.496 4.773 1.287 4.851 2.589 8.633 7.64 9.129 8.23l.684.9c.403.494 1.101.787 1.688.787.201 0 .496-.093.697-.201.295-.186.496-.497.496-.885 0-.294-.094-.604-.404-.992L820.523 78.584c1.891.806 3.876 1.193 5.658 1.193.791 0 1.487-.093 2.184-.201 1.984-.295 3.767-.992 5.162-1.984 2.185-1.178 3.566-3.566 3.566-6.139 0-.31-.001-.695-.094-.99-.496-3.58-3.58-6.061-6.943-6.061zM60.465 0c-.697 0-3.767 1.193-7.037 5.053-6.355 7.548-8.137 20.243-8.137 28.566 0 5.363.496 10.23 2.186 21.344-.109.093-5.271 5.348-7.348 7.037-9.036 8.432-21.529 20.43-21.529 40.285 0 18.538 16.166 33.123 34.627 33.123 2.867 0 5.55-.294 7.828-.697 1.891 9.532 2.977 16.476 2.977 21.73 0 10.323-5.255 15.779-15.268 15.779-2.387 0-4.464-.496-4.666-.496-.093-.109-.295-.202-.295-.295 0-.201.202-.309.496-.402 4.665-.697 9.316-4.666 9.316-11.006 0-5.363-4.062-11.02-11.502-11.02-6.944 0-11.408 5.656-11.408 12.197 0 6.557 5.053 15.191 18.445 15.191 4.665 0 8.742-1.193 12.307-3.379 5.363-3.766 6.742-10.324 6.742-16.57 0-3.859-.588-8.323-1.58-13.98-.295-1.984-.899-4.961-1.488-8.836 9.718-3.177 16.957-13.299 16.957-23.514 0-14.973-10.617-25.094-25.094-25.094-.992-5.952-1.984-11.81-2.883-17.359 10.525-11.021 17.762-23.422 17.762-39.186 0-9.037-2.775-16.367-4.371-19.947C65.13 3.472 62.247 0 60.465 0Zm1.689 14.385c1.488 0 3.859 4.85 3.859 11.701 0 10.323-7.626 18.058-14.477 24.801-.589-3.968-1.084-7.829-1.084-11.998 0-3.673.294-7.052 1.084-10.121.899-3.968 5.456-14.383 10.617-14.383zM50.252 71.625c.883 5.347 1.58 10.013 2.277 14.09-9.036 2.681-15.174 12.198-15.174 21.529 0 6.944 5.455 16.461 13.391 16.461.79 0 1.691-.404 1.691-1.287 0-.899-.992-1.395-2.186-2.186-3.875-2.387-6.061-4.959-6.061-9.826 0-6.045 4.463-10.912 10.322-12.291l5.75 32.627c-1.984.403-3.859.605-5.75.605-14.182 0-26.289-9.922-26.289-24.91 0-12.09 8.526-22.909 17.268-30.457 1.674-1.488 3.272-2.867 4.76-4.355zm8.725 25.885c8.928 0 15.377 6.061 15.377 14.881 0 7.052-2.883 14.291-9.92 17.174-2.077-11.904-4.759-27.684-5.457-32.055zM130.975 58.533c-21.623 0-24.102 17.95-24.102 24.398 0 11.811 1.487 26.598 26.287 26.598 9.827 0 17.47-5.767 17.857-16.385 0-.496-.295-.789-.791-.789h-1.287c-.403 0-.789.402-.789.789-.403 8.246-6.264 13.207-14.99 13.207-8.633 0-12.803-4.666-12.803-13.393V74.002c0-5.549 2.187-11.902 11.021-11.902 4.666 0 6.741 1.689 7.842 3.379.093.201.094.295.094.496 0 .093 0 .294-.201.387-2.48 1.597-4.264 4.463-4.264 7.641 0 .403.001.792.094 1.195.496 4.061 3.783 7.238 7.844 7.734h1.084c4.96 0 8.928-3.97 8.928-8.93v-.588c0-.403-.093-1.101-.186-1.488-.899-4.263-4.775-13.393-21.639-13.393zM337.668 72.416c-1.395 0-1.395 0-1.395 1.395v10.711c0 1.395 0 1.395 1.395 1.395h29.467c1.379 0 1.379 0 1.379-1.395V73.811c0-1.395 0-1.395-1.379-1.395zm269.742 0c-1.395 0-1.395 0-1.395 1.395v10.711c0 1.395 0 1.395 1.395 1.395h29.467c1.379 0 1.379 0 1.379-1.395V73.811c0-1.395 0-1.395-1.379-1.395zm269.746 0c-1.395 0-1.395 0-1.395 1.395v10.711c0 1.395 0 1.395 1.395 1.395h29.467c1.379 0 1.379 0 1.379-1.395V73.811c0-1.395 0-1.395-1.379-1.395zM218.488 118.828c-.992 0-1.983.399-2.781 1.197-1.488 1.488-1.488 3.859 0 5.455 1.597 1.487 3.968 1.488 5.564 0 1.488-1.596 1.488-3.967 0-5.455-.798-.798-1.791-1.197-2.783-1.197zm269.744 0c-.992 0-1.985.399-2.783 1.197-1.488 1.488-1.488 3.859 0 5.455 1.597 1.488 3.967 1.488 5.564 0 1.488-1.596 1.488-3.967 0-5.455-.798-.798-1.789-1.197-2.781-1.197zm269.738 0c-.992 0-1.985.399-2.783 1.197-1.488 1.488-1.488 3.859 0 5.455 1.597 1.488 3.967 1.488 5.564 0 1.488-1.596 1.488-3.967 0-5.455-.798-.798-1.789-1.197-2.781-1.197z" style="stroke-width:.992"/>
</svg>
