<?xml version="1.0" encoding="utf-8"?>
<svg xmlns="http://www.w3.org/2000/svg" version="1.2" viewBox="0 0 311 222">
	<title>One bar of musical notation depicting the call of Silverspot the Crow, which reads “Ca.” This call would translate in English to “danger.”</title>
	<path d="m 0,34.546875 v 2.730469 h 45.376953 c -0.04427,-0.928961 -0.06996,-1.828205 -0.08008,-2.730469 z m 50.613281,0 c -0.0708,0.889995 -0.116932,1.800238 -0.140625,2.730469 h 12.449219 c 0.494142,-0.888303 0.942585,-1.797856 1.333984,-2.730469 z m 20.890625,0 c -0.113931,0.921852 -0.253629,1.831852 -0.417969,2.730469 H 284.19531 v -2.728516 h 4.46094 v 2.728516 h 9.17773 v -2.728516 h 13.63868 v -0.002 z M 0,59.347656 v 2.730469 h 40.044922 c 0.02794,-0.02608 0.05611,-0.05212 0.08398,-0.07813 0.71414,-0.580917 1.793511,-1.583259 2.90625,-2.652344 z m 61.146484,0 c -0.678091,0.921177 -1.381466,1.83102 -2.109375,2.730469 H 284.19531 v -2.730469 z m 227.509766,0 v 2.730469 h 9.17773 V 59.347656 Z M 0,84.148437 v 2.728516 h 21.367187 c 0.351992,-0.932669 0.732283,-1.841872 1.136719,-2.728516 z m 37.453125,0 c -0.729138,0.886802 -1.43201,1.79686 -2.103516,2.728516 h 14.228516 c 0.943252,-0.468048 1.929052,-0.858805 2.951172,-1.162109 -0.08773,-0.512751 -0.175602,-1.034825 -0.263672,-1.566407 z m 19.396484,0 c 0.04831,0.289475 0.09621,0.579197 0.144532,0.869141 3.663945,0 7.080738,0.64826 10.140625,1.859375 h 77.294924 c 0.23655,-0.931517 0.58609,-1.843804 1.03125,-2.728516 z m 119.148441,0 c -0.22132,0.925804 -0.55401,1.838709 -0.98633,2.728516 h 109.18359 v -2.728516 z m 112.6582,0 v 2.728516 h 9.17773 V 84.148437 Z M 0,108.94727 v 2.73046 h 20.035156 c -0.280703,-0.89419 -0.521663,-1.80488 -0.722656,-2.73046 z m 28.339844,0 c 0.08724,0.93304 0.222874,1.84363 0.404297,2.73046 h 9.257812 c -0.256169,-0.9195 -0.440511,-1.83711 -0.544922,-2.73046 z m 15.939453,0 c -0.05809,0.47759 -0.08789,0.96434 -0.08789,1.45898 0,0.44225 0.01897,0.86555 0.05469,1.27148 h 12.658203 l -0.482422,-2.73046 z m 16.609375,0 c 0.150352,0.88577 0.30406,1.79823 0.46289,2.73046 h 12.988282 c -0.03792,-0.94547 -0.152255,-1.85706 -0.335938,-2.73046 z m 21.177734,0 c 0.01439,0.38464 0.02148,0.77269 0.02148,1.16406 0,0.52268 -0.01937,1.04512 -0.05664,1.5664 h 62.04297 v -2.73046 z m 64.486324,0 v 2.73046 h 137.64258 v -2.73046 z m 142.10352,0 v 2.73046 h 9.17773 v -2.73046 z M 0,133.74805 v 2.73047 h 61.402344 c -0.112457,-0.57911 -0.228763,-1.16823 -0.347657,-1.76758 -2.278524,0.40295 -4.96065,0.69726 -7.828125,0.69726 -3.686426,0 -7.280832,-0.5816 -10.673828,-1.66015 z m 65.150391,0 c 0.147807,0.96723 0.295233,1.87788 0.439453,2.73047 h 78.484376 v -2.73047 z m 81.402339,0 v 2.73047 h 164.91993 v -0.002 h -13.63868 v -2.72851 h -9.17773 v 2.72851 h -4.46094 v -2.72851 z" style="baseline-shift:baseline;display:inline;overflow:visible;opacity:1;vector-effect:none;stroke-linejoin:bevel;enable-background:accumulate;stop-color:#000;stop-opacity:1"/>
	<path d="M284.195 34.549V136.477h4.461V34.549ZM297.834 34.549V136.477h13.639V34.549ZM144.074 89.869v70.043h2.479V95.734c-1.68-1.664-2.435-3.814-2.479-5.865z" style="baseline-shift:baseline;display:inline;overflow:visible;opacity:1;vector-effect:none;stroke-linejoin:bevel;enable-background:accumulate;stop-color:#000;stop-opacity:1"/>
	<path d="M165.199 72.416c-9.625 0-21.127 8.138-21.127 17.268 0 4.262 3.069 9.02 11.113 9.02 10.308 0 21.127-8.432 21.127-17.158 0-5.859-4.96-9.129-11.113-9.129zM60.465 0c-.697 0-3.767 1.193-7.037 5.053-6.355 7.548-8.137 20.243-8.137 28.566 0 5.363.496 10.23 2.186 21.344-.109.093-5.271 5.348-7.348 7.037-9.036 8.432-21.529 20.43-21.529 40.285 0 18.538 16.166 33.123 34.627 33.123 2.867 0 5.55-.294 7.828-.697 1.891 9.532 2.977 16.476 2.977 21.73 0 10.323-5.255 15.779-15.268 15.779-2.387 0-4.464-.496-4.666-.496-.093-.109-.295-.202-.295-.295 0-.201.202-.309.496-.402 4.665-.697 9.316-4.666 9.316-11.006 0-5.363-4.062-11.02-11.502-11.02-6.944 0-11.408 5.656-11.408 12.197 0 6.557 5.053 15.191 18.445 15.191 4.665 0 8.742-1.193 12.307-3.379 5.363-3.766 6.742-10.324 6.742-16.57 0-3.859-.588-8.323-1.58-13.98-.295-1.984-.899-4.961-1.488-8.836 9.718-3.177 16.957-13.299 16.957-23.514 0-14.973-10.617-25.094-25.094-25.094-.992-5.952-1.984-11.81-2.883-17.359 10.525-11.021 17.762-23.422 17.762-39.186 0-9.037-2.775-16.367-4.371-19.947C65.13 3.472 62.247 0 60.465 0Zm1.689 14.385c1.488 0 3.859 4.85 3.859 11.701 0 10.323-7.626 18.058-14.477 24.801-.589-3.968-1.084-7.829-1.084-11.998 0-3.673.294-7.052 1.084-10.121.899-3.968 5.456-14.383 10.617-14.383zM50.252 71.625c.883 5.347 1.58 10.013 2.277 14.09-9.036 2.681-15.174 12.198-15.174 21.529 0 6.944 5.455 16.461 13.391 16.461.79 0 1.691-.404 1.691-1.287 0-.899-.992-1.395-2.186-2.186-3.875-2.387-6.061-4.959-6.061-9.826 0-6.045 4.463-10.912 10.322-12.291l5.75 32.627c-1.984.403-3.859.605-5.75.605-14.182 0-26.289-9.922-26.289-24.91 0-12.09 8.526-22.909 17.268-30.457 1.674-1.488 3.272-2.867 4.76-4.355zm8.725 25.885c8.928 0 15.377 6.061 15.377 14.881 0 7.052-2.883 14.291-9.92 17.174-2.077-11.904-4.759-27.684-5.457-32.055zM157.383 15.268c-.992 0-1.985.399-2.783 1.197-1.488 1.488-1.488 3.859 0 5.455 1.597 1.488 3.968 1.488 5.564 0 1.488-1.597 1.488-3.967 0-5.455-.798-.798-1.789-1.197-2.781-1.197z" style="stroke-width:.992"/>
	<path d="m 146.2793,184.85352 c -4.75,0 -8.79663,2 -12.14063,6 -3.203,3.813 -4.70312,8.01625 -4.70312,13.15625 0,10.797 7.04725,18.45312 16.90625,18.45312 8,0 13.094,-4.7018 14.25,-13.0918 l -2.35938,-0.4082 c -1.344,7.454 -5.14087,11.1582 -11.29687,11.1582 -7.406,0 -10.90625,-5.1112 -10.90625,-15.9082 0,-5.703 0.75012,-9.45312 2.45312,-12.45312 1.547,-2.797 4.60938,-4.54688 7.85938,-4.54688 3.5,0 6.594,1.84388 8.5,5.04688 0.954,1.657 1.64075,3.50012 2.84375,7.45312 h 2.20312 l -0.75,-14.45312 h -1.90625 l -2,2.95312 c -3.641,-2.656 -5.50012,-3.35937 -8.95312,-3.35937 z m 29.20312,12.81445 c -5.641,0 -9.75,2.63892 -9.75,6.29492 0,1.844 1.15625,3.04688 2.90625,3.04688 1.594,0 2.70313,-1.04688 2.70313,-2.54688 0,-0.656 -0.25,-1.34192 -0.75,-2.04492 -0.312,-0.36 -0.35938,-0.45508 -0.35938,-0.70508 0,-1 2.00025,-1.90625 4.40625,-1.90625 1.594,0 3.34363,0.5 4.14063,1.25 0.953,0.813 1.3125,2 1.3125,4.25 v 1.95313 c -5.203,0.907 -6.8595,1.297 -9.3125,2.25 -4.344,1.61 -6.39063,3.90832 -6.39063,7.11132 0,3.593 2.797,5.8418 7.25,5.8418 3.453,0 6.54713,-1.40612 8.70313,-3.95312 0.797,2.547 2.04662,3.54687 4.39062,3.54687 2.25,0 4.60938,-1.43567 4.60938,-2.88867 0,-0.36 -0.203,-0.61133 -0.5,-0.61133 -0.203,0 -0.406,0.0631 -0.75,0.20313 -0.703,0.297 -1.00025,0.36132 -1.40625,0.36132 -1.406,0 -1.90625,-0.90712 -1.90625,-3.45312 v -10.04688 c 0,-3.157 -0.547,-4.75012 -2,-5.95312 -1.641,-1.36 -4.09388,-2 -7.29688,-2 z m 4.60938,11.75 v 2.29492 c 0,3 -0.156,3.704 -1,5 -1.25,1.844 -3.50013,3.09375 -5.70313,3.09375 -2.297,0 -3.95312,-1.63867 -3.95312,-3.88867 0,-2.11 1.047,-3.6112 3.25,-4.6582 1.547,-0.703 3.50025,-1.2018 7.40625,-1.8418 z"/>
</svg>
