<?xml version="1.0" encoding="utf-8" standalone="no"?>
<svg xmlns="http://www.w3.org/2000/svg" version="1.2" viewBox="0 0 730.232 176.39">
  <title>Two bars of musical notation depicting the call of Silverspot the Crow. This call would translate in English to “all’s well, come right along!”</title>
  <path d="m 0,34.546875 v 2.730469 h 45.376953 c -0.04427,-0.928961 -0.06996,-1.828205 -0.08008,-2.730469 z m 50.613281,0 c -0.0708,0.889995 -0.116932,1.800238 -0.140625,2.730469 h 12.449219 c 0.494142,-0.888303 0.942585,-1.797856 1.333984,-2.730469 z m 20.890625,0 c -0.113931,0.921852 -0.253629,1.831852 -0.417969,2.730469 H 118.25 c 0.10248,-0.933338 0.13867,-1.464844 0.13867,-1.464844 0.094,-0.589 0.59011,-1.195313 1.28711,-1.195313 h 14.78711 c 0.403,0 0.69819,0.203297 0.99219,0.404297 l 2.18554,2.183594 c 0.0156,0.01565 0.0343,0.04008 0.0547,0.07227 h 90.97656 v -1.365235 h 2.48047 v 1.365235 h 202.05664 v -2.728516 h 4.45899 v 2.728516 h 60.74805 v -1.365235 h 2.47851 v 1.365235 h 202.05859 v -2.728516 h 4.45899 v 2.728516 h 9.17969 v -2.728516 h 13.64062 v -0.002 z M 0,59.347656 v 2.730469 h 40.044922 c 0.02794,-0.02608 0.05611,-0.05212 0.08398,-0.07813 0.71414,-0.580917 1.793511,-1.583259 2.90625,-2.652344 z m 61.146484,0 c -0.678091,0.921177 -1.381466,1.83102 -2.109375,2.730469 h 51.728521 c 0.45747,-0.850656 0.91622,-1.758152 1.37304,-2.730469 z m 60.416016,0 c -0.85396,0.993403 -1.64834,1.906359 -2.37109,2.730469 h 6.93164 v -2.730469 z m 17.45703,0 v 2.730469 h 89.65234 v -2.730469 z m 92.13281,0 v 2.730469 h 202.05664 v -2.730469 z m 206.51563,0 v 2.730469 h 60.74805 v -2.730469 z m 63.22656,0 v 2.730469 h 202.05859 v -2.730469 z m 206.51758,0 v 2.730469 h 9.17969 V 59.347656 Z M 0,84.148437 v 2.728516 h 21.367187 c 0.351992,-0.932669 0.732283,-1.841872 1.136719,-2.728516 z m 37.453125,0 c -0.729138,0.886802 -1.43201,1.79686 -2.103516,2.728516 h 14.228516 c 0.943252,-0.468048 1.929052,-0.858805 2.951172,-1.162109 -0.08773,-0.512751 -0.175602,-1.034825 -0.263672,-1.566407 z m 19.396484,0 c 0.04831,0.289475 0.09621,0.579197 0.144532,0.869141 3.663945,0 7.080738,0.64826 10.140625,1.859375 H 118.25 c 0.10245,-0.933328 0.13867,-1.464844 0.13867,-1.464844 0.094,-0.589 0.59011,-1.193359 1.28711,-1.193359 h 14.78711 c 0.403,0 0.69819,0.201344 0.99219,0.402344 l 2.18554,2.185547 c 0.0153,0.01533 0.0329,0.03909 0.0527,0.07031 h 90.97851 v -2.728516 z m 174.302731,0 v 2.728516 h 48.73047 l -2.26172,-2.728516 z m 49.63086,0 2.30274,2.728516 h 150.12304 v -2.728516 h -68.16796 v 0.373047 c 0,1.395 9e-5,1.394532 -1.37891,1.394532 h -29.4668 c -1.39495,0 -1.39453,3.24e-4 -1.39453,-1.394532 v -0.373047 z m 156.88477,0 v 2.728516 h 60.74805 v -2.728516 z m 63.22656,0 v 2.728516 H 549.625 l -2.26172,-2.728516 z m 49.63086,0 2.30273,2.728516 h 150.125 V 84.148437 H 634.7832 v 0.373047 c 0,1.395 1e-4,1.394532 -1.3789,1.394532 h -29.46485 c -1.395,0 -1.39453,4.68e-4 -1.39453,-1.394532 v -0.373047 z m 156.88672,0 v 2.728516 h 9.17969 V 84.148437 Z M 0,108.94727 v 2.73046 h 20.035156 c -0.280703,-0.89419 -0.521663,-1.80488 -0.722656,-2.73046 z m 28.339844,0 c 0.08724,0.93304 0.222874,1.84363 0.404297,2.73046 h 9.257812 c -0.256169,-0.9195 -0.440511,-1.83711 -0.544922,-2.73046 z m 15.939453,0 c -0.05809,0.47759 -0.08789,0.96434 -0.08789,1.45898 0,0.44225 0.01897,0.86555 0.05469,1.27148 h 12.658203 l -0.482422,-2.73046 z m 16.609375,0 c 0.150352,0.88577 0.30406,1.79823 0.46289,2.73046 h 12.988282 c -0.03792,-0.94547 -0.152255,-1.85706 -0.335938,-2.73046 z m 21.177734,0 c 0.01439,0.38464 0.02148,0.77269 0.02148,1.16406 0,0.52268 -0.01937,1.04512 -0.05664,1.5664 h 28.73438 c 0.45753,-0.85063 0.91812,-1.75812 1.375,-2.73046 z m 39.498044,0 c -0.85404,0.9934 -1.64826,1.90636 -2.37109,2.73046 h 6.92969 v -2.73046 z m 17.45508,0 v 2.73046 h 72.09766 c 2.90157,-1.30772 6.00618,-2.0625 8.9375,-2.0625 2.86839,0 5.47702,0.71033 7.44531,2.0625 h 1.17187 v -2.73046 z m 92.13281,0 v 2.73046 h 202.05664 v -2.73046 z m 206.51563,0 v 2.73046 h 43.1914 c 2.90158,-1.30772 6.00619,-2.0625 8.9375,-2.0625 2.86836,0 5.47704,0.71036 7.44532,2.0625 h 1.17383 v -2.73046 z m 63.22656,0 v 2.73046 h 202.05859 v -2.73046 z m 206.51758,0 v 2.73046 h 9.17969 v -2.73046 z M 0,133.74805 v 2.73047 h 61.402344 c -0.112457,-0.57911 -0.228763,-1.16823 -0.347657,-1.76758 -2.278524,0.40295 -4.96065,0.69726 -7.828125,0.69726 -3.686426,0 -7.280832,-0.5816 -10.673828,-1.66015 z m 65.150391,0 c 0.147807,0.96723 0.295233,1.87788 0.439453,2.73047 H 730.23242 v -0.002 H 716.5918 v -2.72851 h -9.17969 v 2.72851 h -4.45899 v -2.72851 H 489.10937 c -2.9373,1.35857 -6.15592,2.15625 -9.32617,2.15625 -3.40227,0 -5.91508,-0.85127 -7.68164,-2.15625 h -34.43359 v 2.72851 h -4.45899 v -2.72851 H 219.36523 c -2.93756,1.35857 -6.15592,2.15625 -9.32617,2.15625 -3.40227,0 -5.91353,-0.85127 -7.67969,-2.15625 z" style="baseline-shift:baseline;display:inline;overflow:visible;opacity:1;vector-effect:none;stroke-linejoin:bevel;enable-background:accumulate;stop-color:#000;stop-opacity:1"/>
  <path d="M433.209 34.549V136.477h4.459V34.549Zm269.744 0V136.477h4.459V34.549ZM716.592 34.549V136.477h13.641V34.549ZM228.672 35.912v76.721c1.444 1.399 2.352 3.262 2.48 5.547V35.912Zm269.744 0v76.723c1.443 1.398 2.351 3.261 2.479 5.545V35.912Z" style="baseline-shift:baseline;display:inline;overflow:visible;opacity:1;vector-effect:none;stroke-linejoin:bevel;enable-background:accumulate;stop-color:#000;stop-opacity:1"/>
  <path d="M220.055 109.615c-9.625 0-21.127 8.138-21.127 17.268 0 4.263 3.067 9.021 11.111 9.021 10.308 0 21.129-8.433 21.129-17.16 0-5.859-4.96-9.129-11.113-9.129zm269.742 0c-9.625 0-21.127 8.138-21.127 17.268 0 4.263 3.069 9.021 11.113 9.021 10.308 0 21.127-8.433 21.127-17.16 0-5.859-4.96-9.129-11.113-9.129zM287.098 66.152c-.403 0-.898.001-1.301.109-3.472.589-5.954 3.658-5.846 7.037v.791c.295 1.891 1.194 3.47 2.48 4.57-1.596-.109-3.176-.495-4.664-1.301-4.867-2.573-8.836-7.936-9.223-8.432-.294-.294-.697-.59-1.193-.59h-.201c-.201 0-.496.001-.697.094-.387.31-.588.697-.588 1.1 0 .201.093.496.295.791l18.26 22.027c-1.782-.698-3.473-.992-5.162-.992-.791 0-1.581.093-2.279.201-1.984.295-3.875.991-5.254 1.875-2.185 1.286-3.579 3.674-3.471 6.248v.992c.589 3.472 3.563 6.059 7.035 6.059.403 0 .791-.107 1.193-.107 3.472-.589 5.845-3.564 5.953-6.943 0-.295-.001-.59-.109-.885-.186-1.891-1.084-3.471-2.479-4.664 1.596.093 3.285.496 4.773 1.287 4.851 2.589 8.633 7.64 9.129 8.23l.682.898v-.004c.403.496 1.1.791 1.688.791.201 0 .496-.093.697-.201.295-.186.496-.495.496-.883 0-.294-.092-.604-.402-.992L277.566 80.336c1.891.806 3.874 1.191 5.656 1.191.791 0 1.489-.093 2.186-.201 1.984-.295 3.767-.99 5.162-1.982 2.185-1.178 3.564-3.566 3.564-6.139 0-.31.001-.697-.092-.992-.496-3.58-3.582-6.061-6.945-6.061zm269.744 0c-.403 0-.9.001-1.303.109-3.472.589-5.952 3.658-5.844 7.037v.791c.295 1.891 1.194 3.47 2.48 4.57-1.596-.109-3.178-.495-4.666-1.301-4.867-2.573-8.836-7.936-9.223-8.432-.294-.294-.695-.59-1.191-.59h-.201c-.201 0-.496.001-.697.094-.387.31-.59.697-.59 1.1 0 .201.093.496.295.791l18.26 22.027c-1.782-.698-3.471-.992-5.16-.992-.791 0-1.581.093-2.279.201-1.984.295-3.875.991-5.254 1.875-2.185 1.286-3.581 3.674-3.473 6.248v.992c.589 3.472 3.565 6.059 7.037 6.059.403 0 .791-.107 1.193-.107 3.472-.589 5.843-3.564 5.951-6.943 0-.295.001-.59-.107-.885-.186-1.891-1.085-3.471-2.48-4.664 1.596.093 3.285.496 4.773 1.287 4.851 2.589 8.633 7.64 9.129 8.23l.684.898c.403.494 1.101.787 1.688.787.201 0 .496-.093.697-.201.295-.186.496-.495.496-.883 0-.294-.094-.604-.404-.992L547.309 80.336c1.891.806 3.876 1.191 5.658 1.191.791 0 1.487-.093 2.184-.201 1.984-.295 3.767-.99 5.162-1.982 2.185-1.178 3.566-3.566 3.566-6.139 0-.31-.001-.697-.094-.992-.496-3.58-3.58-6.061-6.943-6.061zM60.465 0c-.697 0-3.767 1.193-7.037 5.053-6.355 7.548-8.137 20.243-8.137 28.566 0 5.363.496 10.23 2.186 21.344-.109.093-5.271 5.348-7.348 7.037-9.036 8.432-21.529 20.43-21.529 40.285 0 18.538 16.166 33.123 34.627 33.123 2.867 0 5.55-.294 7.828-.697 1.891 9.532 2.977 16.476 2.977 21.73 0 10.323-5.255 15.779-15.268 15.779-2.387 0-4.464-.496-4.666-.496-.093-.109-.295-.202-.295-.295 0-.201.202-.309.496-.402 4.665-.697 9.316-4.666 9.316-11.006 0-5.363-4.062-11.02-11.502-11.02-6.944 0-11.408 5.656-11.408 12.197 0 6.557 5.053 15.191 18.445 15.191 4.665 0 8.742-1.193 12.307-3.379 5.363-3.766 6.742-10.324 6.742-16.57 0-3.859-.588-8.323-1.58-13.98-.295-1.984-.899-4.961-1.488-8.836 9.718-3.177 16.957-13.299 16.957-23.514 0-14.973-10.617-25.094-25.094-25.094-.992-5.952-1.984-11.81-2.883-17.359 10.525-11.021 17.762-23.422 17.762-39.186 0-9.037-2.775-16.367-4.371-19.947C65.13 3.472 62.247 0 60.465 0Zm1.689 14.385c1.488 0 3.859 4.85 3.859 11.701 0 10.323-7.626 18.058-14.477 24.801-.589-3.968-1.084-7.829-1.084-11.998 0-3.673.294-7.052 1.084-10.121.899-3.968 5.456-14.383 10.617-14.383zM50.252 71.625c.883 5.347 1.58 10.013 2.277 14.09-9.036 2.681-15.174 12.198-15.174 21.529 0 6.944 5.455 16.461 13.391 16.461.79 0 1.691-.404 1.691-1.287 0-.899-.992-1.395-2.186-2.186-3.875-2.387-6.061-4.959-6.061-9.826 0-6.045 4.463-10.912 10.322-12.291l5.75 32.627c-1.984.403-3.859.605-5.75.605-14.182 0-26.289-9.922-26.289-24.91 0-12.09 8.526-22.909 17.268-30.457 1.674-1.488 3.272-2.867 4.76-4.355zm8.725 25.885c8.928 0 15.377 6.061 15.377 14.881 0 7.052-2.883 14.291-9.92 17.174-2.077-11.904-4.759-27.684-5.457-32.055zM119.676 34.617c-.697 0-1.193.606-1.287 1.195 0 0-.495 7.346-3.068 15.375-2.588 8.045-5.564 13.006-8.137 16.664 0 0-.295.495-.295 1.1 0 .201.001.389.094.59.295.697.992 1.783.992 1.783 0 0 .201.604 1.084.604h17.064v7.33h-8.23c-.697 0-1.395.604-1.395 1.395v1.893c0 .79.697 1.379 1.395 1.379h30.055c.806 0 1.396-.589 1.396-1.379v-1.893c0-.791-.59-1.395-1.396-1.395h-8.928v-7.332h8.928c.806 0 1.396-.697 1.396-1.488v-1.891c0-.698-.59-1.379-1.396-1.379h-8.928V51.389c0-.589-.295-1.085-.682-1.287l-1.193-.605c-.202-.093-.295-.092-.496-.092h-.201c-.294 0-.696.092-.898.293l-9.021 8.232c-.294.31-.404.697-.404 1.1v8.139h-11.5c0 0 11.114-11.906 22.816-27.592.403-.496.496-.992.496-1.379 0-.496-.202-.899-.295-.992l-2.186-2.184c-.294-.201-.589-.404-.992-.404zm0 49.602c-.697 0-1.193.604-1.287 1.193 0 0-.495 7.348-3.068 15.377-2.588 8.045-5.564 13.004-8.137 16.662 0 0-.295.497-.295 1.102 0 .202.001.389.094.59.295.697.992 1.783.992 1.783 0 0 .201.604 1.084.604h17.064v7.328h-8.23c-.697 0-1.395.605-1.395 1.396v1.891c0 .79.697 1.379 1.395 1.379h30.055c.806 0 1.396-.589 1.396-1.379v-1.891c0-.791-.59-1.396-1.396-1.396h-8.928v-7.332h8.928c.806 0 1.396-.697 1.396-1.488v-1.891c0-.697-.59-1.379-1.396-1.379h-8.928v-15.779c0-.589-.295-1.085-.682-1.287l-1.193-.604c-.202-.093-.295-.092-.496-.092h-.201c-.294 0-.696.092-.898.293l-9.021 8.23c-.294.31-.404.699-.404 1.102v8.137h-11.5c0 0 11.114-11.904 22.816-27.59.403-.496.496-.992.496-1.379 0-.496-.202-.899-.295-.992l-2.186-2.186c-.294-.201-.589-.402-.992-.402zM334.195 72.416c-1.395 0-1.395 0-1.395 1.395v10.711c0 1.395 0 1.395 1.395 1.395h29.467c1.379 0 1.379 0 1.379-1.395V73.811c0-1.395 0-1.395-1.379-1.395zm269.744 0c-1.395 0-1.395 0-1.395 1.395v10.711c0 1.395 0 1.395 1.395 1.395h29.465c1.379 0 1.379 0 1.379-1.395V73.811c0-1.395 0-1.395-1.379-1.395z" style="stroke-width:.992"/>
</svg>
