<?xml version="1.0" encoding="utf-8" standalone="no"?>
<svg xmlns="http://www.w3.org/2000/svg" version="1.2" viewBox="0 0 405.632 235.109">
  <title>One bar of musical notation depicting the call of Silverspot the Crow. This call would translate in English to “be on your guard.”</title>
  <path d="m 0,34.546875 v 2.730469 h 45.376953 c -0.04427,-0.928961 -0.06996,-1.828205 -0.08008,-2.730469 z m 50.613281,0 c -0.0708,0.889995 -0.116932,1.800238 -0.140625,2.730469 h 12.449219 c 0.494142,-0.888303 0.942585,-1.797856 1.333984,-2.730469 z m 20.890625,0 c -0.113931,0.921852 -0.253629,1.831852 -0.417969,2.730469 H 378.35352 v -2.728516 h 4.46093 v 2.728516 h 9.17774 v -2.728516 h 13.64062 v -0.002 z M 0,59.347656 v 2.730469 h 40.044922 c 0.02794,-0.02608 0.05611,-0.05212 0.08398,-0.07813 0.71414,-0.580917 1.793511,-1.583259 2.90625,-2.652344 z m 61.146484,0 c -0.678091,0.921177 -1.381466,1.83102 -2.109375,2.730469 H 173.81641 v -1.365234 h 2.48046 v 1.365234 h 97.92579 v -2.730469 z m 215.556636,0 v 2.730469 h 101.6504 v -2.730469 z m 106.11133,0 v 2.730469 h 9.17774 V 59.347656 Z M 0,84.148437 v 2.728516 h 21.367187 c 0.351992,-0.932669 0.732283,-1.841872 1.136719,-2.728516 z m 37.453125,0 c -0.729138,0.886802 -1.43201,1.79686 -2.103516,2.728516 h 14.228516 c 0.943252,-0.468048 1.929052,-0.858805 2.951172,-1.162109 -0.08773,-0.512751 -0.175602,-1.034825 -0.263672,-1.566407 z m 19.396484,0 c 0.04831,0.289475 0.09621,0.579197 0.144532,0.869141 3.663945,0 7.080738,0.64826 10.140625,1.859375 H 173.81641 v -2.728516 z m 119.447261,0 v 2.728516 h 97.92579 v -2.728516 z m 100.40625,0 v 2.728516 h 45.29883 l -2.26172,-2.728516 z m 46.16602,0 2.30273,2.728516 h 53.18165 v -2.728516 z m 59.94531,0 v 2.728516 h 9.17774 V 84.148437 Z M 0,108.94727 v 2.73046 h 20.035156 c -0.280703,-0.89419 -0.521663,-1.80488 -0.722656,-2.73046 z m 28.339844,0 c 0.08724,0.93304 0.222874,1.84363 0.404297,2.73046 h 9.257812 c -0.256169,-0.9195 -0.440511,-1.83711 -0.544922,-2.73046 z m 15.939453,0 c -0.05809,0.47759 -0.08789,0.96434 -0.08789,1.45898 0,0.44225 0.01897,0.86555 0.05469,1.27148 h 12.658203 l -0.482422,-2.73046 z m 16.609375,0 c 0.150352,0.88577 0.30406,1.79823 0.46289,2.73046 h 12.988282 c -0.03792,-0.94547 -0.152255,-1.85706 -0.335938,-2.73046 z m 21.177734,0 c 0.01439,0.38464 0.02148,0.77269 0.02148,1.16406 0,0.52268 -0.01937,1.04512 -0.05664,1.5664 h 91.78516 v -2.73046 z m 94.230464,0 v 2.73046 h 42.7461 v -2.73046 z m 45.52149,0 v 2.73046 h 8.83398 v -2.73046 z m 11.60937,0 v 2.73046 h 40.79493 v -2.73046 z m 43.27539,0 v 2.73046 h 101.6504 v -2.73046 h -58.5625 c -0.16925,0.0229 -0.33921,0.043 -0.51172,0.043 -0.26042,0 -0.51745,-0.0146 -0.77149,-0.043 z m 106.11133,0 v 2.73046 h 9.17774 v -2.73046 z M 0,133.74805 v 2.73047 h 61.402344 c -0.112457,-0.57911 -0.228763,-1.16823 -0.347657,-1.76758 -2.278524,0.40295 -4.96065,0.69726 -7.828125,0.69726 -3.686426,0 -7.280832,-0.5816 -10.673828,-1.66015 z m 65.150391,0 c 0.147807,0.96723 0.295233,1.87788 0.439453,2.73047 H 156.2207 c 2.91306,-1.30945 6.03368,-2.0625 8.97852,-2.0625 2.86839,0 5.47702,0.71033 7.44531,2.0625 h 1.17188 v -2.73047 z m 111.146479,0 v 2.73047 h 42.7461 v -2.73047 z m 45.52149,0 v 2.73047 h 8.83398 v -2.73047 z m 11.60937,0 v 2.73047 h 11.40821 c 0.23655,-0.93221 0.58579,-1.84515 1.03125,-2.73047 z m 42.97657,0 c -0.22144,0.92647 -0.55558,1.84003 -0.98828,2.73047 h 130.21679 v -0.002 h -13.64062 v -2.72851 h -9.17774 v 2.72851 h -4.46093 v -2.72851 z" style="baseline-shift:baseline;display:inline;overflow:visible;opacity:1;vector-effect:none;stroke-linejoin:bevel;enable-background:accumulate;stop-color:#000;stop-opacity:1"/>
  <path d="m 255.6543,162.80859 c -11.34647,9.25883 -27.0498,15.1277 -43.25391,17.12891 -16.20583,2.00142 -32.8661,0.12801 -46.125,-6.09375 26.94575,18.68668 67.78744,13.64324 89.37891,-11.03516 z" style="baseline-shift:baseline;display:inline;overflow:visible;vector-effect:none;fill-rule:evenodd;stroke-linecap:round;stroke-linejoin:round;enable-background:accumulate;stop-color:#000;stop-opacity:1"/>
  <path d="m 260.58789,156.81445 a 0.620062,0.620062 0 0 0 -0.44922,0.19532 c -11.11997,11.8607 -29.17675,19.38633 -47.88867,21.69726 -18.71192,2.31093 -38.05695,-0.59554 -51.72852,-9.39453 a 0.62,0.62 0 0 0 -0.0566,0.0117 0.62,0.62 0 0 0 -0.74218,0.0957 0.62,0.62 0 0 0 -0.0254,0.0703 0.62,0.62 0 0 0 -0.0332,0.008 0.62,0.62 0 0 0 0.0117,0.0547 0.62,0.62 0 0 0 0.0957,0.74219 c 0.0247,0.0222 0.0534,0.0384 0.0781,0.0606 28.97501,25.89021 79.49829,19.63157 101.25391,-12.57422 a 0.620062,0.620062 0 0 0 -0.12696,-0.83203 0.620062,0.620062 0 0 0 -0.38867,-0.13477 z m -4.93359,5.99414 c -21.59147,24.6784 -62.43316,29.72184 -89.37891,11.03516 13.2589,6.22176 29.91917,8.09517 46.125,6.09375 16.20411,-2.00121 31.90744,-7.87008 43.25391,-17.12891 z" style="baseline-shift:baseline;display:inline;overflow:visible;vector-effect:none;fill-rule:evenodd;stroke-linecap:round;stroke-linejoin:round;enable-background:accumulate;stop-color:#000;stop-opacity:1"/>
  <path d="M378.354 34.549V136.477h4.461V34.549ZM391.992 34.549V136.477h13.641V34.549Z" style="baseline-shift:baseline;display:inline;overflow:visible;opacity:1;vector-effect:none;stroke-linejoin:bevel;enable-background:accumulate;stop-color:#000;stop-opacity:1"/>
  <path d="m 230.65234,101.97461 v 15.375 l -8.83398,1.79883 v -13.9961 h -2.77539 v 14.58594 l -3.875,0.78906 c -0.589,0.10843 -1.08594,0.79002 -1.08594,1.39454 v 0.20312 5.54883 c 0,0.79049 0.59049,1.39453 1.39649,1.39453 h 0.29492 l 3.26953,-0.69727 v 16.36719 l -3.875,0.79102 c -0.589,0.0931 -1.08594,0.79 -1.08594,1.39453 v 5.75195 c 0,0.79053 0.59049,1.37891 1.39649,1.37891 h 0.29492 l 3.26953,-0.68164 v 14.77148 h 2.77539 v -15.37695 l 8.83398,-1.78125 v 13.99609 h 2.77539 v -14.58594 l 3.76563,-0.69726 c 0.60453,-0.10842 1.10156,-0.79 1.10156,-1.39453 v -5.84375 c 0,-0.806 -0.60596,-1.39649 -1.39648,-1.39649 h -0.20117 l -3.26954,0.69922 v -16.36914 l 3.76563,-0.69726 c 0.60453,-0.093 1.10156,-0.79002 1.10156,-1.39454 v -5.84375 c 0,-0.79052 -0.60596,-1.39453 -1.39648,-1.39453 h -0.20117 l -3.26954,0.69727 v -14.78711 z m 0,24.00977 v 16.36718 l -8.83398,1.89063 v -16.47656 z" style="stroke-width:.992"/>
  <path d="m 274.22266,48.3125 v 76.7207 c 1.44429,1.3986 2.35244,3.26202 2.48046,5.54688 V 48.3125 Z M 173.81641,60.712891 v 76.720699 c 1.44429,1.3986 2.35244,3.26202 2.48046,5.54688 V 60.712891 Z" style="baseline-shift:baseline;display:inline;overflow:visible;opacity:1;vector-effect:none;stroke-linejoin:bevel;enable-background:accumulate;stop-color:#000;stop-opacity:1"/>
  <path d="M265.605 122.016c-9.625 0-21.127 8.138-21.127 17.268 0 4.263 3.069 9.021 11.113 9.021 10.308 0 21.127-8.433 21.127-17.16 0-5.859-4.96-9.129-11.113-9.129zm-100.406 12.4c-9.625 0-21.127 8.045-21.127 17.268 0 4.263 3.069 9.02 11.113 9.02 10.308 0 21.127-8.431 21.127-17.158 0-5.859-4.96-9.129-11.113-9.129zm3.674 4.664c2.387 0 3.969 1.396 3.969 3.566 0 4.278-10.012 9.037-10.322 9.238-.295.186-7.534 4.152-11.006 4.152-3.27 0-3.967-2.665-3.967-3.564 0-4.169 9.919-9.021 10.322-9.223.387-.201 7.439-4.17 11.004-4.17zM331.09 68.41c-.403 0-.9.001-1.303.109-3.472.589-5.95 3.658-5.842 7.037v.791c.295 1.891 1.192 3.472 2.479 4.572-1.596-.109-3.176-.497-4.664-1.303-4.867-2.573-8.835-7.936-9.223-8.432-.294-.294-.697-.59-1.193-.59h-.203c-.201 0-.496.001-.697.094-.387.31-.588.697-.588 1.1 0 .201.093.496.295.791l18.258 22.025c-1.782-.698-3.473-.992-5.162-.992-.791 0-1.58.093-2.277.201-1.984.295-3.874.993-5.254 1.877-2.185 1.286-3.581 3.673-3.473 6.246v.992c.589 3.472 3.565 6.061 7.037 6.061.403 0 .79-.109 1.193-.109 3.472-.589 5.843-3.564 5.951-6.943 0-.295.001-.588-.107-.883-.186-1.891-1.086-3.473-2.48-4.666 1.596.093 3.285.497 4.773 1.287 4.851 2.589 8.635 7.641 9.131 8.23l.682.898c.403.496 1.101.791 1.689.791.201 0 .496-.095.697-.203.295-.186.496-.495.496-.883 0-.294-.092-.605-.402-.992l-19.346-22.924c1.891.806 3.876 1.193 5.658 1.193.791 0 1.488-.093 2.186-.201 1.984-.295 3.767-.992 5.162-1.984 2.185-1.178 3.564-3.566 3.564-6.139 0-.31-.001-.698-.094-.992-.496-3.58-3.58-6.061-6.943-6.061zM60.465 0c-.697 0-3.767 1.193-7.037 5.053-6.355 7.548-8.137 20.243-8.137 28.566 0 5.363.496 10.23 2.186 21.344-.109.093-5.271 5.348-7.348 7.037-9.036 8.432-21.529 20.43-21.529 40.285 0 18.538 16.166 33.123 34.627 33.123 2.867 0 5.55-.294 7.828-.697 1.891 9.532 2.977 16.476 2.977 21.73 0 10.323-5.255 15.779-15.268 15.779-2.387 0-4.464-.496-4.666-.496-.093-.109-.295-.202-.295-.295 0-.201.202-.309.496-.402 4.665-.697 9.316-4.666 9.316-11.006 0-5.363-4.062-11.02-11.502-11.02-6.944 0-11.408 5.656-11.408 12.197 0 6.557 5.053 15.191 18.445 15.191 4.665 0 8.742-1.193 12.307-3.379 5.363-3.766 6.742-10.324 6.742-16.57 0-3.859-.588-8.323-1.58-13.98-.295-1.984-.899-4.961-1.488-8.836 9.718-3.177 16.957-13.299 16.957-23.514 0-14.973-10.617-25.094-25.094-25.094-.992-5.952-1.984-11.81-2.883-17.359 10.525-11.021 17.762-23.422 17.762-39.186 0-9.037-2.775-16.367-4.371-19.947C65.13 3.472 62.247 0 60.465 0Zm1.689 14.385c1.488 0 3.859 4.85 3.859 11.701 0 10.323-7.626 18.058-14.477 24.801-.589-3.968-1.084-7.829-1.084-11.998 0-3.673.294-7.052 1.084-10.121.899-3.968 5.456-14.383 10.617-14.383zM50.252 71.625c.883 5.347 1.58 10.013 2.277 14.09-9.036 2.681-15.174 12.198-15.174 21.529 0 6.944 5.455 16.461 13.391 16.461.79 0 1.691-.404 1.691-1.287 0-.899-.992-1.395-2.186-2.186-3.875-2.387-6.061-4.959-6.061-9.826 0-6.045 4.463-10.912 10.322-12.291l5.75 32.627c-1.984.403-3.859.605-5.75.605-14.182 0-26.289-9.922-26.289-24.91 0-12.09 8.526-22.909 17.268-30.457 1.674-1.488 3.272-2.867 4.76-4.355zm8.725 25.885c8.928 0 15.377 6.061 15.377 14.881 0 7.052-2.883 14.291-9.92 17.174-2.077-11.904-4.759-27.684-5.457-32.055z" style="stroke-width:.992"/>
  <path d="m 126.7793,197.5 c -4.75,0 -8.79663,2 -12.14063,6 -3.203,3.812 -4.70312,8.01625 -4.70312,13.15625 0,10.797 7.04725,18.45312 16.90625,18.45312 8,0 13.094,-4.70374 14.25,-13.09375 l -2.35938,-0.40625 c -1.344,7.453 -5.14087,11.15626 -11.29687,11.15625 -7.406,0 -10.90625,-5.10924 -10.90625,-15.90625 0,-5.703 0.75012,-9.45312 2.45312,-12.45312 1.547,-2.797 4.60938,-4.54687 7.85938,-4.54688 3.5,0 6.594,1.84388 8.5,5.04688 0.954,1.656 1.64075,3.50013 2.84375,7.45312 h 2.20312 l -0.75,-14.45312 h -1.90625 l -2,2.95312 c -3.641,-2.656 -5.50012,-3.35937 -8.95312,-3.35937 z m 29.20312,12.8125 c -5.641,0 -9.75,2.64087 -9.75,6.29687 0,1.844 1.15625,3.04688 2.90625,3.04688 1.594,0 2.70313,-1.04688 2.70313,-2.54688 0,-0.656 -0.25,-1.34287 -0.75,-2.04687 -0.312,-0.359 -0.35938,-0.45313 -0.35938,-0.70313 0,-1 2.00025,-1.90624 4.40625,-1.90625 1.594,0 3.34363,0.5 4.14063,1.25 0.953,0.813 1.3125,2 1.3125,4.25 v 1.95313 c -5.203,0.906 -6.8595,1.297 -9.3125,2.25 -4.344,1.61 -6.39063,3.90538 -6.39063,7.10937 0,3.593 2.797,5.84376 7.25,5.84375 3.453,0 6.54713,-1.40612 8.70313,-3.95312 0.797,2.547 2.04662,3.54687 4.39062,3.54687 2.25,0 4.60938,-1.43662 4.60938,-2.89062 0,-0.359 -0.203,-0.60937 -0.5,-0.60938 -0.203,0 -0.406,0.0631 -0.75,0.20313 -0.703,0.297 -1.00025,0.35937 -1.40625,0.35937 -1.406,0 -1.90625,-0.90612 -1.90625,-3.45312 v -10.04688 c 0,-3.157 -0.547,-4.74912 -2,-5.95312 -1.641,-1.359 -4.09388,-2 -7.29688,-2 z m 13.45313,0.75 v 1.79687 h 0.90625 c 1.391,0.047 2.04675,0.65713 2.59375,2.45313 l 7.5,19.79687 h 1.75 l 5.95312,-15.79687 6.09375,15.79687 h 1.5625 l 7,-18.45312 c 1.093,-2.953 1.8435,-3.74987 3.6875,-3.79688 h 0.35938 v -1.79687 h -9.45313 v 1.79687 h 0.84375 c 1.75,0 2.45313,0.49975 2.45313,1.84375 0,0.5 -0.14063,1.1555 -0.39063,1.8125 l -4.25,11.39063 -4.90625,-12.84375 c -0.156,-0.359 -0.20312,-0.65688 -0.20312,-1.04688 0,-0.907 0.45275,-1.15624 2.09375,-1.15625 h 1.20312 V 211.0625 H 183.0293 v 1.79687 h 0.85937 c 1.594,0.047 2.24963,0.45276 2.64063,1.84375 l 0.40625,1.3125 -4.40625,11.64063 -4.84375,-12.54688 c -0.094,-0.343 -0.20313,-0.79774 -0.20313,-1.09375 0,-0.86 0.54688,-1.15625 2.04688,-1.15625 h 0.90625 v -1.79687 z m -8.84375,11 v 2.29687 c 0,3 -0.156,3.703 -1,5 -1.25,1.844 -3.50013,3.09376 -5.70313,3.09375 -2.297,0 -3.95312,-1.64062 -3.95312,-3.89062 0,-2.109 1.047,-3.60925 3.25,-4.65625 1.547,-0.703 3.50025,-1.20275 7.40625,-1.84375 z"/>
</svg>
