<?xml version="1.0" encoding="UTF-8" standalone="no"?>
<svg xmlns="http://www.w3.org/2000/svg" version="1.2" viewBox="0 0 311.473 222.463">
  <title>One bar of musical notation depicting the call of Silverspot the Crow. This call would translate in English to “danger.”</title>
  <path fill="none" stroke="#000" stroke-linejoin="bevel" stroke-width="2.73" d="M336.598 386.198 648.071 386.198M336.598 410.998 648.071 410.998M336.598 435.798 648.071 435.798M336.598 460.598 648.071 460.598M336.598 485.398 648.071 485.398" class="StaffLines" transform="translate(-336.598 -350.285)"/>
  <path fill="none" stroke="#000" stroke-linejoin="bevel" stroke-width="4.46" d="M623.023 384.834 623.023 486.762" class="BarLine" transform="translate(-336.598 -350.285)"/>
  <path fill="none" stroke="#000" stroke-linejoin="bevel" stroke-width="13.64" d="M641.251 384.834 641.251 486.762" class="BarLine" transform="translate(-336.598 -350.285)"/>
  <path fill="none" stroke="#000" stroke-linejoin="bevel" stroke-width="2.48" d="M481.911 439.965 481.911 510.198" class="Stem" transform="translate(-336.598 -350.285)"/>
  <path d="m 144.073,89.682881 c 0,4.262495 3.069,9.02102 11.11348,9.02102 10.30757,0 21.12652,-8.43202 21.12652,-17.158525 0,-5.859 -4.96,-9.129475 -11.11348,-9.129475 -9.62547,0 -21.12652,8.137475 -21.12652,17.26698" class="Note" style="stroke-width:.992"/>
  <path d="m 74.353475,112.39038 c 0,7.0525 -2.88295,14.291 -9.92,17.17405 -2.07695,-11.90405 -4.758425,-27.68305 -5.456,-32.054104 8.928,0 15.376,6.060544 15.376,14.880054 M 60.264,130.74243 c -1.984,0.40295 -3.859475,0.60442 -5.750525,0.60442 -14.182425,0 -26.28797,-9.92 -26.28797,-24.90847 0,-12.090054 8.52502,-22.909004 17.26702,-30.457529 1.674,-1.488 3.270525,-2.867475 4.758525,-4.355475 0.883475,5.347475 1.58095,10.01295 2.278425,14.089475 -9.036425,2.681475 -15.174425,12.198525 -15.174425,21.529529 0,6.944 5.456,16.461 13.392,16.461 0.790425,0 1.689475,-0.40295 1.689475,-1.28653 0,-0.89895 -0.992,-1.39495 -2.185475,-2.18547 -3.87505,-2.387 -6.060525,-4.96 -6.060525,-9.827 0,-6.045 4.464,-10.912054 10.32295,-12.291529 L 60.264,130.74243 M 51.537475,28.767901 c 0.89905,-3.968 5.456,-14.384 10.617575,-14.384 1.488,0 3.859475,4.851475 3.859475,11.702425 0,10.32305 -7.626,18.057575 -14.47705,24.8 -0.58895,-3.968 -1.08495,-7.827475 -1.08495,-11.99695 0,-3.673475 0.294525,-7.052525 1.08495,-10.121475 m -20.832,132.431999 c 0,6.55653 5.05305,15.19 18.44505,15.19 4.665475,0 8.742,-1.19347 12.30695,-3.37905 C 66.820525,169.24443 68.2,162.6879 68.2,156.44138 c 0,-3.85948 -0.58895,-8.32348 -1.58095,-13.98095 -0.294525,-1.984 -0.89905,-4.96 -1.488,-8.83505 9.718425,-3.17748 16.95695,-13.29895 16.95695,-23.5135 0,-14.973029 -10.617475,-25.094504 -25.094525,-25.094504 -0.992,-5.952 -1.984,-11.81105 -2.88295,-17.36 10.524525,-11.020525 17.76295,-23.420525 17.76295,-39.184 0,-9.036525 -2.774425,-16.368 -4.37095,-19.948128 C 65.13105,3.472 62.248,0 60.465475,0 59.768,0 56.69905,1.193376 53.428525,5.053248 c -6.35505,7.548128 -8.137475,20.242653 -8.137475,28.566128 0,5.36295 0.496,10.23 2.185475,21.343475 -0.108525,0.09305 -5.27,5.347475 -7.34705,7.03705 C 31.09305,70.431901 18.6,82.428851 18.6,102.28438 c 0,18.53805 16.166525,33.12352 34.62705,33.12352 2.867475,0 5.54895,-0.29452 7.827475,-0.69747 1.89095,9.53242 2.976,16.47642 2.976,21.73095 0,10.32305 -5.254525,15.77905 -15.267475,15.77905 -2.38705,0 -4.464,-0.496 -4.665575,-0.496 -0.09295,-0.10853 -0.294425,-0.20158 -0.294425,-0.29453 0,-0.20147 0.201475,-0.31 0.496,-0.40305 4.665475,-0.69747 9.315475,-4.66547 9.315475,-11.00495 0,-5.36305 -4.06105,-11.02052 -11.50105,-11.02052 -6.944,0 -11.408,5.65747 -11.408,12.19852" class="Clef" style="stroke-width:.992"/>
  <path d="m 154.6,21.920376 c 1.5965,1.488 3.968,1.488 5.5645,0 1.488,-1.596505 1.488,-3.968 0,-5.456 -1.5965,-1.596505 -3.968,-1.596505 -5.5645,0 -1.488,1.488 -1.488,3.859495 0,5.456" class="Articulation" style="stroke-width:.992"/>
  <path d="m 159.138,185.26038 h -1.906 l -2,2.953 c -3.641,-2.656 -5.5,-3.359 -8.953,-3.359 -4.75,0 -8.797,2 -12.141,6 -3.203,3.813 -4.703,8.016 -4.703,13.156 0,10.797 7.047,18.453 16.906,18.453 8,0 13.094,-4.703 14.25,-13.093 l -2.359,-0.407 c -1.344,7.454 -5.141,11.157 -11.297,11.157 -7.406,0 -10.906,-5.11 -10.906,-15.907 0,-5.703 0.75,-9.453 2.453,-12.453 1.547,-2.797 4.609,-4.547 7.859,-4.547 3.5,0 6.594,1.844 8.5,5.047 0.954,1.657 1.641,3.5 2.844,7.453 h 2.203 l -0.75,-14.453 m 25.641,20.36 c 0,-3.157 -0.547,-4.75 -2,-5.953 -1.641,-1.36 -4.094,-2 -7.297,-2 -5.641,0 -9.75,2.64 -9.75,6.296 0,1.844 1.156,3.047 2.906,3.047 1.594,0 2.703,-1.047 2.703,-2.547 0,-0.656 -0.25,-1.343 -0.75,-2.046 -0.312,-0.36 -0.359,-0.454 -0.359,-0.704 0,-1 2,-1.906 4.406,-1.906 1.594,0 3.344,0.5 4.141,1.25 0.953,0.813 1.312,2 1.312,4.25 v 1.953 c -5.203,0.907 -6.859,1.297 -9.312,2.25 -4.344,1.61 -6.391,3.907 -6.391,7.11 0,3.593 2.797,5.843 7.25,5.843 3.453,0 6.547,-1.406 8.703,-3.953 0.797,2.547 2.047,3.547 4.391,3.547 2.25,0 4.609,-1.437 4.609,-2.89 0,-0.36 -0.203,-0.61 -0.5,-0.61 -0.203,0 -0.406,0.063 -0.75,0.203 -0.703,0.297 -1,0.36 -1.406,0.36 -1.406,0 -1.906,-0.907 -1.906,-3.453 v -10.047 m -4.688,6.093 c 0,3 -0.156,3.704 -1,5 -1.25,1.844 -3.5,3.094 -5.703,3.094 -2.297,0 -3.953,-1.64 -3.953,-3.89 0,-2.11 1.047,-3.61 3.25,-4.657 1.547,-0.703 3.5,-1.203 7.406,-1.843 v 2.296" class="Lyrics"/>
</svg>
