<?xml version="1.0" encoding="utf-8"?>
<svg xmlns="http://www.w3.org/2000/svg" version="1.2" viewBox="0 0 658.383 238.418">
	<title>One bar of musical notation depicting the call of Silverspot the Crow. This call would translate in English to “hawk, hawk.”</title>
	<path d="m 0,34.546875 v 2.730469 h 45.376953 c -0.04427,-0.928961 -0.06996,-1.828205 -0.08008,-2.730469 z m 50.613281,0 c -0.0708,0.889995 -0.116932,1.800238 -0.140625,2.730469 h 12.449219 c 0.494142,-0.888303 0.942585,-1.797856 1.333984,-2.730469 z m 20.890625,0 c -0.113931,0.921852 -0.253629,1.831852 -0.417969,2.730469 h 57.431643 l -0.0234,-2.730469 z m 60.333984,0 -0.0254,2.0625 c 0.24801,-0.302007 1.09161,-1.220014 2.49414,-2.0625 z m 13.24023,0 c 0.91503,0.735822 1.61728,1.678474 2.13086,2.730469 h 284.4375 v -2.728516 h 4.45899 v 2.728516 h 195 v -2.728516 h 4.45898 v 2.728516 h 9.17969 v -2.728516 h 13.63867 v -0.002 z M 0,59.347656 v 2.730469 h 40.044922 c 0.02794,-0.02608 0.05611,-0.05212 0.08398,-0.07813 0.71414,-0.580917 1.793511,-1.583259 2.90625,-2.652344 z m 61.146484,0 c -0.678091,0.921177 -1.381466,1.83102 -2.109375,2.730469 H 100.8418 l -0.0234,-2.730469 z m 43.275396,0 -0.0352,2.730469 h 24.33594 l -0.0215,-2.730469 z m 27.12109,0 -0.0234,1.566406 c 0.54917,-0.432129 1.22301,-0.964889 1.94336,-1.566406 z m 8.39648,0 c -1.16235,1.038804 -2.31203,1.949293 -3.38086,2.730469 h 46.74805 c 1.85158,-1.166742 4.03555,-2.110821 6.60742,-2.730469 z m 65.28516,0 c 2.7828,0.634288 5.01116,1.596058 6.79492,2.730469 h 86.43359 v -2.730469 z m 95.70898,0 v 2.730469 h 130.71289 v -2.730469 z m 135.17188,0 v 2.730469 h 60.74805 v -2.730469 z m 63.22851,0 v 2.730469 h 131.77149 v -2.730469 z m 136.23047,0 v 2.730469 h 9.17969 V 59.347656 Z M 0,84.148437 v 2.728516 h 21.367187 c 0.351992,-0.932669 0.732283,-1.841872 1.136719,-2.728516 z m 37.453125,0 c -0.729138,0.886802 -1.43201,1.79686 -2.103516,2.728516 h 14.228516 c 0.943252,-0.468048 1.929052,-0.858805 2.951172,-1.162109 -0.08773,-0.512751 -0.175602,-1.034825 -0.263672,-1.566407 z m 19.396484,0 c 0.04831,0.289475 0.09621,0.579197 0.144532,0.869141 3.663945,0 7.080738,0.64826 10.140625,1.859375 h 33.912114 l -0.0215,-2.728516 z m 47.308591,0 -0.041,2.728516 h 8.80859 c 0.2897,-0.97766 0.48405,-1.908831 0.61328,-2.728516 z m 16.19336,0 c -0.20382,0.898654 -0.48069,1.811915 -0.83398,2.728516 h 53.74609 c -0.0437,-0.917833 -0.0667,-1.82983 -0.0762,-2.728516 z m 66.31641,0 v 2.728516 h 111.78515 v -2.728516 z m 114.26562,0 v 2.728516 h 67.34961 v -2.728516 z m 69.83008,0 v 2.728516 h 30.35547 l -2.26172,-2.728516 z m 31.26758,0 2.30273,2.728516 h 27.3125 v -2.728516 z m 34.07422,0 v 2.728516 h 60.74805 v -2.728516 z m 63.22851,0 v 2.728516 h 67.80274 v -2.728516 z m 70.28321,0 v 2.728516 h 37.36914 l -2.26172,-2.728516 z m 38.30273,0 2.30274,2.728516 h 20.88281 v -2.728516 z m 27.64453,0 v 2.728516 h 9.17969 V 84.148437 Z M 0,108.94727 v 2.73046 h 20.035156 c -0.280703,-0.89419 -0.521663,-1.80488 -0.722656,-2.73046 z m 28.339844,0 c 0.08724,0.93304 0.222874,1.84363 0.404297,2.73046 h 9.257812 c -0.256169,-0.9195 -0.440511,-1.83711 -0.544922,-2.73046 z m 15.939453,0 c -0.05809,0.47759 -0.08789,0.96434 -0.08789,1.45898 0,0.44225 0.01897,0.86555 0.05469,1.27148 h 12.658203 l -0.482422,-2.73046 z m 16.609375,0 c 0.150352,0.88577 0.30406,1.79823 0.46289,2.73046 h 12.988282 c -0.03792,-0.94547 -0.152255,-1.85706 -0.335938,-2.73046 z m 21.177734,0 c 0.01439,0.38464 0.02148,0.77269 0.02148,1.16406 0,0.52268 -0.01937,1.04512 -0.05664,1.5664 h 216.42187 v -2.73046 h -93.80273 c -1.63101,0.3861 -3.36842,0.58203 -5.17969,0.58203 -2.9099,0 -5.49944,-0.20358 -7.80273,-0.58203 z m 218.867184,0 v 2.73046 h 67.34961 v -2.73046 z m 69.83008,0 v 2.73046 h 60.88281 v -2.73046 z m 65.3418,0 v 2.73046 h 60.74805 v -2.73046 z m 63.22851,0 v 2.73046 h 67.80274 v -2.73046 z m 70.28321,0 v 2.73046 h 61.48828 v -2.73046 z m 65.94726,0 v 2.73046 h 9.17969 v -2.73046 z M 0,133.74805 v 2.73047 h 61.402344 c -0.112457,-0.57911 -0.228763,-1.16823 -0.347657,-1.76758 -2.278524,0.40295 -4.96065,0.69726 -7.828125,0.69726 -3.686426,0 -7.280832,-0.5816 -10.673828,-1.66015 z m 65.150391,0 c 0.147807,0.96723 0.295233,1.87788 0.439453,2.73047 H 269.05859 c 0.23346,-0.9335 0.57711,-1.8463 1.01758,-2.73047 z m 212.369139,0 c -1.20282,0.81544 -2.41831,1.74947 -3.38476,2.73047 h 18.17382 c 1.19811,-0.8167 2.39721,-1.74883 3.33789,-2.73047 z m 23.11328,0 c -0.22143,0.92647 -0.55558,1.84003 -0.98828,2.73047 h 68.63867 v -2.73047 z m 70.13086,0 v 2.73047 h 96.69531 c 0.23343,-0.9335 0.57717,-1.8463 1.01758,-2.73047 h -32.37109 v 2.72851 h -4.45899 v -2.72851 z m 105.15625,0 c -1.20306,0.81544 -2.42008,1.74947 -3.38672,2.73047 h 18.17578 c 1.19811,-0.8167 2.39721,-1.74883 3.33789,-2.73047 z m 23.11328,0 c -0.22143,0.92647 -0.55558,1.84003 -0.98828,2.73047 h 69.0918 v -2.73047 z m 70.58399,0 v 2.73047 h 88.76562 v -0.002 h -13.63867 v -2.72851 h -9.17969 v 2.72851 h -4.45898 v -2.72851 z" style="baseline-shift:baseline;display:inline;overflow:visible;opacity:1;vector-effect:none;stroke-linejoin:bevel;enable-background:accumulate;stop-color:#000;stop-opacity:1"/>
	<path d="m 486.43945,163.74023 c 10.89395,22.49019 37.9993,32.05693 60.59571,21.38672 -10.54652,2.80069 -22.46352,1.888 -33.37696,-1.96289 -10.91562,-3.85166 -20.76527,-10.62189 -27.21875,-19.42383 z m -198.41992,0.01 c 10.77374,22.40841 37.67873,31.96308 60.17188,21.36523 -10.49393,2.77386 -22.33629,1.85096 -33.17383,-1.99804 C 304.18277,179.26915 294.4134,172.51827 288.01953,163.75 Z" style="baseline-shift:baseline;display:inline;overflow:visible;vector-effect:none;fill-rule:evenodd;stroke-linecap:round;stroke-linejoin:round;enable-background:accumulate;stop-color:#000;stop-opacity:1"/>
	<path d="m 284.63867,156.83984 a 0.62,0.62 0 0 0 -0.0176,0.0312 0.62,0.62 0 0 0 -0.0742,0.006 0.62,0.62 0 0 0 -0.1289,0.37891 0.62,0.62 0 0 0 -0.18945,0.35937 c 9.24038,30.04339 44.64564,42.61804 70.76562,25.13282 a 0.620062,0.620062 0 0 0 -0.60156,-1.07813 c -11.54764,5.2806 -25.99204,4.88457 -38.95899,0.2793 -12.96694,-4.60528 -24.42623,-13.40966 -30.05664,-24.79102 a 0.62,0.62 0 0 0 -0.68554,-0.29101 0.62,0.62 0 0 0 -0.0527,-0.0273 z m 198.39844,0.002 a 0.62,0.62 0 0 0 -0.0176,0.0312 0.62,0.62 0 0 0 -0.0762,0.006 0.62,0.62 0 0 0 -0.28711,0.6875 0.62,0.62 0 0 0 -0.0273,0.0508 c 9.37978,30.1263 45.01158,42.69947 71.2207,25.13086 a 0.620062,0.620062 0 0 0 -0.60352,-1.07813 c -11.5957,5.31148 -26.12137,4.92988 -39.17382,0.32422 -13.05246,-4.60566 -24.6021,-13.42521 -30.29688,-24.83789 a 0.62,0.62 0 0 0 -0.14258,-0.12305 0.62,0.62 0 0 0 -0.17578,-0.15234 0.62,0.62 0 0 0 -0.23047,-0.0215 0.62,0.62 0 0 0 -0.18945,-0.0176 z m 3.40234,6.89843 c 6.45348,8.80194 16.30313,15.57217 27.21875,19.42383 10.91344,3.85089 22.83044,4.76358 33.37696,1.96289 -22.59641,10.67021 -49.70176,1.10347 -60.59571,-21.38672 z m -198.41992,0.01 c 6.39387,8.76827 16.16324,15.51915 26.99805,19.36719 10.83754,3.849 22.6799,4.7719 33.17383,1.99804 -22.49315,10.59785 -49.39814,1.04318 -60.17188,-21.36523 z" style="baseline-shift:baseline;display:inline;overflow:visible;vector-effect:none;fill-rule:evenodd;stroke-linecap:round;stroke-linejoin:round;enable-background:accumulate;stop-color:#000;stop-opacity:1"/>
	<path d="M431.646 34.549V136.477h4.459V34.549Zm199.459 0V136.477h4.459V34.549ZM644.744 34.549V136.477h13.639V34.549ZM330.354 157.928v3.971h8.4c.271-1.369.788-2.701 1.502-3.971zm40.24 0c-.248 1.357-.742 2.691-1.437 3.971h9.791v-3.971zm158.615 0v3.971h8.4c.271-1.369.788-2.701 1.502-3.971zm40.24 0c-.248 1.357-.742 2.691-1.437 3.971h9.789v-3.971zM298.453 48.313v76.723c1.451 1.406 2.36 3.281 2.48 5.582V48.313Zm198.4 0v76.723c1.451 1.406 2.36 3.282 2.48 5.582V48.313ZM368.283 73.113v76.723c1.451 1.406 2.36 3.282 2.48 5.582V73.113Zm198.854 0v76.721c1.444 1.399 2.352 3.262 2.48 5.547V73.113Z" style="baseline-shift:baseline;display:inline;overflow:visible;opacity:1;vector-effect:none;stroke-linejoin:bevel;enable-background:accumulate;stop-color:#000;stop-opacity:1"/>
	<path d="M289.836 122.016c-9.625 0-21.129 8.045-21.129 17.268 0 4.263 3.069 9.021 11.113 9.021 10.308 0 21.127-8.433 21.127-17.16 0-5.859-4.958-9.129-11.111-9.129zm198.398 0c-9.625 0-21.127 8.045-21.127 17.268 0 4.263 3.069 9.021 11.113 9.021 10.308 0 21.127-8.433 21.127-17.16 0-5.859-4.96-9.129-11.113-9.129zm-194.725 4.666c2.387 0 3.967 1.394 3.967 3.564 0 4.278-10.012 9.037-10.322 9.238-.295.186-7.534 4.154-11.006 4.154-3.27 0-3.967-2.667-3.967-3.566 0-4.169 9.919-9.021 10.322-9.223.387-.201 7.441-4.168 11.006-4.168zm198.398 0c2.387 0 3.969 1.394 3.969 3.564 0 4.278-10.012 9.037-10.322 9.238-.295.186-7.534 4.154-11.006 4.154-3.27 0-3.969-2.667-3.969-3.566 0-4.169 9.921-9.021 10.324-9.223.387-.201 7.439-4.168 11.004-4.168zm-132.244 20.135c-9.625 0-21.127 8.136-21.127 17.266 0 4.263 3.069 9.021 11.113 9.021 10.308 0 21.127-8.431 21.127-17.158 0-5.859-4.96-9.129-11.113-9.129zm198.855 0c-9.625 0-21.127 8.136-21.127 17.266 0 4.263 3.069 9.021 11.113 9.021 10.308 0 21.127-8.431 21.127-17.158 0-5.859-4.96-9.129-11.113-9.129zM612.43 64.016c-.403 0-.898-.001-1.301.107-3.472.589-5.954 3.658-5.846 7.037v.791c.295 1.891 1.194 3.472 2.48 4.572-1.596-.109-3.176-.495-4.664-1.301-4.867-2.573-8.836-7.938-9.223-8.434-.294-.294-.697-.588-1.193-.588h-.201c-.201 0-.496.001-.697.094-.387.31-.588.697-.588 1.1 0 .201.093.496.295.791l18.26 22.027c-1.782-.698-3.473-.992-5.162-.992-.791 0-1.581.093-2.279.201-1.984.295-3.875.991-5.254 1.875-2.185 1.286-3.579 3.674-3.471 6.248v.99c.589 3.472 3.563 6.061 7.035 6.061.403 0 .791-.107 1.193-.107 3.472-.589 5.845-3.564 5.953-6.943 0-.295-.001-.59-.109-.885-.186-1.891-1.084-3.473-2.479-4.666 1.596.093 3.285.496 4.773 1.287 4.851 2.589 8.633 7.642 9.129 8.232l.682.898v-.004c.403.496 1.1.791 1.688.791.201 0 .496-.093.697-.201.295-.186.496-.497.496-.885 0-.294-.092-.604-.402-.992L602.898 78.197c1.891.806 3.874 1.193 5.656 1.193.791 0 1.489-.093 2.186-.201 1.984-.295 3.767-.992 5.162-1.984 2.185-1.178 3.564-3.564 3.564-6.137 0-.31-.001-.697-.094-.992-.496-3.58-3.58-6.061-6.943-6.061zm-204.715 1.389c-.403 0-.9.001-1.303.109-3.472.589-5.952 3.658-5.844 7.037v.791c.295 1.891 1.194 3.47 2.48 4.57-1.596-.109-3.176-.495-4.664-1.301-4.867-2.573-8.836-7.936-9.223-8.432-.294-.294-.697-.59-1.193-.59h-.201c-.201 0-.496.001-.697.094-.387.31-.588.697-.588 1.1 0 .201.093.496.295.791l18.258 22.027c-1.782-.698-3.471-.992-5.16-.992-.791 0-1.581.093-2.279.201-1.984.295-3.875.991-5.254 1.875-2.185 1.286-3.581 3.674-3.473 6.248v.992c.589 3.472 3.565 6.059 7.037 6.059.403 0 .791-.107 1.193-.107 3.472-.589 5.845-3.564 5.953-6.943 0-.295-.001-.59-.109-.885-.186-1.891-1.084-3.471-2.479-4.664 1.596.093 3.285.496 4.773 1.287 4.851 2.589 8.633 7.64 9.129 8.23l.682.898v-.004c.403.496 1.1.791 1.688.791.201 0 .496-.093.697-.201.295-.186.496-.495.496-.883 0-.294-.092-.604-.402-.992L398.184 79.588c1.891.806 3.874 1.191 5.656 1.191.791 0 1.489-.093 2.186-.201 1.984-.295 3.767-.99 5.162-1.982 2.185-1.178 3.564-3.566 3.564-6.139 0-.31-.001-.697-.094-.992-.496-3.58-3.58-6.061-6.943-6.061zM60.465 0c-.697 0-3.767 1.193-7.037 5.053-6.355 7.548-8.137 20.243-8.137 28.566 0 5.363.496 10.23 2.186 21.344-.109.093-5.271 5.348-7.348 7.037-9.036 8.432-21.529 20.43-21.529 40.285 0 18.538 16.166 33.123 34.627 33.123 2.867 0 5.55-.294 7.828-.697 1.891 9.532 2.977 16.476 2.977 21.73 0 10.323-5.255 15.779-15.268 15.779-2.387 0-4.464-.496-4.666-.496-.093-.109-.295-.202-.295-.295 0-.201.202-.309.496-.402 4.665-.697 9.316-4.666 9.316-11.006 0-5.363-4.062-11.02-11.502-11.02-6.944 0-11.408 5.656-11.408 12.197 0 6.557 5.053 15.191 18.445 15.191 4.665 0 8.742-1.193 12.307-3.379 5.363-3.766 6.742-10.324 6.742-16.57 0-3.859-.588-8.323-1.58-13.98-.295-1.984-.899-4.961-1.488-8.836 9.718-3.177 16.957-13.299 16.957-23.514 0-14.973-10.617-25.094-25.094-25.094-.992-5.952-1.984-11.81-2.883-17.359 10.525-11.021 17.762-23.422 17.762-39.186 0-9.037-2.775-16.367-4.371-19.947C65.13 3.472 62.247 0 60.465 0Zm1.689 14.385c1.488 0 3.859 4.85 3.859 11.701 0 10.323-7.626 18.058-14.477 24.801-.589-3.968-1.084-7.829-1.084-11.998 0-3.673.294-7.052 1.084-10.121.899-3.968 5.456-14.383 10.617-14.383zM50.252 71.625c.883 5.347 1.58 10.013 2.277 14.09-9.036 2.681-15.174 12.198-15.174 21.529 0 6.944 5.455 16.461 13.391 16.461.79 0 1.691-.404 1.691-1.287 0-.899-.992-1.395-2.186-2.186-3.875-2.387-6.061-4.959-6.061-9.826 0-6.045 4.463-10.912 10.322-12.291l5.75 32.627c-1.984.403-3.859.605-5.75.605-14.182 0-26.289-9.922-26.289-24.91 0-12.09 8.526-22.909 17.268-30.457 1.674-1.488 3.272-2.867 4.76-4.355zm8.725 25.885c8.928 0 15.377 6.061 15.377 14.881 0 7.052-2.883 14.291-9.92 17.174-2.077-11.904-4.759-27.684-5.457-32.055zM129.643 3.379c-.806 0-1.396.589-1.396 1.379l.496 59.629c0 .791.59 1.379 1.396 1.379.186 0 .589-.093.791-.186.388-.202 6.836-3.379 12.199-9.424 3.767-4.278 5.254-9.131 5.254-13.207 0-.884-.093-1.673-.201-2.479h-.002c-.589-3.86-2.976-7.533-8.029-7.533-4.96 0-7.842 3.068-8.338 3.672l.402-31.852c0-.79-.589-1.379-1.395-1.379zm7.83 34.424c3.581 0 3.875 3.365 3.875 5.457v1.084l-.002.002c0 1.488-.403 6.044-2.883 9.826-1.69 2.573-5.052 5.254-6.943 6.742l.295-19.344c.202-.899 1.69-3.768 5.658-3.768zm-35.404 2.775c-.806 0-1.395.589-1.395 1.379l.496 59.629c0 .791.589 1.381 1.395 1.381.186 0 .589-.094.791-.187.388-.202 6.836-3.379 12.199-9.424 3.767-4.278 5.254-9.129 5.254-13.205 0-.884-.093-1.674-.201-2.48h-.002c-.589-3.86-2.976-7.533-8.029-7.533-4.96 0-7.842 3.07-8.338 3.674l.402-31.854c0-.79-.589-1.379-1.395-1.379zm7.83 34.426c3.581 0 3.875 3.363 3.875 5.455v1.086h-.002c0 1.488-.403 6.044-2.883 9.826-1.69 2.573-5.052 5.254-6.943 6.742l.295-19.344c.202-.899 1.69-3.766 5.658-3.766zM197.285 58.533c-21.623 0-24.104 17.95-24.104 24.398 0 11.811 1.489 26.598 26.289 26.598 9.827 0 17.468-5.767 17.855-16.385 0-.496-.295-.789-.791-.789h-1.287c-.403 0-.789.402-.789.789-.403 8.246-6.262 13.207-14.988 13.207-8.633 0-12.803-4.666-12.803-13.393V74.002c0-5.549 2.185-11.902 11.02-11.902 4.666 0 6.743 1.689 7.844 3.379.093.201.092.295.092.496 0 .093 0 .294-.201.387-2.48 1.597-4.262 4.463-4.262 7.641 0 .403-.001.792.092 1.195.496 4.061 3.783 7.238 7.844 7.734h1.084c4.96 0 8.93-3.97 8.93-8.93v-.588c0-.403-.094-1.101-.187-1.488-.899-4.263-4.773-13.393-21.637-13.393z" style="stroke-width:.992"/>
	<path d="m 251.41406,200.80859 c -4.75,0 -8.79662,2 -12.14062,6 -3.203,3.812 -4.70313,8.01525 -4.70313,13.15625 0,10.797 7.04725,18.45313 16.90625,18.45313 8,0 13.094,-4.70275 14.25,-13.09375 l -2.35937,-0.40625 c -1.344,7.453 -5.14088,11.15625 -11.29688,11.15625 -7.407,0 -10.90625,-5.10925 -10.90625,-15.90625 0,-5.703 0.74913,-9.45313 2.45313,-12.45313 1.546,-2.797 4.60937,-4.54687 7.85937,-4.54687 3.5,0 6.594,1.84387 8.5,5.04687 0.953,1.656 1.64075,3.50013 2.84375,7.45313 h 2.20313 l -0.75,-14.45313 h -1.90625 l -2,2.95313 c -3.641,-2.656 -5.49913,-3.35938 -8.95313,-3.35938 z m 198.40039,0 c -4.75,0 -8.79662,2 -12.14062,6 -3.203,3.812 -4.70313,8.01525 -4.70313,13.15625 0,10.797 7.04725,18.45313 16.90625,18.45313 8,0 13.094,-4.70275 14.25,-13.09375 l -2.35937,-0.40625 c -1.344,7.453 -5.14088,11.15625 -11.29688,11.15625 -7.407,0 -10.90625,-5.10925 -10.90625,-15.90625 0,-5.703 0.74913,-9.45313 2.45313,-12.45313 1.546,-2.797 4.60937,-4.54687 7.85937,-4.54687 3.5,0 6.594,1.84387 8.5,5.04687 0.953,1.656 1.64075,3.50013 2.84375,7.45313 h 2.20313 l -0.75,-14.45313 h -1.90625 l -2,2.95313 c -3.641,-2.656 -5.49913,-3.35938 -8.95313,-3.35938 z m -169.19726,12.8125 c -5.641,0 -9.75,2.64088 -9.75,6.29688 0,1.844 1.15625,3.04687 2.90625,3.04687 1.594,0 2.70312,-1.04687 2.70312,-2.54687 0,-0.656 -0.25,-1.34388 -0.75,-2.04688 -0.313,-0.359 -0.35937,-0.45312 -0.35937,-0.70312 0,-1 2.00025,-1.90625 4.40625,-1.90625 1.594,0 3.34462,0.5 4.14062,1.25 0.954,0.812 1.3125,2 1.3125,4.25 v 1.95312 c -5.203,0.906 -6.8585,1.297 -9.3125,2.25 -4.343,1.609 -6.39062,3.90638 -6.39062,7.10938 0,3.594 2.797,5.84375 7.25,5.84375 3.453,0 6.54712,-1.40613 8.70312,-3.95313 0.797,2.547 2.04663,3.54688 4.39063,3.54688 2.25,0 4.60937,-1.43763 4.60937,-2.89063 0,-0.359 -0.203,-0.60937 -0.5,-0.60937 -0.203,0 -0.406,0.0621 -0.75,0.20312 -0.703,0.297 -1.00025,0.35938 -1.40625,0.35938 -1.407,0 -1.90625,-0.90613 -1.90625,-3.45313 v -10.04687 c 0,-3.156 -0.546,-4.75013 -2,-5.95313 -1.64,-1.359 -4.09387,-2 -7.29687,-2 z m 198.40039,0 c -5.641,0 -9.75,2.64088 -9.75,6.29688 0,1.844 1.15625,3.04687 2.90625,3.04687 1.594,0 2.70312,-1.04687 2.70312,-2.54687 0,-0.656 -0.25,-1.34388 -0.75,-2.04688 -0.313,-0.359 -0.35937,-0.45312 -0.35937,-0.70312 0,-1 2.00025,-1.90625 4.40625,-1.90625 1.594,0 3.34462,0.5 4.14062,1.25 0.954,0.812 1.3125,2 1.3125,4.25 v 1.95312 c -5.203,0.906 -6.8585,1.297 -9.3125,2.25 -4.343,1.609 -6.39062,3.90638 -6.39062,7.10938 0,3.594 2.797,5.84375 7.25,5.84375 3.453,0 6.54712,-1.40613 8.70312,-3.95313 0.797,2.547 2.04663,3.54688 4.39063,3.54688 2.25,0 4.60937,-1.43763 4.60937,-2.89063 0,-0.359 -0.203,-0.60937 -0.5,-0.60937 -0.203,0 -0.406,0.0621 -0.75,0.20312 -0.703,0.297 -1.00025,0.35938 -1.40625,0.35938 -1.407,0 -1.90625,-0.90613 -1.90625,-3.45313 v -10.04687 c 0,-3.156 -0.546,-4.75013 -2,-5.95313 -1.64,-1.359 -4.09387,-2 -7.29687,-2 z m -184.94727,0.75 v 1.79688 h 0.90625 c 1.391,0.047 2.04675,0.65612 2.59375,2.45312 l 7.5,19.79688 h 1.75 l 5.95313,-15.79688 6.09375,15.79688 h 1.5625 l 7,-18.45313 c 1.094,-2.953 1.8435,-3.74987 3.6875,-3.79687 h 0.35937 v -1.79688 h -9.45312 v 1.79688 h 0.84375 c 1.75,0 2.45312,0.49975 2.45312,1.84375 0,0.5 -0.14062,1.1565 -0.39062,1.8125 l -4.25,11.39062 -4.90625,-12.84375 c -0.156,-0.359 -0.20313,-0.65587 -0.20313,-1.04687 0,-0.906 0.45375,-1.15625 2.09375,-1.15625 h 1.20313 v -1.79688 h -11.20313 v 1.79688 h 0.85938 c 1.594,0.047 2.25062,0.45275 2.64062,1.84375 l 0.40625,1.3125 -4.40625,11.64062 -4.84375,-12.54687 c -0.094,-0.344 -0.20312,-0.79675 -0.20312,-1.09375 0,-0.859 0.54687,-1.15625 2.04687,-1.15625 h 0.90625 v -1.79688 z m 198.40039,0 v 1.79688 h 0.90625 c 1.391,0.047 2.04675,0.65612 2.59375,2.45312 l 7.5,19.79688 h 1.75 l 5.95313,-15.79688 6.09375,15.79688 h 1.5625 l 7,-18.45313 c 1.094,-2.953 1.8435,-3.74987 3.6875,-3.79687 h 0.35937 v -1.79688 h -9.45312 v 1.79688 h 0.84375 c 1.75,0 2.45312,0.49975 2.45312,1.84375 0,0.5 -0.14062,1.1565 -0.39062,1.8125 l -4.25,11.39062 -4.90625,-12.84375 c -0.156,-0.359 -0.20313,-0.65587 -0.20313,-1.04687 0,-0.906 0.45375,-1.15625 2.09375,-1.15625 h 1.20313 v -1.79688 h -11.20313 v 1.79688 h 0.85938 c 1.594,0.047 2.25062,0.45275 2.64062,1.84375 l 0.40625,1.3125 -4.40625,11.64062 -4.84375,-12.54687 c -0.094,-0.344 -0.20312,-0.79675 -0.20312,-1.09375 0,-0.859 0.54687,-1.15625 2.04687,-1.15625 h 0.90625 v -1.79688 z m -207.24414,11 v 2.29688 c 0,3 -0.156,3.703 -1,5 -1.25,1.844 -3.50012,3.09375 -5.70312,3.09375 -2.297,0 -3.95313,-1.64063 -3.95313,-3.89063 0,-2.109 1.047,-3.60925 3.25,-4.65625 1.547,-0.703 3.50025,-1.20275 7.40625,-1.84375 z m 198.40039,0 v 2.29688 c 0,3 -0.156,3.703 -1,5 -1.25,1.844 -3.50012,3.09375 -5.70312,3.09375 -2.297,0 -3.95313,-1.64063 -3.95313,-3.89063 0,-2.109 1.047,-3.60925 3.25,-4.65625 1.547,-0.703 3.50025,-1.20275 7.40625,-1.84375 z"/>
</svg>
