<?xml version="1.0" encoding="utf-8"?>
<svg xmlns="http://www.w3.org/2000/svg" version="1.2" viewBox="0 0 930 301">
	<title>Two bars of musical notation depicting the call of Silverspot the Crow. This call is presumed by the narrator to be a mating call.</title>
	<path d="m 0,50.388672 v 2.730469 h 45.376953 c -0.04427,-0.928961 -0.06996,-1.828205 -0.08008,-2.730469 z m 50.613281,0 c -0.0708,0.889995 -0.116932,1.800238 -0.140625,2.730469 h 12.449219 c 0.49422,-0.888293 0.942525,-1.797845 1.333984,-2.730469 z m 20.890625,0 c -0.113937,0.921858 -0.253619,1.831857 -0.417969,2.730469 H 365.33789 v -2.728516 h 4.45898 v 2.728516 h 533.03516 v -2.728516 h 4.46094 v 2.728516 h 9.16992 v -2.728516 h 13.63867 v -0.002 z M 0,75.189453 v 2.730469 h 40.044922 c 0.02794,-0.02608 0.05611,-0.05212 0.08398,-0.07813 0.71414,-0.580917 1.793511,-1.583259 2.90625,-2.652344 z m 61.146484,0 c -0.678169,0.921171 -1.383337,1.831013 -2.111328,2.730469 h 57.960934 c 1.8515,-1.16674 4.03355,-2.11082 6.60547,-2.730469 z m 77.769536,0 c 2.78293,0.634287 5.01094,1.596057 6.79492,2.730469 h 86.43359 v -1.365235 h 2.48047 v 1.365235 h 130.71289 v -2.730469 z m 230.88085,0 v 2.730469 h 533.03516 v -2.730469 z m 537.4961,0 v 2.730469 h 9.16992 V 75.189453 Z M 0,99.990234 v 2.728516 h 21.367187 c 0.351971,-0.93267 0.730344,-1.84188 1.134766,-2.728516 z m 37.453125,0 c -0.729137,0.886806 -1.43201,1.796856 -2.103516,2.728516 h 14.228516 c 0.943252,-0.46805 1.929053,-0.8588 2.951172,-1.16211 -0.08773,-0.51275 -0.175602,-1.03482 -0.263672,-1.566406 z m 19.396484,0 c 0.04831,0.289476 0.09621,0.579206 0.144532,0.869146 3.663944,0 7.080738,0.64826 10.140625,1.85937 h 39.820314 c -0.0438,-0.91783 -0.0667,-1.82982 -0.0762,-2.728516 z m 63.507811,0 v 2.728516 h 111.78711 v -2.728516 z m 114.26758,0 v 2.728516 h 130.71289 v -2.728516 z m 135.17187,0 v 2.728516 h 60.74805 v -2.728516 z m 63.22657,0 v 2.728516 h 198.33008 v -1.36328 h 2.48046 v 1.36328 h 97.92774 v -1.36328 h 2.48047 v 1.36328 h 97.91992 v -1.36328 h 2.48047 v 1.36328 h 68.18945 v -2.728516 z m 474.26953,0 v 2.728516 h 9.16992 V 99.990234 Z M 0,124.78906 v 2.73047 h 20.037109 c -0.280753,-0.89419 -0.523562,-1.80488 -0.724609,-2.73047 z m 28.339844,0 c 0.08724,0.93305 0.222867,1.84365 0.404297,2.73047 h 9.257812 c -0.256169,-0.9195 -0.440511,-1.83711 -0.544922,-2.73047 z m 15.939453,0 c -0.05808,0.47761 -0.08789,0.96436 -0.08789,1.45899 0,0.44225 0.01897,0.86555 0.05469,1.27148 h 12.658203 l -0.480469,-2.73047 z m 16.609375,0 c 0.150352,0.88578 0.30406,1.79824 0.46289,2.73047 h 12.988282 c -0.03792,-0.94547 -0.152255,-1.85706 -0.335938,-2.73047 z m 21.177734,0 c 0.01439,0.38465 0.02148,0.7727 0.02148,1.16407 0,0.52268 -0.01937,1.04512 -0.05664,1.5664 h 150.11328 v -2.73047 h -93.8125 c -1.62893,0.38482 -3.36339,0.58008 -5.17187,0.58008 -2.9049,0 -5.49076,-0.20287 -7.79102,-0.58008 z m 152.558594,0 v 2.73047 h 130.71289 v -2.73047 z m 135.17187,0 v 2.73047 h 60.74805 v -2.73047 z m 63.22657,0 v 2.73047 h 198.33008 v -2.73047 z m 200.81054,0 v 2.73047 h 97.92774 v -2.73047 z m 100.40821,0 v 2.73047 h 97.91992 v -2.73047 z m 100.40039,0 v 2.73047 h 68.18945 v -2.73047 z m 72.65039,0 v 2.73047 h 9.16992 v -2.73047 z M 0,149.58984 v 2.73047 h 61.402344 c -0.112575,-0.57974 -0.228631,-1.16951 -0.347657,-1.76953 -2.278524,0.40295 -4.96065,0.69922 -7.828125,0.69922 -3.686195,0 -7.281019,-0.58161 -10.673828,-1.66016 z m 65.150391,0 c 0.147826,0.96735 0.295216,1.87798 0.439453,2.73047 H 214.54687 c 2.91334,-1.30946 6.03336,-2.0625 8.97852,-2.0625 2.86836,0 5.47703,0.71035 7.44531,2.0625 h 1.17383 v -2.73047 z m 169.474609,0 v 2.73047 h 195.91992 v -2.73047 h -60.74805 v 2.72852 h -4.45898 v -2.72852 z m 198.39844,0 v 2.73047 h 198.33008 v -2.73047 z m 200.81054,0 v 2.73047 h 97.92774 v -2.73047 z m 100.40821,0 v 2.73047 h 97.91992 v -2.73047 z m 100.40039,0 v 2.73047 h 95.45898 v -0.002 h -13.63867 v -2.72852 h -9.16992 v 2.72852 h -4.46094 v -2.72852 z" style="baseline-shift:baseline;display:inline;overflow:visible;opacity:1;vector-effect:none;stroke-linejoin:bevel;enable-background:accumulate;stop-color:#000;stop-opacity:1"/>
	<path d="m 234.85742,196.66211 c 8.94925,5.23866 19.95293,10.14103 32.3086,14.73828 4.48762,1.68271 9.97591,3.09592 14.8496,4.68555 10.59488,3.431 21.15217,6.8859 33.29297,9.85742 43.89766,10.74417 96.67688,18.41489 149.73243,22.36523 53.05554,3.95031 106.39109,4.18139 151.39648,0.0566 12.45833,-1.1418 23.42167,-2.99595 34.41602,-4.82226 5.0428,-0.84859 10.66725,-1.43257 15.34375,-2.42969 12.90599,-2.71766 24.51855,-5.93736 34.14843,-9.79492 -20.80374,6.98236 -49.79869,11.47902 -83.47851,13.83008 -45.01876,3.14258 -98.36706,2.4153 -151.47657,-1.53907 -53.10949,-3.95436 -105.97693,-11.13534 -150.0332,-20.91015 -32.95601,-7.31199 -60.96089,-16.05238 -80.5,-26.03711 z" style="baseline-shift:baseline;display:inline;overflow:visible;vector-effect:none;fill-rule:evenodd;stroke-linecap:round;stroke-linejoin:round;enable-background:accumulate;stop-color:#000;stop-opacity:1"/>
	<path d="m 218.48828,185.05469 a 0.62,0.62 0 0 0 -0.0215,0.01 0.62,0.62 0 0 0 -0.21289,0.0977 0.62,0.62 0 0 0 -0.19727,0.0918 0.62,0.62 0 0 0 0,0.0156 0.62,0.62 0 0 0 -0.0273,0.0156 0.62,0.62 0 0 0 0.0449,0.42578 0.62,0.62 0 0 0 0.0176,0.41992 c 0.009,0.009 0.022,0.0168 0.0312,0.0254 a 0.62,0.62 0 0 0 0,0.002 c 0.006,0.005 0.0137,0.009 0.0195,0.0137 17.81409,16.42018 52.92027,30.21938 96.87109,40.97657 43.98819,10.76633 96.82222,18.44183 149.93555,22.39648 53.11333,3.95465 106.50336,4.18793 151.60156,0.0547 45.05143,-4.12897 81.80818,-12.57543 101.86133,-26.17188 0.0101,-0.006 0.0231,-0.0117 0.0332,-0.0176 l -0.002,-0.002 c 0.0112,-0.008 0.0259,-0.0139 0.0371,-0.0215 a 0.620062,0.620062 0 0 0 -0.66211,-1.04688 c -19.50326,11.3971 -56.09952,18.43535 -101.03711,21.57227 -44.93759,3.13692 -98.23944,2.41157 -151.29883,-1.53906 -53.05938,-3.95064 -105.87864,-11.12758 -149.85547,-20.88477 -43.97683,-9.75719 -79.12758,-22.13734 -96.72656,-36.29687 a 0.62,0.62 0 0 0 -0.19727,-0.0566 0.62,0.62 0 0 0 -0.21484,-0.0801 z m 16.36914,11.60742 c 19.53911,9.98473 47.54399,18.72512 80.5,26.03711 44.05627,9.77481 96.92371,16.95579 150.0332,20.91015 53.10951,3.95437 106.45781,4.68165 151.47657,1.53907 33.67982,-2.35106 62.67477,-6.84772 83.47851,-13.83008 -20.74311,8.30932 -49.94445,13.93409 -83.9082,17.04687 -45.00539,4.12475 -98.34094,3.89367 -151.39648,-0.0566 -53.05555,-3.95034 -105.83477,-11.62106 -149.73243,-22.36523 -33.12341,-8.10712 -61.1684,-17.99362 -80.45117,-29.28125 z" style="baseline-shift:baseline;display:inline;overflow:visible;vector-effect:none;fill-rule:evenodd;stroke-linecap:round;stroke-linejoin:round;enable-background:accumulate;stop-color:#000;stop-opacity:1"/>
	<path d="M365.338 50.391V152.318h4.459V50.391Zm537.494 0V152.318h4.461V50.391ZM916.463 50.391V152.318h13.639V50.391ZM392.615 173.77v3.971h8.396c.267-1.372.779-2.704 1.484-3.971zm17.941 0c-1.736 1.101-3.646 2.501-4.9 3.971h17.803c1.737-1.106 3.622-2.5 4.832-3.971zm22.299 0c-.248 1.357-.741 2.691-1.437 3.971h9.791v-3.971zm160.57 0v3.971h19.047c3.266-1.69 6.88-2.684 10.264-2.684 3.28 0 6.221.929 8.252 2.684h.365v-3.971zm40.408 0v3.971h8.184v-3.971zm59.998 0v3.971h37.93v-3.971zm40.41 0v3.971h8.18v-3.971zm59.99 0v3.971h37.93v-3.971zm40.41 0v3.971h8.189v-3.971zm-140.811 24.801v3.969h8.393c.267-1.371.779-2.702 1.484-3.969zm17.938 0c-1.735 1.101-3.646 2.5-4.9 3.969h17.803c1.737-1.106 3.62-2.498 4.83-3.969zm22.299 0c-.248 1.356-.742 2.689-1.437 3.969h9.791v-3.969zm60.164 0v3.969h19.055c3.265-1.688 6.879-2.682 10.262-2.682 3.279 0 6.219.928 8.25 2.682h.363v-3.969zm40.41 0v3.969h8.189v-3.969z" style="baseline-shift:baseline;display:inline;overflow:visible;opacity:1;vector-effect:none;stroke-linejoin:bevel;enable-background:accumulate;stop-color:#000;stop-opacity:1"/>
	<path d="m 232.14453,76.554687 v 76.722653 c 1.45075,1.40574 2.36007,3.28176 2.48047,5.58203 V 76.554687 Z m 198.40039,12.400391 v 76.720702 c 1.44316,1.39838 2.35055,3.2611 2.47852,5.54492 V 88.955078 Z m 200.8086,12.400392 v 76.71875 c 1.44429,1.39859 2.35244,3.26202 2.48046,5.54687 v -82.26562 z m 100.4082,0 v 89.125 c 1.46546,1.42179 2.37749,3.32298 2.48047,5.6582 v -94.7832 z m 100.40039,0 v 101.51562 c 1.43268,1.38559 2.33872,3.22939 2.48047,5.48633 V 101.35547 Z" style="baseline-shift:baseline;display:inline;overflow:visible;opacity:1;vector-effect:none;stroke-linejoin:bevel;enable-background:accumulate;stop-color:#000;stop-opacity:1"/>
	<path d="M223.525 150.258c-9.625 0-21.127 8.043-21.127 17.266 0 4.262 3.069 9.021 11.113 9.021 10.308 0 21.127-8.431 21.127-17.158 0-5.859-4.96-9.129-11.113-9.129zm3.674 4.666c2.387 0 3.969 1.394 3.969 3.564 0 4.278-10.012 9.037-10.322 9.238v-.002c-.295.186-7.534 4.154-11.006 4.154-3.27 0-3.969-2.665-3.969-3.564 0-4.169 9.921-9.022 10.324-9.223.387-.201 7.439-4.168 11.004-4.168zm194.727 7.732c-9.625 0-21.127 8.045-21.127 17.268 0 4.262 3.069 9.021 11.113 9.021 10.308 0 21.127-8.433 21.127-17.16 0-5.859-4.96-9.129-11.113-9.129zm3.674 4.666c2.387 0 3.969 1.396 3.969 3.566 0 4.278-10.014 9.037-10.324 9.238v-.002c-.295.186-7.532 4.154-11.004 4.154-3.27 0-3.969-2.665-3.969-3.564 0-4.169 9.921-9.022 10.324-9.223.387-.201 7.439-4.17 11.004-4.17zm197.137 7.734c-9.625 0-21.127 8.045-21.127 17.268 0 4.262 3.069 9.021 11.113 9.021 10.308 0 21.127-8.433 21.127-17.16 0-5.859-4.96-9.129-11.113-9.129zm3.674 4.666c2.387 0 3.969 1.394 3.969 3.564 0 4.278-10.012 9.037-10.322 9.238-.295.186-7.534 4.154-11.006 4.154-3.27 0-3.969-2.667-3.969-3.566 0-4.169 9.921-9.02 10.324-9.221.387-.201 7.439-4.17 11.004-4.17zm96.729 7.734c-9.625 0-21.127 8.045-21.127 17.268 0 4.262 3.069 9.02 11.113 9.02 10.308 0 21.127-8.431 21.127-17.158 0-5.859-4.96-9.129-11.113-9.129zm3.674 4.666c2.387 0 3.969 1.394 3.969 3.564 0 4.278-10.014 9.037-10.324 9.238-.295.186-7.532 4.152-11.004 4.152-3.27 0-3.969-2.665-3.969-3.564 0-4.169 9.921-9.02 10.324-9.221.387-.201 7.439-4.17 11.004-4.17zm96.736 7.734c-9.625 0-21.127 8.043-21.127 17.266 0 4.262 3.069 9.021 11.113 9.021 10.308 0 21.127-8.431 21.127-17.158 0-5.859-4.96-9.129-11.113-9.129zm3.674 4.666c2.387 0 3.969 1.394 3.969 3.564 0 4.278-10.014 9.037-10.324 9.238v-.002c-.295.186-7.532 4.154-11.004 4.154-3.27 0-3.969-2.665-3.969-3.564 0-4.169 9.921-9.022 10.324-9.223.387-.201 7.439-4.168 11.004-4.168zM60.465 15.842c-.697 0-3.767 1.193-7.037 5.053-6.355 7.548-8.137 20.243-8.137 28.566 0 5.363.496 10.23 2.186 21.344-.109.093-5.271 5.348-7.348 7.037-9.036 8.432-21.529 20.428-21.529 40.283 0 18.538 16.166 33.125 34.627 33.125 2.867 0 5.55-.296 7.828-.699 1.891 9.532 2.977 16.478 2.977 21.732 0 10.323-5.255 15.779-15.268 15.779-2.387 0-4.464-.496-4.666-.496-.093-.109-.295-.202-.295-.295 0-.201.202-.311.496-.404 4.665-.697 9.316-4.664 9.316-11.004 0-5.363-4.062-11.021-11.502-11.021-6.944 0-11.408 5.658-11.408 12.199 0 6.557 5.053 15.189 18.445 15.189 4.665 0 8.742-1.193 12.307-3.379 5.363-3.766 6.742-10.322 6.742-16.568 0-3.859-.588-8.325-1.58-13.982-.295-1.984-.899-4.959-1.488-8.834 9.718-3.177 16.957-13.299 16.957-23.514 0-14.973-10.617-25.094-25.094-25.094-.992-5.952-1.984-11.812-2.883-17.361 10.525-11.021 17.762-23.42 17.762-39.184 0-9.037-2.775-16.367-4.371-19.947-2.371-5.053-5.255-8.525-7.037-8.525zm1.689 14.383c1.488 0 3.859 4.852 3.859 11.703 0 10.323-7.626 18.056-14.477 24.799-.589-3.968-1.084-7.827-1.084-11.996 0-3.673.294-7.052 1.084-10.121.899-3.968 5.456-14.385 10.617-14.385zM50.252 87.467c.883 5.347 1.58 10.013 2.277 14.09-9.036 2.681-15.174 12.198-15.174 21.529 0 6.944 5.455 16.461 13.391 16.461.79 0 1.691-.404 1.691-1.287 0-.899-.992-1.395-2.186-2.186-3.875-2.387-6.061-4.959-6.061-9.826 0-6.045 4.463-10.913 10.322-12.293l5.75 32.629c-1.984.403-3.859.604-5.75.604-14.182 0-26.289-9.92-26.289-24.908 0-12.09 8.526-22.909 17.268-30.457 1.674-1.488 3.272-2.867 4.76-4.355zm8.725 25.885c8.928 0 15.377 6.061 15.377 14.881 0 7.053-2.883 14.291-9.92 17.174-2.077-11.904-4.759-27.684-5.457-32.055zM130.975 74.375c-21.623 0-24.102 17.948-24.102 24.396 0 11.811 1.487 26.598 26.287 26.598 9.827 0 17.47-5.765 17.857-16.383 0-.496-.295-.791-.791-.791h-1.287c-.403 0-.789.404-.789.791-.403 8.246-6.264 13.207-14.99 13.207-8.633 0-12.803-4.666-12.803-13.393V89.844c0-5.549 2.187-11.904 11.021-11.904 4.666 0 6.741 1.689 7.842 3.379.093.201.094.295.094.496 0 .093 0 .296-.201.389-2.48 1.597-4.264 4.463-4.264 7.641 0 .403.001.79.094 1.193.496 4.061 3.783 7.238 7.844 7.734h1.084c4.96 0 8.928-3.968 8.928-8.928v-.588c0-.403-.093-1.101-.186-1.488C151.714 83.505 147.839 74.375 130.975 74.375Z" style="stroke-width:.992"/>
	<path d="m 219.60547,263.97461 c -4.75,0 -8.79663,2 -12.14063,6 -3.203,3.813 -4.70312,8.0172 -4.70312,13.1582 0,10.797 7.04725,18.45313 16.90625,18.45313 8,0 13.094,-4.70471 14.25,-13.09571 l -2.35938,-0.40429 c -1.344,7.453 -5.14087,11.15429 -11.29687,11.15429 -7.407,0 -10.90625,-5.10729 -10.90625,-15.90429 0,-5.703 0.74912,-9.45313 2.45312,-12.45313 1.546,-2.797 4.60938,-4.54687 7.85938,-4.54687 3.5,0 6.594,1.84387 8.5,5.04687 0.953,1.656 1.64075,3.50013 2.84375,7.45313 h 2.20312 l -0.75,-14.45313 h -1.90625 l -2,2.95313 c -3.641,-2.656 -5.49912,-3.36133 -8.95312,-3.36133 z m 203.21289,12.8125 c -3.156,0 -5.859,2.50012 -7.5,6.95312 v -6.20312 l -8.85938,0.54883 v 2.15429 h 2.04688 c 1.907,0.047 2.15625,0.344 2.15625,2.5 v 14.29688 c -0.047,0.75 -0.0939,1.04883 -0.29688,1.29883 -0.36,0.453 -1.36,0.65417 -3.5,0.70117 h -0.20312 v 1.79883 h 13.34375 v -1.79883 h -0.89063 c -3.36,-0.109 -3.79687,-0.3573 -3.79687,-2.1543 v -2.70312 c 0.047,-8.391 3.0475,-14.797 6.9375,-15 -0.687,0.812 -0.89063,1.312 -0.89063,2.25 0,1.609 1.14,2.75 2.75,2.75 1.844,0 3.04688,-1.34375 3.04688,-3.34375 0,-2.453 -1.70275,-4.04883 -4.34375,-4.04883 z m 100.4043,0 c -3.156,0 -5.859,2.50012 -7.5,6.95312 v -6.20312 l -8.85938,0.54883 v 2.15429 h 2.04688 c 1.906,0.047 2.15625,0.344 2.15625,2.5 v 14.29688 c -0.047,0.75 -0.0939,1.04883 -0.29688,1.29883 -0.359,0.453 -1.359,0.65417 -3.5,0.70117 h -0.20312 v 1.79883 h 13.34375 v -1.79883 h -0.89063 c -3.359,-0.109 -3.79687,-0.3573 -3.79687,-2.1543 v -2.70312 c 0.047,-8.391 3.0465,-14.797 6.9375,-15 -0.688,0.812 -0.89063,1.312 -0.89063,2.25 0,1.609 1.141,2.75 2.75,2.75 1.844,0 3.04688,-1.34375 3.04688,-3.34375 0,-2.453 -1.70275,-4.04883 -4.34375,-4.04883 z m 100.40625,0 c -3.156,0 -5.859,2.50012 -7.5,6.95312 v -6.20312 l -8.85938,0.54883 v 2.15429 h 2.04688 c 1.906,0.047 2.15625,0.344 2.15625,2.5 v 14.29688 c -0.047,0.75 -0.0939,1.04883 -0.29688,1.29883 -0.359,0.453 -1.359,0.65417 -3.5,0.70117 h -0.20312 v 1.79883 h 13.34375 v -1.79883 h -0.89063 c -3.359,-0.109 -3.79687,-0.3573 -3.79687,-2.1543 v -2.70312 c 0.047,-8.391 3.0465,-14.797 6.9375,-15 -0.688,0.812 -0.89063,1.312 -0.89063,2.25 0,1.609 1.141,2.75 2.75,2.75 1.844,0 3.04688,-1.34375 3.04688,-3.34375 0,-2.453 -1.70275,-4.04883 -4.34375,-4.04883 z m 92.79296,0 c -5.63999,0 -9.74999,2.64283 -9.75,6.29883 0,1.844 1.16016,3.04687 2.91016,3.04687 1.59,0 2.69922,-1.04687 2.69922,-2.54687 0,-0.656 -0.25,-1.34583 -0.75,-2.04883 -0.31,-0.359 -0.35938,-0.45117 -0.35938,-0.70117 0,-1 2.00016,-1.90625 4.41016,-1.90625 1.59,0 3.34063,0.5 4.14063,1.25 0.95,0.812 1.30859,2 1.30859,4.25 v 1.95312 c -5.2,0.906 -6.85859,1.297 -9.30859,2.25 -4.34,1.609 -6.39063,3.90442 -6.39063,7.10742 0,3.594 2.8,5.84571 7.25,5.84571 3.45,0 6.54922,-1.40613 8.69922,-3.95313 0.8,2.547 2.05062,3.54688 4.39062,3.54688 2.25,0 4.60938,-1.43958 4.60938,-2.89258 0,-0.359 -0.2,-0.60742 -0.5,-0.60742 -0.2,0 -0.4,0.0621 -0.75,0.20312 -0.7,0.297 -0.99844,0.35742 -1.39844,0.35742 -1.41,0 -1.91015,-0.90612 -1.91015,-3.45312 v -10.04688 c 0,-3.156 -0.55,-4.75012 -2,-5.95312 -1.64,-1.359 -4.09078,-2 -7.30079,-2 z m 83.35938,0.75 v 1.79883 h 0.91016 c 1.39,0.047 2.03984,0.65417 2.58984,2.45117 l 7.5,19.79883 h 1.75 l 5.95117,-15.79883 6.09961,15.79883 h 1.56055 l 7,-18.45313 c 1.09,-2.953 1.83945,-3.74987 3.68945,-3.79687 h 0.35938 v -1.79883 h -9.45899 v 1.79883 h 0.84961 c 1.75,0 2.44922,0.49975 2.44922,1.84375 0,0.5 -0.13867,1.15454 -0.38867,1.81054 l -4.25,11.39258 -4.91016,-12.8457 c -0.15,-0.359 -0.20117,-0.65588 -0.20117,-1.04688 0,-0.906 0.44984,-1.15429 2.08984,-1.15429 h 1.21094 v -1.79883 h -11.21094 v 1.79883 h 0.86133 c 1.6,0.047 2.24867,0.45275 2.63867,1.84375 l 0.41016,1.31054 -4.41016,11.64258 -4.83984,-12.54687 c -0.09,-0.344 -0.19922,-0.79871 -0.19922,-1.09571 0,-0.859 0.53906,-1.15429 2.03906,-1.15429 h 0.91016 v -1.79883 z m -78.75,11 v 2.29883 c 0,3 -0.15,3.703 -1,5 -1.25,1.844 -3.49922,3.09375 -5.69922,3.09375 -2.3,0 -3.94922,-1.64258 -3.94922,-3.89258 0,-2.109 1.04,-3.6073 3.25,-4.6543 1.54,-0.703 3.49844,-1.2047 7.39844,-1.8457 z"/>
	<path d="m 217.07617,0 c -0.295,0 -0.78923,0.29509375 -0.99023,0.49609375 -0.201,0.186 -4.75911,3.96867185 -5.16211,4.26367185 -0.387,0.295 -0.4961,0.7910156 -0.4961,0.7910156 0,0 -0.99329,2.7732657 -2.27929,6.4472658 h -5.54883 c -1.193,0 -1.39453,1.193359 -1.39453,1.193359 v 1.28711 c 0,1.1 1.39453,1.193359 1.39453,1.193359 h 4.35547 c -2.17,6.541 -4.55664,14.290938 -4.55664,16.460937 0,4.774 3.27147,5.857422 6.35547,5.857422 3.069,0 6.44726,-2.386718 6.44726,-2.386718 0,0 0.29485,0.697281 0.58985,1.488281 0.295,0.806 1.19336,0.898437 1.19335,0.898437 h 4.4629 c 1.287,0 1.48828,-1.083984 1.48828,-1.083984 v -1.890625 c 0,-2.186 1.58203,-7.146484 1.58203,-7.146484 l 4.16797,-9.423829 c 0,0 0.99275,-1.875187 2.09375,-2.867187 0.883,-0.697 1.78309,-1.099609 2.37109,-1.099609 0.109,0 0.29434,-5.79e-4 0.40234,0.107422 -1.395,0.884 -1.68945,2.371453 -1.68945,3.564453 0,1.193 1.2858,3.767578 3.9668,3.767578 3.379,0 4.55859,-2.07711 4.55859,-5.16211 0,-3.068872 -2.17022,-6.044675 -6.04492,-6.044921 -3.87468,2.28e-4 -6.04492,2.572265 -6.04492,2.572265 l -0.80664,-0.789062 c -0.496,-0.496 -1.28711,-0.496094 -1.28711,-0.496094 H 215.99023 L 219.35547,1.5820312 V 1.3808594 C 219.35647,0.68285938 218.67456,0 217.97656,0 Z m 35.51367,10.105469 c -2.077,0 -3.96976,1.19375 -4.75976,2.09375 l -4.75781,4.757812 c -0.294,0.294 -0.40235,0.497016 -0.40235,0.791016 0,0.496 0.40235,0.898437 0.40235,0.898437 0,0 0.58986,0.698485 1.38085,1.396485 0.31,0.295 0.60444,0.386718 0.89844,0.386718 0.295,0 0.49722,-0.09292 0.69922,-0.294921 0.202,-0.201 0.49499,-0.494985 1.08399,-1.083985 0.202,-0.201 0.40346,-0.310547 0.60546,-0.310547 0.388,0 0.68164,0.310547 0.68164,0.310547 0,0 6.35566,5.347094 7.34766,6.246094 1.085,0.791 2.18378,1.085938 3.17578,1.085937 2.077,0 3.96877,-1.195125 4.75977,-2.078125 l 4.75976,-4.757812 c 0.0497,-0.05217 0.0934,-0.103364 0.13282,-0.154297 -0.36929,0.369308 -0.5843,0.584315 -0.74219,0.742188 -0.2015,0.201475 -0.40277,0.294921 -0.69727,0.294921 -0.2945,0 -0.58843,-0.09415 -0.89843,-0.388671 -0.7905,-0.697475 -1.38086,-1.394532 -1.38086,-1.394532 0,0 -0.40235,-0.402437 -0.40235,-0.898437 0,-0.224033 0.063,-0.39526 0.22266,-0.59375 l -0.40625,0.40625 c -0.186,0.186 -0.38884,0.294922 -0.58985,0.294922 -0.403,0 -0.58984,-0.294922 -0.58984,-0.294922 0,0 -6.3537,-5.471469 -7.3457,-6.355469 -1.086,-0.79 -2.18574,-1.099609 -3.17774,-1.099609 z m -37.79101,5.566406 h 6.54101 c 0.31,0 0.3086,0.294922 0.3086,0.294922 0,0 -3.0838,9.128265 -3.9668,12.197265 -0.806,2.681 -3.47211,4.464844 -5.16211,4.464844 -0.294,0 -0.49626,-7.5e-4 -0.69726,-0.09375 -0.79,-0.403 -1.08594,-1.395468 -1.08594,-2.480469 0,-2.279 1.08594,-5.160156 1.08594,-5.160156 z" style="stroke-width:.992"/>
	<path d="m 274.39648,10.105469 c -2.077,0 -3.96731,1.1947 -4.75781,2.09375 l -4.75976,4.757812 c -0.2945,0.294425 -0.40235,0.496591 -0.40235,0.791016 0,0.496 0.40235,0.898437 0.40235,0.898437 0,0 0.59036,0.697057 1.38086,1.394532 0.31,0.294525 0.60393,0.388671 0.89843,0.388671 0.2945,0 0.49577,-0.09345 0.69727,-0.294921 0.2015,-0.201475 0.49694,-0.496888 1.08594,-1.085938 0.2015,-0.201475 0.40201,-0.308594 0.60351,-0.308594 0.3875,0 0.68164,0.308594 0.68164,0.308594 0,0 6.35566,5.349097 7.34766,6.248047 1.08505,0.790525 2.18573,1.083984 3.17773,1.083984 2.07704,0 3.9673,-1.192696 4.75782,-2.076172 l 4.12695,-4.128906 c -0.18748,0.172742 -0.3809,0.253906 -0.6543,0.253906 -0.2945,0 -0.59039,-0.09415 -0.90039,-0.388671 -0.7905,-0.697475 -1.37891,-1.394532 -1.37891,-1.394532 0,0 -0.40234,-0.402437 -0.40234,-0.898437 0,-0.293846 0.1072,-0.495578 0.40039,-0.789063 -0.1584,0.158405 -0.35376,0.353763 -0.60156,0.601563 -0.186,0.186 -0.38836,0.294922 -0.58984,0.294922 -0.40295,0 -0.5879,-0.294922 -0.5879,-0.294922 0,0 -6.35565,-5.470041 -7.34765,-6.353516 -1.085,-0.790525 -2.18574,-1.101562 -3.17774,-1.101562 z" style="stroke-width:.992"/>
	<path d="m 296.2207,10.105469 c -2.077,0 -3.96731,1.1947 -4.75781,2.09375 l -4.75977,4.757812 c -0.2945,0.294425 -0.40234,0.496591 -0.40234,0.791016 0,0.496 0.40234,0.898437 0.40234,0.898437 0,0 0.58841,0.697057 1.37891,1.394532 0.31,0.294525 0.60589,0.388671 0.90039,0.388671 0.2945,0 0.49577,-0.09345 0.69727,-0.294921 0.2015,-0.201475 0.49498,-0.496888 1.08398,-1.085938 0.2015,-0.201475 0.40397,-0.308594 0.60547,-0.308594 0.3875,0 0.68164,0.308594 0.68164,0.308594 0,0 6.35566,5.349097 7.34766,6.248047 1.08505,0.790525 2.18573,1.083984 3.17773,1.083984 2.07704,0 3.96729,-1.192696 4.75781,-2.076172 l 4.12696,-4.128906 c -0.18748,0.172742 -0.3809,0.253906 -0.6543,0.253906 -0.2945,0 -0.59039,-0.09415 -0.90039,-0.388671 -0.7905,-0.697475 -1.37891,-1.394532 -1.37891,-1.394532 0,0 -0.40234,-0.402437 -0.40234,-0.898437 0,-0.293846 0.1072,-0.495578 0.40039,-0.789063 -0.1584,0.158405 -0.35376,0.353763 -0.60156,0.601563 -0.186,0.186 -0.38837,0.294922 -0.58985,0.294922 -0.40295,0 -0.58984,-0.294922 -0.58984,-0.294922 0,0 -6.3537,-5.470041 -7.3457,-6.353516 -1.085,-0.790525 -2.18574,-1.101562 -3.17774,-1.101562 z" style="stroke-width:.992"/>
	<path d="m 318.04492,10.105469 c -2.077,0 -3.96926,1.1947 -4.75976,2.09375 l -4.75782,4.757812 c -0.2945,0.294425 -0.40234,0.496591 -0.40234,0.791016 0,0.496 0.40234,0.898437 0.40234,0.898437 0,0 0.58841,0.697057 1.37891,1.394532 0.31,0.294525 0.60589,0.388671 0.90039,0.388671 0.2945,0 0.49577,-0.09345 0.69727,-0.294921 0.2015,-0.201475 0.49498,-0.496888 1.08398,-1.085938 0.2015,-0.201475 0.40397,-0.308594 0.60547,-0.308594 0.3875,0 0.68164,0.308594 0.68164,0.308594 0,0 6.35566,5.349097 7.34766,6.248047 1.08505,0.790525 2.18573,1.083984 3.17773,1.083984 2.07704,0 3.96729,-1.192696 4.75781,-2.076172 l 4.12696,-4.128906 c -0.18748,0.172742 -0.3809,0.253906 -0.6543,0.253906 -0.2945,0 -0.59039,-0.09415 -0.90039,-0.388671 -0.7905,-0.697475 -1.37891,-1.394532 -1.37891,-1.394532 0,0 -0.40234,-0.402437 -0.40234,-0.898437 0,-0.294425 0.10784,-0.496591 0.40234,-0.791016 -0.18124,0.180711 -0.27349,0.271538 -0.60547,0.603516 -0.186,0.186 -0.38641,0.294922 -0.58789,0.294922 -0.40295,0 -0.58984,-0.294922 -0.58984,-0.294922 0,0 -6.3537,-5.470041 -7.3457,-6.353516 -1.085,-0.790525 -2.18574,-1.101562 -3.17774,-1.101562 z" style="stroke-width:.992"/>
	<path d="m 339.86914,10.105469 c -2.077,0 -3.96927,1.1947 -4.75977,2.09375 l -4.75781,4.757812 c -0.2945,0.294425 -0.40234,0.496591 -0.40234,0.791016 0,0.496 0.40234,0.898437 0.40234,0.898437 0,0 0.58841,0.697057 1.37891,1.394532 0.31,0.294525 0.60589,0.388671 0.90039,0.388671 0.2945,0 0.49576,-0.09345 0.69726,-0.294921 0.2015,-0.201475 0.49499,-0.496888 1.08399,-1.085938 0.2015,-0.201475 0.40397,-0.308594 0.60547,-0.308594 0.3875,0 0.68164,0.308594 0.68164,0.308594 0,0 6.35566,5.349097 7.34765,6.248047 1.08506,0.790525 2.18379,1.083984 3.17579,1.083984 2.07704,0 3.96924,-1.192696 4.75976,-2.076172 l 4.12695,-4.128906 c -0.18783,0.17297 -0.38267,0.253906 -0.65625,0.253906 -0.29449,0 -0.58843,-0.09415 -0.89843,-0.388671 -0.7905,-0.697475 -1.37891,-1.394532 -1.37891,-1.394532 0,0 -0.40234,-0.402437 -0.40234,-0.898437 0,-0.294425 0.10784,-0.496591 0.40234,-0.791016 -0.18124,0.180711 -0.27349,0.271538 -0.60547,0.603516 -0.186,0.186 -0.38641,0.294922 -0.58789,0.294922 -0.40295,0 -0.58984,-0.294922 -0.58984,-0.294922 0,0 -6.3537,-5.470041 -7.34571,-6.353516 -1.08499,-0.790525 -2.18573,-1.101562 -3.17773,-1.101562 z" style="stroke-width:.992"/>
	<path d="m 361.69336,10.105469 c -2.077,0 -3.96927,1.1947 -4.75977,2.09375 l -4.75781,4.757812 c -0.2945,0.294425 -0.40234,0.496591 -0.40234,0.791016 0,0.496 0.40234,0.898437 0.40234,0.898437 0,0 0.58841,0.697057 1.37891,1.394532 0.31,0.294525 0.60394,0.388671 0.89843,0.388671 0.29451,0 0.49772,-0.09345 0.69922,-0.294921 0.2015,-0.201475 0.49499,-0.496888 1.08399,-1.085938 0.2015,-0.201475 0.40397,-0.308594 0.60547,-0.308594 0.3875,0 0.68164,0.308594 0.68164,0.308594 0,0 6.3537,5.349097 7.3457,6.248047 1.08505,0.790525 2.18574,1.083984 3.17773,1.083984 2.07704,0 3.96925,-1.192696 4.75977,-2.076172 l 4.04883,-4.050781 c -0.15975,0.11904 -0.33231,0.175781 -0.56055,0.175781 -0.2945,0 -0.59039,-0.09415 -0.90039,-0.388671 -0.7905,-0.697475 -1.37891,-1.394532 -1.37891,-1.394532 0,0 -0.40234,-0.402437 -0.40234,-0.898437 0,-0.294425 0.10784,-0.496591 0.40234,-0.791016 l 0.61719,-0.617187 c -0.0456,0.03469 -0.0911,0.07549 -0.13672,0.121093 -0.20148,0.201475 -0.49713,0.495185 -1.10156,1.09961 -0.186,0.186 -0.38641,0.294922 -0.58789,0.294922 -0.40295,0 -0.58984,-0.294922 -0.58984,-0.294922 0,0 -6.35566,-5.470041 -7.34766,-6.353516 -1.085,-0.790525 -2.18378,-1.101562 -3.17578,-1.101562 z" style="stroke-width:.992"/>
	<path d="m 383.5332,10.105469 c -2.077,0 -3.96926,1.1947 -4.75976,2.09375 l -4.75782,4.757812 c -0.2945,0.294425 -0.40234,0.496591 -0.40234,0.791016 0,0.496 0.40234,0.898437 0.40234,0.898437 0,0 0.58841,0.697057 1.37891,1.394532 0.31,0.294525 0.60589,0.388671 0.90039,0.388671 0.2945,0 0.49577,-0.09345 0.69727,-0.294921 0.2015,-0.201475 0.49498,-0.496888 1.08398,-1.085938 0.2015,-0.201475 0.40397,-0.308594 0.60547,-0.308594 0.3875,0 0.68164,0.308594 0.68164,0.308594 0,0 6.35566,5.349097 7.34766,6.248047 1.08505,0.790525 2.18378,1.083984 3.17578,1.083984 2.07704,0 3.96924,-1.192696 4.75976,-2.076172 l 4.12696,-4.128906 c -0.18783,0.17297 -0.38268,0.253906 -0.65625,0.253906 -0.2945,0 -0.58844,-0.09415 -0.89844,-0.388671 -0.7905,-0.697475 -1.37891,-1.394532 -1.37891,-1.394532 0,0 -0.40429,-0.402437 -0.40429,-0.898437 0,-0.294425 0.10979,-0.496591 0.40429,-0.791016 -0.18124,0.180711 -0.27348,0.271538 -0.60547,0.603516 -0.18599,0.186 -0.38641,0.294922 -0.58789,0.294922 -0.40295,0 -0.58984,-0.294922 -0.58984,-0.294922 0,0 -6.3537,-5.470041 -7.3457,-6.353516 -1.085,-0.790525 -2.18574,-1.101562 -3.17774,-1.101562 z" style="stroke-width:.992"/>
	<path d="m 405.35742,10.105469 c -2.077,0 -3.96926,1.1947 -4.75976,2.09375 l -4.75782,4.757812 c -0.2945,0.294425 -0.40429,0.496591 -0.40429,0.791016 0,0.496 0.40429,0.898437 0.40429,0.898437 0,0 0.58841,0.697057 1.37891,1.394532 0.31,0.294525 0.60394,0.388671 0.89844,0.388671 0.2945,0 0.49772,-0.09345 0.69922,-0.294921 0.2015,-0.201475 0.49498,-0.496888 1.08398,-1.085938 0.2015,-0.201475 0.40397,-0.308594 0.60547,-0.308594 0.3875,0 0.68164,0.308594 0.68164,0.308594 0,0 6.3537,5.349097 7.3457,6.248047 1.08505,0.790525 2.18574,1.083984 3.17774,1.083984 2.07704,0 3.96924,-1.192696 4.75976,-2.076172 l 4.16797,-4.169921 c -0.2015,0.201475 -0.40276,0.294921 -0.69726,0.294921 -0.2945,0 -0.58844,-0.09415 -0.89844,-0.388671 -0.7905,-0.697475 -1.37891,-1.394532 -1.37891,-1.394532 0,0 -0.40429,-0.402437 -0.40429,-0.898437 0,-0.294425 0.10979,-0.496591 0.40429,-0.791016 -0.18124,0.180711 -0.27349,0.271538 -0.60547,0.603516 -0.186,0.186 -0.38641,0.294922 -0.58789,0.294922 -0.40295,0 -0.58984,-0.294922 -0.58984,-0.294922 0,0 -6.35566,-5.470041 -7.34766,-6.353516 -1.085,-0.790525 -2.18378,-1.101562 -3.17578,-1.101562 z" style="stroke-width:.992"/>
	<path d="m 427.17969,10.105469 c -2.077,0 -3.96731,1.1947 -4.75782,2.09375 l -4.75781,4.757812 c -0.2945,0.294425 -0.40429,0.496591 -0.40429,0.791016 0,0.496 0.40429,0.898437 0.40429,0.898437 0,0 0.58841,0.697057 1.37891,1.394532 0.31,0.294525 0.60394,0.388671 0.89844,0.388671 0.2945,0 0.49576,-0.09345 0.69726,-0.294921 0.2015,-0.201475 0.49694,-0.496888 1.08594,-1.085938 0.2015,-0.201475 0.40202,-0.308594 0.60351,-0.308594 0.3875,0 0.6836,0.308594 0.6836,0.308594 0,0 6.3537,5.349097 7.3457,6.248047 1.08505,0.790525 2.18574,1.083984 3.17774,1.083984 2.07704,0 3.96924,-1.192696 4.75976,-2.076172 l 4.16797,-4.169921 c -0.2015,0.201475 -0.40276,0.294921 -0.69727,0.294921 -0.2945,0 -0.58843,-0.09415 -0.89843,-0.388671 -0.7905,-0.697475 -1.37891,-1.394532 -1.37891,-1.394532 0,0 -0.4043,-0.402437 -0.4043,-0.898437 0,-0.294425 0.1098,-0.496591 0.4043,-0.791016 -0.18124,0.180711 -0.27349,0.271538 -0.60547,0.603516 -0.186,0.186 -0.38641,0.294922 -0.58789,0.294922 -0.40295,0 -0.58984,-0.294922 -0.58984,-0.294922 0,0 -6.35566,-5.470041 -7.34766,-6.353516 -1.085,-0.790525 -2.18573,-1.101562 -3.17773,-1.101562 z" style="stroke-width:.992"/>
	<path d="m 449.00391,10.105469 c -2.077,0 -3.96732,1.1947 -4.75782,2.09375 l -4.75781,4.757812 c -0.2945,0.294425 -0.4043,0.496591 -0.4043,0.791016 0,0.496 0.4043,0.898437 0.4043,0.898437 0,0 0.58841,0.697057 1.37891,1.394532 0.31,0.294525 0.60393,0.388671 0.89843,0.388671 0.29451,0 0.49577,-0.09345 0.69727,-0.294921 0.2015,-0.201475 0.49694,-0.496888 1.08594,-1.085938 0.2015,-0.201475 0.40201,-0.308594 0.60351,-0.308594 0.3875,0 0.6836,0.308594 0.6836,0.308594 0,0 6.3537,5.349097 7.3457,6.248047 1.08505,0.790525 2.18574,1.083984 3.17773,1.083984 2.07704,0 3.9673,-1.192696 4.75782,-2.076172 l 4.16992,-4.169921 c -0.2015,0.201475 -0.40277,0.294921 -0.69727,0.294921 -0.2945,0 -0.58843,-0.09415 -0.89843,-0.388671 -0.7905,-0.697475 -1.38086,-1.394532 -1.38086,-1.394532 0,0 -0.40235,-0.402437 -0.40235,-0.898437 0,-0.293846 0.10721,-0.495578 0.40039,-0.789063 -0.1584,0.158405 -0.35376,0.353763 -0.60156,0.601563 -0.186,0.186 -0.38836,0.294922 -0.58984,0.294922 -0.40295,0 -0.58789,-0.294922 -0.58789,-0.294922 0,0 -6.35566,-5.470041 -7.34766,-6.353516 -1.085,-0.790525 -2.18573,-1.101562 -3.17773,-1.101562 z" style="stroke-width:.992"/>
	<path d="m 470.82812,10.105469 c -2.077,0 -3.96731,1.1947 -4.75781,2.09375 l -4.75976,4.757812 c -0.2945,0.294425 -0.40235,0.496591 -0.40235,0.791016 0,0.496 0.40235,0.898437 0.40235,0.898437 0,0 0.59036,0.697057 1.38086,1.394532 0.31,0.294525 0.60393,0.388671 0.89843,0.388671 0.2945,0 0.49577,-0.09345 0.69727,-0.294921 0.2015,-0.201475 0.49694,-0.496888 1.08594,-1.085938 0.2015,-0.201475 0.40201,-0.308594 0.60351,-0.308594 0.3875,0 0.68164,0.308594 0.68164,0.308594 0,0 6.35566,5.349097 7.34766,6.248047 1.08505,0.790525 2.18573,1.083984 3.17773,1.083984 2.07704,0 3.9673,-1.192696 4.75782,-2.076172 l 4.16992,-4.169921 c -0.2015,0.201475 -0.40277,0.294921 -0.69727,0.294921 -0.2945,0 -0.58844,-0.09415 -0.89844,-0.388671 -0.7905,-0.697475 -1.38085,-1.394532 -1.38085,-1.394532 0,0 -0.40235,-0.402437 -0.40235,-0.898437 0,-0.293846 0.1072,-0.495578 0.40039,-0.789063 -0.1584,0.158405 -0.35376,0.353763 -0.60156,0.601563 -0.186,0.186 -0.38836,0.294922 -0.58984,0.294922 -0.40295,0 -0.58789,-0.294922 -0.58789,-0.294922 0,0 -6.35566,-5.470041 -7.34766,-6.353516 -1.085,-0.790525 -2.18573,-1.101562 -3.17774,-1.101562 z" style="stroke-width:.992"/>
	<path d="m 492.65234,10.105469 c -2.077,0 -3.96731,1.1947 -4.75781,2.09375 l -4.75976,4.757812 c -0.2945,0.294425 -0.40235,0.496591 -0.40235,0.791016 0,0.496 0.40235,0.898437 0.40235,0.898437 0,0 0.59035,0.697057 1.38085,1.394532 0.31,0.294525 0.60394,0.388671 0.89844,0.388671 0.2945,0 0.49577,-0.09345 0.69727,-0.294921 0.2015,-0.201475 0.49694,-0.496888 1.08594,-1.085938 0.2015,-0.201475 0.40201,-0.308594 0.60351,-0.308594 0.3875,0 0.68164,0.308594 0.68164,0.308594 0,0 6.35566,5.349097 7.34766,6.248047 1.08505,0.790525 2.18573,1.083984 3.17773,1.083984 2.07704,0 3.9673,-1.192696 4.75781,-2.076172 l 4.16993,-4.169921 c -0.2015,0.201475 -0.40277,0.294921 -0.69727,0.294921 -0.2945,0 -0.58844,-0.09415 -0.89844,-0.388671 -0.7905,-0.697475 -1.38086,-1.394532 -1.38086,-1.394532 0,0 -0.40234,-0.402437 -0.40234,-0.898437 0,-0.293846 0.1072,-0.495578 0.40039,-0.789063 -0.1584,0.158405 -0.35376,0.353763 -0.60156,0.601563 -0.186,0.186 -0.38836,0.294922 -0.58985,0.294922 -0.40294,0 -0.58789,-0.294922 -0.58789,-0.294922 0,0 -6.35565,-5.470041 -7.34765,-6.353516 -1.085,-0.790525 -2.18574,-1.101562 -3.17774,-1.101562 z" style="stroke-width:.992"/>
	<path d="m 514.47656,10.105469 c -2.077,0 -3.96731,1.1947 -4.75781,2.09375 l -4.75977,4.757812 c -0.2945,0.294425 -0.40234,0.496591 -0.40234,0.791016 0,0.496 0.40234,0.898437 0.40234,0.898437 0,0 0.59036,0.697057 1.38086,1.394532 0.31,0.294525 0.60394,0.388671 0.89844,0.388671 0.2945,0 0.49577,-0.09345 0.69727,-0.294921 0.2015,-0.201475 0.49498,-0.496888 1.08398,-1.085938 0.2015,-0.201475 0.40397,-0.308594 0.60547,-0.308594 0.3875,0 0.68164,0.308594 0.68164,0.308594 0,0 6.35566,5.349097 7.34766,6.248047 1.08505,0.790525 2.18573,1.083984 3.17773,1.083984 2.07704,0 3.96729,-1.192696 4.75781,-2.076172 l 4.12696,-4.128906 c -0.18748,0.172742 -0.3809,0.253906 -0.6543,0.253906 -0.2945,0 -0.59039,-0.09415 -0.90039,-0.388671 -0.7905,-0.697475 -1.37891,-1.394532 -1.37891,-1.394532 0,0 -0.40234,-0.402437 -0.40234,-0.898437 0,-0.293846 0.1072,-0.495578 0.40039,-0.789063 -0.1584,0.158405 -0.35376,0.353763 -0.60156,0.601563 -0.186,0.186 -0.38837,0.294922 -0.58985,0.294922 -0.40295,0 -0.58789,-0.294922 -0.58789,-0.294922 0,0 -6.35565,-5.470041 -7.34765,-6.353516 -1.085,-0.790525 -2.18574,-1.101562 -3.17774,-1.101562 z" style="stroke-width:.992"/>
	<path d="m 536.30078,10.105469 c -2.077,0 -3.96731,1.1947 -4.75781,2.09375 l -4.75977,4.757812 c -0.2945,0.294425 -0.40234,0.496591 -0.40234,0.791016 0,0.496 0.40234,0.898437 0.40234,0.898437 0,0 0.58841,0.697057 1.37891,1.394532 0.31,0.294525 0.60589,0.388671 0.90039,0.388671 0.2945,0 0.49577,-0.09345 0.69727,-0.294921 0.2015,-0.201475 0.49498,-0.496888 1.08398,-1.085938 0.2015,-0.201475 0.40397,-0.308594 0.60547,-0.308594 0.3875,0 0.68164,0.308594 0.68164,0.308594 0,0 6.35566,5.349097 7.34766,6.248047 1.08505,0.790525 2.18573,1.083984 3.17773,1.083984 2.07704,0 3.96729,-1.192696 4.75781,-2.076172 l 4.12696,-4.128906 c -0.18748,0.172742 -0.3809,0.253906 -0.6543,0.253906 -0.2945,0 -0.59039,-0.09415 -0.90039,-0.388671 -0.7905,-0.697475 -1.37891,-1.394532 -1.37891,-1.394532 0,0 -0.40234,-0.402437 -0.40234,-0.898437 0,-0.293846 0.1072,-0.495578 0.40039,-0.789063 -0.15841,0.158405 -0.35376,0.353763 -0.60156,0.601563 -0.186,0.186 -0.38837,0.294922 -0.58985,0.294922 -0.40295,0 -0.58984,-0.294922 -0.58984,-0.294922 0,0 -6.3537,-5.470041 -7.3457,-6.353516 -1.085,-0.790525 -2.18574,-1.101562 -3.17774,-1.101562 z" style="stroke-width:.992"/>
	<path d="m 558.125,10.105469 c -2.077,0 -3.96927,1.1947 -4.75977,2.09375 l -4.75781,4.757812 c -0.2945,0.294425 -0.40234,0.496591 -0.40234,0.791016 0,0.496 0.40234,0.898437 0.40234,0.898437 0,0 0.58841,0.697057 1.37891,1.394532 0.31,0.294525 0.60589,0.388671 0.90039,0.388671 0.2945,0 0.49576,-0.09345 0.69726,-0.294921 0.2015,-0.201475 0.49499,-0.496888 1.08399,-1.085938 0.2015,-0.201475 0.40397,-0.308594 0.60547,-0.308594 0.3875,0 0.68164,0.308594 0.68164,0.308594 0,0 6.35565,5.349097 7.34765,6.248047 1.08505,0.790525 2.18379,1.083984 3.17579,1.083984 2.07704,0 3.96924,-1.192696 4.75976,-2.076172 l 4.12695,-4.128906 c -0.18747,0.172742 -0.38089,0.253906 -0.65429,0.253906 -0.2945,0 -0.59039,-0.09415 -0.90039,-0.388671 -0.7905,-0.697475 -1.37891,-1.394532 -1.37891,-1.394532 0,0 -0.40234,-0.402437 -0.40234,-0.898437 0,-0.294425 0.10784,-0.496591 0.40234,-0.791016 -0.18124,0.180711 -0.27349,0.271538 -0.60547,0.603516 -0.186,0.186 -0.38641,0.294922 -0.58789,0.294922 -0.40295,0 -0.58984,-0.294922 -0.58984,-0.294922 0,0 -6.35371,-5.470041 -7.34571,-6.353516 -1.085,-0.790525 -2.18573,-1.101562 -3.17773,-1.101562 z" style="stroke-width:.992"/>
	<path d="m 579.94922,10.105469 c -2.077,0 -3.96927,1.1947 -4.75977,2.09375 l -4.75781,4.757812 c -0.2945,0.294425 -0.40234,0.496591 -0.40234,0.791016 0,0.496 0.40234,0.898437 0.40234,0.898437 0,0 0.58841,0.697057 1.37891,1.394532 0.31,0.294525 0.60589,0.388671 0.90039,0.388671 0.2945,0 0.49576,-0.09345 0.69726,-0.294921 0.2015,-0.201475 0.49499,-0.496888 1.08399,-1.085938 0.2015,-0.201475 0.40397,-0.308594 0.60547,-0.308594 0.3875,0 0.68164,0.308594 0.68164,0.308594 0,0 6.35565,5.349097 7.34765,6.248047 1.08505,0.790525 2.18378,1.083984 3.17578,1.083984 2.07704,0 3.96925,-1.192696 4.75977,-2.076172 l 4.12695,-4.128906 c -0.18783,0.17297 -0.38267,0.253906 -0.65625,0.253906 -0.2945,0 -0.58843,-0.09415 -0.89843,-0.388671 -0.7905,-0.697475 -1.37891,-1.394532 -1.37891,-1.394532 0,0 -0.4043,-0.402437 -0.4043,-0.898437 0,-0.294425 0.1098,-0.496591 0.4043,-0.791016 -0.18124,0.180711 -0.27349,0.271538 -0.60547,0.603516 -0.186,0.186 -0.38641,0.294922 -0.58789,0.294922 -0.40295,0 -0.58984,-0.294922 -0.58984,-0.294922 0,0 -6.35371,-5.470041 -7.34571,-6.353516 -1.085,-0.790525 -2.18573,-1.101562 -3.17773,-1.101562 z" style="stroke-width:.992"/>
	<path d="m 601.77344,10.105469 c -2.077,0 -3.96927,1.1947 -4.75977,2.09375 l -4.75781,4.757812 c -0.2945,0.294425 -0.4043,0.496591 -0.4043,0.791016 0,0.496 0.4043,0.898437 0.4043,0.898437 0,0 0.58841,0.697057 1.37891,1.394532 0.31,0.294525 0.60393,0.388671 0.89843,0.388671 0.2945,0 0.49772,-0.09345 0.69922,-0.294921 0.2015,-0.201475 0.49499,-0.496888 1.08399,-1.085938 0.2015,-0.201475 0.40397,-0.308594 0.60546,-0.308594 0.38751,0 0.68165,0.308594 0.68165,0.308594 0,0 6.3537,5.349097 7.3457,6.248047 1.08505,0.790525 2.18573,1.083984 3.17773,1.083984 2.07704,0 3.96925,-1.192696 4.75977,-2.076172 l 4.16797,-4.169921 c -0.2015,0.201475 -0.40277,0.294921 -0.69727,0.294921 -0.2945,0 -0.58844,-0.09415 -0.89844,-0.388671 -0.7905,-0.697475 -1.3789,-1.394532 -1.3789,-1.394532 0,0 -0.4043,-0.402437 -0.4043,-0.898437 0,-0.294425 0.1098,-0.496591 0.4043,-0.791016 -0.18124,0.180711 -0.27349,0.271538 -0.60547,0.603516 -0.186,0.186 -0.38641,0.294922 -0.58789,0.294922 -0.40295,0 -0.58984,-0.294922 -0.58985,-0.294922 0,0 -6.35565,-5.470041 -7.34765,-6.353516 -1.085,-0.790525 -2.18378,-1.101562 -3.17578,-1.101562 z" style="stroke-width:.992"/>
	<path d="m 623.5957,10.105469 c -2.077,0 -3.96731,1.1947 -4.75781,2.09375 l -4.75781,4.757812 c -0.2945,0.294425 -0.4043,0.496591 -0.4043,0.791016 0,0.496 0.4043,0.898437 0.4043,0.898437 0,0 0.5884,0.697057 1.3789,1.394532 0.31,0.294525 0.60394,0.388671 0.89844,0.388671 0.2945,0 0.49577,-0.09345 0.69727,-0.294921 0.2015,-0.201475 0.49693,-0.496888 1.08593,-1.085938 0.2015,-0.201475 0.40202,-0.308594 0.60352,-0.308594 0.3875,0 0.68359,0.308594 0.68359,0.308594 0,0 6.35371,5.349097 7.34571,6.248047 1.08505,0.790525 2.18573,1.083984 3.17773,1.083984 2.07704,0 3.96925,-1.192696 4.75977,-2.076172 l 4.16797,-4.169921 c -0.2015,0.201475 -0.40277,0.294921 -0.69727,0.294921 -0.2945,0 -0.58844,-0.09415 -0.89844,-0.388671 -0.7905,-0.697475 -1.3789,-1.394532 -1.3789,-1.394532 0,0 -0.4043,-0.402437 -0.4043,-0.898437 0,-0.294425 0.1098,-0.496591 0.4043,-0.791016 -0.18124,0.180711 -0.27349,0.271538 -0.60547,0.603516 -0.186,0.186 -0.38641,0.294922 -0.58789,0.294922 -0.40295,0 -0.58985,-0.294922 -0.58985,-0.294922 0,0 -6.35565,-5.470041 -7.34765,-6.353516 -1.085,-0.790525 -2.18574,-1.101562 -3.17774,-1.101562 z" style="stroke-width:.992"/>
	<path d="m 645.41992,10.105469 c -2.077,0 -3.96731,1.1947 -4.75781,2.09375 l -4.75781,4.757812 c -0.2945,0.294425 -0.4043,0.496591 -0.4043,0.791016 0,0.496 0.4043,0.898437 0.4043,0.898437 0,0 0.5884,0.697057 1.3789,1.394532 0.31,0.294525 0.60394,0.388671 0.89844,0.388671 0.2945,0 0.49577,-0.09345 0.69727,-0.294921 0.2015,-0.201475 0.49693,-0.496888 1.08593,-1.085938 0.2015,-0.201475 0.40202,-0.308594 0.60352,-0.308594 0.3875,0 0.68359,0.308594 0.68359,0.308594 0,0 6.35371,5.349097 7.34571,6.248047 1.08505,0.790525 2.18573,1.083984 3.17773,1.083984 2.07704,0 3.96729,-1.192696 4.75781,-2.076172 l 4.16992,-4.169921 c -0.2015,0.201475 -0.40276,0.294921 -0.69726,0.294921 -0.2945,0 -0.58844,-0.09415 -0.89844,-0.388671 -0.7905,-0.697475 -1.38086,-1.394532 -1.38086,-1.394532 0,0 -0.40234,-0.402437 -0.40234,-0.898437 0,-0.293846 0.1072,-0.495578 0.40039,-0.789063 -0.1584,0.158405 -0.35376,0.353763 -0.60156,0.601563 -0.186,0.186 -0.38837,0.294922 -0.58985,0.294922 -0.40295,0 -0.58789,-0.294922 -0.58789,-0.294922 0,0 -6.35565,-5.470041 -7.34765,-6.353516 -1.085,-0.790525 -2.18574,-1.101562 -3.17774,-1.101562 z" style="stroke-width:.992"/>
	<path d="m 667.24414,10.105469 c -2.077,0 -3.96731,1.1947 -4.75781,2.09375 l -4.75977,4.757812 c -0.2945,0.294425 -0.40234,0.496591 -0.40234,0.791016 0,0.496 0.40234,0.898437 0.40234,0.898437 0,0 0.59036,0.697057 1.38086,1.394532 0.31,0.294525 0.60394,0.388671 0.89844,0.388671 0.2945,0 0.49576,-0.09345 0.69726,-0.294921 0.2015,-0.201475 0.49694,-0.496888 1.08594,-1.085938 0.2015,-0.201475 0.40202,-0.308594 0.60352,-0.308594 0.3875,0 0.68164,0.308594 0.68164,0.308594 0,0 6.35566,5.349097 7.34765,6.248047 1.08506,0.790525 2.18574,1.083984 3.17774,1.083984 2.07704,0 3.96729,-1.192696 4.75781,-2.076172 l 4.125,-4.125 c -0.18648,0.170731 -0.37853,0.25 -0.65039,0.25 -0.2945,0 -0.58844,-0.09415 -0.89844,-0.388671 -0.7905,-0.697475 -1.38086,-1.394532 -1.38086,-1.394532 0,0 -0.40234,-0.402437 -0.40234,-0.898437 0,-0.294425 0.10784,-0.496591 0.40234,-0.791016 -0.18076,0.180769 -0.27319,0.271243 -0.60546,0.603516 -0.186,0.186 -0.38837,0.294922 -0.58985,0.294922 -0.40295,0 -0.58789,-0.294922 -0.58789,-0.294922 0,0 -6.35566,-5.470041 -7.34766,-6.353516 -1.085,-0.790525 -2.18573,-1.101562 -3.17773,-1.101562 z m 12.30859,6.851562 0.54688,-0.546875 c -0.0174,0.01591 -0.0352,0.03325 -0.0527,0.05078 -0.0907,0.09072 -0.34608,0.348033 -0.49414,0.496094 z" style="stroke-width:.992"/>
	<path d="m 689.07031,10.105469 c -2.077,0 -3.96731,1.1947 -4.75781,2.09375 l -4.75977,4.757812 c -0.2945,0.294425 -0.40234,0.496591 -0.40234,0.791016 0,0.496 0.40234,0.898437 0.40234,0.898437 0,0 0.59036,0.697057 1.38086,1.394532 0.31,0.294525 0.60394,0.388671 0.89844,0.388671 0.2945,0 0.49577,-0.09345 0.69727,-0.294921 0.2015,-0.201475 0.49693,-0.496888 1.08593,-1.085938 0.2015,-0.201475 0.40202,-0.308594 0.60352,-0.308594 0.3875,0 0.68164,0.308594 0.68164,0.308594 0,0 6.35566,5.349097 7.34766,6.248047 1.08505,0.790525 2.18573,1.083984 3.17773,1.083984 2.07704,0 3.96729,-1.192696 4.75781,-2.076172 l 4.75977,-4.759765 c 0.02,-0.02106 0.0383,-0.04162 0.0566,-0.0625 -0.3146,0.315179 -0.50578,0.50775 -0.65039,0.652344 -0.2015,0.201475 -0.40277,0.294921 -0.69727,0.294921 -0.2945,0 -0.58843,-0.09415 -0.89843,-0.388671 -0.7905,-0.697475 -1.38086,-1.394532 -1.38086,-1.394532 0,0 -0.40235,-0.402437 -0.40235,-0.898437 0,-0.26045 0.0853,-0.449571 0.3086,-0.69336 -0.1397,0.139695 -0.30627,0.30627 -0.50586,0.50586 -0.186,0.186 -0.38837,0.294922 -0.58985,0.294922 -0.40295,0 -0.58789,-0.294922 -0.58789,-0.294922 0,0 -6.35565,-5.470041 -7.34765,-6.353516 -1.085,-0.790525 -2.18574,-1.101562 -3.17774,-1.101562 z" style="stroke-width:.992"/>
	<path d="m 710.89062,10.105469 c -2.077,0 -3.96731,1.1947 -4.75781,2.09375 l -4.75976,4.757812 c -0.2945,0.294425 -0.40235,0.496591 -0.40235,0.791016 0,0.496 0.40235,0.898437 0.40235,0.898437 0,0 0.59036,0.697057 1.38086,1.394532 0.31,0.294525 0.60393,0.388671 0.89843,0.388671 0.2945,0 0.49577,-0.09345 0.69727,-0.294921 0.2015,-0.201475 0.49498,-0.496888 1.08398,-1.085938 0.2015,-0.201475 0.40397,-0.308594 0.60547,-0.308594 0.3875,0 0.68164,0.308594 0.68164,0.308594 0,0 6.35566,5.349097 7.34766,6.248047 1.08505,0.790525 2.18573,1.083984 3.17773,1.083984 2.07704,0 3.9673,-1.192696 4.75782,-2.076172 l 4.08398,-4.085937 c -0.17303,0.144045 -0.35509,0.210937 -0.60547,0.210937 -0.2945,0 -0.59039,-0.09415 -0.90039,-0.388671 -0.7905,-0.697475 -1.37891,-1.394532 -1.37891,-1.394532 10e-6,0 -0.40234,-0.402437 -0.40234,-0.898437 0,-0.294425 0.10785,-0.496591 0.40234,-0.791016 l 0.57618,-0.576172 c -0.0287,0.02455 -0.057,0.0511 -0.0859,0.08008 -0.20148,0.201475 -0.49518,0.495185 -1.09961,1.09961 -0.186,0.186 -0.38836,0.294922 -0.58984,0.294922 -0.40295,0 -0.58789,-0.294922 -0.58789,-0.294922 0,0 -6.35566,-5.470041 -7.34766,-6.353516 -1.085,-0.790525 -2.18574,-1.101562 -3.17774,-1.101562 z" style="stroke-width:.992"/>
	<path d="m 732.7207,10.105469 c -2.077,0 -3.96731,1.1947 -4.75781,2.09375 l -4.75977,4.757812 c -0.29449,0.294425 -0.40234,0.496591 -0.40234,0.791016 0,0.496 0.40235,0.898437 0.40234,0.898437 0,0 0.58841,0.697057 1.37891,1.394532 0.31,0.294525 0.60589,0.388671 0.90039,0.388671 0.2945,0 0.49577,-0.09345 0.69727,-0.294921 0.2015,-0.201475 0.49498,-0.496888 1.08398,-1.085938 0.2015,-0.201475 0.40397,-0.308594 0.60547,-0.308594 0.3875,0 0.68164,0.308594 0.68164,0.308594 0,0 6.35566,5.349097 7.34766,6.248047 1.08505,0.790525 2.18573,1.083984 3.17773,1.083984 2.07704,0 3.96729,-1.192696 4.75781,-2.076172 l 4.75782,-4.759765 c -0.26852,0.269097 -0.4597,0.45776 -0.5918,0.589844 -0.2015,0.201475 -0.40277,0.294921 -0.69727,0.294921 -0.2945,0 -0.59039,-0.09415 -0.90039,-0.388671 -0.7905,-0.697475 -1.3789,-1.394532 -1.3789,-1.394532 0,0 -0.40235,-0.402437 -0.40235,-0.898437 0,-0.26045 0.0853,-0.449571 0.3086,-0.69336 -0.1397,0.139695 -0.30627,0.30627 -0.50586,0.50586 -0.186,0.186 -0.38837,0.294922 -0.58985,0.294922 -0.40295,0 -0.58984,-0.294922 -0.58984,-0.294922 0,0 -6.3537,-5.470041 -7.3457,-6.353516 -1.085,-0.790525 -2.18574,-1.101562 -3.17774,-1.101562 z" style="stroke-width:.992"/>
	<path d="m 754.54102,10.105469 c -2.077,0 -3.96927,1.1947 -4.75977,2.09375 l -4.75781,4.757812 c -0.2945,0.294425 -0.40235,0.496591 -0.40235,0.791016 0,0.496 0.40235,0.898437 0.40235,0.898437 0,0 0.5884,0.697057 1.3789,1.394532 0.31,0.294525 0.60589,0.388671 0.90039,0.388671 0.2945,0 0.49577,-0.09345 0.69727,-0.294921 0.2015,-0.201475 0.49498,-0.496888 1.08398,-1.085938 0.2015,-0.201475 0.40397,-0.308594 0.60547,-0.308594 0.3875,0 0.68164,0.308594 0.68164,0.308594 0,0 6.35566,5.349097 7.34766,6.248047 1.08505,0.790525 2.18378,1.083984 3.17578,1.083984 2.07704,0 3.96925,-1.192696 4.75977,-2.076172 l 4.75781,-4.759765 c -0.26851,0.269097 -0.4597,0.45776 -0.5918,0.589844 -0.2015,0.201475 -0.40472,0.294921 -0.69922,0.294921 -0.2945,0 -0.58843,-0.09415 -0.89843,-0.388671 -0.7905,-0.697475 -1.37891,-1.394532 -1.37891,-1.394532 0,0 -0.40234,-0.402437 -0.40234,-0.898437 0,-0.267159 0.0897,-0.457849 0.32617,-0.710938 -0.14391,0.143602 -0.3167,0.314746 -0.52539,0.523438 -0.186,0.186 -0.38641,0.294922 -0.58789,0.294922 -0.40295,0 -0.58985,-0.294922 -0.58985,-0.294922 0,0 -6.3537,-5.470041 -7.3457,-6.353516 -1.085,-0.790525 -2.18573,-1.101562 -3.17773,-1.101562 z" style="stroke-width:.992"/>
	<path d="m 776.36133,10.105469 c -2.077,0 -3.96927,1.1947 -4.75977,2.09375 l -4.75781,4.757812 c -0.2945,0.294425 -0.40234,0.496591 -0.40234,0.791016 0,0.496 0.40234,0.898437 0.40234,0.898437 0,0 0.58841,0.697057 1.37891,1.394532 0.31,0.294525 0.60393,0.388671 0.89843,0.388671 0.2945,0 0.49772,-0.09345 0.69922,-0.294921 0.2015,-0.201475 0.49499,-0.496888 1.08399,-1.085938 0.2015,-0.201475 0.40397,-0.308594 0.60547,-0.308594 0.3875,0 0.68164,0.308594 0.68164,0.308594 0,0 6.3537,5.349097 7.3457,6.248047 1.08505,0.790525 2.18573,1.083984 3.17773,1.083984 2.07704,0 3.96925,-1.192696 4.75977,-2.076172 l 4.08594,-4.08789 c -0.17366,0.144444 -0.35867,0.21289 -0.60938,0.21289 -0.2945,0 -0.58844,-0.09415 -0.89844,-0.388671 -0.7905,-0.697475 -1.3789,-1.394532 -1.3789,-1.394532 0,0 -0.4043,-0.402437 -0.4043,-0.898437 0,-0.294425 0.1098,-0.496591 0.4043,-0.791016 l 0.57422,-0.574219 c -0.0282,0.02416 -0.0556,0.0497 -0.084,0.07813 -0.20148,0.201475 -0.49713,0.495185 -1.10156,1.09961 -0.186,0.186 -0.38641,0.294922 -0.58789,0.294922 -0.40295,0 -0.58984,-0.294922 -0.58984,-0.294922 0,0 -6.35566,-5.470041 -7.34766,-6.353516 -1.085,-0.790525 -2.18378,-1.101562 -3.17578,-1.101562 z" style="stroke-width:.992"/>
	<path d="m 798.19141,10.105469 c -2.077,0 -3.96927,1.1947 -4.75977,2.09375 l -4.75781,4.757812 c -0.2945,0.294425 -0.4043,0.496591 -0.4043,0.791016 0,0.496 0.4043,0.898437 0.4043,0.898437 0,0 0.5884,0.697057 1.3789,1.394532 0.31,0.294525 0.60394,0.388671 0.89844,0.388671 0.2945,0 0.49772,-0.09345 0.69922,-0.294921 0.2015,-0.201475 0.49498,-0.496888 1.08398,-1.085938 0.2015,-0.201475 0.40397,-0.308594 0.60547,-0.308594 0.3875,0 0.68164,0.308594 0.68164,0.308594 0,0 6.35371,5.349097 7.34571,6.248047 1.08505,0.790525 2.18573,1.083984 3.17773,1.083984 2.07704,0 3.96925,-1.192696 4.75977,-2.076172 l 4.75781,-4.759765 c 0.0156,-0.01647 0.0303,-0.03247 0.0449,-0.04883 -0.30711,0.307115 -0.49616,0.496179 -0.63867,0.638672 -0.2015,0.201475 -0.40277,0.294921 -0.69727,0.294921 -0.2945,0 -0.58843,-0.09415 -0.89843,-0.388671 -0.7905,-0.697475 -1.37891,-1.394532 -1.37891,-1.394532 0,0 -0.4043,-0.402437 -0.4043,-0.898437 0,-0.266911 0.0899,-0.458198 0.32618,-0.710938 -0.14377,0.143459 -0.31509,0.315087 -0.52344,0.523438 -0.186,0.186 -0.38641,0.294922 -0.58789,0.294922 -0.40295,0 -0.58985,-0.294922 -0.58985,-0.294922 0,0 -6.35565,-5.470041 -7.34765,-6.353516 -1.085,-0.790525 -2.18378,-1.101562 -3.17578,-1.101562 z" style="stroke-width:.992"/>
	<path d="m 820.00977,10.105469 c -2.077,0 -3.96732,1.1947 -4.75782,2.09375 l -4.75781,4.757812 c -0.2945,0.294425 -0.4043,0.496591 -0.4043,0.791016 0,0.496 0.4043,0.898437 0.4043,0.898437 0,0 0.58841,0.697057 1.37891,1.394532 0.31,0.294525 0.60393,0.388671 0.89843,0.388671 0.2945,0 0.49577,-0.09345 0.69727,-0.294921 0.2015,-0.201475 0.49694,-0.496888 1.08594,-1.085938 0.2015,-0.201475 0.40201,-0.308594 0.60351,-0.308594 0.3875,0 0.6836,0.308594 0.6836,0.308594 0,0 6.3537,5.349097 7.3457,6.248047 1.08505,0.790525 2.18573,1.083984 3.17773,1.083984 2.07704,0 3.9673,-1.192696 4.75782,-2.076172 l 4.0957,-4.095703 c -0.17619,0.150213 -0.36167,0.220703 -0.61719,0.220703 -0.2945,0 -0.58844,-0.09415 -0.89844,-0.388671 -0.79049,-0.697475 -1.3789,-1.394532 -1.3789,-1.394532 0,0 -0.4043,-0.402437 -0.4043,-0.898437 0,-0.294425 0.1098,-0.496591 0.4043,-0.791016 l 0.57422,-0.574219 c -0.0282,0.02416 -0.0556,0.0497 -0.084,0.07813 -0.20148,0.201475 -0.49713,0.495185 -1.10156,1.09961 -0.186,0.186 -0.38836,0.294922 -0.58984,0.294922 -0.40295,0 -0.58789,-0.294922 -0.58789,-0.294922 0,0 -6.35566,-5.470041 -7.34766,-6.353516 -1.085,-0.790525 -2.18573,-1.101562 -3.17773,-1.101562 z" style="stroke-width:.992"/>
	<path d="m 841.83984,10.105469 c -2.077,0 -3.96731,1.1947 -4.75781,2.09375 l -4.75781,4.757812 c -0.2945,0.294425 -0.4043,0.496591 -0.4043,0.791016 0,0.496 0.4043,0.898437 0.4043,0.898437 0,0 0.58841,0.697057 1.3789,1.394532 0.31,0.294525 0.60394,0.388671 0.89844,0.388671 0.2945,0 0.49577,-0.09345 0.69727,-0.294921 0.2015,-0.201475 0.49694,-0.496888 1.08594,-1.085938 0.2015,-0.201475 0.40201,-0.308594 0.60351,-0.308594 0.3875,0 0.6836,0.308594 0.68359,0.308594 0,0 6.35371,5.349097 7.34571,6.248047 1.08505,0.790525 2.18573,1.083984 3.17773,1.083984 2.07704,0 3.96729,-1.192696 4.75781,-2.076172 l 4.75977,-4.759765 c 0.0546,-0.0575 0.10224,-0.114059 0.14453,-0.169922 -0.37944,0.379965 -0.59746,0.59943 -0.75781,0.759766 -0.2015,0.201475 -0.40277,0.294921 -0.69727,0.294921 -0.2945,0 -0.58843,-0.09415 -0.89843,-0.388671 -0.7905,-0.697475 -1.38086,-1.394532 -1.38086,-1.394532 0,0 -0.40235,-0.402437 -0.40235,-0.898437 0,-0.213645 0.0575,-0.379418 0.20117,-0.566406 -0.11073,0.110735 -0.23655,0.236556 -0.3789,0.378906 -0.186,0.186 -0.38836,0.294922 -0.58985,0.294922 -0.40295,0 -0.58789,-0.294922 -0.58789,-0.294922 0,0 -6.35565,-5.470041 -7.34765,-6.353516 -1.085,-0.790525 -2.18574,-1.101562 -3.17774,-1.101562 z" style="stroke-width:.992"/>
	<path d="m 863.64062,10.105469 c -2.077,0 -3.96731,1.1947 -4.75781,2.09375 l -4.75976,4.757812 c -0.2945,0.294425 -0.40235,0.496591 -0.40235,0.791016 0,0.496 0.40235,0.898437 0.40235,0.898437 0,0 0.59036,0.697057 1.38086,1.394532 0.31,0.294525 0.60393,0.388671 0.89843,0.388671 0.2945,0 0.49577,-0.09345 0.69727,-0.294921 0.2015,-0.201475 0.49498,-0.496888 1.08398,-1.085938 0.2015,-0.201475 0.40397,-0.308594 0.60547,-0.308594 0.3875,0 0.68164,0.308594 0.68164,0.308594 0,0 6.35566,5.349097 7.34766,6.248047 1.08505,0.790525 2.18573,1.083984 3.17773,1.083984 2.07704,0 3.9673,-1.192696 4.75782,-2.076172 l 4.75781,-4.759765 c 0.29453,-0.31 0.4043,-0.603113 0.4043,-0.804688 0,-0.495888 -0.40412,-0.790883 -0.4043,-0.791015 0,0 -0.58848,-0.696906 -1.37891,-1.378907 -0.31,-0.309999 -0.69775,-0.404296 -0.99219,-0.404296 -0.30999,0 -0.49569,0.09335 -0.69726,0.294921 -0.20148,0.201475 -0.49518,0.495185 -1.09961,1.09961 -0.186,0.186 -0.38836,0.294922 -0.58984,0.294922 -0.40295,0 -0.58789,-0.294922 -0.58789,-0.294922 0,0 -6.35566,-5.470041 -7.34766,-6.353516 -1.085,-0.790525 -2.18574,-1.101562 -3.17774,-1.101562 z" style="stroke-width:.992"/>
	<path d="m 313.02148,288.17578 v 2.48047 h 14.88086 v -2.48047 z m 146.65235,0 v 2.48047 h 14.88086 v -2.48047 z m 100.40625,0 v 2.48047 h 14.8789 v -2.48047 z m 99.15429,0 v 2.48047 h 14.87891 v -2.48047 z m 98.40821,0 v 2.48047 h 14.8789 v -2.48047 z" style="baseline-shift:baseline;display:inline;overflow:visible;opacity:1;vector-effect:none;stroke-linejoin:bevel;enable-background:accumulate;stop-color:#000;stop-opacity:1"/>
</svg>
