<?xml version="1.0" encoding="utf-8" standalone="no"?>
<svg xmlns="http://www.w3.org/2000/svg" version="1.2" viewBox="0 0 651.945 210.263">
  <title>Two bars of musical notation depicting the call of Silverspot the Crow. This call would translate in English to “all’s well, come right along!”</title>
  <path fill="none" stroke="#000" stroke-linejoin="bevel" stroke-width="2.73" d="M336.598 386.198 988.544 386.198M336.598 410.998 988.544 410.998M336.598 435.798 988.544 435.798M336.598 460.598 988.544 460.598M336.598 485.398 988.544 485.398" class="StaffLines" transform="translate(-336.6 -350.285)"/>
  <path fill="none" stroke="#000" stroke-linejoin="bevel" stroke-width="4.46" d="M693.754 384.834 693.754 486.762M963.496 384.834 963.496 486.762" class="BarLine" transform="translate(-336.6 -350.285)"/>
  <path fill="none" stroke="#000" stroke-linejoin="bevel" stroke-width="13.64" d="M981.724 384.834 981.724 486.762" class="BarLine" transform="translate(-336.6 -350.285)"/>
  <path fill="none" stroke="#000" stroke-linejoin="bevel" stroke-width="2.48" d="M511.655 469.03 511.655 386.198M757.97 469.03 757.97 386.198" class="Stem" transform="translate(-336.6 -350.285)"/>
  <path d="M144.071 126.883c0 4.263 3.069 9.021 11.113 9.021 10.308 0 21.127-8.432 21.127-17.159 0-5.859-4.96-9.129-11.113-9.129-9.625 0-21.127 8.137-21.127 17.267M390.386 126.883c0 4.263 3.069 9.021 11.113 9.021 10.308 0 21.127-8.432 21.127-17.159 0-5.859-4.96-9.129-11.113-9.129-9.625 0-21.127 8.137-21.127 17.267" class="Note" style="stroke-width:.992"/>
  <path d="M232.881 104.506c.403.496 1.101.791 1.689.791.201 0 .496-.093.697-.201.295-.186.496-.496.496-.884 0-.294-.093-.604-.403-.992l-19.344-22.924c1.891.806 3.875 1.193 5.657 1.193.791 0 1.488-.093 2.185-.201 1.984-.295 3.767-.992 5.162-1.984 2.185-1.178 3.565-3.565 3.565-6.138 0-.31 0-.697-.093-.992-.496-3.58-3.581-6.06-6.944-6.06-.403 0-.899 0-1.302.108-3.472.589-5.952 3.658-5.844 7.037 0 .295 0 .496 0 .791.295 1.891 1.194 3.472 2.48 4.572-1.596-.109-3.177-.496-4.665-1.302-4.867-2.573-8.835-7.936-9.222-8.432-.295-.294-.698-.589-1.194-.589 0 0-.093 0-.201 0-.202 0-.496 0-.698.093-.387.31-.589.698-.589 1.101 0 .201.093.496.295.791l18.259 22.026c-1.782-.698-3.472-.992-5.161-.992-.791 0-1.581.093-2.279.201-1.984.295-3.875.992-5.254 1.876-2.185 1.286-3.58 3.673-3.472 6.247 0 .31 0 .697 0 .992.589 3.472 3.565 6.06 7.037 6.06.403 0 .791-.108 1.193-.108 3.472-.589 5.844-3.565 5.952-6.944 0-.295 0-.589-.108-.884-.186-1.891-1.085-3.472-2.48-4.665 1.596.093 3.286.496 4.774 1.287 4.851 2.589 8.633 7.641 9.129 8.231l.682.899M485.889 104.506c.403.496 1.101.791 1.689.791.201 0 .496-.093.697-.201.295-.186.496-.496.496-.884 0-.294-.093-.604-.403-.992l-19.344-22.924c1.891.806 3.875 1.193 5.657 1.193.791 0 1.488-.093 2.185-.201 1.984-.295 3.767-.992 5.162-1.984 2.185-1.178 3.565-3.565 3.565-6.138 0-.31 0-.697-.093-.992-.496-3.58-3.581-6.06-6.944-6.06-.403 0-.899 0-1.302.108-3.472.589-5.952 3.658-5.844 7.037 0 .295 0 .496 0 .791.295 1.891 1.194 3.472 2.48 4.572-1.596-.109-3.177-.496-4.665-1.302-4.867-2.573-8.835-7.936-9.222-8.432-.295-.294-.698-.589-1.194-.589 0 0-.093 0-.201 0-.202 0-.496 0-.698.093-.387.31-.589.698-.589 1.101 0 .201.093.496.295.791l18.259 22.026c-1.782-.698-3.472-.992-5.161-.992-.791 0-1.581.093-2.279.201-1.984.295-3.875.992-5.254 1.876-2.185 1.286-3.58 3.673-3.472 6.247 0 .31 0 .697 0 .992.589 3.472 3.565 6.06 7.037 6.06.403 0 .791-.108 1.193-.108 3.472-.589 5.844-3.565 5.952-6.944 0-.295 0-.589-.108-.884-.186-1.891-1.085-3.472-2.48-4.665 1.596.093 3.286.496 4.774 1.287 4.851 2.589 8.633 7.641 9.129 8.231l.682.899" class="Symbol" style="stroke-width:.992"/>
  <path d="m 74.351856,112.39038 c 0,7.0525 -2.88295,14.291 -9.92,17.17405 -2.07695,-11.90405 -4.758426,-27.68305 -5.456,-32.054104 8.928,0 15.376,6.060544 15.376,14.880054 m -14.089475,18.35205 c -1.984,0.40295 -3.859475,0.60442 -5.750525,0.60442 -14.182426,0 -26.28797,-9.92 -26.28797,-24.90847 0,-12.090054 8.52502,-22.909004 17.26702,-30.457529 1.674,-1.488 3.270524,-2.867475 4.758524,-4.355475 0.883476,5.347475 1.580951,10.01295 2.278426,14.089475 -9.036426,2.681475 -15.174426,12.198525 -15.174426,21.529529 0,6.944 5.456,16.461 13.392,16.461 0.790426,0 1.689476,-0.40295 1.689476,-1.28653 0,-0.89895 -0.992,-1.39495 -2.185476,-2.18547 -3.875049,-2.387 -6.060524,-4.96 -6.060524,-9.827 0,-6.045 4.464,-10.912054 10.32295,-12.291529 l 5.750525,32.627579 M 51.535856,28.767901 c 0.89905,-3.968 5.456,-14.384 10.617574,-14.384 1.488,0 3.859476,4.851475 3.859476,11.702425 0,10.32305 -7.626,18.057575 -14.47705,24.8 -0.58895,-3.968 -1.08495,-7.827475 -1.08495,-11.99695 0,-3.673475 0.294524,-7.052525 1.08495,-10.121475 m -20.832,132.431999 c 0,6.55653 5.05305,15.19 18.44505,15.19 4.665475,0 8.742,-1.19347 12.30695,-3.37905 5.36305,-3.76642 6.742525,-10.32295 6.742525,-16.56947 0,-3.85948 -0.588951,-8.32348 -1.580951,-13.98095 -0.294524,-1.984 -0.899049,-4.96 -1.488,-8.83505 9.718426,-3.17748 16.956951,-13.29895 16.956951,-23.5135 0,-14.973029 -10.617475,-25.094504 -25.094525,-25.094504 -0.992,-5.952 -1.984,-11.81105 -2.88295,-17.36 10.524524,-11.020525 17.76295,-23.420525 17.76295,-39.184 0,-9.036525 -2.774426,-16.368 -4.37095,-19.948128 C 65.12943,3.472 62.246381,0 60.463856,0 c -0.697475,0 -3.766426,1.193376 -7.03695,5.053248 -6.35505,7.548128 -8.137476,20.242653 -8.137476,28.566128 0,5.36295 0.496,10.23 2.185476,21.343475 -0.108525,0.09305 -5.27,5.347475 -7.34705,7.03705 -9.036426,8.432 -21.529475,20.42895 -21.529475,40.284479 0,18.53805 16.166525,33.12352 34.627049,33.12352 2.867476,0 5.548951,-0.29452 7.827476,-0.69747 1.89095,9.53242 2.976,16.47642 2.976,21.73095 0,10.32305 -5.254525,15.77905 -15.267476,15.77905 -2.387049,0 -4.464,-0.496 -4.665574,-0.496 -0.09295,-0.10853 -0.294426,-0.20158 -0.294426,-0.29453 0,-0.20147 0.201476,-0.31 0.496,-0.40305 4.665476,-0.69747 9.315476,-4.66547 9.315476,-11.00495 0,-5.36305 -4.06105,-11.02052 -11.50105,-11.02052 -6.944,0 -11.408,5.65747 -11.408,12.19852" class="Clef" style="stroke-width:.992"/>
  <path d="M264.557 84.521c0 1.395 0 1.395 1.395 1.395h29.466c1.379 0 1.379 0 1.379-1.395V73.811c0-1.395 0-1.395-1.379-1.395h-29.466c-1.395 0-1.395 0-1.395 1.395v10.711M524.259 84.521c0 1.395 0 1.395 1.395 1.395h29.466c1.379 0 1.379 0 1.379-1.395V73.811c0-1.395 0-1.395-1.379-1.395h-29.466c-1.395 0-1.395 0-1.395 1.395v10.711" class="Rest" style="stroke-width:.992"/>
  <path d="M139.636 173.06h-1.906l-2 2.953c-3.641-2.656-5.5-3.359-8.953-3.359-4.75 0-8.797 2-12.141 6-3.203 3.813-4.703 8.016-4.703 13.156 0 10.797 7.047 18.453 16.906 18.453 8 0 13.094-4.703 14.25-13.093l-2.359-.407c-1.344 7.454-5.141 11.157-11.297 11.157-7.406 0-10.906-5.11-10.906-15.907 0-5.703.75-9.453 2.453-12.453 1.547-2.797 4.609-4.547 7.859-4.547 3.5 0 6.594 1.844 8.5 5.047.954 1.657 1.641 3.5 2.844 7.453h2.203l-.75-14.453m25.641 20.36c0-3.157-.547-4.75-2-5.953-1.641-1.36-4.094-2-7.297-2-5.641 0-9.75 2.64-9.75 6.296 0 1.844 1.156 3.047 2.906 3.047 1.594 0 2.703-1.047 2.703-2.547 0-.656-.25-1.343-.75-2.046-.312-.36-.359-.454-.359-.704 0-1 2-1.906 4.406-1.906 1.594 0 3.344.5 4.141 1.25.953.813 1.312 2 1.312 4.25v1.953c-5.203.907-6.859 1.297-9.312 2.25-4.344 1.61-6.391 3.907-6.391 7.11 0 3.593 2.797 5.843 7.25 5.843 3.453 0 6.547-1.406 8.703-3.953.797 2.547 2.047 3.547 4.391 3.547 2.25 0 4.609-1.437 4.609-2.89 0-.36-.203-.61-.5-.61-.203 0-.406.063-.75.203-.703.297-1 .36-1.406.36-1.406 0-1.906-.907-1.906-3.453v-10.047m-4.688 6.093c0 3-.156 3.704-1 5-1.25 1.844-3.5 3.094-5.703 3.094-2.297 0-3.953-1.64-3.953-3.89 0-2.11 1.047-3.61 3.25-4.657 1.547-.703 3.5-1.203 7.406-1.843v2.296m35.454 3.547-4.907-12.843c-.156-.36-.203-.657-.203-1.047 0-.907.453-1.157 2.094-1.157h1.203v-1.796h-11.203v1.796h.859c1.594.047 2.25.454 2.641 1.844l.406 1.313-4.406 11.64-4.844-12.547c-.094-.343-.203-.796-.203-1.093 0-.86.547-1.157 2.047-1.157h.906v-1.796h-11v1.796h.906c1.391.047 2.047.657 2.594 2.454l7.5 19.796h1.75l5.953-15.796 6.094 15.796h1.563l7-18.453c1.093-2.953 1.843-3.75 3.687-3.797h.359v-1.796h-9.453v1.796h.844c1.75 0 2.453.5 2.453 1.844 0 .5-.14 1.156-.39 1.813l-4.25 11.39M385.951 173.06h-1.906l-2 2.953c-3.641-2.656-5.5-3.359-8.953-3.359-4.75 0-8.797 2-12.141 6-3.203 3.813-4.703 8.016-4.703 13.156 0 10.797 7.047 18.453 16.906 18.453 8 0 13.094-4.703 14.25-13.093l-2.359-.407c-1.344 7.454-5.141 11.157-11.297 11.157-7.406 0-10.906-5.11-10.906-15.907 0-5.703.75-9.453 2.453-12.453 1.547-2.797 4.609-4.547 7.859-4.547 3.5 0 6.594 1.844 8.5 5.047.953 1.657 1.641 3.5 2.844 7.453h2.203l-.75-14.453m25.641 20.36c0-3.157-.547-4.75-2-5.953-1.641-1.36-4.094-2-7.297-2-5.641 0-9.75 2.64-9.75 6.296 0 1.844 1.156 3.047 2.906 3.047 1.594 0 2.703-1.047 2.703-2.547 0-.656-.25-1.343-.75-2.046-.312-.36-.359-.454-.359-.704 0-1 2-1.906 4.406-1.906 1.594 0 3.344.5 4.141 1.25.953.813 1.312 2 1.312 4.25v1.953c-5.203.907-6.859 1.297-9.312 2.25-4.344 1.61-6.391 3.907-6.391 7.11 0 3.593 2.797 5.843 7.25 5.843 3.453 0 6.547-1.406 8.703-3.953.797 2.547 2.047 3.547 4.391 3.547 2.25 0 4.609-1.437 4.609-2.89 0-.36-.203-.61-.5-.61-.203 0-.406.063-.75.203-.703.297-1 .36-1.406.36-1.406 0-1.906-.907-1.906-3.453v-10.047m-4.688 6.093c0 3-.156 3.704-1 5-1.25 1.844-3.5 3.094-5.703 3.094-2.297 0-3.953-1.64-3.953-3.89 0-2.11 1.047-3.61 3.25-4.657 1.547-.703 3.5-1.203 7.406-1.843v2.296m35.453 3.547-4.906-12.843c-.156-.36-.203-.657-.203-1.047 0-.907.453-1.157 2.094-1.157h1.203v-1.796h-11.203v1.796h.859c1.594.047 2.25.454 2.641 1.844l.406 1.313-4.406 11.64-4.844-12.547c-.094-.343-.203-.796-.203-1.093 0-.86.547-1.157 2.047-1.157h.906v-1.796h-11v1.796h.906c1.391.047 2.047.657 2.594 2.454l7.5 19.796h1.75l5.953-15.796 6.094 15.796h1.562l7-18.453c1.094-2.953 1.844-3.75 3.688-3.797h.359v-1.796h-9.453v1.796h.844c1.75 0 2.453.5 2.453 1.844 0 .5-.141 1.156-.391 1.813l-4.25 11.39" class="Lyrics"/>
</svg>
