<?xml version="1.0" encoding="utf-8"?>
<svg xmlns="http://www.w3.org/2000/svg" version="1.2" viewBox="0 0 551 216">
	<title>One bar of musical notation depicting the call of Silverspot the Crow. This call would translate in English to “great danger—a gun.”</title>
	<path d="m 0,34.546875 v 2.730469 h 45.376953 c -0.04427,-0.928961 -0.06996,-1.828205 -0.08008,-2.730469 z m 50.613281,0 c -0.0708,0.889995 -0.116932,1.800238 -0.140625,2.730469 h 12.449219 c 0.494142,-0.888303 0.942585,-1.797856 1.333984,-2.730469 z m 20.890625,0 c -0.113931,0.921852 -0.253629,1.831852 -0.417969,2.730469 H 524.18945 v -2.728516 h 4.45899 v 2.728516 h 9.17968 v -2.728516 h 13.63868 v -0.002 z M 0,59.347656 v 2.730469 h 40.044922 c 0.02794,-0.02608 0.05611,-0.05212 0.08398,-0.07813 0.71414,-0.580917 1.793511,-1.583259 2.90625,-2.652344 z m 61.146484,0 c -0.678091,0.921177 -1.381466,1.83102 -2.109375,2.730469 h 57.958981 c 1.85146,-1.166742 4.03562,-2.110821 6.60743,-2.730469 z m 77.769536,0 c 2.78293,0.634288 5.01094,1.596058 6.79492,2.730469 h 378.47851 v -2.730469 z m 389.73242,0 v 2.730469 h 9.17968 V 59.347656 Z M 0,84.148437 v 2.728516 h 21.367187 c 0.351992,-0.932669 0.732283,-1.841872 1.136719,-2.728516 z m 37.453125,0 c -0.729138,0.886802 -1.43201,1.79686 -2.103516,2.728516 h 14.228516 c 0.943252,-0.468048 1.929052,-0.858805 2.951172,-1.162109 -0.08773,-0.512751 -0.175602,-1.034825 -0.263672,-1.566407 z m 19.396484,0 c 0.04831,0.289475 0.09621,0.579197 0.144532,0.869141 3.663945,0 7.080738,0.64826 10.140625,1.859375 h 39.820314 c -0.0437,-0.917833 -0.0667,-1.82983 -0.0762,-2.728516 z m 63.507811,0 v 2.728516 h 82.39844 c 0.23654,-0.931524 0.5861,-1.84381 1.03125,-2.728516 z m 113.9668,0 c -0.22129,0.925811 -0.55405,1.838716 -0.98633,2.728516 h 24.61914 c 0.23655,-0.931524 0.5861,-1.84381 1.03125,-2.728516 z m 55.20117,0 c -0.22129,0.925811 -0.55405,1.838716 -0.98633,2.728516 h 24.61719 c 0.23654,-0.931524 0.5861,-1.84381 1.03125,-2.728516 z m 55.19922,0 c -0.22129,0.925811 -0.55405,1.838716 -0.98633,2.728516 h 24.61719 c 0.23658,-0.931524 0.58603,-1.84381 1.03125,-2.728516 z m 55.19922,0 c -0.22129,0.925811 -0.55405,1.838716 -0.98633,2.728516 h 31.81055 l 0.87304,-2.728516 z m 34.55664,0 -0.86524,2.728516 h 21.50586 c 0.23655,-0.931524 0.5861,-1.84381 1.03125,-2.728516 z m 52.20898,0 c -0.22125,0.925795 -0.55412,1.838704 -0.98633,2.728516 h 38.48633 v -2.728516 z m 41.95899,0 v 2.728516 h 9.17968 V 84.148437 Z M 0,108.94727 v 2.73046 h 20.035156 c -0.280703,-0.89419 -0.521663,-1.80488 -0.722656,-2.73046 z m 28.339844,0 c 0.08724,0.93304 0.222874,1.84363 0.404297,2.73046 h 9.257812 c -0.256169,-0.9195 -0.440511,-1.83711 -0.544922,-2.73046 z m 15.939453,0 c -0.05809,0.47759 -0.08789,0.96434 -0.08789,1.45898 0,0.44225 0.01897,0.86555 0.05469,1.27148 h 12.658203 l -0.482422,-2.73046 z m 16.609375,0 c 0.150352,0.88577 0.30406,1.79823 0.46289,2.73046 h 12.988282 c -0.03792,-0.94547 -0.152255,-1.85706 -0.335938,-2.73046 z m 21.177734,0 c 0.01439,0.38464 0.02148,0.77269 0.02148,1.16406 0,0.52268 -0.01937,1.04512 -0.05664,1.5664 h 120.36719 v -2.73046 h -64.0586 c -1.63111,0.3861 -3.36841,0.58203 -5.17968,0.58203 -2.90991,0 -5.4995,-0.20358 -7.80274,-0.58203 z m 122.812504,0 v 2.73046 h 52.7207 v -2.73046 z m 55.20117,0 v 2.73046 h 52.71875 v -2.73046 z m 55.19922,0 v 2.73046 H 368 v -2.73046 z m 55.19922,0 v 2.73046 h 84.28515 v -2.73046 h -28.15625 l -0.5918,1.86132 -2.68164,-0.78906 0.34375,-1.07226 z m 86.76562,0 v 2.73046 h 23.91406 c 0.0612,-0.79415 0.0937,-1.63027 0.0937,-2.51171 0,-0.0731 3.4e-4,-0.14603 0,-0.21875 z m 28.07227,0 c 0.057,0.898 0.0908,1.80686 0.10156,2.73046 h 38.77148 v -2.73046 z m 43.33203,0 v 2.73046 h 9.17968 v -2.73046 z M 0,133.74805 v 2.73047 h 61.402344 c -0.112457,-0.57911 -0.228763,-1.16823 -0.347657,-1.76758 -2.278524,0.40295 -4.96065,0.69726 -7.828125,0.69726 -3.686426,0 -7.280832,-0.5816 -10.673828,-1.66015 z m 65.150391,0 c 0.147807,0.96723 0.295233,1.87788 0.439453,2.73047 H 202.39844 v -1.36524 -1.36523 z m 139.728519,0 v 1.36523 h 52.7207 v -1.36523 z m 55.20117,0 v 1.36523 h 52.71875 v -1.36523 z m 55.19922,0 v 1.36523 H 368 v -1.36523 z m 55.19922,0 v 1.36523 1.36524 h 84.28515 v -2.73047 z m 86.76562,0 v 2.73047 h 8.96289 c 1.05588,-0.82265 2.12461,-1.7315 3.18164,-2.73047 z m 20.90234,0 c -0.18651,0.27358 -0.37586,0.54762 -0.56836,0.82226 -0.468,0.65521 -0.94467,1.29014 -1.42773,1.90821 h 75.31641 v -0.002 h -13.63868 v -2.72851 h -9.17968 v 2.72851 h -4.45899 v -2.72851 z" style="baseline-shift:baseline;display:inline;overflow:visible;opacity:1;vector-effect:none;stroke-linejoin:bevel;enable-background:accumulate;stop-color:#000;stop-opacity:1"/>
	<path d="M524.189 34.549V136.477h4.459V34.549ZM537.828 34.549V136.477H551.467V34.549ZM202.398 89.684v45.43h2.48V95.732c-1.73-1.714-2.48-3.942-2.48-6.049zm55.201 0v45.43h2.48V95.732c-1.73-1.714-2.48-3.942-2.48-6.049zm55.199 0v45.43h2.48V95.732c-1.73-1.714-2.48-3.942-2.48-6.049zm141.965 0V143.592c0-.295.092-.789.789-1.084.485-.162 1.054-.378 1.691-.65V95.732c-1.73-1.714-2.48-3.942-2.48-6.049zM368 89.869v45.244h2.479V95.732C368.799 94.068 368.043 91.92 368 89.869ZM202.398 147.514v6.199h2.48v-6.199zm55.201 0v6.199h2.48v-6.199zm55.199 0v6.199h2.48v-6.199zm55.201 0v6.199h2.479v-6.199z" style="baseline-shift:baseline;display:inline;overflow:visible;opacity:1;vector-effect:none;stroke-linejoin:bevel;enable-background:accumulate;stop-color:#000;stop-opacity:1"/>
	<path d="m 481.25195,92.597656 c -0.83694,0.746962 -1.74364,1.443339 -2.70312,2.080078 1.89472,5.278431 2.70312,9.405276 2.70312,14.488286 0,8.23052 -2.88154,12.50907 -4.66406,15.57812 -6.448,11.00495 -16.86566,16.36872 -21.03516,17.76367 -0.6975,0.29453 -0.78906,0.78947 -0.78906,1.08399 v 22.42773 c 0,0.682 0.58766,1.28711 1.28516,1.28711 0.496,0 1.10036,-0.40352 1.19336,-0.79102 0,-0.1085 0.89918,-3.58051 0.99218,-3.875 0.093,-0.403 0.9936,-4.16817 4.5586,-10.01171 3.875,-6.448 9.82516,-11.1146 14.78515,-18.0586 4.86705,-6.944 7.84375,-13.50013 7.84375,-22.22656 0,-6.91447 -1.22947,-12.963405 -4.16992,-19.746094 z" style="stroke-width:.992"/>
	<path d="M223.525 72.416c-9.625 0-21.127 8.138-21.127 17.268 0 4.262 3.069 9.02 11.113 9.02 10.308 0 21.127-8.431 21.127-17.158 0-5.859-4.96-9.129-11.113-9.129zm55.201 0c-9.625 0-21.127 8.138-21.127 17.268 0 4.262 3.069 9.02 11.113 9.02 10.308 0 21.127-8.431 21.127-17.158 0-5.859-4.96-9.129-11.113-9.129zm55.199 0c-9.625 0-21.127 8.138-21.127 17.268 0 4.262 3.069 9.02 11.113 9.02 10.308 0 21.127-8.431 21.127-17.158 0-5.859-4.96-9.129-11.113-9.129zm55.201 0c-9.625 0-21.129 8.138-21.129 17.268 0 4.262 3.069 9.02 11.113 9.02 10.308 0 21.127-8.431 21.127-17.158 0-5.859-4.958-9.129-11.111-9.129zm86.764 0c-9.625 0-21.127 8.138-21.127 17.268 0 4.262 3.069 9.02 11.113 9.02 10.308 0 21.127-8.431 21.127-17.158 0-5.859-4.96-9.129-11.113-9.129zM60.465 0c-.697 0-3.767 1.193-7.037 5.053-6.355 7.548-8.137 20.243-8.137 28.566 0 5.363.496 10.23 2.186 21.344-.109.093-5.271 5.348-7.348 7.037-9.036 8.432-21.529 20.43-21.529 40.285 0 18.538 16.166 33.123 34.627 33.123 2.867 0 5.55-.294 7.828-.697 1.891 9.532 2.977 16.476 2.977 21.73 0 10.323-5.255 15.779-15.268 15.779-2.387 0-4.464-.496-4.666-.496-.093-.109-.295-.202-.295-.295 0-.201.202-.309.496-.402 4.665-.697 9.316-4.666 9.316-11.006 0-5.363-4.062-11.02-11.502-11.02-6.944 0-11.408 5.656-11.408 12.197 0 6.557 5.053 15.191 18.445 15.191 4.665 0 8.742-1.193 12.307-3.379 5.363-3.766 6.742-10.324 6.742-16.57 0-3.859-.588-8.323-1.58-13.98-.295-1.984-.899-4.961-1.488-8.836 9.718-3.177 16.957-13.299 16.957-23.514 0-14.973-10.617-25.094-25.094-25.094-.992-5.952-1.984-11.81-2.883-17.359 10.525-11.021 17.762-23.422 17.762-39.186 0-9.037-2.775-16.367-4.371-19.947C65.13 3.472 62.247 0 60.465 0Zm1.689 14.385c1.488 0 3.859 4.85 3.859 11.701 0 10.323-7.626 18.058-14.477 24.801-.589-3.968-1.084-7.829-1.084-11.998 0-3.673.294-7.052 1.084-10.121.899-3.968 5.456-14.383 10.617-14.383zM50.252 71.625c.883 5.347 1.58 10.013 2.277 14.09-9.036 2.681-15.174 12.198-15.174 21.529 0 6.944 5.455 16.461 13.391 16.461.79 0 1.691-.404 1.691-1.287 0-.899-.992-1.395-2.186-2.186-3.875-2.387-6.061-4.959-6.061-9.826 0-6.045 4.463-10.912 10.322-12.291l5.75 32.627c-1.984.403-3.859.605-5.75.605-14.182 0-26.289-9.922-26.289-24.91 0-12.09 8.526-22.909 17.268-30.457 1.674-1.488 3.272-2.867 4.76-4.355zm8.725 25.885c8.928 0 15.377 6.061 15.377 14.881 0 7.052-2.883 14.291-9.92 17.174-2.077-11.904-4.759-27.684-5.457-32.055zM130.975 58.533c-21.623 0-24.102 17.95-24.102 24.398 0 11.811 1.487 26.598 26.287 26.598 9.827 0 17.47-5.767 17.857-16.385 0-.496-.295-.789-.791-.789h-1.287c-.403 0-.789.402-.789.789-.403 8.246-6.264 13.207-14.99 13.207-8.633 0-12.803-4.666-12.803-13.393V74.002c0-5.549 2.187-11.902 11.021-11.902 4.666 0 6.741 1.689 7.842 3.379.093.201.094.295.094.496 0 .093 0 .294-.201.387-2.48 1.597-4.264 4.463-4.264 7.641 0 .403.001.792.094 1.195.496 4.061 3.783 7.238 7.844 7.734h1.084c4.96 0 8.928-3.97 8.928-8.93v-.588c0-.403-.093-1.101-.186-1.488-.899-4.263-4.775-13.393-21.639-13.393zM438.711 65.27c-.589 0-1.086.311-1.287.807-.403.589-3.472 6.448-7.936 9.719-1.287.992-2.884 1.69-4.465 1.984 1.085-1.286 1.783-2.884 1.783-4.76 0-3.875-3.178-7.051-7.037-7.051-3.968 0-7.146 3.176-7.146 7.051 0 3.069 1.892 5.55 4.465 6.635 1.488.697 3.473 1.193 5.457 1.193 2.883 0 5.951-.883 8.633-2.867 1.194-.899 2.372-2.094 3.473-3.287l-11.316 35.326 2.682.789 13.889-43.74c.109-.108.107-.31.107-.496 0-.496-.309-.899-.898-1.193-.093 0-.294-.109-.402-.109zM218.488 44.449c-.992 0-1.983.399-2.781 1.197-1.488 1.488-1.488 3.86 0 5.457 1.597 1.487 3.968 1.488 5.564 0 1.488-1.597 1.488-3.969 0-5.457-.798-.798-1.791-1.197-2.783-1.197zm55.201 0c-.992 0-1.985.399-2.783 1.197-1.488 1.488-1.488 3.86 0 5.457 1.597 1.488 3.967 1.488 5.564 0 1.488-1.597 1.488-3.969 0-5.457-.798-.798-1.789-1.197-2.781-1.197zm55.199 0c-.992 0-1.983.399-2.781 1.197-1.488 1.488-1.488 3.86 0 5.457 1.597 1.487 3.968 1.488 5.564 0 1.488-1.597 1.488-3.969 0-5.457-.798-.798-1.791-1.197-2.783-1.197zm55.201 0c-.992 0-1.985.399-2.783 1.197-1.488 1.488-1.488 3.86 0 5.457 1.597 1.488 3.967 1.488 5.564 0 1.488-1.597 1.488-3.969 0-5.457-.798-.798-1.789-1.197-2.781-1.197zm86.762 0c-.992 0-1.983.399-2.781 1.197-1.488 1.488-1.488 3.86 0 5.457 1.597 1.487 3.968 1.488 5.564 0 1.488-1.597 1.488-3.969 0-5.457-.798-.798-1.791-1.197-2.783-1.197z" style="stroke-width:.992"/>
	<path d="m 202.39844,135.11328 v 12.40039 h 168.08008 v -12.40039 z m 0,18.59961 v 12.40039 h 168.08008 v -12.40039 z" style="fill-rule:evenodd"/>
	<path d="m 437.46875,179.04687 c -4.75,0 -8.79663,2 -12.14063,6 -3.20299,3.813 -4.70312,8.0143 -4.70312,13.1543 0,10.797 7.04725,18.45313 16.90625,18.45313 8,0 13.094,-4.7018 14.25,-13.0918 l -2.35938,-0.4082 c -1.344,7.454 -5.14087,11.1582 -11.29687,11.1582 -7.406,0 -10.90625,-5.1112 -10.90625,-15.9082 0,-5.703 0.75013,-9.45313 2.45312,-12.45313 1.54701,-2.797 4.60938,-4.54687 7.85938,-4.54687 3.5,0 6.594,1.84387 8.5,5.04687 0.953,1.657 1.64075,3.50013 2.84375,7.45313 h 2.20312 l -0.75,-14.45313 h -1.90625 l -2,2.95313 c -3.641,-2.656 -5.50012,-3.35742 -8.95312,-3.35743 z m -231.61328,12.8125 c -6.5,0 -11.14063,5.29493 -11.14063,12.79493 0,7.094 4.25013,12 10.45313,12 4.437,0 6.99962,-2.0448 9.14062,-7.3418 l -1.95312,-0.75 c -1.593,3.593 -3.29663,5.04688 -5.89063,5.04687 -4,0 -6.5,-3.657 -6.5,-9.5 0,-6.11 2.45363,-10.11132 6.14063,-10.11132 1.5,0 2.8125,0.703 2.8125,1.5 0,0.156 -0.0625,0.31432 -0.3125,0.61132 -0.796,0.953 -1,1.45193 -1,2.29493 0,1.657 1.25,2.79687 3,2.79687 1.813,0 3.0625,-1.38867 3.0625,-3.38867 0,-3.407 -3.3585,-5.95313 -7.8125,-5.95313 z m 22.45312,0 c -5.641,0 -9.75,2.63893 -9.75,6.29493 0,1.844 1.15625,3.04687 2.90625,3.04687 1.594,0 2.70313,-1.04687 2.70313,-2.54687 0,-0.656 -0.25,-1.34192 -0.75,-2.04493 -0.313,-0.36 -0.35938,-0.45507 -0.35938,-0.70507 0,-1 2.00025,-1.90625 4.40625,-1.90625 1.594,0 3.34463,0.5 4.14063,1.25 0.954,0.813 1.3125,2 1.3125,4.25 v 1.95312 c -5.203,0.907 -6.8585,1.297 -9.3125,2.25 -4.343,1.61 -6.39063,3.90833 -6.39063,7.11133 0,3.593 2.797,5.8418 7.25,5.8418 3.453,0 6.54713,-1.40613 8.70313,-3.95313 0.797,2.547 2.04662,3.54688 4.39062,3.54688 2.25,0 4.60938,-1.43568 4.60938,-2.88868 0,-0.36 -0.203,-0.61132 -0.5,-0.61132 -0.203,0 -0.406,0.0631 -0.75,0.20312 -0.703,0.297 -1.00025,0.36133 -1.40625,0.36133 -1.407,0 -1.90625,-0.90713 -1.90625,-3.45313 V 199.8125 c 0,-3.157 -0.546,-4.75012 -2,-5.95313 -1.64,-1.36 -4.09388,-2 -7.29688,-2 z m 32.7461,0 c -6.5,0 -11.14063,5.29493 -11.14063,12.79493 0,7.094 4.25013,12 10.45313,12 4.437,0 7.00158,-2.0448 9.14258,-7.3418 l -1.95508,-0.75 c -1.593,3.593 -3.29663,5.04688 -5.89063,5.04687 -4,0 -6.5,-3.657 -6.5,-9.5 0,-6.11 2.45363,-10.11132 6.14063,-10.11132 1.5,0 2.8125,0.703 2.8125,1.5 0,0.156 -0.0625,0.31432 -0.3125,0.61132 -0.796,0.953 -1,1.45193 -1,2.29493 0,1.657 1.25,2.79687 3,2.79687 1.813,0 3.0625,-1.38867 3.0625,-3.38867 0,-3.407 -3.3585,-5.95313 -7.8125,-5.95313 z m 22.45508,0 c -5.641,0 -9.75,2.63893 -9.75,6.29493 0,1.844 1.15429,3.04687 2.90429,3.04687 1.594,0 2.70313,-1.04687 2.70313,-2.54687 0,-0.656 -0.25,-1.34192 -0.75,-2.04493 -0.313,-0.36 -0.35742,-0.45507 -0.35742,-0.70507 0,-1 1.99829,-1.90625 4.40429,-1.90625 1.594,0 3.34463,0.5 4.14063,1.25 0.954,0.813 1.3125,2 1.3125,4.25 v 1.95312 c -5.203,0.907 -6.8585,1.297 -9.3125,2.25 -4.343,1.61 -6.39063,3.90833 -6.39063,7.11133 0,3.593 2.797,5.8418 7.25,5.8418 3.453,0 6.54713,-1.40613 8.70313,-3.95313 0.797,2.547 2.04858,3.54688 4.39258,3.54688 2.25,0 4.60742,-1.43568 4.60742,-2.88868 0,-0.36 -0.203,-0.61132 -0.5,-0.61132 -0.203,0 -0.406,0.0631 -0.75,0.20312 -0.703,0.297 -0.9983,0.36133 -1.4043,0.36133 -1.407,0 -1.9082,-0.90713 -1.9082,-3.45313 V 199.8125 c 0,-3.157 -0.546,-4.75012 -2,-5.95313 -1.64,-1.36 -4.09192,-2 -7.29492,-2 z m 32.74609,0 c -6.5,0 -11.14063,5.29493 -11.14063,12.79493 0,7.094 4.25013,12 10.45313,12 4.437,0 6.99962,-2.0448 9.14062,-7.3418 l -1.95312,-0.75 c -1.593,3.593 -3.29663,5.04688 -5.89063,5.04687 -4,0 -6.5,-3.657 -6.5,-9.5 0,-6.11 2.45363,-10.11132 6.14063,-10.11132 1.5,0 2.8125,0.703 2.8125,1.5 0,0.156 -0.0625,0.31432 -0.3125,0.61132 -0.796,0.953 -1,1.45193 -1,2.29493 0,1.657 1.25,2.79687 3,2.79687 1.813,0 3.0625,-1.38867 3.0625,-3.38867 0,-3.407 -3.3585,-5.95313 -7.8125,-5.95313 z m 22.45312,0 c -5.641,0 -9.75,2.63893 -9.75,6.29493 0,1.844 1.15625,3.04687 2.90625,3.04687 1.594,0 2.70313,-1.04687 2.70313,-2.54687 0,-0.656 -0.25,-1.34192 -0.75,-2.04493 -0.313,-0.36 -0.35938,-0.45507 -0.35938,-0.70507 0,-1 2.00025,-1.90625 4.40625,-1.90625 1.594,0 3.34463,0.5 4.14063,1.25 0.954,0.813 1.3125,2 1.3125,4.25 v 1.95312 c -5.203,0.907 -6.8585,1.297 -9.3125,2.25 -4.343,1.61 -6.39063,3.90833 -6.39063,7.11133 0,3.593 2.797,5.8418 7.25,5.8418 3.453,0 6.54713,-1.40613 8.70313,-3.95313 0.797,2.547 2.04662,3.54688 4.39062,3.54688 2.25,0 4.60938,-1.43568 4.60938,-2.88868 0,-0.36 -0.203,-0.61132 -0.5,-0.61132 -0.203,0 -0.406,0.0631 -0.75,0.20312 -0.703,0.297 -1.00025,0.36133 -1.40625,0.36133 -1.407,0 -1.90625,-0.90713 -1.90625,-3.45313 V 199.8125 c 0,-3.157 -0.546,-4.75012 -2,-5.95313 -1.64,-1.36 -4.09388,-2 -7.29688,-2 z m 32.7461,0 c -6.5,0 -11.14063,5.29493 -11.14063,12.79493 0,7.094 4.25013,12 10.45313,12 4.437,0 6.99962,-2.0448 9.14062,-7.3418 l -1.95312,-0.75 c -1.593,3.593 -3.29663,5.04688 -5.89063,5.04687 -4,0 -6.5,-3.657 -6.5,-9.5 0,-6.11 2.45363,-10.11132 6.14063,-10.11132 1.5,0 2.8125,0.703 2.8125,1.5 0,0.156 -0.0625,0.31432 -0.3125,0.61132 -0.796,0.953 -1,1.45193 -1,2.29493 0,1.657 1.25,2.79687 3,2.79687 1.813,0 3.0625,-1.38867 3.0625,-3.38867 0,-3.407 -3.3585,-5.95313 -7.8125,-5.95313 z m 22.45312,0 c -5.641,0 -9.75,2.63893 -9.75,6.29493 0,1.844 1.15625,3.04687 2.90625,3.04687 1.594,0 2.70313,-1.04687 2.70313,-2.54687 0,-0.656 -0.25,-1.34192 -0.75,-2.04493 -0.313,-0.36 -0.35938,-0.45507 -0.35938,-0.70507 0,-1 2.00025,-1.90625 4.40625,-1.90625 1.594,0 3.34463,0.5 4.14063,1.25 0.954,0.813 1.3125,2 1.3125,4.25 v 1.95312 c -5.203,0.907 -6.8585,1.297 -9.3125,2.25 -4.343,1.61 -6.39063,3.90833 -6.39063,7.11133 0,3.593 2.797,5.8418 7.25,5.8418 3.453,0 6.54713,-1.40613 8.70313,-3.95313 0.797,2.547 2.04662,3.54688 4.39062,3.54688 2.25,0 4.60938,-1.43568 4.60938,-2.88868 0,-0.36 -0.203,-0.61132 -0.5,-0.61132 -0.203,0 -0.406,0.0631 -0.75,0.20312 -0.703,0.297 -1.00025,0.36133 -1.40625,0.36133 -1.407,0 -1.90625,-0.90713 -1.90625,-3.45313 V 199.8125 c 0,-3.157 -0.546,-4.75012 -2,-5.95313 -1.64,-1.36 -4.09388,-2 -7.29688,-2 z m 72.76367,0 c -5.641,0 -9.74999,2.63893 -9.75,6.29493 0,1.844 1.15625,3.04687 2.90625,3.04687 1.594,0 2.70313,-1.04687 2.70313,-2.54687 0,-0.656 -0.25,-1.34193 -0.75,-2.04493 -0.312,-0.36 -0.35937,-0.45507 -0.35938,-0.70507 0,-1 2.00026,-1.90625 4.40625,-1.90625 1.594,0 3.34363,0.5 4.14063,1.25 0.953,0.813 1.3125,2 1.3125,4.25 v 1.95312 c -5.203,0.907 -6.8595,1.297 -9.3125,2.25 -4.344,1.61 -6.39063,3.90833 -6.39063,7.11133 0,3.593 2.79701,5.8418 7.25,5.8418 3.453,0 6.54713,-1.40613 8.70313,-3.95313 0.797,2.547 2.04663,3.54688 4.39062,3.54688 2.25,0 4.60938,-1.43568 4.60938,-2.88868 0,-0.36 -0.203,-0.61132 -0.5,-0.61132 -0.203,0 -0.406,0.0631 -0.75,0.20312 -0.703,0.297 -1.00025,0.36133 -1.40625,0.36133 -1.406,0 -1.90625,-0.90712 -1.90625,-3.45313 V 199.8125 c 0,-3.157 -0.547,-4.75013 -2,-5.95313 -1.641,-1.36 -4.09388,-2 -7.29688,-2 z m 13.45313,0.75 v 1.79493 h 0.90625 c 1.391,0.047 2.04675,0.65808 2.59375,2.45507 l 7.5,19.79493 h 1.75 l 5.95312,-15.79493 6.09375,15.79493 h 1.5625 l 7,-18.45313 c 1.09401,-2.953 1.8435,-3.74987 3.6875,-3.79687 h 0.35938 v -1.79493 h -9.45313 v 1.79493 h 0.84375 c 1.75,0 2.45313,0.49975 2.45313,1.84375 0,0.5 -0.14063,1.15745 -0.39063,1.81445 l -4.25,11.38867 -4.90625,-12.8418 c -0.156,-0.36 -0.20312,-0.65687 -0.20312,-1.04687 0,-0.907 0.45275,-1.1582 2.09375,-1.1582 h 1.20312 v -1.79493 h -11.20312 v 1.79493 h 0.85937 c 1.594,0.047 2.24963,0.45375 2.64063,1.84375 l 0.40625,1.31445 -4.40625,11.63867 -4.84375,-12.54687 c -0.094,-0.343 -0.20313,-0.7948 -0.20313,-1.0918 0,-0.86 0.54688,-1.1582 2.04688,-1.1582 h 0.90625 v -1.79493 z m -247.20703,11 v 2.29493 c 0,3 -0.156,3.704 -1,5 -1.25,1.844 -3.50013,3.09375 -5.70313,3.09375 -2.297,0 -3.95312,-1.63868 -3.95312,-3.88868 0,-2.11 1.047,-3.6112 3.25,-4.6582 1.547,-0.703 3.50025,-1.2018 7.40625,-1.8418 z m 55.19922,0 v 2.29493 c 0,3 -0.156,3.704 -1,5 -1.25,1.844 -3.50013,3.09375 -5.70313,3.09375 -2.297,0 -3.95117,-1.63868 -3.95117,-3.88868 0,-2.11 1.047,-3.6112 3.25,-4.6582 1.547,-0.703 3.4983,-1.2018 7.4043,-1.8418 z m 55.20117,0 v 2.29493 c 0,3 -0.156,3.704 -1,5 -1.25,1.844 -3.50013,3.09375 -5.70313,3.09375 -2.297,0 -3.95312,-1.63868 -3.95312,-3.88868 0,-2.11 1.047,-3.6112 3.25,-4.6582 1.547,-0.703 3.50025,-1.2018 7.40625,-1.8418 z m 55.19922,0 v 2.29493 c 0,3 -0.156,3.704 -1,5 -1.25,1.844 -3.50013,3.09375 -5.70313,3.09375 -2.297,0 -3.95312,-1.63868 -3.95312,-3.88868 0,-2.11 1.047,-3.6112 3.25,-4.6582 1.547,-0.703 3.50025,-1.2018 7.40625,-1.8418 z m 72.76367,0 v 2.29493 c 0,3 -0.156,3.704 -1,5 -1.25,1.844 -3.50013,3.09375 -5.70313,3.09375 -2.297,0 -3.95312,-1.63868 -3.95312,-3.88868 0,-2.11 1.047,-3.6112 3.25,-4.6582 1.547,-0.703 3.50025,-1.20179 7.40625,-1.8418 z"/>
</svg>
