<?xml version="1.0" encoding="UTF-8" standalone="no"?>
<svg xmlns="http://www.w3.org/2000/svg" version="1.2" viewBox="0 0 1003.442 176.39">
  <title>Three bars of musical notation depicting the call of Silverspot the Crow. This call would translate in English to “attention.”</title>
  <path fill="none" stroke="#000" stroke-linejoin="bevel" stroke-width="2.73" d="M336.598 386.198 1340.04 386.198M336.598 410.998 1340.04 410.998M336.598 435.798 1340.04 435.798M336.598 460.598 1340.04 460.598M336.598 485.398 1340.04 485.398" class="StaffLines" transform="translate(-336.598 -350.285)"/>
  <path fill="none" stroke="#000" stroke-linejoin="bevel" stroke-width="4.46" d="M775.508 384.834 775.508 486.762M1045.25 384.834 1045.25 486.762M1314.99 384.834 1314.99 486.762" class="BarLine" transform="translate(-336.598 -350.285)"/>
  <path fill="none" stroke="#000" stroke-linejoin="bevel" stroke-width="13.64" d="M1333.22 384.834 1333.22 486.762" class="BarLine" transform="translate(-336.598 -350.285)"/>
  <path fill="none" stroke="#000" stroke-linejoin="bevel" stroke-width="2.48" d="M569.982 444.23 569.982 367.598M839.725 444.23 839.725 367.598M1109.47 444.23 1109.47 367.598" class="Stem" transform="translate(-336.598 -350.285)"/>
  <path d="M202.399 102.083c0 4.263 3.069 9.021 11.113 9.021 10.308 0 21.127-8.432 21.127-17.159 0-5.859-4.96-9.129-11.113-9.129-9.625 0-21.127 8.137-21.127 17.267M472.142 102.083c0 4.263 3.069 9.021 11.113 9.021 10.308 0 21.127-8.432 21.127-17.159 0-5.859-4.96-9.129-11.113-9.129-9.625 0-21.127 8.137-21.127 17.267M741.882 102.083c0 4.263 3.069 9.021 11.113 9.021 10.308 0 21.127-8.432 21.127-17.159 0-5.859-4.96-9.129-11.113-9.129-9.625 0-21.127 8.137-21.127 17.267" class="Note" style="stroke-width:.992"/>
  <path d="M297.903 102.794c.403.496 1.101.791 1.689.791.201 0 .496-.093.697-.201.295-.186.496-.496.496-.884 0-.294-.093-.604-.403-.992l-19.344-22.924c1.891.806 3.875 1.193 5.657 1.193.791 0 1.488-.093 2.185-.201 1.984-.295 3.767-.992 5.162-1.984 2.185-1.178 3.565-3.565 3.565-6.138 0-.31 0-.697-.093-.992-.496-3.58-3.581-6.06-6.944-6.06-.403 0-.899 0-1.302.108-3.472.589-5.952 3.658-5.844 7.037 0 .295 0 .496 0 .791.295 1.891 1.194 3.472 2.48 4.572-1.596-.109-3.177-.496-4.665-1.302-4.867-2.573-8.835-7.936-9.222-8.432-.294-.294-.697-.589-1.193-.589 0 0-.093 0-.201 0-.201 0-.496 0-.697.093-.387.31-.589.698-.589 1.101 0 .201.093.496.295.791l18.259 22.026c-1.782-.698-3.472-.992-5.161-.992-.791 0-1.581.093-2.279.201-1.984.295-3.875.992-5.254 1.876-2.185 1.286-3.58 3.673-3.472 6.247 0 .31 0 .697 0 .992.589 3.472 3.565 6.06 7.037 6.06.403 0 .791-.108 1.193-.108 3.472-.589 5.844-3.565 5.952-6.944 0-.295 0-.589-.108-.884-.186-1.891-1.085-3.472-2.48-4.665 1.596.093 3.286.496 4.774 1.287 4.851 2.589 8.633 7.641 9.129 8.231l.682.899M567.646 102.794c.403.496 1.101.791 1.689.791.201 0 .496-.093.697-.201.295-.186.496-.496.496-.884 0-.294-.093-.604-.403-.992l-19.344-22.924c1.891.806 3.875 1.193 5.657 1.193.791 0 1.488-.093 2.185-.201 1.984-.295 3.767-.992 5.162-1.984 2.185-1.178 3.565-3.565 3.565-6.138 0-.31 0-.697-.093-.992-.496-3.58-3.581-6.06-6.944-6.06-.403 0-.899 0-1.302.108-3.472.589-5.952 3.658-5.844 7.037 0 .295 0 .496 0 .791.295 1.891 1.194 3.472 2.48 4.572-1.596-.109-3.177-.496-4.665-1.302-4.867-2.573-8.835-7.936-9.222-8.432-.294-.294-.697-.589-1.193-.589 0 0-.093 0-.201 0-.201 0-.496 0-.697.093-.387.31-.589.698-.589 1.101 0 .201.093.496.295.791l18.259 22.026c-1.782-.698-3.472-.992-5.161-.992-.791 0-1.581.093-2.279.201-1.984.295-3.875.992-5.254 1.876-2.185 1.286-3.58 3.673-3.472 6.247 0 .31 0 .697 0 .992.589 3.472 3.565 6.06 7.037 6.06.403 0 .791-.108 1.193-.108 3.472-.589 5.844-3.565 5.952-6.944 0-.295 0-.589-.108-.884-.186-1.891-1.085-3.472-2.48-4.665 1.596.093 3.286.496 4.774 1.287 4.851 2.589 8.633 7.641 9.129 8.231l.682.899M837.389 102.794c.403.496 1.101.791 1.689.791.201 0 .496-.093.697-.201.295-.186.496-.496.496-.884 0-.294-.093-.604-.403-.992l-19.344-22.924c1.891.806 3.875 1.193 5.657 1.193.791 0 1.488-.093 2.185-.201 1.984-.295 3.767-.992 5.162-1.984 2.185-1.178 3.565-3.565 3.565-6.138 0-.31 0-.697-.093-.992-.496-3.58-3.581-6.06-6.944-6.06-.403 0-.899 0-1.302.108-3.472.589-5.952 3.658-5.844 7.037 0 .295 0 .496 0 .791.295 1.891 1.194 3.472 2.48 4.572-1.596-.109-3.177-.496-4.665-1.302-4.867-2.573-8.835-7.936-9.222-8.432-.294-.294-.697-.589-1.193-.589 0 0-.093 0-.201 0-.201 0-.496 0-.697.093-.387.31-.589.698-.589 1.101 0 .201.093.496.295.791l18.259 22.026c-1.782-.698-3.472-.992-5.161-.992-.791 0-1.581.093-2.279.201-1.984.295-3.875.992-5.254 1.876-2.185 1.286-3.58 3.673-3.472 6.247 0 .31 0 .697 0 .992.589 3.472 3.565 6.06 7.037 6.06.403 0 .791-.108 1.193-.108 3.472-.589 5.844-3.565 5.952-6.944 0-.295 0-.589-.108-.884-.186-1.891-1.085-3.472-2.48-4.665 1.596.093 3.286.496 4.774 1.287 4.851 2.589 8.633 7.641 9.129 8.231l.682.899" class="Symbol" style="stroke-width:.992"/>
  <path d="m 74.353475,112.39038 c 0,7.0525 -2.88295,14.291 -9.92,17.17405 -2.07695,-11.90405 -4.758425,-27.68305 -5.456,-32.054104 8.928,0 15.376,6.060544 15.376,14.880054 M 60.264,130.74243 c -1.984,0.40295 -3.859475,0.60442 -5.750525,0.60442 -14.182425,0 -26.28797,-9.92 -26.28797,-24.90847 0,-12.090054 8.52502,-22.909004 17.26702,-30.457529 1.674,-1.488 3.270525,-2.867475 4.758525,-4.355475 0.883475,5.347475 1.58095,10.01295 2.278425,14.089475 -9.036425,2.681475 -15.174425,12.198525 -15.174425,21.529529 0,6.944 5.456,16.461 13.392,16.461 0.790425,0 1.689475,-0.40295 1.689475,-1.28653 0,-0.89895 -0.992,-1.39495 -2.185475,-2.18547 -3.87505,-2.387 -6.060525,-4.96 -6.060525,-9.827 0,-6.045 4.464,-10.912054 10.32295,-12.291529 L 60.264,130.74243 M 51.537475,28.767901 c 0.89905,-3.968 5.456,-14.384 10.617575,-14.384 1.488,0 3.859475,4.851475 3.859475,11.702425 0,10.32305 -7.626,18.057575 -14.47705,24.8 -0.58895,-3.968 -1.08495,-7.827475 -1.08495,-11.99695 0,-3.673475 0.294525,-7.052525 1.08495,-10.121475 m -20.832,132.431999 c 0,6.55653 5.05305,15.19 18.44505,15.19 4.665475,0 8.742,-1.19347 12.30695,-3.37905 C 66.820525,169.24443 68.2,162.6879 68.2,156.44138 c 0,-3.85948 -0.58895,-8.32348 -1.58095,-13.98095 -0.294525,-1.984 -0.89905,-4.96 -1.488,-8.83505 9.718425,-3.17748 16.95695,-13.29895 16.95695,-23.5135 0,-14.973029 -10.617475,-25.094504 -25.094525,-25.094504 -0.992,-5.952 -1.984,-11.81105 -2.88295,-17.36 10.524525,-11.020525 17.76295,-23.420525 17.76295,-39.184 0,-9.036525 -2.774425,-16.368 -4.37095,-19.948128 C 65.13105,3.472 62.248,0 60.465475,0 59.768,0 56.69905,1.193376 53.428525,5.053248 c -6.35505,7.548128 -8.137475,20.242653 -8.137475,28.566128 0,5.36295 0.496,10.23 2.185475,21.343475 -0.108525,0.09305 -5.27,5.347475 -7.34705,7.03705 C 31.09305,70.431901 18.6,82.428851 18.6,102.28438 c 0,18.53805 16.166525,33.12352 34.62705,33.12352 2.867475,0 5.54895,-0.29452 7.827475,-0.69747 1.89095,9.53242 2.976,16.47642 2.976,21.73095 0,10.32305 -5.254525,15.77905 -15.267475,15.77905 -2.38705,0 -4.464,-0.496 -4.665575,-0.496 -0.09295,-0.10853 -0.294425,-0.20158 -0.294425,-0.29453 0,-0.20147 0.201475,-0.31 0.496,-0.40305 4.665475,-0.69747 9.315475,-4.66547 9.315475,-11.00495 0,-5.36305 -4.06105,-11.02052 -11.50105,-11.02052 -6.944,0 -11.408,5.65747 -11.408,12.19852" class="Clef" style="stroke-width:.992"/>
  <path d="m 139.113,66.361326 c -2.48,1.596525 -4.26252,4.464 -4.26252,7.641575 0,0.40297 0,0.790475 0.093,1.193475 0.496,4.061 3.782,7.238495 7.84296,7.734495 0.29452,0 0.79052,0 1.08504,0 4.96,0 8.928,-3.968 8.928,-8.92797 0,0 0,-0.294525 0,-0.58905 0,-0.40295 -0.093,-1.100525 -0.186,-1.488 -0.89904,-4.262525 -4.774,-13.392 -21.638,-13.392 -21.62252,0 -24.10252,17.94902 -24.10252,24.39702 0,11.81098 1.488,26.598029 26.288,26.598029 9.82705,0 17.46852,-5.766 17.856,-16.383524 0,-0.496 -0.29452,-0.790495 -0.79052,-0.790495 h -1.28643 c -0.40305,0 -0.79053,0.403 -0.79053,0.790495 -0.40304,8.246054 -6.262,13.206054 -14.98852,13.206054 -8.63348,0 -12.80295,-4.66558 -12.80295,-13.392054 V 74.002901 c 0,-5.54905 2.18547,-11.904 11.02043,-11.904 4.66557,0 6.74252,1.689475 7.84304,3.37895 0.093,0.201475 0.093,0.294525 0.093,0.496 0,0.09305 0,0.294525 -0.20148,0.387475" class="TimeSig" style="stroke-width:.992"/>
  <path d="M336.273 84.521c0 1.395 0 1.395 1.395 1.395h29.466c1.379 0 1.379 0 1.379-1.395V73.811c0-1.395 0-1.395-1.379-1.395H337.668c-1.395 0-1.395 0-1.395 1.395v10.711M606.016 84.521c0 1.395 0 1.395 1.395 1.395h29.466c1.379 0 1.379 0 1.379-1.395V73.811c0-1.395 0-1.395-1.379-1.395H607.411c-1.395 0-1.395 0-1.395 1.395v10.711M875.762 84.521c0 1.395 0 1.395 1.395 1.395h29.466c1.379 0 1.379 0 1.379-1.395V73.811c0-1.395 0-1.395-1.379-1.395H877.157c-1.395 0-1.395 0-1.395 1.395v10.711" class="Rest" style="stroke-width:.992"/>
  <path d="M215.706 125.481c1.597 1.488 3.968 1.488 5.565 0 1.488-1.596 1.488-3.968 0-5.456-1.596-1.596-3.968-1.596-5.564 0-1.488 1.488-1.488 3.86 0 5.456M485.449 125.481c1.597 1.488 3.968 1.488 5.565 0 1.488-1.596 1.488-3.968 0-5.456-1.596-1.596-3.968-1.596-5.564 0-1.488 1.488-1.488 3.86 0 5.456M755.187 125.481c1.597 1.488 3.968 1.488 5.565 0 1.488-1.596 1.488-3.968 0-5.456-1.596-1.596-3.968-1.596-5.564 0-1.488 1.488-1.488 3.86 0 5.456" class="Articulation" style="stroke-width:.992"/>
</svg>
