<?xml version="1.0" encoding="utf-8"?>
<svg xmlns="http://www.w3.org/2000/svg" version="1.2" viewBox="0 0 651 210">
	<title>Two bars of musical notation depicting the call of Silverspot the Crow. This call would translate in English to “all’s well, come right along!”</title>
	<path d="M0 34.548v2.732H45.381c-.044-.929-.07-1.829-.081-2.732zm50.61 0c-.071.89-.115 1.801-.139 2.732h12.451c.495-.889.941-1.799 1.333-2.732zm20.896 0c-.114.922-.26 1.833-.425 2.732H173.811v-1.37h2.483v1.37h202.061v-2.732zm311.309 0v2.732h60.747v-1.37h2.476v1.37h178.631v-2.732zm246.314 0v2.732h9.177v-2.732zM0 59.348v2.732H40.041c.029-.027.059-.054.088-.081.714-.581 1.788-1.583 2.9-2.651zm61.143 0c-.679.922-1.381 1.832-2.109 2.732H173.811V59.348Zm115.151 0v2.732H378.355V59.348Zm206.521 0v2.732h60.747V59.348Zm63.223 0v2.732H624.668V59.348Zm183.091 0v2.732h9.177V59.348ZM0 84.148v2.732H21.364c.352-.934.73-1.844 1.135-2.732zm37.456 0c-.73.888-1.437 1.799-2.109 2.732h14.224c.945-.469 1.935-.861 2.959-1.165-.088-.513-.176-1.035-.264-1.567zm19.387 0c.048.29.098.581.146.872 3.665 0 7.083.649 10.144 1.86H173.811v-2.732zm119.451 0v2.732h42.151l-2.271-2.732zm43.052 0 2.307 2.732h156.702v-2.732h-68.167v.374c0 1.395-.005 1.392-1.384 1.392h-29.465c-1.395 0-1.392.003-1.392-1.392v-.374zm163.469 0v2.732h60.747v-2.732zm63.223 0v2.732h35.457l-2.271-2.732zm36.357 0 2.307 2.732h139.966v-2.732h-58.125v.374c0 1.395-.005 1.392-1.384 1.392H535.694c-1.395 0-1.392.003-1.392-1.392v-.374zm146.734 0v2.732h9.177v-2.732zM0 108.948v2.732H20.031c-.281-.895-.524-1.806-.725-2.732zm28.345 0c.087.934.221 1.845.403 2.732h9.25c-.256-.92-.437-1.838-.542-2.732zm15.93 0c-.058.477-.088.963-.088 1.458 0 .443.015.868.051 1.274H56.902l-.476-2.732zm16.611 0c.15.886.303 1.799.461 2.732h12.993c-.038-.946-.153-1.858-.337-2.732zm21.182 0c.014.385.022.773.022 1.165 0 .523-.021 1.046-.059 1.567h74.224c2.902-1.309 6.01-2.065 8.943-2.065 2.869 0 5.481.712 7.449 2.065h1.165v-2.732zm94.226 0v2.732h202.061v-2.732zm206.521 0v2.732h43.184c2.903-1.309 6.01-2.065 8.943-2.065 2.869 0 5.481.712 7.449 2.065h1.172v-2.732zm63.223 0v2.732h178.631v-2.732zm183.091 0v2.732h9.177v-2.732zM0 133.748v2.732H61.406c-.113-.581-.232-1.171-.352-1.772-2.279.403-4.962.703-7.83.703-3.689 0-7.284-.582-10.679-1.663zm65.149 0c.148.968.295 1.879.439 2.732H378.355v-2.732H164.509c-2.936 1.357-6.155 2.153-9.324 2.153-3.402 0-5.91-.85-7.676-2.153zm317.666 0v2.732h241.853v-2.732H434.253c-2.936 1.357-6.155 2.153-9.324 2.153-3.402 0-5.916-.85-7.683-2.153zm246.314 0v2.732h9.177v-2.732zM378.355 34.548V136.48h4.46V34.548ZM624.668 34.548V136.48h4.46V34.548ZM638.306 34.548V136.48h13.638V34.548Z" style="baseline-shift:baseline;display:inline;overflow:visible;opacity:1;vector-effect:none;stroke-linejoin:bevel;enable-background:accumulate;stop-color:#000;stop-opacity:1"/>
	<path d="M173.811 35.911v76.721c1.449 1.403 2.359 3.272 2.483 5.566V35.911ZM443.562 35.911v76.729c1.445 1.403 2.351 3.269 2.476 5.559V35.911Z" style="baseline-shift:baseline;display:inline;overflow:visible;opacity:1;vector-effect:none;stroke-linejoin:bevel;enable-background:accumulate;stop-color:#000;stop-opacity:1"/>
	<path d="M165.198 109.614c-9.625 0-21.123 8.141-21.123 17.271 0 4.263 3.066 9.016 11.111 9.016 10.308 0 21.123-8.427 21.123-17.153 0-5.859-4.957-9.133-11.111-9.133zM434.942 109.614c-9.625 0-21.13 8.141-21.13 17.271 0 4.263 3.074 9.016 11.118 9.016 10.308 0 21.123-8.427 21.123-17.153 0-5.859-4.957-9.133-11.111-9.133zM225.622 66.116c-.403 0-.893-.006-1.296.103-3.472.589-5.953 3.66-5.845 7.039v.791c.295 1.891 1.189 3.47 2.476 4.57-1.596-.109-3.178-.49-4.666-1.296-4.867-2.573-8.834-7.942-9.221-8.438-.295-.294-.698-.586-1.194-.586h-.198c-.202 0-.494.002-.696.095-.387.31-.593.696-.593 1.099 0 .201.092.496.293.791l18.259 22.024c-1.782-.698-3.467-.989-5.156-.989-.791 0-1.588.089-2.285.198-1.984.295-3.872.991-5.251 1.875-2.185 1.286-3.58 3.675-3.472 6.248v.996c.589 3.472 3.567 6.057 7.039 6.057.403 0 .791-.11 1.194-.11 3.472-.589 5.839-3.564 5.947-6.943 0-.295.006-.592-.103-.886-.186-1.891-1.088-3.472-2.483-4.666 1.596.093 3.287.499 4.775 1.289 4.851 2.589 8.63 7.643 9.126 8.232l.681.901c.403.496 1.103.791 1.692.791.201 0 .494-.097.696-.205.295-.186.498-.499.498-.886 0-.294-.093-.601-.403-.989L216.094 80.295c1.891.806 3.872 1.194 5.654 1.194.791 0 1.492-.097 2.19-.205 1.984-.295 3.761-.986 5.156-1.978 2.185-1.178 3.567-3.572 3.567-6.145 0-.31-.002-.694-.095-.989-.496-3.58-3.58-6.057-6.943-6.057zM488.672 66.116c-.403 0-.893-.006-1.296.103-3.472.589-5.953 3.66-5.845 7.039v.791c.295 1.891 1.189 3.47 2.476 4.57-1.596-.109-3.178-.49-4.666-1.296-4.867-2.573-8.834-7.942-9.221-8.438-.295-.294-.698-.586-1.194-.586h-.198c-.202 0-.502.002-.703.095-.387.31-.586.696-.586 1.099 0 .201.092.496.293.791l18.259 22.024c-1.782-.698-3.474-.989-5.164-.989-.791 0-1.58.089-2.278.198-1.984.295-3.872.991-5.251 1.875-2.185 1.286-3.58 3.675-3.472 6.248v.996c.589 3.472 3.567 6.057 7.039 6.057.403 0 .791-.11 1.194-.11 3.472-.589 5.839-3.564 5.947-6.943 0-.295.006-.592-.103-.886-.186-1.891-1.088-3.472-2.483-4.666 1.596.093 3.287.499 4.775 1.289 4.851 2.589 8.63 7.643 9.126 8.232l.681.901c.403.496 1.103.791 1.692.791.201 0 .494-.097.696-.205.295-.186.498-.499.498-.886 0-.294-.093-.601-.403-.989L479.143 80.295c1.891.806 3.872 1.194 5.654 1.194.791 0 1.492-.097 2.19-.205 1.984-.295 3.761-.986 5.156-1.978 2.185-1.178 3.567-3.572 3.567-6.145 0-.31-.002-.694-.095-.989-.496-3.58-3.58-6.057-6.943-6.057zM60.461 0C59.764 0 56.7 1.194 53.43 5.054 47.075 12.602 45.293 25.295 45.293 33.618c0 5.363.493 10.229 2.183 21.343-.109.093-5.269 5.349-7.346 7.039-9.036 8.432-21.533 20.428-21.533 40.283 0 18.538 16.168 33.127 34.629 33.127 2.867 0 5.551-.3 7.83-.703 1.891 9.532 2.974 16.476 2.974 21.731 0 10.323-5.251 15.784-15.264 15.784-2.387 0-4.464-.498-4.666-.498-.079-.092-.247-.191-.293-.271 0 0 0-.007 0-.007l-.007-.007v-.007c0-.201.204-.31.498-.403 4.665-.697 9.316-4.669 9.316-11.008 0-5.363-4.059-11.016-11.499-11.016-6.944 0-11.411 5.654-11.411 12.195 0 6.557 5.058 15.19 18.45 15.19 4.665 0 8.74-1.191 12.305-3.376 5.363-3.766 6.738-10.328 6.738-16.575 0-3.859-.583-8.317-1.575-13.975-.295-1.984-.905-4.965-1.494-8.84 9.718-3.177 16.963-13.296 16.963-23.511 0-14.973-10.623-25.093-25.1-25.093-.992-5.952-1.979-11.817-2.878-17.366 10.525-11.021 17.761-23.414 17.761-39.177 0-9.037-2.776-16.371-4.373-19.951C65.128 3.472 62.244 0 60.461 0Zm1.692 14.385c1.488 0 3.86 4.853 3.86 11.704 0 10.323-7.629 18.057-14.48 24.8-.589-3.968-1.084-7.828-1.084-11.997 0-3.673.294-7.053 1.084-10.122.899-3.968 5.459-14.385 10.62-14.385zM50.251 71.624c.883 5.347 1.58 10.015 2.278 14.092-9.036 2.681-15.176 12.195-15.176 21.526 0 6.944 5.453 16.465 13.389 16.465.79 0 1.692-.405 1.692-1.289 0-.899-.989-1.392-2.183-2.183-3.875-2.387-6.064-4.962-6.064-9.829 0-6.045 4.468-10.911 10.327-12.29l5.75 32.629c-1.984.403-3.858.601-5.75.601-14.182 0-26.287-9.921-26.287-24.91 0-12.09 8.521-22.906 17.263-30.454 1.674-1.488 3.273-2.87 4.761-4.358zm8.723 25.884c8.928 0 15.381 6.063 15.381 14.883 0 7.053-2.887 14.292-9.924 17.175-2.077-11.904-4.759-27.687-5.457-32.058zM279.338 72.415c-1.395 0-1.392.004-1.392 1.399v10.708c0 1.395-.003 1.392 1.392 1.392h29.465c1.379 0 1.384.003 1.384-1.392v-10.708c0-1.395-.005-1.399-1.384-1.399zM535.694 72.415c-1.395 0-1.392.004-1.392 1.399v10.708c0 1.395-.003 1.392 1.392 1.392h29.465c1.379 0 1.384.003 1.384-1.392v-10.708c0-1.395-.005-1.399-1.384-1.399z" style="stroke-width:.992"/>
	<path d="M126.775 172.654c-4.75 0-8.792 1.999-12.136 5.999-3.203 3.813-4.702 8.014-4.702 13.154 0 10.797 7.045 18.457 16.904 18.457 8 0 13.09-4.706 14.246-13.096l-2.358-.403c-1.344 7.454-5.138 11.155-11.294 11.155-7.406 0-10.906-5.111-10.906-15.908 0-5.703.751-9.451 2.454-12.451 1.547-2.797 4.609-4.548 7.859-4.548 3.5 0 6.59 1.843 8.496 5.046.954 1.657 1.646 3.503 2.849 7.456h2.197l-.747-14.458h-1.904l-2 2.959c-3.641-2.656-5.505-3.362-8.958-3.362zm29.209 12.81c-5.641 0-9.756 2.643-9.756 6.299 0 1.844 1.158 3.047 2.908 3.047 1.594 0 2.703-1.049 2.703-2.549 0-.656-.247-1.34-.747-2.043-.312-.36-.359-.453-.359-.703 0-1 1.996-1.904 4.402-1.904 1.594 0 3.349.495 4.146 1.245.953.813 1.311 2.005 1.311 4.255v1.948c-5.203.907-6.863 1.296-9.316 2.249-4.344 1.61-6.387 3.909-6.387 7.112 0 3.593 2.798 5.845 7.251 5.845 3.453 0 6.545-1.408 8.701-3.955.797 2.547 2.043 3.545 4.387 3.545 2.25 0 4.614-1.433 4.614-2.886 0-.36-.208-.608-.505-.608-.203 0-.403.058-.747.198-.703.297-1 .359-1.406.359-1.406 0-1.904-.904-1.904-3.45v-10.049c0-3.157-.547-4.744-2-5.947-1.641-1.36-4.092-2.007-7.295-2.007zm13.447.754v1.794h.908c1.391.047 2.046.657 2.593 2.454l7.5 19.797h1.75l5.955-15.798 6.094 15.798h1.56l7.002-18.457c1.093-2.953 1.84-3.747 3.684-3.794h.359v-1.794h-9.448v1.794h.842c1.75 0 2.454.502 2.454 1.846 0 .5-.138 1.152-.388 1.809L196.04 203.057 191.14 190.218c-.156-.36-.205-.657-.205-1.047 0-.907.454-1.157 2.095-1.157h1.201v-1.794h-11.206v1.794h.864c1.594.047 2.246.456 2.637 1.846l.41 1.311-4.409 11.638-4.841-12.546c-.094-.343-.205-.794-.205-1.091 0-.86.543-1.157 2.043-1.157h.908v-1.794zm-8.84 11.001v2.292c0 3-.159 3.706-1.003 5.002-1.25 1.844-3.495 3.091-5.698 3.091-2.297 0-3.955-1.639-3.955-3.889 0-2.11 1.049-3.611 3.252-4.658 1.547-.703 3.499-1.198 7.405-1.838zM396.519 172.654c-4.75 0-8.792 1.999-12.136 5.999-3.203 3.813-4.709 8.014-4.709 13.154 0 10.797 7.053 18.457 16.912 18.457 8 0 13.09-4.706 14.246-13.096l-2.358-.403c-1.344 7.454-5.138 11.155-11.294 11.155-7.407 0-10.906-5.111-10.906-15.908 0-5.703.75-9.451 2.454-12.451 1.546-2.797 4.609-4.548 7.859-4.548 3.5 0 6.59 1.843 8.496 5.046.953 1.657 1.646 3.503 2.849 7.456h2.197l-.747-14.458h-1.904l-2 2.959c-3.641-2.656-5.504-3.362-8.958-3.362zm29.202 12.81c-5.641 0-9.749 2.643-9.749 6.299 0 1.844 1.158 3.047 2.908 3.047 1.594 0 2.703-1.049 2.703-2.549 0-.656-.247-1.34-.747-2.043-.313-.36-.359-.453-.359-.703 0-1 1.996-1.904 4.402-1.904 1.594 0 3.342.495 4.138 1.245.954.813 1.318 2.005 1.318 4.255v1.948c-5.203.907-6.862 1.296-9.316 2.249-4.343 1.61-6.387 3.909-6.387 7.112 0 3.593 2.798 5.845 7.251 5.845 3.453 0 6.545-1.408 8.701-3.955.797 2.547 2.043 3.545 4.387 3.545 2.25 0 4.614-1.433 4.614-2.886 0-.36-.208-.608-.505-.608-.203 0-.403.058-.747.198-.703.297-1 .359-1.406.359-1.407 0-1.904-.904-1.904-3.45v-10.049c0-3.157-.546-4.744-2-5.947-1.64-1.36-4.099-2.007-7.302-2.007zm13.455.754v1.794h.908c1.391.047 2.046.657 2.593 2.454l7.5 19.797h1.75l5.955-15.798 6.094 15.798h1.56l7.002-18.457c1.094-2.953 1.84-3.747 3.684-3.794h.359v-1.794h-9.448v1.794h.842c1.75 0 2.454.502 2.454 1.846 0 .5-.146 1.152-.396 1.809l-4.248 11.389-4.907-12.839c-.156-.36-.198-.657-.198-1.047 0-.907.447-1.157 2.087-1.157h1.208v-1.794h-11.206v1.794h.864c1.594.047 2.247.456 2.637 1.846l.41 1.311-4.409 11.638-4.841-12.546c-.094-.343-.205-.794-.205-1.091 0-.86.543-1.157 2.043-1.157h.908v-1.794zm-8.84 11.001v2.292c0 3-.159 3.706-1.003 5.002-1.25 1.844-3.495 3.091-5.698 3.091-2.297 0-3.955-1.639-3.955-3.889 0-2.11 1.049-3.611 3.252-4.658 1.547-.703 3.499-1.198 7.405-1.838z"/>
</svg>
