<?xml version="1.0" encoding="UTF-8" standalone="no"?>
<svg xmlns="http://www.w3.org/2000/svg" version="1.2" viewBox="0 0 930.102 301.585">
  <title>Two bars of musical notation depicting the call of Silverspot the Crow. This call is presumed by the narrator to be a mating call.</title>
  <path fill="none" stroke="#000" stroke-linejoin="bevel" stroke-width="2.73" d="M336.598 386.198 1266.7 386.198M336.598 410.998 1266.7 410.998M336.598 435.798 1266.7 435.798M336.598 460.598 1266.7 460.598M336.598 485.398 1266.7 485.398" class="StaffLines" transform="translate(-336.598 -334.443)"/>
  <path fill-rule="evenodd" stroke="#000" stroke-linecap="round" stroke-linejoin="round" stroke-width="1.24" d="m 218.512,185.67452 c 71.098,57.203 420.829,83.243 499.62,37.2 -79.38,53.957 -429.111,27.917 -499.62,-37.2" class="SlurSegment"/>
  <path fill="none" stroke="#000" stroke-linejoin="bevel" stroke-width="4.46" d="M704.165 384.834 704.165 486.762M1241.66 384.834 1241.66 486.762" class="BarLine" transform="translate(-336.598 -334.443)"/>
  <path fill="none" stroke="#000" stroke-linejoin="bevel" stroke-width="13.64" d="M1259.88 384.834 1259.88 486.762" class="BarLine" transform="translate(-336.598 -334.443)"/>
  <path fill="none" stroke="#000" stroke-linejoin="bevel" stroke-width="3.97" d="M729.213 510.198 777.806 510.198M930.024 510.198 978.616 510.198M1030.43 510.198 1079.02 510.198M1030.43 534.998 1079.02 534.998M1130.83 510.198 1179.43 510.198M1130.83 534.998 1179.43 534.998" class="LedgerLine" transform="translate(-336.598 -334.443)"/>
  <path fill="none" stroke="#000" stroke-linejoin="bevel" stroke-width="2.48" d="M569.982 493.83 569.982 410.998M768.382 506.23 768.382 423.398M969.192 518.63 969.192 435.798M1069.6 531.03 1069.6 435.798M1170 543.43 1170 435.798" class="Stem" transform="translate(-336.598 -334.443)"/>
  <path d="M223.526 150.257c-9.625 0-21.127 8.044-21.127 17.267 0 4.262 3.069 9.021 11.113 9.021 10.308 0 21.127-8.432 21.127-17.159 0-5.859-4.96-9.129-11.113-9.129m-2.681 17.468c-.295.186-7.533 4.154-11.005 4.154-3.27 0-3.968-2.666-3.968-3.565 0-4.169 9.92-9.021 10.323-9.222.387-.201 7.44-4.169 11.005-4.169 2.387 0 3.968 1.395 3.968 3.565 0 4.278-10.013 9.037-10.323 9.238M421.926 162.657c-9.625 0-21.127 8.044-21.127 17.267 0 4.262 3.069 9.021 11.113 9.021 10.308 0 21.127-8.432 21.127-17.159 0-5.859-4.96-9.129-11.113-9.129m-2.681 17.468c-.295.186-7.533 4.154-11.005 4.154-3.27 0-3.968-2.666-3.968-3.565 0-4.169 9.92-9.021 10.323-9.222.387-.201 7.44-4.169 11.005-4.169 2.387 0 3.968 1.395 3.968 3.565 0 4.278-10.013 9.037-10.323 9.238M622.737 175.057c-9.625 0-21.127 8.044-21.127 17.267 0 4.262 3.069 9.021 11.113 9.021 10.308 0 21.127-8.432 21.127-17.159 0-5.859-4.96-9.129-11.113-9.129m-2.681 17.468c-.295.186-7.533 4.154-11.005 4.154-3.27 0-3.968-2.666-3.968-3.565 0-4.169 9.92-9.021 10.323-9.222.387-.201 7.44-4.169 11.005-4.169 2.387 0 3.968 1.395 3.968 3.565 0 4.278-10.013 9.037-10.323 9.238M723.139 187.457c-9.625 0-21.127 8.044-21.127 17.267 0 4.262 3.069 9.021 11.113 9.021 10.308 0 21.127-8.432 21.127-17.159 0-5.859-4.96-9.129-11.113-9.129m-2.681 17.468c-.295.186-7.533 4.154-11.005 4.154-3.27 0-3.968-2.666-3.968-3.565 0-4.169 9.92-9.021 10.323-9.222.387-.201 7.44-4.169 11.005-4.169 2.387 0 3.968 1.395 3.968 3.565 0 4.278-10.013 9.037-10.323 9.238M823.549 199.857c-9.625 0-21.127 8.044-21.127 17.267 0 4.262 3.069 9.021 11.113 9.021 10.308 0 21.127-8.432 21.127-17.159 0-5.859-4.96-9.129-11.113-9.129m-2.681 17.468c-.295.186-7.533 4.154-11.005 4.154-3.27 0-3.968-2.666-3.968-3.565 0-4.169 9.92-9.021 10.323-9.222.387-.201 7.44-4.169 11.005-4.169 2.387 0 3.968 1.395 3.968 3.565 0 4.278-10.013 9.037-10.323 9.238" class="Note" style="stroke-width:.992"/>
  <path d="m 74.353475,128.23152 c 0,7.05251 -2.88295,14.291 -9.92,17.17405 -2.07695,-11.90405 -4.758425,-27.68305 -5.456,-32.05409 8.928,0 15.376,6.06054 15.376,14.88004 M 60.264,146.58357 c -1.984,0.40295 -3.859475,0.60443 -5.750525,0.60443 -14.182425,0 -26.28797,-9.92 -26.28797,-24.90848 0,-12.09004 8.52502,-22.908995 17.26702,-30.45752 1.674,-1.488 3.270525,-2.867475 4.758525,-4.355475 0.883475,5.347475 1.58095,10.01295 2.278425,14.089475 -9.036425,2.68148 -15.174425,12.19852 -15.174425,21.52952 0,6.944 5.456,16.461 13.392,16.461 0.790425,0 1.689475,-0.40295 1.689475,-1.28652 0,-0.89895 -0.992,-1.39495 -2.185475,-2.18548 -3.87505,-2.387 -6.060525,-4.96 -6.060525,-9.827 0,-6.045 4.464,-10.91204 10.32295,-12.29152 L 60.264,146.58357 M 51.537475,44.60905 c 0.89905,-3.968 5.456,-14.384 10.617575,-14.384 1.488,0 3.859475,4.851475 3.859475,11.702425 0,10.32305 -7.626,18.057575 -14.47705,24.8 -0.58895,-3.968 -1.08495,-7.827475 -1.08495,-11.99695 0,-3.673475 0.294525,-7.052525 1.08495,-10.121475 m -20.832,132.432 c 0,6.55652 5.05305,15.19 18.44505,15.19 4.665475,0 8.742,-1.19348 12.30695,-3.37905 C 66.820525,185.08557 68.2,178.52905 68.2,172.28252 c 0,-3.85947 -0.58895,-8.32347 -1.58095,-13.98095 -0.294525,-1.984 -0.89905,-4.96 -1.488,-8.83505 9.718425,-3.17747 16.95695,-13.29895 16.95695,-23.5135 0,-14.97302 -10.617475,-25.0945 -25.094525,-25.0945 -0.992,-5.951995 -1.984,-11.811045 -2.88295,-17.359995 C 64.63505,72.478 71.873475,60.078 71.873475,44.314525 c 0,-9.036525 -2.774425,-16.368 -4.37095,-19.948128 -2.371475,-5.053248 -5.254525,-8.525248 -7.03705,-8.525248 -0.697475,0 -3.766425,1.193376 -7.03695,5.053248 -6.35505,7.548128 -8.137475,20.242653 -8.137475,28.566128 0,5.36295 0.496,10.23 2.185475,21.343475 -0.108525,0.09305 -5.27,5.347475 -7.34705,7.03705 C 31.09305,86.27305 18.6,98.27 18.6,118.12552 c 0,18.53805 16.166525,33.12353 34.62705,33.12353 2.867475,0 5.54895,-0.29453 7.827475,-0.69748 1.89095,9.53243 2.976,16.47643 2.976,21.73095 0,10.32305 -5.254525,15.77905 -15.267475,15.77905 -2.38705,0 -4.464,-0.496 -4.665575,-0.496 -0.09295,-0.10852 -0.294425,-0.20157 -0.294425,-0.29452 0,-0.20148 0.201475,-0.31 0.496,-0.40305 4.665475,-0.69748 9.315475,-4.66548 9.315475,-11.00495 0,-5.36305 -4.06105,-11.02053 -11.50105,-11.02053 -6.944,0 -11.408,5.65748 -11.408,12.19853" class="Clef" style="stroke-width:.992"/>
  <path d="m 139.113,82.202475 c -2.48,1.596525 -4.26252,4.464 -4.26252,7.641575 0,0.40297 0,0.790475 0.093,1.193475 0.496,4.061 3.782,7.238495 7.84296,7.734495 0.29452,0 0.79052,0 1.08504,0 4.96,0 8.928,-3.968 8.928,-8.92797 0,0 0,-0.294525 0,-0.58905 0,-0.40295 -0.093,-1.100525 -0.186,-1.488 -0.89904,-4.262525 -4.774,-13.392 -21.638,-13.392 -21.62252,0 -24.10252,17.94902 -24.10252,24.39702 0,11.81098 1.488,26.59803 26.288,26.59803 9.82705,0 17.46852,-5.766 17.856,-16.38353 0,-0.496 -0.29452,-0.79049 -0.79052,-0.79049 h -1.28643 c -0.40305,0 -0.79053,0.403 -0.79053,0.79049 -0.40304,8.24605 -6.262,13.20605 -14.98852,13.20605 -8.63348,0 -12.80295,-4.66557 -12.80295,-13.39205 V 89.84405 c 0,-5.54905 2.18547,-11.904 11.02043,-11.904 4.66557,0 6.74252,1.689475 7.84304,3.37895 0.093,0.201475 0.093,0.294525 0.093,0.496 0,0.09305 0,0.294525 -0.20148,0.387475" class="TimeSig" style="stroke-width:.992"/>
  <path d="m515.723 277.538-8.859.547v2.156h2.047c1.906.047 2.156.344 2.156 2.5v14.297c-.047.75-.094 1.047-.297 1.297-.359.453-1.359.656-3.5.703h-.203v1.797h13.344v-1.797h-.891c-3.359-.109-3.797-.359-3.797-2.156v-2.703c.047-8.391 3.047-14.797 6.938-15-.688.812-.891 1.312-.891 2.25 0 1.609 1.141 2.75 2.75 2.75 1.844 0 3.047-1.344 3.047-3.344 0-2.453-1.703-4.047-4.344-4.047-3.156 0-5.859 2.5-7.5 6.953v-6.203M616.128 277.538l-8.859.547v2.156h2.047c1.906.047 2.156.344 2.156 2.5v14.297c-.047.75-.094 1.047-.297 1.297-.359.453-1.359.656-3.5.703h-.203v1.797h13.344v-1.797h-.891c-3.359-.109-3.797-.359-3.797-2.156v-2.703c.047-8.391 3.047-14.797 6.938-15-.688.812-.891 1.312-.891 2.25 0 1.609 1.141 2.75 2.75 2.75 1.844 0 3.047-1.344 3.047-3.344 0-2.453-1.703-4.047-4.344-4.047-3.156 0-5.859 2.5-7.5 6.953v-6.203M826.392 294.382l-4.91-12.844c-.15-.359-.2-.656-.2-1.047 0-.906.45-1.156 2.09-1.156h1.21v-1.797h-11.21v1.797h.86c1.6.047 2.25.453 2.64 1.844l.41 1.312-4.41 11.641-4.84-12.547c-.09-.344-.2-.797-.2-1.094 0-.859.54-1.156 2.04-1.156h.91v-1.797h-11v1.797h.91c1.39.047 2.04.656 2.59 2.453l7.5 19.797h1.75l5.95-15.797 6.1 15.797h1.56l7-18.453c1.09-2.953 1.84-3.75 3.69-3.797h.36v-1.797h-9.46v1.797h.85c1.75 0 2.45.5 2.45 1.844 0 .5-.14 1.156-.39 1.812l-4.25 11.391M725.722 284.741c0-3.156-.55-4.75-2-5.953-1.64-1.359-4.09-2-7.3-2-5.64 0-9.75 2.641-9.75 6.297 0 1.844 1.16 3.047 2.91 3.047 1.59 0 2.7-1.047 2.7-2.547 0-.656-.25-1.344-.75-2.047-.31-.359-.36-.453-.36-.703 0-1 2-1.906 4.41-1.906 1.59 0 3.34.5 4.14 1.25.95.812 1.31 2 1.31 4.25v1.953c-5.2.906-6.86 1.297-9.31 2.25-4.34 1.609-6.39 3.906-6.39 7.109 0 3.594 2.8 5.844 7.25 5.844 3.45 0 6.55-1.406 8.7-3.953.8 2.547 2.05 3.547 4.39 3.547 2.25 0 4.61-1.438 4.61-2.891 0-.359-.2-.609-.5-.609-.2 0-.4.062-.75.203-.7.297-1 .359-1.4.359-1.41 0-1.91-.906-1.91-3.453v-10.047m-4.69 6.094c0 3-.15 3.703-1 5-1.25 1.844-3.5 3.094-5.7 3.094-2.3 0-3.95-1.641-3.95-3.891 0-2.109 1.04-3.609 3.25-4.656 1.54-.703 3.5-1.203 7.4-1.844v2.297M232.465 264.382h-1.906l-2 2.953c-3.641-2.656-5.5-3.36-8.954-3.36-4.75 0-8.796 2-12.14 6-3.203 3.813-4.703 8.016-4.703 13.157 0 10.797 7.047 18.453 16.906 18.453 8 0 13.094-4.703 14.25-13.094l-2.359-.406c-1.344 7.453-5.141 11.156-11.297 11.156-7.407 0-10.907-5.109-10.907-15.906 0-5.703.75-9.453 2.454-12.453 1.546-2.797 4.609-4.547 7.859-4.547 3.5 0 6.594 1.844 8.5 5.047.953 1.656 1.641 3.5 2.844 7.453h2.203l-.75-14.453M415.318 277.538l-8.859.547v2.156h2.046c1.907.047 2.157.344 2.157 2.5v14.297c-.047.75-.094 1.047-.297 1.297-.36.453-1.36.656-3.5.703h-.203v1.797h13.343v-1.797h-.89c-3.36-.109-3.797-.359-3.797-2.156v-2.703c.047-8.391 3.047-14.797 6.937-15-.687.812-.89 1.312-.89 2.25 0 1.609 1.14 2.75 2.75 2.75 1.844 0 3.047-1.344 3.047-3.344 0-2.453-1.703-4.047-4.344-4.047-3.156 0-5.859 2.5-7.5 6.953v-6.203" class="Lyrics"/>
  <path d="M234.344 10.711c-3.875 0-6.045 2.573-6.045 2.573l-.806-.79c-.496-.496-1.287-.496-1.287-.496h-10.215l3.364-10.416c0-.093 0-.202 0-.202C219.356.682 218.674 0 217.976 0h-.899c-.295 0-.791.295-.992.496-.201.186-4.759 3.968-5.162 4.263-.387.295-.496.791-.496.791 0 0-.992 2.774-2.278 6.448h-5.549c-1.193 0-1.395 1.193-1.395 1.193v1.287c0 1.1 1.395 1.193 1.395 1.193h4.356c-2.17 6.541-4.557 14.291-4.557 16.461 0 4.774 3.271 5.859 6.355 5.859 3.069 0 6.448-2.387 6.448-2.387 0 0 .294.697.589 1.488.295.806 1.193.899 1.193.899h4.464c1.287 0 1.488-1.085 1.488-1.085v-1.891c0-2.186 1.581-7.145 1.581-7.145l4.169-9.424c0 0 .992-1.876 2.093-2.868.883-.697 1.783-1.1 2.371-1.1.109 0 .295 0 .403.108-1.395.884-1.69 2.372-1.69 3.565 0 1.193 1.287 3.767 3.968 3.767 3.379 0 4.557-2.077 4.557-5.162 0-3.069-2.17-6.045-6.045-6.045m-16.662 17.453c-.806 2.681-3.472 4.464-5.162 4.464-.294 0-.496 0-.697-.093-.79-.403-1.085-1.395-1.085-2.48 0-2.279 1.085-5.161 1.085-5.161l2.976-9.223h6.541c.31 0 .31.295.31.295 0 0-3.085 9.129-3.968 12.198M268.461 17.949c0 0-.589-.698-1.379-1.38-.31-.31-.698-.403-.992-.403-.31 0-.496.093-.698.295-.201.201-.496.496-1.1 1.1-.186.186-.388.295-.589.295-.403 0-.589-.295-.589-.295 0 0-6.355-5.471-7.347-6.355C254.681 10.416 253.581 10.106 252.589 10.106c-2.077 0-3.968 1.193-4.758 2.093l-4.758 4.759c-.294.294-.403.496-.403.79 0 .496.403.899.403.899 0 0 .589.697 1.38 1.395.31.295.605.388.899.388.295 0 .496-.093.698-.295.202-.201.496-.496 1.085-1.085.202-.201.403-.31.605-.31.388 0 .682.31.682.31 0 0 6.355 5.348 7.347 6.247 1.085.791 2.185 1.085 3.177 1.085 2.077 0 3.968-1.194 4.759-2.077l4.759-4.759c.295-.31.403-.604.403-.806 0-.496-.403-.79-.403-.79" class="TrillSegment" style="stroke-width:.992"/>
  <path d="m 290.26852,17.94905 c 0,0 -0.58904,-0.697575 -1.37947,-1.379575 -0.31,-0.31 -0.69757,-0.40295 -0.992,-0.40295 -0.31,0 -0.496,0.09295 -0.69757,0.294525 -0.20148,0.201475 -0.496,0.496 -1.10043,1.100425 -0.186,0.186 -0.38757,0.294525 -0.58905,0.294525 -0.40295,0 -0.58895,-0.294525 -0.58895,-0.294525 0,0 -6.35505,-5.471475 -7.34705,-6.35495 C 276.489,10.416 275.3885,10.106 274.3965,10.106 c -2.077,0 -3.968,1.193475 -4.7585,2.092525 l -4.7585,4.758525 c -0.2945,0.294425 -0.403,0.496 -0.403,0.790425 0,0.496 0.403,0.89905 0.403,0.89905 0,0 0.589,0.697475 1.3795,1.39495 0.31,0.294525 0.6045,0.387575 0.899,0.387575 0.2945,0 0.496,-0.09305 0.6975,-0.294525 0.2015,-0.201475 0.496,-0.496 1.085,-1.08505 0.2015,-0.201475 0.403,-0.31 0.6045,-0.31 0.3875,0 0.682,0.31 0.682,0.31 0,0 6.355,5.347575 7.347,6.246525 1.08505,0.790525 2.18548,1.08505 3.17748,1.08505 2.07704,0 3.968,-1.193575 4.75852,-2.07705 l 4.75852,-4.758525 c 0.29453,-0.31 0.40296,-0.604425 0.40296,-0.806 0,-0.496 -0.40296,-0.790425 -0.40296,-0.790425" class="TrillSegment" style="stroke-width:.992"/>
  <path d="m 312.09252,17.94905 c 0,0 -0.58904,-0.697575 -1.37947,-1.379575 -0.31,-0.31 -0.69757,-0.40295 -0.992,-0.40295 -0.31,0 -0.496,0.09295 -0.69757,0.294525 -0.20148,0.201475 -0.496,0.496 -1.10043,1.100425 -0.186,0.186 -0.38757,0.294525 -0.58905,0.294525 -0.40295,0 -0.58895,-0.294525 -0.58895,-0.294525 0,0 -6.35505,-5.471475 -7.34705,-6.35495 C 298.313,10.416 297.2125,10.106 296.2205,10.106 c -2.077,0 -3.968,1.193475 -4.7585,2.092525 l -4.7585,4.758525 c -0.2945,0.294425 -0.403,0.496 -0.403,0.790425 0,0.496 0.403,0.89905 0.403,0.89905 0,0 0.589,0.697475 1.3795,1.39495 0.31,0.294525 0.6045,0.387575 0.899,0.387575 0.2945,0 0.496,-0.09305 0.6975,-0.294525 0.2015,-0.201475 0.496,-0.496 1.085,-1.08505 0.2015,-0.201475 0.403,-0.31 0.6045,-0.31 0.3875,0 0.682,0.31 0.682,0.31 0,0 6.355,5.347575 7.347,6.246525 1.08505,0.790525 2.18548,1.08505 3.17748,1.08505 2.07704,0 3.968,-1.193575 4.75852,-2.07705 l 4.75852,-4.758525 c 0.29453,-0.31 0.40296,-0.604425 0.40296,-0.806 0,-0.496 -0.40296,-0.790425 -0.40296,-0.790425" class="TrillSegment" style="stroke-width:.992"/>
  <path d="m 333.91652,17.94905 c 0,0 -0.58904,-0.697575 -1.37947,-1.379575 -0.31,-0.31 -0.69757,-0.40295 -0.992,-0.40295 -0.31,0 -0.496,0.09295 -0.69757,0.294525 -0.20148,0.201475 -0.496,0.496 -1.10043,1.100425 -0.186,0.186 -0.38757,0.294525 -0.58905,0.294525 -0.40295,0 -0.58895,-0.294525 -0.58895,-0.294525 0,0 -6.35505,-5.471475 -7.34705,-6.35495 C 320.137,10.416 319.0365,10.106 318.0445,10.106 c -2.077,0 -3.968,1.193475 -4.7585,2.092525 l -4.7585,4.758525 c -0.2945,0.294425 -0.403,0.496 -0.403,0.790425 0,0.496 0.403,0.89905 0.403,0.89905 0,0 0.589,0.697475 1.3795,1.39495 0.31,0.294525 0.6045,0.387575 0.899,0.387575 0.2945,0 0.496,-0.09305 0.6975,-0.294525 0.2015,-0.201475 0.496,-0.496 1.085,-1.08505 0.2015,-0.201475 0.403,-0.31 0.6045,-0.31 0.3875,0 0.682,0.31 0.682,0.31 0,0 6.355,5.347575 7.347,6.246525 1.08505,0.790525 2.18548,1.08505 3.17748,1.08505 2.07704,0 3.968,-1.193575 4.75852,-2.07705 l 4.75852,-4.758525 c 0.29453,-0.31 0.40296,-0.604425 0.40296,-0.806 0,-0.496 -0.40296,-0.790425 -0.40296,-0.790425" class="TrillSegment" style="stroke-width:.992"/>
  <path d="m 355.74052,17.94905 c 0,0 -0.58904,-0.697575 -1.37947,-1.379575 -0.31,-0.31 -0.69757,-0.40295 -0.992,-0.40295 -0.31,0 -0.496,0.09295 -0.69757,0.294525 -0.20148,0.201475 -0.496,0.496 -1.10043,1.100425 -0.186,0.186 -0.38757,0.294525 -0.58905,0.294525 -0.40295,0 -0.58895,-0.294525 -0.58895,-0.294525 0,0 -6.35505,-5.471475 -7.34705,-6.35495 C 341.961,10.416 340.8605,10.106 339.8685,10.106 c -2.077,0 -3.968,1.193475 -4.7585,2.092525 l -4.7585,4.758525 c -0.2945,0.294425 -0.403,0.496 -0.403,0.790425 0,0.496 0.403,0.89905 0.403,0.89905 0,0 0.589,0.697475 1.3795,1.39495 0.31,0.294525 0.6045,0.387575 0.899,0.387575 0.2945,0 0.496,-0.09305 0.6975,-0.294525 0.2015,-0.201475 0.496,-0.496 1.085,-1.08505 0.2015,-0.201475 0.403,-0.31 0.6045,-0.31 0.3875,0 0.682,0.31 0.682,0.31 0,0 6.355,5.347575 7.347,6.246525 1.08505,0.790525 2.18548,1.08505 3.17748,1.08505 2.07704,0 3.968,-1.193575 4.75852,-2.07705 l 4.75852,-4.758525 c 0.29453,-0.31 0.40296,-0.604425 0.40296,-0.806 0,-0.496 -0.40296,-0.790425 -0.40296,-0.790425" class="TrillSegment" style="stroke-width:.992"/>
  <path d="m 377.56452,17.94905 c 0,0 -0.58904,-0.697575 -1.37947,-1.379575 -0.31,-0.31 -0.69757,-0.40295 -0.992,-0.40295 -0.31,0 -0.496,0.09295 -0.69757,0.294525 -0.20148,0.201475 -0.496,0.496 -1.10043,1.100425 -0.186,0.186 -0.38757,0.294525 -0.58905,0.294525 -0.40295,0 -0.58895,-0.294525 -0.58895,-0.294525 0,0 -6.35505,-5.471475 -7.34705,-6.35495 C 363.785,10.416 362.6845,10.106 361.6925,10.106 c -2.077,0 -3.968,1.193475 -4.7585,2.092525 l -4.7585,4.758525 c -0.2945,0.294425 -0.403,0.496 -0.403,0.790425 0,0.496 0.403,0.89905 0.403,0.89905 0,0 0.589,0.697475 1.3795,1.39495 0.31,0.294525 0.6045,0.387575 0.899,0.387575 0.2945,0 0.496,-0.09305 0.6975,-0.294525 0.2015,-0.201475 0.496,-0.496 1.085,-1.08505 0.2015,-0.201475 0.403,-0.31 0.6045,-0.31 0.3875,0 0.682,0.31 0.682,0.31 0,0 6.355,5.347575 7.347,6.246525 1.08505,0.790525 2.18548,1.08505 3.17748,1.08505 2.07704,0 3.968,-1.193575 4.75852,-2.07705 l 4.75852,-4.758525 c 0.29453,-0.31 0.40296,-0.604425 0.40296,-0.806 0,-0.496 -0.40296,-0.790425 -0.40296,-0.790425" class="TrillSegment" style="stroke-width:.992"/>
  <path d="m 399.40452,17.94905 c 0,0 -0.58904,-0.697575 -1.37947,-1.379575 -0.31,-0.31 -0.69757,-0.40295 -0.992,-0.40295 -0.31,0 -0.496,0.09295 -0.69757,0.294525 -0.20148,0.201475 -0.496,0.496 -1.10043,1.100425 -0.186,0.186 -0.38757,0.294525 -0.58905,0.294525 -0.40295,0 -0.58895,-0.294525 -0.58895,-0.294525 0,0 -6.35505,-5.471475 -7.34705,-6.35495 C 385.625,10.416 384.5245,10.106 383.5325,10.106 c -2.077,0 -3.968,1.193475 -4.7585,2.092525 l -4.7585,4.758525 c -0.2945,0.294425 -0.403,0.496 -0.403,0.790425 0,0.496 0.403,0.89905 0.403,0.89905 0,0 0.589,0.697475 1.3795,1.39495 0.31,0.294525 0.6045,0.387575 0.899,0.387575 0.2945,0 0.496,-0.09305 0.6975,-0.294525 0.2015,-0.201475 0.496,-0.496 1.085,-1.08505 0.2015,-0.201475 0.403,-0.31 0.6045,-0.31 0.3875,0 0.682,0.31 0.682,0.31 0,0 6.355,5.347575 7.347,6.246525 1.08505,0.790525 2.18548,1.08505 3.17748,1.08505 2.07704,0 3.968,-1.193575 4.75852,-2.07705 l 4.75852,-4.758525 c 0.29453,-0.31 0.40296,-0.604425 0.40296,-0.806 0,-0.496 -0.40296,-0.790425 -0.40296,-0.790425" class="TrillSegment" style="stroke-width:.992"/>
  <path d="m 421.22852,17.94905 c 0,0 -0.58904,-0.697575 -1.37947,-1.379575 -0.31,-0.31 -0.69757,-0.40295 -0.992,-0.40295 -0.31,0 -0.496,0.09295 -0.69757,0.294525 -0.20148,0.201475 -0.496,0.496 -1.10043,1.100425 -0.186,0.186 -0.38757,0.294525 -0.58905,0.294525 -0.40295,0 -0.58895,-0.294525 -0.58895,-0.294525 0,0 -6.35505,-5.471475 -7.34705,-6.35495 C 407.449,10.416 406.3485,10.106 405.3565,10.106 c -2.077,0 -3.968,1.193475 -4.7585,2.092525 l -4.7585,4.758525 c -0.2945,0.294425 -0.403,0.496 -0.403,0.790425 0,0.496 0.403,0.89905 0.403,0.89905 0,0 0.589,0.697475 1.3795,1.39495 0.31,0.294525 0.6045,0.387575 0.899,0.387575 0.2945,0 0.496,-0.09305 0.6975,-0.294525 0.2015,-0.201475 0.496,-0.496 1.085,-1.08505 0.2015,-0.201475 0.403,-0.31 0.6045,-0.31 0.3875,0 0.682,0.31 0.682,0.31 0,0 6.355,5.347575 7.347,6.246525 1.08505,0.790525 2.18548,1.08505 3.17748,1.08505 2.07704,0 3.968,-1.193575 4.75852,-2.07705 l 4.75852,-4.758525 c 0.29453,-0.31 0.40296,-0.604425 0.40296,-0.806 0,-0.496 -0.40296,-0.790425 -0.40296,-0.790425" class="TrillSegment" style="stroke-width:.992"/>
  <path d="m 443.05252,17.94905 c 0,0 -0.58904,-0.697575 -1.37947,-1.379575 -0.31,-0.31 -0.69757,-0.40295 -0.992,-0.40295 -0.31,0 -0.496,0.09295 -0.69757,0.294525 -0.20148,0.201475 -0.496,0.496 -1.10043,1.100425 -0.186,0.186 -0.38757,0.294525 -0.58905,0.294525 -0.40295,0 -0.58895,-0.294525 -0.58895,-0.294525 0,0 -6.35505,-5.471475 -7.34705,-6.35495 C 429.273,10.416 428.1725,10.106 427.1805,10.106 c -2.077,0 -3.968,1.193475 -4.7585,2.092525 l -4.7585,4.758525 c -0.2945,0.294425 -0.403,0.496 -0.403,0.790425 0,0.496 0.403,0.89905 0.403,0.89905 0,0 0.589,0.697475 1.3795,1.39495 0.31,0.294525 0.6045,0.387575 0.899,0.387575 0.2945,0 0.496,-0.09305 0.6975,-0.294525 0.2015,-0.201475 0.496,-0.496 1.085,-1.08505 0.2015,-0.201475 0.403,-0.31 0.6045,-0.31 0.3875,0 0.682,0.31 0.682,0.31 0,0 6.355,5.347575 7.347,6.246525 1.08505,0.790525 2.18548,1.08505 3.17748,1.08505 2.07704,0 3.968,-1.193575 4.75852,-2.07705 l 4.75852,-4.758525 c 0.29453,-0.31 0.40296,-0.604425 0.40296,-0.806 0,-0.496 -0.40296,-0.790425 -0.40296,-0.790425" class="TrillSegment" style="stroke-width:.992"/>
  <path d="m 464.87652,17.94905 c 0,0 -0.58904,-0.697575 -1.37947,-1.379575 -0.31,-0.31 -0.69757,-0.40295 -0.992,-0.40295 -0.31,0 -0.496,0.09295 -0.69757,0.294525 -0.20148,0.201475 -0.496,0.496 -1.10043,1.100425 -0.186,0.186 -0.38757,0.294525 -0.58905,0.294525 -0.40295,0 -0.58895,-0.294525 -0.58895,-0.294525 0,0 -6.35505,-5.471475 -7.34705,-6.35495 C 451.097,10.416 449.9965,10.106 449.0045,10.106 c -2.077,0 -3.968,1.193475 -4.7585,2.092525 l -4.7585,4.758525 c -0.2945,0.294425 -0.403,0.496 -0.403,0.790425 0,0.496 0.403,0.89905 0.403,0.89905 0,0 0.589,0.697475 1.3795,1.39495 0.31,0.294525 0.6045,0.387575 0.899,0.387575 0.2945,0 0.496,-0.09305 0.6975,-0.294525 0.2015,-0.201475 0.496,-0.496 1.085,-1.08505 0.2015,-0.201475 0.403,-0.31 0.6045,-0.31 0.3875,0 0.682,0.31 0.682,0.31 0,0 6.355,5.347575 7.347,6.246525 1.08505,0.790525 2.18548,1.08505 3.17748,1.08505 2.07704,0 3.968,-1.193575 4.75852,-2.07705 l 4.75852,-4.758525 c 0.29453,-0.31 0.40296,-0.604425 0.40296,-0.806 0,-0.496 -0.40296,-0.790425 -0.40296,-0.790425" class="TrillSegment" style="stroke-width:.992"/>
  <path d="m 486.70052,17.94905 c 0,0 -0.58904,-0.697575 -1.37947,-1.379575 -0.31,-0.31 -0.69757,-0.40295 -0.992,-0.40295 -0.31,0 -0.496,0.09295 -0.69757,0.294525 -0.20148,0.201475 -0.496,0.496 -1.10043,1.100425 -0.186,0.186 -0.38757,0.294525 -0.58905,0.294525 -0.40295,0 -0.58895,-0.294525 -0.58895,-0.294525 0,0 -6.35505,-5.471475 -7.34705,-6.35495 C 472.921,10.416 471.8205,10.106 470.8285,10.106 c -2.077,0 -3.968,1.193475 -4.7585,2.092525 l -4.7585,4.758525 c -0.2945,0.294425 -0.403,0.496 -0.403,0.790425 0,0.496 0.403,0.89905 0.403,0.89905 0,0 0.589,0.697475 1.3795,1.39495 0.31,0.294525 0.6045,0.387575 0.899,0.387575 0.2945,0 0.496,-0.09305 0.6975,-0.294525 0.2015,-0.201475 0.496,-0.496 1.085,-1.08505 0.2015,-0.201475 0.403,-0.31 0.6045,-0.31 0.3875,0 0.682,0.31 0.682,0.31 0,0 6.355,5.347575 7.347,6.246525 1.08505,0.790525 2.18548,1.08505 3.17748,1.08505 2.07704,0 3.968,-1.193575 4.75852,-2.07705 l 4.75852,-4.758525 c 0.29453,-0.31 0.40296,-0.604425 0.40296,-0.806 0,-0.496 -0.40296,-0.790425 -0.40296,-0.790425" class="TrillSegment" style="stroke-width:.992"/>
  <path d="m 508.52452,17.94905 c 0,0 -0.58904,-0.697575 -1.37947,-1.379575 -0.31,-0.31 -0.69757,-0.40295 -0.992,-0.40295 -0.31,0 -0.496,0.09295 -0.69757,0.294525 -0.20148,0.201475 -0.496,0.496 -1.10043,1.100425 -0.186,0.186 -0.38757,0.294525 -0.58905,0.294525 -0.40295,0 -0.58895,-0.294525 -0.58895,-0.294525 0,0 -6.35505,-5.471475 -7.34705,-6.35495 C 494.745,10.416 493.6445,10.106 492.6525,10.106 c -2.077,0 -3.968,1.193475 -4.7585,2.092525 l -4.7585,4.758525 c -0.2945,0.294425 -0.403,0.496 -0.403,0.790425 0,0.496 0.403,0.89905 0.403,0.89905 0,0 0.589,0.697475 1.3795,1.39495 0.31,0.294525 0.6045,0.387575 0.899,0.387575 0.2945,0 0.496,-0.09305 0.6975,-0.294525 0.2015,-0.201475 0.496,-0.496 1.085,-1.08505 0.2015,-0.201475 0.403,-0.31 0.6045,-0.31 0.3875,0 0.682,0.31 0.682,0.31 0,0 6.355,5.347575 7.347,6.246525 1.08505,0.790525 2.18548,1.08505 3.17748,1.08505 2.07704,0 3.968,-1.193575 4.75852,-2.07705 l 4.75852,-4.758525 c 0.29453,-0.31 0.40296,-0.604425 0.40296,-0.806 0,-0.496 -0.40296,-0.790425 -0.40296,-0.790425" class="TrillSegment" style="stroke-width:.992"/>
  <path d="m 530.34852,17.94905 c 0,0 -0.58904,-0.697575 -1.37947,-1.379575 -0.31,-0.31 -0.69757,-0.40295 -0.992,-0.40295 -0.31,0 -0.496,0.09295 -0.69757,0.294525 -0.20148,0.201475 -0.496,0.496 -1.10043,1.100425 -0.186,0.186 -0.38757,0.294525 -0.58905,0.294525 -0.40295,0 -0.58895,-0.294525 -0.58895,-0.294525 0,0 -6.35505,-5.471475 -7.34705,-6.35495 C 516.569,10.416 515.4685,10.106 514.4765,10.106 c -2.077,0 -3.968,1.193475 -4.7585,2.092525 l -4.7585,4.758525 c -0.2945,0.294425 -0.403,0.496 -0.403,0.790425 0,0.496 0.403,0.89905 0.403,0.89905 0,0 0.589,0.697475 1.3795,1.39495 0.31,0.294525 0.6045,0.387575 0.899,0.387575 0.2945,0 0.496,-0.09305 0.6975,-0.294525 0.2015,-0.201475 0.496,-0.496 1.085,-1.08505 0.2015,-0.201475 0.403,-0.31 0.6045,-0.31 0.3875,0 0.682,0.31 0.682,0.31 0,0 6.355,5.347575 7.347,6.246525 1.08505,0.790525 2.18548,1.08505 3.17748,1.08505 2.07704,0 3.968,-1.193575 4.75852,-2.07705 l 4.75852,-4.758525 c 0.29453,-0.31 0.40296,-0.604425 0.40296,-0.806 0,-0.496 -0.40296,-0.790425 -0.40296,-0.790425" class="TrillSegment" style="stroke-width:.992"/>
  <path d="m 552.17252,17.94905 c 0,0 -0.58904,-0.697575 -1.37947,-1.379575 -0.31,-0.31 -0.69757,-0.40295 -0.992,-0.40295 -0.31,0 -0.496,0.09295 -0.69757,0.294525 -0.20148,0.201475 -0.496,0.496 -1.10043,1.100425 -0.186,0.186 -0.38757,0.294525 -0.58905,0.294525 -0.40295,0 -0.58895,-0.294525 -0.58895,-0.294525 0,0 -6.35505,-5.471475 -7.34705,-6.35495 C 538.393,10.416 537.2925,10.106 536.3005,10.106 c -2.077,0 -3.968,1.193475 -4.7585,2.092525 l -4.7585,4.758525 c -0.2945,0.294425 -0.403,0.496 -0.403,0.790425 0,0.496 0.403,0.89905 0.403,0.89905 0,0 0.589,0.697475 1.3795,1.39495 0.31,0.294525 0.6045,0.387575 0.899,0.387575 0.2945,0 0.496,-0.09305 0.6975,-0.294525 0.2015,-0.201475 0.496,-0.496 1.085,-1.08505 0.2015,-0.201475 0.403,-0.31 0.6045,-0.31 0.3875,0 0.682,0.31 0.682,0.31 0,0 6.355,5.347575 7.347,6.246525 1.08505,0.790525 2.18548,1.08505 3.17748,1.08505 2.07704,0 3.968,-1.193575 4.75852,-2.07705 l 4.75852,-4.758525 c 0.29453,-0.31 0.40296,-0.604425 0.40296,-0.806 0,-0.496 -0.40296,-0.790425 -0.40296,-0.790425" class="TrillSegment" style="stroke-width:.992"/>
  <path d="m 573.99652,17.94905 c 0,0 -0.58904,-0.697575 -1.37947,-1.379575 -0.31,-0.31 -0.69757,-0.40295 -0.992,-0.40295 -0.31,0 -0.496,0.09295 -0.69757,0.294525 -0.20148,0.201475 -0.496,0.496 -1.10043,1.100425 -0.186,0.186 -0.38757,0.294525 -0.58905,0.294525 -0.40295,0 -0.58895,-0.294525 -0.58895,-0.294525 0,0 -6.35505,-5.471475 -7.34705,-6.35495 C 560.217,10.416 559.1165,10.106 558.1245,10.106 c -2.077,0 -3.968,1.193475 -4.7585,2.092525 l -4.7585,4.758525 c -0.2945,0.294425 -0.403,0.496 -0.403,0.790425 0,0.496 0.403,0.89905 0.403,0.89905 0,0 0.589,0.697475 1.3795,1.39495 0.31,0.294525 0.6045,0.387575 0.899,0.387575 0.2945,0 0.496,-0.09305 0.6975,-0.294525 0.2015,-0.201475 0.496,-0.496 1.085,-1.08505 0.2015,-0.201475 0.403,-0.31 0.6045,-0.31 0.3875,0 0.682,0.31 0.682,0.31 0,0 6.355,5.347575 7.347,6.246525 1.08505,0.790525 2.18548,1.08505 3.17748,1.08505 2.07704,0 3.968,-1.193575 4.75852,-2.07705 l 4.75852,-4.758525 c 0.29453,-0.31 0.40296,-0.604425 0.40296,-0.806 0,-0.496 -0.40296,-0.790425 -0.40296,-0.790425" class="TrillSegment" style="stroke-width:.992"/>
  <path d="m 595.82052,17.94905 c 0,0 -0.58904,-0.697575 -1.37947,-1.379575 -0.31,-0.31 -0.69757,-0.40295 -0.992,-0.40295 -0.31,0 -0.496,0.09295 -0.69757,0.294525 -0.20148,0.201475 -0.496,0.496 -1.10043,1.100425 -0.186,0.186 -0.38757,0.294525 -0.58905,0.294525 -0.40295,0 -0.58895,-0.294525 -0.58895,-0.294525 0,0 -6.35505,-5.471475 -7.34705,-6.35495 C 582.041,10.416 580.9405,10.106 579.9485,10.106 c -2.077,0 -3.968,1.193475 -4.7585,2.092525 l -4.7585,4.758525 c -0.2945,0.294425 -0.403,0.496 -0.403,0.790425 0,0.496 0.403,0.89905 0.403,0.89905 0,0 0.589,0.697475 1.3795,1.39495 0.31,0.294525 0.6045,0.387575 0.899,0.387575 0.2945,0 0.496,-0.09305 0.6975,-0.294525 0.2015,-0.201475 0.496,-0.496 1.085,-1.08505 0.2015,-0.201475 0.403,-0.31 0.6045,-0.31 0.3875,0 0.682,0.31 0.682,0.31 0,0 6.355,5.347575 7.347,6.246525 1.08505,0.790525 2.18548,1.08505 3.17748,1.08505 2.07704,0 3.968,-1.193575 4.75852,-2.07705 l 4.75852,-4.758525 c 0.29453,-0.31 0.40296,-0.604425 0.40296,-0.806 0,-0.496 -0.40296,-0.790425 -0.40296,-0.790425" class="TrillSegment" style="stroke-width:.992"/>
  <path d="m 617.64452,17.94905 c 0,0 -0.58904,-0.697575 -1.37947,-1.379575 -0.31,-0.31 -0.69757,-0.40295 -0.992,-0.40295 -0.31,0 -0.496,0.09295 -0.69757,0.294525 -0.20148,0.201475 -0.496,0.496 -1.10043,1.100425 -0.186,0.186 -0.38757,0.294525 -0.58905,0.294525 -0.40295,0 -0.58895,-0.294525 -0.58895,-0.294525 0,0 -6.35505,-5.471475 -7.34705,-6.35495 C 603.865,10.416 602.7645,10.106 601.7725,10.106 c -2.077,0 -3.968,1.193475 -4.7585,2.092525 l -4.7585,4.758525 c -0.2945,0.294425 -0.403,0.496 -0.403,0.790425 0,0.496 0.403,0.89905 0.403,0.89905 0,0 0.589,0.697475 1.3795,1.39495 0.31,0.294525 0.6045,0.387575 0.899,0.387575 0.2945,0 0.496,-0.09305 0.6975,-0.294525 0.2015,-0.201475 0.496,-0.496 1.085,-1.08505 0.2015,-0.201475 0.403,-0.31 0.6045,-0.31 0.3875,0 0.682,0.31 0.682,0.31 0,0 6.355,5.347575 7.347,6.246525 1.08505,0.790525 2.18548,1.08505 3.17748,1.08505 2.07704,0 3.968,-1.193575 4.75852,-2.07705 l 4.75852,-4.758525 c 0.29453,-0.31 0.40296,-0.604425 0.40296,-0.806 0,-0.496 -0.40296,-0.790425 -0.40296,-0.790425" class="TrillSegment" style="stroke-width:.992"/>
  <path d="m 639.46852,17.94905 c 0,0 -0.58904,-0.697575 -1.37947,-1.379575 -0.31,-0.31 -0.69757,-0.40295 -0.992,-0.40295 -0.31,0 -0.496,0.09295 -0.69757,0.294525 -0.20148,0.201475 -0.496,0.496 -1.10043,1.100425 -0.186,0.186 -0.38757,0.294525 -0.58905,0.294525 -0.40295,0 -0.58895,-0.294525 -0.58895,-0.294525 0,0 -6.35505,-5.471475 -7.34705,-6.35495 C 625.689,10.416 624.5885,10.106 623.5965,10.106 c -2.077,0 -3.968,1.193475 -4.7585,2.092525 l -4.7585,4.758525 c -0.2945,0.294425 -0.403,0.496 -0.403,0.790425 0,0.496 0.403,0.89905 0.403,0.89905 0,0 0.589,0.697475 1.3795,1.39495 0.31,0.294525 0.6045,0.387575 0.899,0.387575 0.2945,0 0.496,-0.09305 0.6975,-0.294525 0.2015,-0.201475 0.496,-0.496 1.085,-1.08505 0.2015,-0.201475 0.403,-0.31 0.6045,-0.31 0.3875,0 0.682,0.31 0.682,0.31 0,0 6.355,5.347575 7.347,6.246525 1.08505,0.790525 2.18548,1.08505 3.17748,1.08505 2.07704,0 3.968,-1.193575 4.75852,-2.07705 l 4.75852,-4.758525 c 0.29453,-0.31 0.40296,-0.604425 0.40296,-0.806 0,-0.496 -0.40296,-0.790425 -0.40296,-0.790425" class="TrillSegment" style="stroke-width:.992"/>
  <path d="m 661.29252,17.94905 c 0,0 -0.58904,-0.697575 -1.37947,-1.379575 -0.31,-0.31 -0.69757,-0.40295 -0.992,-0.40295 -0.31,0 -0.496,0.09295 -0.69757,0.294525 -0.20148,0.201475 -0.496,0.496 -1.10043,1.100425 -0.186,0.186 -0.38757,0.294525 -0.58905,0.294525 -0.40295,0 -0.58895,-0.294525 -0.58895,-0.294525 0,0 -6.35505,-5.471475 -7.34705,-6.35495 C 647.513,10.416 646.4125,10.106 645.4205,10.106 c -2.077,0 -3.968,1.193475 -4.7585,2.092525 l -4.7585,4.758525 c -0.2945,0.294425 -0.403,0.496 -0.403,0.790425 0,0.496 0.403,0.89905 0.403,0.89905 0,0 0.589,0.697475 1.3795,1.39495 0.31,0.294525 0.6045,0.387575 0.899,0.387575 0.2945,0 0.496,-0.09305 0.6975,-0.294525 0.2015,-0.201475 0.496,-0.496 1.085,-1.08505 0.2015,-0.201475 0.403,-0.31 0.6045,-0.31 0.3875,0 0.682,0.31 0.682,0.31 0,0 6.355,5.347575 7.347,6.246525 1.08505,0.790525 2.18548,1.08505 3.17748,1.08505 2.07704,0 3.968,-1.193575 4.75852,-2.07705 l 4.75852,-4.758525 c 0.29453,-0.31 0.40296,-0.604425 0.40296,-0.806 0,-0.496 -0.40296,-0.790425 -0.40296,-0.790425" class="TrillSegment" style="stroke-width:.992"/>
  <path d="m 683.11652,17.94905 c 0,0 -0.58904,-0.697575 -1.37947,-1.379575 -0.31,-0.31 -0.69757,-0.40295 -0.992,-0.40295 -0.31,0 -0.496,0.09295 -0.69757,0.294525 -0.20148,0.201475 -0.496,0.496 -1.10043,1.100425 -0.186,0.186 -0.38757,0.294525 -0.58905,0.294525 -0.40295,0 -0.58895,-0.294525 -0.58895,-0.294525 0,0 -6.35505,-5.471475 -7.34705,-6.35495 C 669.337,10.416 668.2365,10.106 667.2445,10.106 c -2.077,0 -3.968,1.193475 -4.7585,2.092525 l -4.7585,4.758525 c -0.2945,0.294425 -0.403,0.496 -0.403,0.790425 0,0.496 0.403,0.89905 0.403,0.89905 0,0 0.589,0.697475 1.3795,1.39495 0.31,0.294525 0.6045,0.387575 0.899,0.387575 0.2945,0 0.496,-0.09305 0.6975,-0.294525 0.2015,-0.201475 0.496,-0.496 1.085,-1.08505 0.2015,-0.201475 0.403,-0.31 0.6045,-0.31 0.3875,0 0.682,0.31 0.682,0.31 0,0 6.355,5.347575 7.347,6.246525 1.08505,0.790525 2.18548,1.08505 3.17748,1.08505 2.07704,0 3.968,-1.193575 4.75852,-2.07705 l 4.75852,-4.758525 c 0.29453,-0.31 0.40296,-0.604425 0.40296,-0.806 0,-0.496 -0.40296,-0.790425 -0.40296,-0.790425" class="TrillSegment" style="stroke-width:.992"/>
  <path d="m 704.94252,17.94905 c 0,0 -0.58904,-0.697575 -1.37947,-1.379575 -0.31,-0.31 -0.69757,-0.40295 -0.992,-0.40295 -0.31,0 -0.496,0.09295 -0.69757,0.294525 -0.20148,0.201475 -0.496,0.496 -1.10043,1.100425 -0.186,0.186 -0.38757,0.294525 -0.58905,0.294525 -0.40295,0 -0.58895,-0.294525 -0.58895,-0.294525 0,0 -6.35505,-5.471475 -7.34705,-6.35495 C 691.163,10.416 690.0625,10.106 689.0705,10.106 c -2.077,0 -3.968,1.193475 -4.7585,2.092525 l -4.7585,4.758525 c -0.2945,0.294425 -0.403,0.496 -0.403,0.790425 0,0.496 0.403,0.89905 0.403,0.89905 0,0 0.589,0.697475 1.3795,1.39495 0.31,0.294525 0.6045,0.387575 0.899,0.387575 0.2945,0 0.496,-0.09305 0.6975,-0.294525 0.2015,-0.201475 0.496,-0.496 1.085,-1.08505 0.2015,-0.201475 0.403,-0.31 0.6045,-0.31 0.3875,0 0.682,0.31 0.682,0.31 0,0 6.355,5.347575 7.347,6.246525 1.08505,0.790525 2.18548,1.08505 3.17748,1.08505 2.07704,0 3.968,-1.193575 4.75852,-2.07705 l 4.75852,-4.758525 c 0.29453,-0.31 0.40296,-0.604425 0.40296,-0.806 0,-0.496 -0.40296,-0.790425 -0.40296,-0.790425" class="TrillSegment" style="stroke-width:.992"/>
  <path d="m 726.76252,17.94905 c 0,0 -0.58904,-0.697575 -1.37947,-1.379575 -0.31,-0.31 -0.69757,-0.40295 -0.992,-0.40295 -0.31,0 -0.496,0.09295 -0.69757,0.294525 -0.20148,0.201475 -0.496,0.496 -1.10043,1.100425 -0.186,0.186 -0.38757,0.294525 -0.58905,0.294525 -0.40295,0 -0.58895,-0.294525 -0.58895,-0.294525 0,0 -6.35505,-5.471475 -7.34705,-6.35495 C 712.983,10.416 711.8825,10.106 710.8905,10.106 c -2.077,0 -3.968,1.193475 -4.7585,2.092525 l -4.7585,4.758525 c -0.2945,0.294425 -0.403,0.496 -0.403,0.790425 0,0.496 0.403,0.89905 0.403,0.89905 0,0 0.589,0.697475 1.3795,1.39495 0.31,0.294525 0.6045,0.387575 0.899,0.387575 0.2945,0 0.496,-0.09305 0.6975,-0.294525 0.2015,-0.201475 0.496,-0.496 1.085,-1.08505 0.2015,-0.201475 0.403,-0.31 0.6045,-0.31 0.3875,0 0.682,0.31 0.682,0.31 0,0 6.355,5.347575 7.347,6.246525 1.08505,0.790525 2.18548,1.08505 3.17748,1.08505 2.07704,0 3.968,-1.193575 4.75852,-2.07705 l 4.75852,-4.758525 c 0.29453,-0.31 0.40296,-0.604425 0.40296,-0.806 0,-0.496 -0.40296,-0.790425 -0.40296,-0.790425" class="TrillSegment" style="stroke-width:.992"/>
  <path d="m 748.59252,17.94905 c 0,0 -0.58904,-0.697575 -1.37947,-1.379575 -0.31,-0.31 -0.69757,-0.40295 -0.992,-0.40295 -0.31,0 -0.496,0.09295 -0.69757,0.294525 -0.20148,0.201475 -0.496,0.496 -1.10043,1.100425 -0.186,0.186 -0.38757,0.294525 -0.58905,0.294525 -0.40295,0 -0.58895,-0.294525 -0.58895,-0.294525 0,0 -6.35505,-5.471475 -7.34705,-6.35495 C 734.813,10.416 733.7125,10.106 732.7205,10.106 c -2.077,0 -3.968,1.193475 -4.7585,2.092525 l -4.7585,4.758525 c -0.2945,0.294425 -0.403,0.496 -0.403,0.790425 0,0.496 0.403,0.89905 0.403,0.89905 0,0 0.589,0.697475 1.3795,1.39495 0.31,0.294525 0.6045,0.387575 0.899,0.387575 0.2945,0 0.496,-0.09305 0.6975,-0.294525 0.2015,-0.201475 0.496,-0.496 1.085,-1.08505 0.2015,-0.201475 0.403,-0.31 0.6045,-0.31 0.3875,0 0.682,0.31 0.682,0.31 0,0 6.355,5.347575 7.347,6.246525 1.08505,0.790525 2.18548,1.08505 3.17748,1.08505 2.07704,0 3.968,-1.193575 4.75852,-2.07705 l 4.75852,-4.758525 c 0.29453,-0.31 0.40296,-0.604425 0.40296,-0.806 0,-0.496 -0.40296,-0.790425 -0.40296,-0.790425" class="TrillSegment" style="stroke-width:.992"/>
  <path d="m 770.41252,17.94905 c 0,0 -0.58904,-0.697575 -1.37947,-1.379575 -0.31,-0.31 -0.69757,-0.40295 -0.992,-0.40295 -0.31,0 -0.496,0.09295 -0.69757,0.294525 -0.20148,0.201475 -0.496,0.496 -1.10043,1.100425 -0.186,0.186 -0.38757,0.294525 -0.58905,0.294525 -0.40295,0 -0.58895,-0.294525 -0.58895,-0.294525 0,0 -6.35505,-5.471475 -7.34705,-6.35495 C 756.633,10.416 755.5325,10.106 754.5405,10.106 c -2.077,0 -3.968,1.193475 -4.7585,2.092525 l -4.7585,4.758525 c -0.2945,0.294425 -0.403,0.496 -0.403,0.790425 0,0.496 0.403,0.89905 0.403,0.89905 0,0 0.589,0.697475 1.3795,1.39495 0.31,0.294525 0.6045,0.387575 0.899,0.387575 0.2945,0 0.496,-0.09305 0.6975,-0.294525 0.2015,-0.201475 0.496,-0.496 1.085,-1.08505 0.2015,-0.201475 0.403,-0.31 0.6045,-0.31 0.3875,0 0.682,0.31 0.682,0.31 0,0 6.355,5.347575 7.347,6.246525 1.08505,0.790525 2.18548,1.08505 3.17748,1.08505 2.07704,0 3.968,-1.193575 4.75852,-2.07705 l 4.75852,-4.758525 c 0.29453,-0.31 0.40296,-0.604425 0.40296,-0.806 0,-0.496 -0.40296,-0.790425 -0.40296,-0.790425" class="TrillSegment" style="stroke-width:.992"/>
  <path d="m 792.23252,17.94905 c 0,0 -0.58904,-0.697575 -1.37947,-1.379575 -0.31,-0.31 -0.69757,-0.40295 -0.992,-0.40295 -0.31,0 -0.496,0.09295 -0.69757,0.294525 -0.20148,0.201475 -0.496,0.496 -1.10043,1.100425 -0.186,0.186 -0.38757,0.294525 -0.58905,0.294525 -0.40295,0 -0.58895,-0.294525 -0.58895,-0.294525 0,0 -6.35505,-5.471475 -7.34705,-6.35495 C 778.453,10.416 777.3525,10.106 776.3605,10.106 c -2.077,0 -3.968,1.193475 -4.7585,2.092525 l -4.7585,4.758525 c -0.2945,0.294425 -0.403,0.496 -0.403,0.790425 0,0.496 0.403,0.89905 0.403,0.89905 0,0 0.589,0.697475 1.3795,1.39495 0.31,0.294525 0.6045,0.387575 0.899,0.387575 0.2945,0 0.496,-0.09305 0.6975,-0.294525 0.2015,-0.201475 0.496,-0.496 1.085,-1.08505 0.2015,-0.201475 0.403,-0.31 0.6045,-0.31 0.3875,0 0.682,0.31 0.682,0.31 0,0 6.355,5.347575 7.347,6.246525 1.08505,0.790525 2.18548,1.08505 3.17748,1.08505 2.07704,0 3.968,-1.193575 4.75852,-2.07705 l 4.75852,-4.758525 c 0.29453,-0.31 0.40296,-0.604425 0.40296,-0.806 0,-0.496 -0.40296,-0.790425 -0.40296,-0.790425" class="TrillSegment" style="stroke-width:.992"/>
  <path d="m 814.06252,17.94905 c 0,0 -0.58904,-0.697575 -1.37947,-1.379575 -0.31,-0.31 -0.69757,-0.40295 -0.992,-0.40295 -0.31,0 -0.496,0.09295 -0.69757,0.294525 -0.20148,0.201475 -0.496,0.496 -1.10043,1.100425 -0.186,0.186 -0.38757,0.294525 -0.58905,0.294525 -0.40295,0 -0.58895,-0.294525 -0.58895,-0.294525 0,0 -6.35505,-5.471475 -7.34705,-6.35495 C 800.283,10.416 799.1825,10.106 798.1905,10.106 c -2.077,0 -3.968,1.193475 -4.7585,2.092525 l -4.7585,4.758525 c -0.2945,0.294425 -0.403,0.496 -0.403,0.790425 0,0.496 0.403,0.89905 0.403,0.89905 0,0 0.589,0.697475 1.3795,1.39495 0.31,0.294525 0.6045,0.387575 0.899,0.387575 0.2945,0 0.496,-0.09305 0.6975,-0.294525 0.2015,-0.201475 0.496,-0.496 1.085,-1.08505 0.2015,-0.201475 0.403,-0.31 0.6045,-0.31 0.3875,0 0.682,0.31 0.682,0.31 0,0 6.355,5.347575 7.347,6.246525 1.08505,0.790525 2.18548,1.08505 3.17748,1.08505 2.07704,0 3.968,-1.193575 4.75852,-2.07705 l 4.75852,-4.758525 c 0.29453,-0.31 0.40296,-0.604425 0.40296,-0.806 0,-0.496 -0.40296,-0.790425 -0.40296,-0.790425" class="TrillSegment" style="stroke-width:.992"/>
  <path d="m 835.88252,17.94905 c 0,0 -0.58904,-0.697575 -1.37947,-1.379575 -0.31,-0.31 -0.69757,-0.40295 -0.992,-0.40295 -0.31,0 -0.496,0.09295 -0.69757,0.294525 -0.20148,0.201475 -0.496,0.496 -1.10043,1.100425 -0.186,0.186 -0.38757,0.294525 -0.58905,0.294525 -0.40295,0 -0.58895,-0.294525 -0.58895,-0.294525 0,0 -6.35505,-5.471475 -7.34705,-6.35495 C 822.103,10.416 821.0025,10.106 820.0105,10.106 c -2.077,0 -3.968,1.193475 -4.7585,2.092525 l -4.7585,4.758525 c -0.2945,0.294425 -0.403,0.496 -0.403,0.790425 0,0.496 0.403,0.89905 0.403,0.89905 0,0 0.589,0.697475 1.3795,1.39495 0.31,0.294525 0.6045,0.387575 0.899,0.387575 0.2945,0 0.496,-0.09305 0.6975,-0.294525 0.2015,-0.201475 0.496,-0.496 1.085,-1.08505 0.2015,-0.201475 0.403,-0.31 0.6045,-0.31 0.3875,0 0.682,0.31 0.682,0.31 0,0 6.355,5.347575 7.347,6.246525 1.08505,0.790525 2.18548,1.08505 3.17748,1.08505 2.07704,0 3.968,-1.193575 4.75852,-2.07705 l 4.75852,-4.758525 c 0.29453,-0.31 0.40296,-0.604425 0.40296,-0.806 0,-0.496 -0.40296,-0.790425 -0.40296,-0.790425" class="TrillSegment" style="stroke-width:.992"/>
  <path d="m 857.71252,17.94905 c 0,0 -0.58904,-0.697575 -1.37947,-1.379575 -0.31,-0.31 -0.69757,-0.40295 -0.992,-0.40295 -0.31,0 -0.496,0.09295 -0.69757,0.294525 -0.20148,0.201475 -0.496,0.496 -1.10043,1.100425 -0.186,0.186 -0.38757,0.294525 -0.58905,0.294525 -0.40295,0 -0.58895,-0.294525 -0.58895,-0.294525 0,0 -6.35505,-5.471475 -7.34705,-6.35495 C 843.933,10.416 842.8325,10.106 841.8405,10.106 c -2.077,0 -3.968,1.193475 -4.7585,2.092525 l -4.7585,4.758525 c -0.2945,0.294425 -0.403,0.496 -0.403,0.790425 0,0.496 0.403,0.89905 0.403,0.89905 0,0 0.589,0.697475 1.3795,1.39495 0.31,0.294525 0.6045,0.387575 0.899,0.387575 0.2945,0 0.496,-0.09305 0.6975,-0.294525 0.2015,-0.201475 0.496,-0.496 1.085,-1.08505 0.2015,-0.201475 0.403,-0.31 0.6045,-0.31 0.3875,0 0.682,0.31 0.682,0.31 0,0 6.355,5.347575 7.347,6.246525 1.08505,0.790525 2.18548,1.08505 3.17748,1.08505 2.07704,0 3.968,-1.193575 4.75852,-2.07705 l 4.75852,-4.758525 c 0.29453,-0.31 0.40296,-0.604425 0.40296,-0.806 0,-0.496 -0.40296,-0.790425 -0.40296,-0.790425" class="TrillSegment" style="stroke-width:.992"/>
  <path d="m 879.51252,17.94905 c 0,0 -0.58904,-0.697575 -1.37947,-1.379575 -0.31,-0.31 -0.69757,-0.40295 -0.992,-0.40295 -0.31,0 -0.496,0.09295 -0.69757,0.294525 -0.20148,0.201475 -0.496,0.496 -1.10043,1.100425 -0.186,0.186 -0.38757,0.294525 -0.58905,0.294525 -0.40295,0 -0.58895,-0.294525 -0.58895,-0.294525 0,0 -6.35505,-5.471475 -7.34705,-6.35495 C 865.733,10.416 864.6325,10.106 863.6405,10.106 c -2.077,0 -3.968,1.193475 -4.7585,2.092525 l -4.7585,4.758525 c -0.2945,0.294425 -0.403,0.496 -0.403,0.790425 0,0.496 0.403,0.89905 0.403,0.89905 0,0 0.589,0.697475 1.3795,1.39495 0.31,0.294525 0.6045,0.387575 0.899,0.387575 0.2945,0 0.496,-0.09305 0.6975,-0.294525 0.2015,-0.201475 0.496,-0.496 1.085,-1.08505 0.2015,-0.201475 0.403,-0.31 0.6045,-0.31 0.3875,0 0.682,0.31 0.682,0.31 0,0 6.355,5.347575 7.347,6.246525 1.08505,0.790525 2.18548,1.08505 3.17748,1.08505 2.07704,0 3.968,-1.193575 4.75852,-2.07705 l 4.75852,-4.758525 c 0.29453,-0.31 0.40296,-0.604425 0.40296,-0.806 0,-0.496 -0.40296,-0.790425 -0.40296,-0.790425" class="TrillSegment" style="stroke-width:.992"/>
  <path fill="none" stroke="#000" stroke-linejoin="bevel" stroke-width="2.48" d="M1094.24 623.86 1109.12 623.86M796.272 623.86 811.152 623.86M896.677 623.86 911.557 623.86M995.832 623.86 1010.71 623.86M649.62 623.86 664.5 623.86" class="LyricsLineSegment" transform="translate(-336.598 -334.443)"/>
</svg>
