<?xml version="1.0" encoding="UTF-8" standalone="no"?>
<svg xmlns="http://www.w3.org/2000/svg" version="1.2" viewBox="0 0 405.632 235.109">
  <title>A music staff representing a call from a crow</title>
  <path fill="none" stroke="#000" stroke-linejoin="bevel" stroke-width="2.73" d="M336.598 386.198 742.23 386.198M336.598 410.998 742.23 410.998M336.598 435.798 742.23 435.798M336.598 460.598 742.23 460.598M336.598 485.398 742.23 485.398" class="StaffLines" transform="translate(-336.598 -350.285)"/>
  <path fill-rule="evenodd" stroke="#000" stroke-linecap="round" stroke-linejoin="round" stroke-width="1.24" d="m 160.185,169.83338 c 27.685,17.818 77.887,11.618 100.405,-12.4 -21.545,31.894 -71.747,38.094 -100.405,12.4" class="SlurSegment"/>
  <path fill="none" stroke="#000" stroke-linejoin="bevel" stroke-width="4.46" d="M717.182 384.834 717.182 486.762" class="BarLine" transform="translate(-336.598 -350.285)"/>
  <path fill="none" stroke="#000" stroke-linejoin="bevel" stroke-width="13.64" d="M735.41 384.834 735.41 486.762" class="BarLine" transform="translate(-336.598 -350.285)"/>
  <path d="m 237.19352,124.69738 c 0.60453,-0.093 1.10053,-0.79053 1.10053,-1.39505 v -5.84348 c 0,-0.79052 -0.60453,-1.39495 -1.39505,-1.39495 -0.093,0 -0.093,0 -0.20148,0 l -3.27052,0.69748 v -14.78705 h -2.77452 v 15.376 l -8.83498,1.798 V 105.1519 h -2.7745 v 14.58548 l -3.875,0.79052 c -0.589,0.10843 -1.085,0.79043 -1.085,1.39495 v 0.20148 5.75054 -0.20149 c 0,0.79049 0.589,1.395 1.395,1.395 0.093,0 0.186,0 0.2945,0 l 3.2705,-0.69751 v 16.36801 l -3.875,0.7905 c -0.589,0.0931 -1.085,0.79052 -1.085,1.39505 v 5.75042 c 0,0.79053 0.589,1.37958 1.395,1.37958 0.093,0 0.186,0 0.2945,0 l 3.2705,-0.682 v 14.77147 h 2.7745 v -15.376 l 8.83498,-1.78252 v 13.99652 h 2.77452 v -14.58547 l 3.76652,-0.69758 c 0.60453,-0.10842 1.10053,-0.79042 1.10053,-1.39495 v -5.84352 c 0,-0.806 -0.60453,-1.395 -1.39505,-1.395 -0.093,0 -0.093,0 -0.20148,0 l -3.27052,0.6975 v -16.36801 l 3.76652,-0.69749 m -15.37602,3.069 8.83498,-1.78251 v 16.36801 l -8.83498,1.891 v -16.4765" class="Accidental" style="stroke-width:.992"/>
  <path fill="none" stroke="#000" stroke-linejoin="bevel" stroke-width="2.48" d="M511.655 493.83 511.655 410.998M612.061 481.43 612.061 398.598" class="Stem" transform="translate(-336.598 -350.285)"/>
  <path d="M165.2 134.416c-9.625 0-21.127 8.044-21.127 17.267 0 4.263 3.069 9.021 11.113 9.021 10.308 0 21.127-8.432 21.127-17.159 0-5.859-4.96-9.129-11.113-9.129m-2.681 17.468c-.295.186-7.533 4.154-11.005 4.154-3.27 0-3.968-2.666-3.968-3.565 0-4.169 9.92-9.021 10.323-9.223.387-.201 7.44-4.169 11.005-4.169 2.387 0 3.968 1.395 3.968 3.565 0 4.278-10.013 9.037-10.323 9.238M244.478 139.283c0 4.263 3.069 9.021 11.113 9.021 10.308 0 21.127-8.432 21.127-17.159 0-5.859-4.96-9.129-11.113-9.129-9.625 0-21.127 8.137-21.127 17.267" class="Note" style="stroke-width:.992"/>
  <path d="m 338.42152,106.80438 c 0.40296,0.496 1.10053,0.79052 1.68948,0.79052 0.20148,0 0.496,-0.093 0.69748,-0.20147 0.29452,-0.186 0.496,-0.496 0.496,-0.88358 0,-0.29442 -0.093,-0.60442 -0.40296,-0.992 l -19.344,-22.924474 c 1.89096,0.806 3.87496,1.193495 5.65748,1.193495 0.79052,0 1.488,-0.093 2.18548,-0.201495 1.984,-0.294505 3.76652,-0.992 5.16157,-1.984 2.18547,-1.178 3.56495,-3.565 3.56495,-6.13805 0,-0.31 0,-0.697475 -0.093,-0.992 -0.496,-3.580425 -3.58053,-6.060425 -6.944,-6.060425 -0.40305,0 -0.89905,0 -1.302,0.108425 -3.472,0.58905 -5.952,3.658 -5.84357,7.03705 0,0.294525 0,0.496 0,0.790525 0.29452,1.89095 1.19357,3.47197 2.48,4.572475 -1.59643,-0.108505 -3.17748,-0.496 -4.66548,-1.302 -4.867,-2.573 -8.835,-7.93605 -9.2225,-8.43205 -0.2945,-0.294425 -0.6975,-0.58895 -1.1935,-0.58895 0,0 -0.093,0 -0.2015,0 -0.2015,0 -0.496,0 -0.6975,0.09295 -0.3875,0.31 -0.589,0.697575 -0.589,1.100525 0,0.201475 0.093,0.496 0.2945,0.790525 l 18.25898,22.025505 c -1.78243,-0.697505 -3.472,-0.992 -5.16148,-0.992 -0.79052,0 -1.58095,0.093 -2.27852,0.201495 -1.98398,0.294505 -3.87498,0.992 -5.25448,1.875505 -2.1855,1.286495 -3.5805,3.673495 -3.472,6.246549 0,0.31 0,0.69747 0,0.992 0.589,3.472 3.565,6.06042 7.037,6.06042 0.403,0 0.79052,-0.10842 1.19348,-0.10842 3.472,-0.58905 5.84357,-3.56505 5.952,-6.944 0,-0.29453 0,-0.58905 -0.10843,-0.88358 -0.186,-1.890949 -1.08505,-3.471969 -2.48,-4.665474 1.59643,0.093 3.286,0.496 4.774,1.286505 4.85147,2.588549 8.63347,7.641499 9.12947,8.230549 l 0.682,0.89895" class="Symbol" style="stroke-width:.992"/>
  <path d="m 74.353475,112.39038 c 0,7.0525 -2.88295,14.291 -9.92,17.17405 -2.07695,-11.90405 -4.758425,-27.68305 -5.456,-32.054104 8.928,0 15.376,6.060544 15.376,14.880054 M 60.264,130.74243 c -1.984,0.40295 -3.859475,0.60442 -5.750525,0.60442 -14.182425,0 -26.28797,-9.92 -26.28797,-24.90847 0,-12.090054 8.52502,-22.909004 17.26702,-30.457529 1.674,-1.488 3.270525,-2.867475 4.758525,-4.355475 0.883475,5.347475 1.58095,10.01295 2.278425,14.089475 -9.036425,2.681475 -15.174425,12.198525 -15.174425,21.529529 0,6.944 5.456,16.461 13.392,16.461 0.790425,0 1.689475,-0.40295 1.689475,-1.28653 0,-0.89895 -0.992,-1.39495 -2.185475,-2.18547 -3.87505,-2.387 -6.060525,-4.96 -6.060525,-9.827 0,-6.045 4.464,-10.912054 10.32295,-12.291529 L 60.264,130.74243 M 51.537475,28.767901 c 0.89905,-3.968 5.456,-14.384 10.617575,-14.384 1.488,0 3.859475,4.851475 3.859475,11.702425 0,10.32305 -7.626,18.057575 -14.47705,24.8 -0.58895,-3.968 -1.08495,-7.827475 -1.08495,-11.99695 0,-3.673475 0.294525,-7.052525 1.08495,-10.121475 m -20.832,132.431999 c 0,6.55653 5.05305,15.19 18.44505,15.19 4.665475,0 8.742,-1.19347 12.30695,-3.37905 C 66.820525,169.24443 68.2,162.6879 68.2,156.44138 c 0,-3.85948 -0.58895,-8.32348 -1.58095,-13.98095 -0.294525,-1.984 -0.89905,-4.96 -1.488,-8.83505 9.718425,-3.17748 16.95695,-13.29895 16.95695,-23.5135 0,-14.973029 -10.617475,-25.094504 -25.094525,-25.094504 -0.992,-5.952 -1.984,-11.81105 -2.88295,-17.36 10.524525,-11.020525 17.76295,-23.420525 17.76295,-39.184 0,-9.036525 -2.774425,-16.368 -4.37095,-19.948128 C 65.13105,3.472 62.248,0 60.465475,0 59.768,0 56.69905,1.193376 53.428525,5.053248 c -6.35505,7.548128 -8.137475,20.242653 -8.137475,28.566128 0,5.36295 0.496,10.23 2.185475,21.343475 -0.108525,0.09305 -5.27,5.347475 -7.34705,7.03705 C 31.09305,70.431901 18.6,82.428851 18.6,102.28438 c 0,18.53805 16.166525,33.12352 34.62705,33.12352 2.867475,0 5.54895,-0.29452 7.827475,-0.69747 1.89095,9.53242 2.976,16.47642 2.976,21.73095 0,10.32305 -5.254525,15.77905 -15.267475,15.77905 -2.38705,0 -4.464,-0.496 -4.665575,-0.496 -0.09295,-0.10853 -0.294425,-0.20158 -0.294425,-0.29453 0,-0.20147 0.201475,-0.31 0.496,-0.40305 4.665475,-0.69747 9.315475,-4.66547 9.315475,-11.00495 0,-5.36305 -4.06105,-11.02052 -11.50105,-11.02052 -6.944,0 -11.408,5.65747 -11.408,12.19852" class="Clef" style="stroke-width:.992"/>
  <path d="m 139.638,197.90638 h -1.906 l -2,2.953 c -3.641,-2.656 -5.5,-3.359 -8.953,-3.359 -4.75,0 -8.797,2 -12.141,6 -3.203,3.812 -4.703,8.016 -4.703,13.156 0,10.797 7.047,18.453 16.906,18.453 8,0 13.094,-4.703 14.25,-13.093 l -2.359,-0.407 c -1.344,7.453 -5.141,11.157 -11.297,11.157 -7.406,0 -10.906,-5.11 -10.906,-15.907 0,-5.703 0.75,-9.453 2.453,-12.453 1.547,-2.797 4.609,-4.547 7.859,-4.547 3.5,0 6.594,1.844 8.5,5.047 0.954,1.656 1.641,3.5 2.844,7.453 h 2.203 l -0.75,-14.453 m 25.641,20.36 c 0,-3.157 -0.547,-4.75 -2,-5.954 -1.641,-1.359 -4.094,-2 -7.297,-2 -5.641,0 -9.75,2.641 -9.75,6.297 0,1.844 1.156,3.047 2.906,3.047 1.594,0 2.703,-1.047 2.703,-2.547 0,-0.656 -0.25,-1.343 -0.75,-2.047 -0.312,-0.359 -0.359,-0.453 -0.359,-0.703 0,-1 2,-1.906 4.406,-1.906 1.594,0 3.344,0.5 4.141,1.25 0.953,0.813 1.312,2 1.312,4.25 v 1.953 c -5.203,0.906 -6.859,1.297 -9.312,2.25 -4.344,1.61 -6.391,3.906 -6.391,7.11 0,3.593 2.797,5.843 7.25,5.843 3.453,0 6.547,-1.406 8.703,-3.953 0.797,2.547 2.047,3.547 4.391,3.547 2.25,0 4.609,-1.437 4.609,-2.891 0,-0.359 -0.203,-0.609 -0.5,-0.609 -0.203,0 -0.406,0.063 -0.75,0.203 -0.703,0.297 -1,0.36 -1.406,0.36 -1.406,0 -1.906,-0.907 -1.906,-3.454 v -10.046 m -4.688,6.093 c 0,3 -0.156,3.703 -1,5 -1.25,1.844 -3.5,3.094 -5.703,3.094 -2.297,0 -3.953,-1.641 -3.953,-3.891 0,-2.109 1.047,-3.609 3.25,-4.656 1.547,-0.703 3.5,-1.203 7.406,-1.844 v 2.297 m 35.454,3.547 -4.907,-12.844 c -0.156,-0.359 -0.203,-0.656 -0.203,-1.046 0,-0.907 0.453,-1.157 2.094,-1.157 h 1.203 v -1.797 h -11.203 v 1.797 h 0.859 c 1.594,0.047 2.25,0.453 2.641,1.844 l 0.406,1.313 -4.406,11.64 -4.844,-12.547 c -0.094,-0.343 -0.203,-0.797 -0.203,-1.093 0,-0.86 0.547,-1.157 2.047,-1.157 h 0.906 v -1.797 h -11 v 1.797 h 0.906 c 1.391,0.047 2.047,0.657 2.594,2.453 l 7.5,19.797 h 1.75 l 5.953,-15.797 6.094,15.797 h 1.563 l 7,-18.453 c 1.093,-2.953 1.843,-3.75 3.687,-3.797 h 0.359 v -1.797 h -9.453 v 1.797 h 0.844 c 1.75,0 2.453,0.5 2.453,1.844 0,0.5 -0.14,1.156 -0.39,1.813 l -4.25,11.39" class="Lyrics"/>
</svg>
