<?xml version="1.0" encoding="utf-8"?>
<svg xmlns="http://www.w3.org/2000/svg" version="1.2" viewBox="0 0 1214 256">
	<title>Three bars of musical notation depicting the call of Silverspot the Crow, which reads “Caw Caw ca ca ca ca.” This call would translate in English to “wheel around.”</title>
	<path d="m 0,44.173828 v 2.730469 h 45.376953 c -0.0443,-0.928983 -0.06993,-1.828228 -0.08008,-2.730469 z m 50.613281,0 c -0.0708,0.889995 -0.116932,1.800238 -0.140625,2.730469 h 12.449219 c 0.49422,-0.888293 0.942525,-1.797844 1.333984,-2.730469 z m 20.890625,0 c -0.113937,0.921858 -0.253619,1.831858 -0.417969,2.730469 h 34.548833 v -2.730469 z m 36.904294,0 v 2.730469 h 8.83594 v -2.730469 z m 11.60938,0 v 2.730469 h 35 v -1.955078 c 0,-0.259666 0.0911,-0.536618 0.24219,-0.775391 z m 59.21094,0 v 2.154297 c 0,0.191097 -0.0499,0.390023 -0.13672,0.576172 h 8.04101 v -2.730469 z m 10.67773,0 v 2.730469 h 8.83398 v -2.730469 z m 11.60937,0 v 2.730469 h 359.47461 v -2.728516 h 4.46094 v 2.728516 h 265.28125 v -2.728516 h 4.45899 v 2.728516 h 60.75 v -2.730469 z m 696.90625,0 v 2.730469 h 77.83985 v -2.730469 z m 80.32032,0 v 2.730469 h 77.84961 v -2.730469 z m 80.33011,0 v 2.730469 h 77.8398 v -2.730469 z m 80.3203,0 v 2.730469 h 48.0996 v -2.728516 h 4.4609 v 2.728516 h 9.1797 v -2.728516 h 13.6387 v -0.002 z M 0,68.974609 v 2.730469 h 40.042969 c 0.02864,-0.02673 0.05737,-0.05342 0.08594,-0.08008 0.713705,-0.580563 1.792276,-1.582038 2.904297,-2.650391 z m 61.146484,0 c -0.678169,0.921171 -1.383337,1.831013 -2.111328,2.730469 h 46.599614 v -2.730469 z m 47.263676,0 v 2.730469 h 8.83398 v -2.730469 z m 11.60742,0 v 2.730469 h 7.82617 V 69.75 69.548828 c 0,-0.190585 0.0488,-0.388765 0.13477,-0.574219 z m 32.03906,0 v 1.953125 c 0,0.260374 -0.0926,0.538129 -0.24609,0.777344 h 35.32226 v -2.730469 z m 37.85156,0 v 2.730469 h 8.83399 v -2.730469 z m 11.60938,0 v 2.730469 h 39.78906 c 1.8515,-1.16674 4.03354,-2.11082 6.60547,-2.730469 z m 61.70898,0 c 2.78316,0.634291 5.01092,1.596064 6.79492,2.730469 h 86.4336 v -1.365234 h 2.47851 v 1.365234 h 202.05664 v -2.730469 z m 302.22461,0 v 2.730469 h 60.7461 v -1.365234 h 2.48046 v 1.365234 h 202.05469 v -2.730469 z m 269.74024,0 v 2.730469 h 60.75 v -2.730469 z m 63.23046,0 v 2.730469 h 77.83985 v -2.730469 z m 80.32032,0 v 2.730469 h 77.84961 v -2.730469 z m 80.33011,0 v 2.730469 h 77.8398 v -2.730469 z m 80.3203,0 v 2.730469 h 48.0996 v -2.730469 z m 52.5605,0 v 2.730469 h 9.1797 V 68.974609 Z M 0,93.775391 v 2.728515 h 21.367187 c 0.35194,-0.932668 0.730381,-1.841871 1.134766,-2.728515 z m 37.453125,0 c -0.729138,0.886801 -1.43201,1.79686 -2.103516,2.728515 h 14.22461 c 0.944448,-0.468914 1.931537,-0.860336 2.955078,-1.164062 -0.08763,-0.51215 -0.175706,-1.033571 -0.263672,-1.564453 z m 19.396484,0 c 0.0482,0.288825 0.09632,0.577895 0.144532,0.867187 3.6656,0 7.083584,0.648971 10.144531,1.861328 H 127.8457 v -1.955078 c 0,-0.258958 0.0918,-0.535108 0.24219,-0.773437 z m 95.207031,0 v 2.154296 c 0,0.190586 -0.0483,0.388766 -0.13477,0.574219 h 35.2129 v -2.728515 z m 37.85156,0 v 2.728515 h 8.83594 v -2.728515 z m 11.60742,0 v 2.728515 h 29.75 c -0.0438,-0.917828 -0.0667,-1.829824 -0.0762,-2.728515 z m 43.15235,0 v 2.728515 h 111.78711 v -2.728515 z m 114.26562,0 v 2.728515 h 97.92578 v -2.728515 z m 100.40625,0 v 2.728515 h 50.74024 l -2.26172,-2.728515 z m 51.65235,0 2.30273,2.728515 h 47.69531 v -2.728515 z m 54.45898,0 v 2.728515 h 60.7461 v -2.728515 z m 63.22656,0 v 2.728515 h 97.92383 v -2.728515 z m 100.4043,0 v 2.728515 h 52.24805 l -2.26172,-2.728515 z m 53.16992,0 2.30274,2.728515 h 46.17773 v -2.728515 z m 52.93946,0 v 2.728515 h 60.75 v -2.728515 z m 63.23046,0 v 2.728515 h 77.83985 v -2.728515 z m 80.32032,0 v 2.728515 h 77.84961 v -2.728515 z m 80.33011,0 v 2.728515 h 77.8398 v -2.728515 z m 80.3203,0 v 2.728515 h 48.0996 v -2.728515 z m 52.5605,0 v 2.728515 h 9.1797 V 93.775391 Z M 0,118.57422 v 2.73047 h 20.037109 c -0.280767,-0.89419 -0.523553,-1.80488 -0.724609,-2.73047 z m 28.339844,0 c 0.08724,0.93305 0.222867,1.84365 0.404297,2.73047 h 9.257812 c -0.256268,-0.91949 -0.438445,-1.8371 -0.542969,-2.73047 z m 15.939453,0 c -0.05793,0.47697 -0.08789,0.96306 -0.08789,1.45703 0,0.44294 0.01886,0.86689 0.05469,1.27344 h 12.658203 l -0.480469,-2.73047 z m 16.609375,0 c 0.150365,0.88578 0.304047,1.79823 0.46289,2.73047 h 12.988282 c -0.03781,-0.94549 -0.152358,-1.85708 -0.335938,-2.73047 z m 21.177734,0 c 0.01439,0.38464 0.02148,0.7727 0.02148,1.16406 0,0.52269 -0.01937,1.04513 -0.05664,1.56641 h 274.42383 v -2.73047 h -93.8125 c -1.62883,0.38482 -3.36339,0.58008 -5.17188,0.58008 -2.90489,0 -5.49075,-0.20288 -7.79101,-0.58008 z m 276.867184,0 v 2.73047 h 97.92578 v -2.73047 z m 100.40625,0 v 2.73047 h 101.65039 v -2.73047 z m 106.11133,0 v 2.73047 h 60.7461 v -2.73047 z m 63.22656,0 v 2.73047 h 97.92383 v -2.73047 z m 100.4043,0 v 2.73047 h 101.65039 v -2.73047 z m 106.10938,0 v 2.73047 h 31.35742 c 0.23655,-0.9322 0.58579,-1.84515 1.03125,-2.73047 z m 62.92578,0 c -0.22144,0.92647 -0.55558,1.84003 -0.98828,2.73047 h 49.75 c 0.23655,-0.9322 0.58579,-1.84515 1.03125,-2.73047 z m 80.33008,0 c -0.22144,0.92647 -0.55559,1.84003 -0.98829,2.73047 h 49.74222 c 0.2365,-0.9322 0.5858,-1.84515 1.0312,-2.73047 z m 80.32033,0 c -0.2215,0.92647 -0.5556,1.84003 -0.9883,2.73047 h 49.7422 c 0.2365,-0.9322 0.5858,-1.84515 1.0312,-2.73047 z m 80.3203,0 c -0.2214,0.92647 -0.5556,1.84003 -0.9883,2.73047 h 49.3926 v -2.73047 z m 52.8652,0 v 2.73047 h 9.1797 v -2.73047 z M 0,143.375 v 2.73047 h 61.402344 c -0.112576,-0.57974 -0.228629,-1.16951 -0.347657,-1.76953 -2.278524,0.40295 -4.96065,0.69726 -7.828125,0.69726 -3.6842,0 -7.276778,-0.5809 -10.667968,-1.6582 z m 65.150391,0 c 0.147826,0.96735 0.295216,1.87798 0.439453,2.73047 H 338.85742 c 2.91334,-1.30947 6.03335,-2.0625 8.97852,-2.0625 2.86835,0 5.47703,0.71035 7.44531,2.0625 h 1.17383 V 143.375 Z m 293.783199,0 v 2.73047 h 97.92578 V 143.375 Z m 100.40625,0 v 2.73047 h 149.25977 c 2.91334,-1.30947 6.03335,-2.0625 8.97851,-2.0625 2.86836,0 5.47704,0.71035 7.44532,2.0625 h 1.17383 V 143.375 h -60.7461 v 2.72852 h -4.46094 V 143.375 Z m 169.33789,0 v 2.73047 h 97.92383 V 143.375 Z m 100.4043,0 v 2.73047 h 485.68947 v -0.002 h -13.6387 V 143.375 h -9.1797 v 2.72852 h -4.4609 V 143.375 H 835.19141 v 2.72852 h -4.45899 V 143.375 Z" style="baseline-shift:baseline;display:inline;overflow:visible;opacity:1;vector-effect:none;stroke-linejoin:bevel;enable-background:accumulate;stop-color:#000;stop-opacity:1"/>
	<path d="m 347.75781,184.83398 c 21.59147,24.6784 62.43316,29.72185 89.37891,11.03516 -13.2589,6.22176 -29.91917,8.09517 -46.125,6.09375 -16.20411,-2.00121 -31.90744,-7.87008 -43.25391,-17.12891 z m 269.74219,0 c 21.59279,24.67811 62.43585,29.72255 89.38281,11.03516 -13.2609,6.22244 -29.92416,8.09527 -46.13086,6.09375 -16.20387,-2.00117 -31.90564,-7.87042 -43.25195,-17.12891 z" style="baseline-shift:baseline;display:inline;overflow:visible;vector-effect:none;fill-rule:evenodd;stroke-linecap:round;stroke-linejoin:round;enable-background:accumulate;stop-color:#000;stop-opacity:1"/>
	<path d="m 342.8418,178.83984 a 0.62,0.62 0 0 0 -0.31055,0.11719 0.62,0.62 0 0 0 -0.0566,-0.0117 0.62,0.62 0 0 0 -0.0273,0.043 0.62,0.62 0 0 0 -0.0488,0.0176 0.62,0.62 0 0 0 -0.0781,0.17187 0.62,0.62 0 0 0 -0.0976,0.2168 0.62,0.62 0 0 0 0.0469,0.22266 0.62,0.62 0 0 0 0.0391,0.18945 c 21.75562,32.20579 72.2789,38.46444 101.25391,12.57422 0.0247,-0.0221 0.0534,-0.0384 0.0781,-0.0606 a 0.620062,0.620062 0 0 0 -0.75,-0.98242 c -13.67156,8.79899 -33.01659,11.70546 -51.72851,9.39453 -18.71192,-2.31093 -36.7687,-9.83656 -47.88867,-21.69726 a 0.62,0.62 0 0 0 -0.43164,-0.19532 z m 269.67773,0 a 0.62,0.62 0 0 0 -0.30273,0.10547 0.62,0.62 0 0 0 -0.0117,0.0625 0.62,0.62 0 0 0 -0.0645,-0.002 0.62,0.62 0 0 0 -0.0801,0.74609 0.62,0.62 0 0 0 -0.01,0.0547 c 21.77521,32.23329 72.37108,38.48098 101.33594,12.51367 a 0.620062,0.620062 0 0 0 -0.75,-0.98242 c -13.6741,8.79903 -33.02038,11.70546 -51.73242,9.39453 -18.71205,-2.31093 -36.76869,-9.83655 -47.88868,-21.69726 a 0.62,0.62 0 0 0 -0.0566,-0.002 0.62,0.62 0 0 0 -0.27734,-0.18359 0.62,0.62 0 0 0 -0.16211,-0.01 z m -264.76172,5.99414 c 11.34647,9.25883 27.0498,15.1277 43.25391,17.12891 16.20583,2.00142 32.8661,0.12801 46.125,-6.09375 -26.94575,18.68669 -67.78744,13.64324 -89.37891,-11.03516 z m 269.74219,0 c 11.34631,9.25849 27.04808,15.12774 43.25195,17.12891 16.2067,2.00152 32.86996,0.12869 46.13086,-6.09375 -26.94696,18.68739 -67.79002,13.64295 -89.38281,-11.03516 z" style="baseline-shift:baseline;display:inline;overflow:visible;vector-effect:none;fill-rule:evenodd;stroke-linecap:round;stroke-linejoin:round;enable-background:accumulate;stop-color:#000;stop-opacity:1"/>
	<path d="M1187.492 44.176V146.104h4.461V44.176ZM1201.133 44.176V146.104h13.639V44.176ZM560.99 44.176V146.104h4.461V44.176Zm269.742 0V146.104h4.459V44.176ZM418.932 167.555v3.971h8.4c.271-1.369.787-2.701 1.5-3.971zm40.24 0c-.248 1.357-.741 2.691-1.437 3.971h9.789v-3.971zm229.5 0v3.971h8.406c.271-1.369.787-2.701 1.5-3.971zm40.246 0c-.248 1.357-.741 2.691-1.437 3.971h9.781v-3.971zM895.941 33.141v76.725c1.465 1.422 2.377 3.323 2.48 5.658V33.141Zm80.32 0v76.715c1.433 1.386 2.339 3.229 2.48 5.486V33.141Zm80.33 0v76.725c1.466 1.422 2.378 3.323 2.481 5.658V33.141Zm80.32 0v76.725c1.466 1.422 2.378 3.323 2.481 5.658V33.141ZM356.455 70.34V147.063c1.443 1.398 2.351 3.261 2.479 5.545V70.34Zm269.742 0V147.063c1.451 1.406 2.36 3.282 2.48 5.582V70.34Zm-169.338 12.4v76.719c1.444 1.399 2.352 3.262 2.48 5.547V82.74Zm269.742 0v76.715c1.433 1.386 2.339 3.229 2.48 5.486V82.74Z" style="baseline-shift:baseline;display:inline;overflow:visible;opacity:1;vector-effect:none;stroke-linejoin:bevel;enable-background:accumulate;stop-color:#000;stop-opacity:1"/>
	<path d="M887.318 106.842c-9.625 0-21.127 8.138-21.127 17.268 0 4.263 3.069 9.021 11.113 9.021 10.308 0 21.127-8.433 21.127-17.16 0-5.859-4.96-9.129-11.113-9.129zm80.33 0c-9.625 0-21.127 8.138-21.127 17.268 0 4.263 3.069 9.021 11.113 9.021 10.308 0 21.127-8.433 21.127-17.16 0-5.859-4.96-9.129-11.113-9.129zm80.322 0c-9.625 0-21.127 8.138-21.127 17.268h0c0 4.263 3.068 9.021 11.113 9.021 10.308 0 21.127-8.433 21.127-17.16 0-5.859-4.958-9.129-11.111-9.129zm80.318 0c-9.625 0-21.125 8.138-21.125 17.268h0c0 4.263 3.068 9.021 11.113 9.021 10.308 0 21.127-8.433 21.127-17.16 0-5.859-4.96-9.129-11.113-9.129zm-780.453 37.201c-9.625 0-21.127 8.043-21.127 17.266 0 4.263 3.069 9.021 11.113 9.021 10.308 0 21.127-8.431 21.127-17.158 0-5.859-4.96-9.129-11.113-9.129zm269.742 0c-9.625 0-21.127 8.043-21.127 17.266 0 4.263 3.069 9.021 11.113 9.021 10.308 0 21.127-8.431 21.127-17.158 0-5.859-4.96-9.129-11.113-9.129zm-266.068 4.664c2.387 0 3.969 1.394 3.969 3.564 0 4.278-10.014 9.037-10.324 9.238-.295.186-7.532 4.154-11.004 4.154-3.27 0-3.969-2.665-3.969-3.564 0-4.169 9.921-9.021 10.324-9.223.387-.201 7.439-4.17 11.004-4.17zm269.744 0c2.387 0 3.967 1.394 3.967 3.564 0 4.278-10.012 9.037-10.322 9.238-.295.186-7.534 4.154-11.006 4.154-3.27 0-3.967-2.665-3.967-3.564 0-4.169 9.919-9.021 10.322-9.223.387-.201 7.441-4.17 11.006-4.17zm-173.012 7.734c-9.625 0-21.127 8.138-21.127 17.268 0 4.263 3.069 9.021 11.113 9.021 10.308 0 21.127-8.433 21.127-17.16 0-5.859-4.96-9.129-11.113-9.129zm269.746 0c-9.625 0-21.127 8.138-21.127 17.268 0 4.263 3.069 9.021 11.113 9.021 10.308 0 21.127-8.433 21.127-17.16 0-5.859-4.96-9.129-11.113-9.129zM787.506 74.525c-.403 0-.9-.001-1.303.107-3.472.589-5.952 3.658-5.844 7.037v.791c.295 1.891 1.194 3.472 2.48 4.572-1.596-.109-3.176-.497-4.664-1.303-4.867-2.573-8.836-7.936-9.223-8.432-.294-.294-.697-.588-1.193-.588h-.201c-.201 0-.496-.001-.697.092-.387.31-.588.699-.588 1.102 0 .201.093.496.295.791l18.258 22.025c-1.782-.697-3.471-.992-5.16-.992-.791 0-1.581.093-2.279.201-1.984.295-3.875.993-5.254 1.877-2.185 1.287-3.581 3.673-3.473 6.246v.992c.589 3.472 3.565 6.061 7.037 6.061.403 0 .791-.109 1.193-.109 3.472-.589 5.845-3.564 5.953-6.943 0-.295-.001-.588-.109-.883-.186-1.891-1.084-3.473-2.479-4.666 1.596.093 3.285.496 4.773 1.287 4.851 2.589 8.633 7.641 9.129 8.23l.682.9v-.004c.403.496 1.1.789 1.688.789.201 0 .496-.091.697-.199.295-.186.496-.497.496-.885 0-.294-.092-.604-.402-.992L777.975 88.707c1.891.806 3.874 1.193 5.656 1.193.791 0 1.489-.093 2.186-.201 1.984-.295 3.767-.992 5.162-1.984 2.185-1.178 3.564-3.566 3.564-6.139 0-.31-.001-.695-.094-.99-.496-3.58-3.58-6.061-6.943-6.061zM516.676 75.031c-.403 0-.9-.001-1.303.107-3.472.589-5.952 3.658-5.844 7.037v.791c.295 1.891 1.194 3.472 2.48 4.572-1.596-.109-3.178-.497-4.666-1.303-4.867-2.573-8.836-7.936-9.223-8.432-.294-.294-.695-.588-1.191-.588h-.201c-.201 0-.496-.001-.697.092-.387.31-.59.699-.59 1.102 0 .201.093.496.295.791l18.26 22.025c-1.782-.697-3.471-.992-5.16-.992-.791 0-1.581.094-2.279.203-1.984.295-3.875.991-5.254 1.875-2.185 1.287-3.581 3.675-3.473 6.248v.992c.589 3.472 3.565 6.059 7.037 6.059.403 0 .791-.107 1.193-.107 3.472-.589 5.843-3.564 5.951-6.943 0-.295.001-.59-.107-.885-.186-1.891-1.085-3.471-2.48-4.664 1.596.093 3.285.496 4.773 1.287 4.851 2.589 8.633 7.641 9.129 8.23l.684.898c.403.494 1.101.787 1.688.787.201 0 .496-.093.697-.201.295-.186.496-.497.496-.885 0-.294-.094-.604-.404-.992L507.143 89.213c1.891.806 3.876 1.193 5.658 1.193.791 0 1.487-.093 2.184-.201 1.984-.295 3.767-.992 5.162-1.984 2.185-1.178 3.566-3.566 3.566-6.139 0-.31-.001-.695-.094-.99-.496-3.58-3.58-6.061-6.943-6.061zM60.465 9.625c-.697 0-3.767 1.195-7.037 5.055-6.355 7.548-8.137 20.241-8.137 28.564 0 5.363.496 10.23 2.186 21.344-.109.093-5.271 5.348-7.348 7.037-9.036 8.432-21.529 20.43-21.529 40.285 0 18.538 16.166 33.123 34.627 33.123 2.867 0 5.55-.294 7.828-.697 1.891 9.532 2.977 16.476 2.977 21.73 0 10.323-5.255 15.779-15.268 15.779-2.387 0-4.464-.496-4.666-.496-.093-.109-.295-.202-.295-.295 0-.201.202-.309.496-.402 4.665-.697 9.316-4.664 9.316-11.004 0-5.363-4.062-11.021-11.502-11.021-6.944 0-11.408 5.658-11.408 12.199 0 6.557 5.053 15.189 18.445 15.189 4.665 0 8.742-1.193 12.307-3.379 5.363-3.766 6.742-10.324 6.742-16.57 0-3.859-.588-8.323-1.58-13.98-.295-1.984-.899-4.959-1.488-8.834 9.718-3.177 16.957-13.299 16.957-23.514 0-14.973-10.617-25.096-25.094-25.096-.992-5.952-1.984-11.81-2.883-17.359 10.525-11.021 17.762-23.42 17.762-39.184 0-9.037-2.775-16.369-4.371-19.949C65.13 13.097 62.247 9.625 60.465 9.625Zm1.689 14.385c1.488 0 3.859 4.852 3.859 11.703 0 10.323-7.626 18.056-14.477 24.799-.589-3.968-1.084-7.827-1.084-11.996 0-3.673.294-7.052 1.084-10.121.899-3.968 5.456-14.385 10.617-14.385zM50.252 81.252c.883 5.347 1.58 10.011 2.277 14.088-9.036 2.681-15.174 12.198-15.174 21.529 0 6.944 5.455 16.461 13.391 16.461.79 0 1.691-.402 1.691-1.285 0-.899-.992-1.395-2.186-2.186-3.875-2.387-6.061-4.961-6.061-9.828 0-6.045 4.463-10.912 10.322-12.291l5.75 32.627c-1.984.403-3.859.605-5.75.605-14.182 0-26.289-9.92-26.289-24.908 0-12.09 8.526-22.909 17.268-30.457 1.674-1.488 3.272-2.867 4.76-4.355zm8.725 25.885c8.928 0 15.377 6.059 15.377 14.879 0 7.052-2.883 14.291-9.92 17.174-2.077-11.904-4.759-27.682-5.457-32.053zM171.586 0V15.377L162.75 17.174V3.178h-2.773V17.764l-3.875.791c-.589.108-1.086.79-1.086 1.395v.201 5.549c0 .79.589 1.395 1.395 1.395h.295l3.271-.697v16.367l-3.875.791c-.589.093-1.084.791-1.084 1.395v5.75c0 .791.589 1.379 1.395 1.379h.295l3.271-.682v14.771h2.775v-15.375l8.834-1.783v13.998h2.771V48.422l3.768-.697c.605-.108 1.102-.791 1.102-1.396v-5.842c0-.806-.606-1.395-1.396-1.395h-.199l-3.273.697V23.422l3.768-.697v-.002c.605-.093 1.102-.791 1.102-1.395v-5.844c0-.791-.606-1.395-1.396-1.395h-.199l-3.273.697V0Zm-54.344 12.4v15.375l-8.836 1.799V15.578h-2.773v14.584l-3.875.791c-.589.108-1.084.791-1.084 1.396v.201 5.549c0 .79.589 1.395 1.395 1.395h.295l3.271-.697v16.367l-3.875.789c-.589.093-1.086.792-1.086 1.396v5.75c0 .791.589 1.379 1.395 1.379h.295l3.271-.682v14.771h2.775V63.191l8.834-1.783v14h2.773V60.822l3.766-.699c.605-.108 1.102-.79 1.102-1.395v-5.842c0-.806-.605-1.396-1.395-1.396h-.201l-3.271.699V35.82l3.766-.697c.605-.093 1.102-.791 1.102-1.395v-5.844c0-.791-.605-1.395-1.395-1.395h-.201L120.018 27.188V12.4Zm54.344 11.609v16.369l-8.834 1.891V25.793Zm-54.342 12.4v16.367l-8.836 1.893V38.193Zm81.496.789v15.377l-8.834 1.797V40.379h-2.773v14.584l-3.875.791c-.589.108-1.086.79-1.086 1.395v.201 5.549c0 .79.589 1.396 1.395 1.396h.295l3.271-.699v16.369l-3.875.789c-.589.093-1.084.791-1.084 1.395v5.75c0 .791.589 1.381 1.395 1.381h.295l3.271-.682v14.77h2.773V87.994l8.836-1.783v13.996h2.771V85.621l3.768-.697c.605-.108 1.102-.79 1.102-1.395v-5.844c0-.806-.606-1.395-1.396-1.395h-.201l-3.27.697V60.621l3.766-.697c.605-.093 1.102-.792 1.102-1.396v-5.842c0-.791-.606-1.396-1.396-1.396h-.201l-3.271.697V37.199Zm-54.328 12.4v15.377l-8.834 1.797V52.777h-2.773v14.586l-3.875.791c-.589.108-1.086.79-1.086 1.395V69.75 75.299c0 .79.589 1.395 1.395 1.395h.295l3.271-.697v16.367l-3.875.791c-.589.093-1.084.791-1.084 1.395v5.75c0 .791.589 1.381 1.395 1.381h.295l3.271-.684v14.771h2.773v-15.375l8.836-1.783v13.996h2.771V98.021l3.768-.697c.605-.108 1.102-.79 1.102-1.395v-5.844c0-.806-.606-1.395-1.396-1.395h-.199l-3.271.697V73.021l3.766-.697v-.002c.605-.093 1.102-.791 1.102-1.395v-5.842c0-.791-.606-1.396-1.396-1.396h-.199l-3.273.697v-14.787zm54.33 11.611V77.578L189.908 79.469V62.992Zm-54.328 12.398v16.369l-8.834 1.891V75.393ZM255.285 68.16c-21.623 0-24.102 17.948-24.102 24.396 0 11.811 1.487 26.598 26.287 26.598 9.827 0 17.468-5.765 17.855-16.383 0-.496-.293-.791-.789-.791H273.25c-.403 0-.791.404-.791.791-.403 8.246-6.262 13.205-14.988 13.205-8.633 0-12.803-4.664-12.803-13.391V83.629c0-5.549 2.185-11.904 11.02-11.904 4.666 0 6.743 1.689 7.844 3.379.093.201.094.295.094.496 0 .093 0 .294-.201.387-2.48 1.597-4.264 4.465-4.264 7.643 0 .403.001.79.094 1.193.496 4.061 3.781 7.238 7.842 7.734h1.086c4.96 0 8.928-3.968 8.928-8.928v-.59c0-.403-.092-1.101-.186-1.488-.899-4.263-4.775-13.391-21.639-13.391zM882.279 153.254c-.992 0-1.983.399-2.781 1.197-1.488 1.488-1.488 3.859 0 5.455 1.597 1.487 3.968 1.488 5.564 0 1.488-1.596 1.488-3.967 0-5.455-.798-.798-1.791-1.197-2.783-1.197zm80.33 0c-.992 0-1.983.399-2.781 1.197-1.488 1.488-1.488 3.859 0 5.455 1.597 1.487 3.968 1.488 5.564 0 1.488-1.596 1.488-3.967 0-5.455-.798-.798-1.791-1.197-2.783-1.197zm80.32 0c-.992 0-1.983.399-2.781 1.197-1.488 1.488-1.488 3.859 0 5.455 1.597 1.487 3.968 1.488 5.565 0 1.488-1.596 1.488-3.967 0-5.455-.798-.798-1.791-1.197-2.783-1.197zm80.33 0c-.992 0-1.983.399-2.781 1.197-1.488 1.488-1.488 3.859 0 5.455 1.597 1.487 3.968 1.488 5.565 0 1.488-1.596 1.488-3.967 0-5.455-.798-.798-1.791-1.197-2.783-1.197z" style="stroke-width:.992"/>
	<path d="m 309.41406,218.9043 c -4.75,0 -8.79467,2 -12.13867,6 -3.203,3.813 -4.70312,8.0172 -4.70312,13.1582 0,10.796 7.04725,18.45312 16.90625,18.45312 8,0 13.094,-4.70274 14.25,-13.09375 l -2.35938,-0.40625 c -1.344,7.453 -5.14087,11.15626 -11.29687,11.15625 -7.407,0 -10.90821,-5.10925 -10.90821,-15.90625 0,-5.703 0.75108,-9.45312 2.45508,-12.45312 1.546,-2.797 4.60938,-4.54688 7.85938,-4.54688 3.5,0 6.594,1.84288 8.5,5.04688 0.953,1.656 1.64075,3.50012 2.84375,7.45312 h 2.20312 l -0.75,-14.45312 h -1.90625 l -2,2.95312 c -3.641,-2.657 -5.50108,-3.36132 -8.95508,-3.36132 z m 269.74414,0 c -4.75,0 -8.79662,2 -12.14062,6 -3.203,3.813 -4.70313,8.0172 -4.70313,13.1582 0,10.796 7.04625,18.45312 16.90625,18.45312 8,0 13.093,-4.70274 14.25,-13.09375 l -2.35937,-0.40625 c -1.344,7.453 -5.13988,11.15626 -11.29688,11.15625 -7.406,0 -10.90625,-5.10925 -10.90625,-15.90625 0,-5.703 0.75013,-9.45312 2.45313,-12.45312 1.547,-2.797 4.60937,-4.54688 7.85937,-4.54688 3.5,0 6.593,1.84288 8.5,5.04688 0.953,1.656 1.64075,3.50012 2.84375,7.45312 h 2.20313 l -0.75,-14.45312 h -1.90625 l -2,2.95312 c -3.64,-2.657 -5.50013,-3.36132 -8.95313,-3.36132 z m -240.53906,12.81445 c -5.641,0 -9.75,2.63988 -9.75,6.29687 0,1.843 1.15625,3.04688 2.90625,3.04688 1.594,0 2.70313,-1.04688 2.70313,-2.54688 0,-0.657 -0.25,-1.34387 -0.75,-2.04687 -0.313,-0.36 -0.35938,-0.45312 -0.35938,-0.70313 0,-1 2.00025,-1.9082 4.40625,-1.9082 1.594,0 3.34267,0.5 4.13867,1.25 0.954,0.813 1.31446,2 1.31446,4.25 v 1.95508 c -5.203,0.906 -6.86046,1.296 -9.31446,2.25 -4.343,1.609 -6.38867,3.90638 -6.38867,7.10937 0,3.594 2.797,5.84375 7.25,5.84375 3.453,0 6.54713,-1.40712 8.70313,-3.95312 0.797,2.546 2.04662,3.54492 4.39062,3.54492 2.25,0 4.60938,-1.43567 4.60938,-2.88867 0,-0.36 -0.203,-0.61133 -0.5,-0.61133 -0.203,0 -0.406,0.0641 -0.75,0.20508 -0.703,0.296 -1.00025,0.35938 -1.40625,0.35937 -1.407,0 -1.90821,-0.90612 -1.90821,-3.45312 v -10.04688 c 0,-3.156 -0.546,-4.75012 -2,-5.95312 -1.64,-1.36 -4.09192,-2 -7.29492,-2 z m 269.74219,0 c -5.64,0 -9.75,2.63988 -9.75,6.29687 0,1.843 1.15625,3.04688 2.90625,3.04688 1.594,0 2.70312,-1.04688 2.70312,-2.54688 0,-0.657 -0.25,-1.34387 -0.75,-2.04687 -0.313,-0.36 -0.35937,-0.45312 -0.35937,-0.70313 0,-1 2.00025,-1.9082 4.40625,-1.9082 1.594,0 3.34362,0.5 4.14062,1.25 0.953,0.813 1.3125,2 1.3125,4.25 v 1.95508 c -5.204,0.906 -6.8595,1.296 -9.3125,2.25 -4.344,1.609 -6.39062,3.90638 -6.39062,7.10937 0,3.594 2.797,5.84375 7.25,5.84375 3.454,0 6.54612,-1.40712 8.70312,-3.95312 0.796,2.546 2.04663,3.54492 4.39063,3.54492 2.25,0 4.60937,-1.43567 4.60937,-2.88867 0,-0.36 -0.204,-0.61133 -0.5,-0.61133 -0.204,0 -0.407,0.0641 -0.75,0.20508 -0.704,0.296 -0.99925,0.35938 -1.40625,0.35937 -1.406,0 -1.90625,-0.90612 -1.90625,-3.45312 v -10.04688 c 0,-3.156 -0.547,-4.75012 -2,-5.95312 -1.641,-1.36 -4.09387,-2 -7.29687,-2 z m 261.29101,0 c -6.5,0 -11.14062,5.29687 -11.14062,12.79687 0,7.093 4.25117,12 10.45117,12 4.44,0 6.99867,-2.04674 9.13867,-7.34375 l -1.94922,-0.75 c -1.6,3.594 -3.30062,5.04688 -5.89062,5.04688 -4,0 -6.5,-3.656 -6.5,-9.5 0,-6.11 2.45062,-10.11133 6.14062,-10.11133 1.5,0 2.81055,0.704 2.81055,1.5 0,0.157 -0.0606,0.31433 -0.31055,0.61133 -0.8,0.953 -1,1.45287 -1,2.29687 0,1.656 1.25,2.79688 3,2.79688 1.81,0 3.06055,-1.39062 3.06055,-3.39063 0,-3.406 -3.36055,-5.95312 -7.81055,-5.95312 z m 22.44922,0 c -5.64,0 -9.75,2.63988 -9.75,6.29687 0,1.843 1.16016,3.04688 2.91016,3.04688 1.59,0 2.70117,-1.04688 2.70117,-2.54688 0,-0.657 -0.25,-1.34387 -0.75,-2.04687 -0.31,-0.36 -0.36133,-0.45312 -0.36133,-0.70313 0,-1 2.00016,-1.9082 4.41016,-1.9082 1.59,0 3.34062,0.5 4.14062,1.25 0.95,0.813 1.31055,2 1.31055,4.25 v 1.95508 c -5.2,0.906 -6.86055,1.296 -9.31055,2.25 -4.35,1.609 -6.39062,3.90638 -6.39062,7.10937 0,3.594 2.79,5.84375 7.25,5.84375 3.45,0 6.54117,-1.40712 8.70117,-3.95312 0.8,2.546 2.04867,3.54492 4.38867,3.54492 2.25,0 4.61133,-1.43567 4.61133,-2.88867 0,-0.36 -0.2,-0.61133 -0.5,-0.61133 -0.2,0 -0.41,0.0641 -0.75,0.20508 -0.7,0.296 -1.00016,0.35938 -1.41016,0.35937 -1.4,0 -1.90039,-0.90612 -1.90039,-3.45312 v -10.04688 c 0,-3.156 -0.55,-4.75012 -2,-5.95312 -1.64,-1.36 -4.10078,-2 -7.30078,-2 z m 57.8711,0 c -6.5,0 -11.14063,5.29687 -11.14063,12.79687 0,7.093 4.25094,12 10.46094,12 4.43,0 6.99867,-2.04674 9.13867,-7.34375 l -1.95898,-0.75 c -1.59,3.594 -3.29063,5.04688 -5.89063,5.04688 -4,0 -6.5,-3.656 -6.5,-9.5 0,-6.11 2.46063,-10.11133 6.14063,-10.11133 1.5,0 2.82031,0.704 2.82031,1.5 0,0.157 -0.0703,0.31433 -0.32031,0.61133 -0.79,0.953 -1,1.45287 -1,2.29687 0,1.656 1.25,2.79688 3,2.79688 1.82,0 3.07031,-1.39062 3.07031,-3.39063 0,-3.406 -3.36031,-5.95312 -7.82031,-5.95312 z m 22.45898,0 c -5.64,0 -9.75,2.63988 -9.75,6.29687 0,1.843 1.15039,3.04688 2.90039,3.04688 1.6,0 2.71094,-1.04688 2.71094,-2.54688 0,-0.657 -0.25,-1.34387 -0.75,-2.04687 -0.32,-0.36 -0.36133,-0.45312 -0.36133,-0.70313 0,-1 2.00039,-1.9082 4.40039,-1.9082 1.6,0 3.35063,0.5 4.14063,1.25 0.96,0.813 1.32031,2 1.32031,4.25 v 1.95508 c -5.21,0.906 -6.86031,1.296 -9.32031,2.25 -4.34,1.609 -6.39063,3.90638 -6.39063,7.10937 0,3.594 2.8,5.84375 7.25,5.84375 3.46,0 6.55094,-1.40712 8.71094,-3.95312 0.79,2.546 2.03867,3.54492 4.38867,3.54492 2.25,0 4.61133,-1.43567 4.61133,-2.88867 0,-0.36 -0.21,-0.61133 -0.5,-0.61133 -0.21,0 -0.41,0.0641 -0.75,0.20508 -0.71,0.296 -1.00016,0.35938 -1.41016,0.35937 -1.41,0 -1.91015,-0.90612 -1.91015,-3.45312 v -10.04688 c 0,-3.156 -0.54,-4.75012 -2,-5.95312 -1.64,-1.36 -4.09102,-2 -7.29102,-2 z m 57.87106,0 c -6.5,0 -11.1406,5.29687 -11.1406,12.79687 0,7.093 4.2492,12 10.4492,12 4.44,0 7.0007,-2.04674 9.1407,-7.34375 l -1.9493,-0.75 c -1.6,3.594 -3.3006,5.04688 -5.8906,5.04688 -4,0 -6.5,-3.656 -6.5,-9.5 0,-6.11 2.4506,-10.11133 6.1406,-10.11133 1.5,0 2.8086,0.704 2.8086,1.5 0,0.157 -0.059,0.31433 -0.3086,0.61133 -0.8,0.953 -1,1.45287 -1,2.29687 0,1.656 1.25,2.79688 3,2.79688 1.81,0 3.0586,-1.39062 3.0586,-3.39063 0,-3.406 -3.3586,-5.95312 -7.8086,-5.95312 z m 22.4493,0 c -5.64,0 -9.75,2.63988 -9.75,6.29687 0,1.843 1.1601,3.04688 2.9101,3.04688 1.59,0 2.6992,-1.04688 2.6992,-2.54688 0,-0.657 -0.25,-1.34387 -0.75,-2.04687 -0.31,-0.36 -0.3593,-0.45312 -0.3593,-0.70313 0,-1 2.0001,-1.9082 4.4101,-1.9082 1.59,0 3.3406,0.5 4.1406,1.25 0.95,0.813 1.3086,2 1.3086,4.25 v 1.95508 c -5.2,0.906 -6.8586,1.296 -9.3086,2.25 -4.35,1.609 -6.3906,3.90638 -6.3906,7.10937 0,3.594 2.79,5.84375 7.25,5.84375 3.45,0 6.5392,-1.40712 8.6992,-3.95312 0.8,2.546 2.0507,3.54492 4.3907,3.54492 2.25,0 4.6093,-1.43567 4.6093,-2.88867 0,-0.36 -0.2,-0.61133 -0.5,-0.61133 -0.2,0 -0.41,0.0641 -0.75,0.20508 -0.7,0.296 -1.0001,0.35938 -1.4101,0.35937 -1.4,0 -1.8985,-0.90612 -1.8985,-3.45312 v -10.04688 c 0,-3.156 -0.55,-4.75012 -2,-5.95312 -1.64,-1.36 -4.1007,-2 -7.3007,-2 z m 57.8691,0 c -6.5,0 -11.1387,5.29687 -11.1387,12.79687 0,7.093 4.2492,12 10.4492,12 4.44,0 7.0007,-2.04674 9.1407,-7.34375 l -1.9512,-0.75 c -1.59,3.594 -3.2987,5.04688 -5.8887,5.04688 -4,0 -6.5,-3.656 -6.5,-9.5 0,-6.11 2.4487,-10.11133 6.1387,-10.11133 1.5,0 2.8105,0.704 2.8105,1.5 0,0.157 -0.06,0.31433 -0.3105,0.61133 -0.8,0.953 -1,1.45287 -1,2.29687 0,1.656 1.25,2.79688 3,2.79688 1.81,0 3.0605,-1.39062 3.0605,-3.39063 0,-3.406 -3.3605,-5.95312 -7.8105,-5.95312 z m 22.4512,0 c -5.64,0 -9.75,2.63988 -9.75,6.29687 0,1.843 1.1601,3.04688 2.9101,3.04688 1.59,0 2.6992,-1.04688 2.6992,-2.54688 0,-0.657 -0.25,-1.34387 -0.75,-2.04687 -0.31,-0.36 -0.3593,-0.45312 -0.3593,-0.70313 0,-1 2.0001,-1.9082 4.4101,-1.9082 1.59,0 3.3387,0.5 4.1387,1.25 0.95,0.813 1.3105,2 1.3105,4.25 v 1.95508 c -5.2,0.906 -6.8605,1.296 -9.3105,2.25 -4.34,1.609 -6.3887,3.90638 -6.3887,7.10937 0,3.594 2.8,5.84375 7.25,5.84375 3.45,0 6.5492,-1.40712 8.6992,-3.95312 0.8,2.546 2.0507,3.54492 4.3907,3.54492 2.25,0 4.6093,-1.43567 4.6093,-2.88867 0,-0.36 -0.2,-0.61133 -0.5,-0.61133 -0.2,0 -0.4,0.0641 -0.75,0.20508 -0.7,0.296 -1.0004,0.35938 -1.4003,0.35937 -1.41,0 -1.9102,-0.90612 -1.9102,-3.45312 v -10.04688 c 0,-3.156 -0.55,-4.75012 -2,-5.95312 -1.64,-1.36 -4.0888,-2 -7.2988,-2 z m -781.00003,0.75 v 1.79687 h 0.90625 c 1.391,0.047 2.04675,0.65613 2.59375,2.45313 l 7.5,19.79687 h 1.75 l 5.95312,-15.79687 6.09375,15.79687 h 1.5625 l 7,-18.45312 c 1.094,-2.954 1.8435,-3.74988 3.6875,-3.79688 h 0.35938 v -1.79687 h -9.45313 v 1.79687 h 0.84375 c 1.75,0 2.45313,0.4988 2.45313,1.8418 0,0.5 -0.14063,1.15846 -0.39063,1.81445 l -4.25,11.39063 -4.90625,-12.84375 c -0.156,-0.36 -0.20312,-0.65588 -0.20312,-1.04688 0,-0.906 0.45179,-1.15625 2.09179,-1.15625 h 1.20508 v -1.79687 h -11.20508 v 1.79687 h 0.86133 c 1.594,0.047 2.24867,0.4518 2.63867,1.8418 l 0.40821,1.31445 -4.40821,11.64063 -4.84179,-12.54688 c -0.094,-0.344 -0.20313,-0.79674 -0.20313,-1.09375 0,-0.859 0.54492,-1.15625 2.04492,-1.15625 h 0.90821 v -1.79687 z m 269.74218,0 v 1.79687 h 0.90625 c 1.39,0.047 2.04675,0.65613 2.59375,2.45313 l 7.5,19.79687 h 1.75 l 5.95313,-15.79687 6.09375,15.79687 h 1.5625 l 7,-18.45312 c 1.093,-2.954 1.8435,-3.74988 3.6875,-3.79688 h 0.35937 v -1.79687 h -9.45312 v 1.79687 h 0.84375 c 1.75,0 2.45312,0.4988 2.45312,1.8418 0,0.5 -0.14062,1.15846 -0.39062,1.81445 l -4.25,11.39063 -4.90625,-12.84375 c -0.156,-0.36 -0.20313,-0.65588 -0.20313,-1.04688 0,-0.906 0.45275,-1.15625 2.09375,-1.15625 h 1.20313 v -1.79687 H 635.4082 v 1.79687 h 0.85938 c 1.594,0.047 2.24962,0.4518 2.64062,1.8418 l 0.40625,1.31445 -4.40625,11.64063 -4.84375,-12.54688 c -0.093,-0.344 -0.20312,-0.79674 -0.20312,-1.09375 0,-0.859 0.54687,-1.15625 2.04687,-1.15625 h 0.90625 v -1.79687 z m -278.58593,11 v 2.29687 c 0,3 -0.156,3.703 -1,5 -1.25,1.843 -3.50013,3.0918 -5.70313,3.0918 -2.297,0 -3.95312,-1.63867 -3.95312,-3.88867 0,-2.11 1.047,-3.61025 3.25,-4.65625 1.547,-0.704 3.50025,-1.20375 7.40625,-1.84375 z m 269.74218,0 v 2.29687 c 0,3 -0.157,3.703 -1,5 -1.25,1.843 -3.49912,3.0918 -5.70312,3.0918 -2.296,0 -3.95313,-1.63867 -3.95313,-3.88867 0,-2.11 1.047,-3.61025 3.25,-4.65625 1.547,-0.704 3.49925,-1.20375 7.40625,-1.84375 z m 283.74219,0 v 2.29687 c 0,3 -0.16,3.703 -1,5 -1.25,1.843 -3.50117,3.0918 -5.70117,3.0918 -2.3,0 -3.95899,-1.63867 -3.95899,-3.88867 0,-2.11 1.05,-3.61025 3.25,-4.65625 1.55,-0.704 3.50016,-1.20375 7.41016,-1.84375 z m 80.33008,0 v 2.29687 c 0,3 -0.16,3.703 -1,5 -1.25,1.843 -3.50094,3.0918 -5.71094,3.0918 -2.29,0 -3.94922,-1.63867 -3.94922,-3.88867 0,-2.11 1.05,-3.61025 3.25,-4.65625 1.55,-0.704 3.50016,-1.20375 7.41016,-1.84375 z m 80.31833,0 v 2.29687 c 0,3 -0.16,3.703 -1,5 -1.25,1.843 -3.4992,3.0918 -5.6992,3.0918 -2.3,0 -3.9609,-1.63867 -3.9609,-3.88867 0,-2.11 1.05,-3.61025 3.25,-4.65625 1.55,-0.704 3.5001,-1.20375 7.4101,-1.84375 z m 80.3203,0 v 2.29687 c 0,3 -0.15,3.703 -1,5 -1.25,1.843 -3.4992,3.0918 -5.6992,3.0918 -2.3,0 -3.9511,-1.63867 -3.9511,-3.88867 0,-2.11 1.04,-3.61025 3.25,-4.65625 1.54,-0.704 3.5003,-1.20375 7.4003,-1.84375 z"/>
</svg>
