<?xml version="1.0" encoding="utf-8"?>
<svg xmlns="http://www.w3.org/2000/svg" version="1.2" viewBox="0 0 800 222">
	<title>Two bars of musical notation depicting the call of Silverspot the Crow, which reads “Caw Caw.” This call would translate in English to “good day.”</title>
	<path d="m 0,34.546875 v 2.730469 h 45.376953 c -0.04427,-0.928961 -0.06996,-1.828205 -0.08008,-2.730469 z m 50.613281,0 c -0.0708,0.889995 -0.116932,1.800238 -0.140625,2.730469 h 12.449219 c 0.494142,-0.888303 0.942585,-1.797856 1.333984,-2.730469 z m 20.890625,0 c -0.113931,0.921852 -0.253629,1.831852 -0.417969,2.730469 h 57.431643 l -0.0234,-2.730469 z m 60.333984,0 -0.0254,2.0625 c 0.24801,-0.302007 1.09161,-1.220014 2.49414,-2.0625 z m 13.24023,0 c 0.91503,0.735822 1.61728,1.678474 2.13086,2.730469 h 151.24414 v -1.365235 h 2.48047 v 1.365235 h 202.05664 v -2.728516 h 4.45899 v 2.728516 h 60.74805 v -1.365235 h 2.47851 v 1.365235 h 202.05664 v -2.728516 h 4.45899 v 2.728516 h 9.18164 v -2.728516 h 13.63867 v -0.002 z M 0,59.347656 v 2.730469 h 40.044922 c 0.02794,-0.02608 0.05611,-0.05212 0.08398,-0.07813 0.71414,-0.580917 1.793511,-1.583259 2.90625,-2.652344 z m 61.146484,0 c -0.678091,0.921177 -1.381466,1.83102 -2.109375,2.730469 H 100.8418 l -0.0234,-2.730469 z m 43.275396,0 -0.0352,2.730469 h 24.33594 l -0.0215,-2.730469 z m 27.12109,0 -0.0234,1.566406 c 0.54917,-0.432129 1.22301,-0.964889 1.94336,-1.566406 z m 8.39648,0 c -1.16235,1.038804 -2.31203,1.949293 -3.38086,2.730469 h 46.74805 c 1.85158,-1.166742 4.03555,-2.110821 6.60742,-2.730469 z m 65.28516,0 c 2.7828,0.634288 5.01116,1.596058 6.79492,2.730469 h 86.43359 v -2.730469 z m 95.70898,0 v 2.730469 h 97.92383 v -2.730469 z m 100.4043,0 v 2.730469 h 101.65234 v -2.730469 z m 106.11133,0 v 2.730469 h 60.74805 v -2.730469 z m 63.22656,0 v 2.730469 h 97.92578 v -2.730469 z m 100.40625,0 v 2.730469 h 101.65039 v -2.730469 z m 106.10938,0 v 2.730469 h 9.18164 V 59.347656 Z M 0,84.148437 v 2.728516 h 21.367187 c 0.351992,-0.932669 0.732283,-1.841872 1.136719,-2.728516 z m 37.453125,0 c -0.729138,0.886802 -1.43201,1.79686 -2.103516,2.728516 h 14.228516 c 0.943252,-0.468048 1.929052,-0.858805 2.951172,-1.162109 -0.08773,-0.512751 -0.175602,-1.034825 -0.263672,-1.566407 z m 19.396484,0 c 0.04831,0.289475 0.09621,0.579197 0.144532,0.869141 3.663945,0 7.080738,0.64826 10.140625,1.859375 h 33.912114 l -0.0215,-2.728516 z m 47.308591,0 -0.041,2.728516 h 8.80859 c 0.2897,-0.97766 0.48405,-1.908831 0.61328,-2.728516 z m 16.19336,0 c -0.20382,0.898654 -0.48069,1.811915 -0.83398,2.728516 h 53.74609 c -0.0437,-0.917833 -0.0667,-1.82983 -0.0762,-2.728516 z m 66.31641,0 v 2.728516 h 111.78515 v -2.728516 z m 114.26562,0 v 2.728516 h 97.92383 v -2.728516 z m 100.4043,0 v 2.728516 h 50.74023 l -2.26171,-2.728516 z m 51.65234,0 2.30274,2.728516 h 47.69726 v -2.728516 z m 54.45899,0 v 2.728516 h 60.74805 v -2.728516 z m 63.22656,0 v 2.728516 h 97.92578 v -2.728516 z m 100.40625,0 v 2.728516 h 52.24805 l -2.26172,-2.728516 z m 53.16992,0 2.30078,2.728516 h 46.17969 v -2.728516 z m 52.93946,0 v 2.728516 h 9.18164 V 84.148437 Z M 0,108.94727 v 2.73046 h 20.035156 c -0.280703,-0.89419 -0.521663,-1.80488 -0.722656,-2.73046 z m 28.339844,0 c 0.08724,0.93304 0.222874,1.84363 0.404297,2.73046 h 9.257812 c -0.256169,-0.9195 -0.440511,-1.83711 -0.544922,-2.73046 z m 15.939453,0 c -0.05809,0.47759 -0.08789,0.96434 -0.08789,1.45898 0,0.44225 0.01897,0.86555 0.05469,1.27148 h 12.658203 l -0.482422,-2.73046 z m 16.609375,0 c 0.150352,0.88577 0.30406,1.79823 0.46289,2.73046 h 12.988282 c -0.03792,-0.94547 -0.152255,-1.85706 -0.335938,-2.73046 z m 21.177734,0 c 0.01439,0.38464 0.02148,0.77269 0.02148,1.16406 0,0.52268 -0.01937,1.04512 -0.05664,1.5664 h 198.82617 c 2.91331,-1.30945 6.03368,-2.0625 8.97852,-2.0625 2.86786,0 5.47565,0.71063 7.44336,2.0625 h 1.17382 v -2.73046 h -93.80273 c -1.63101,0.3861 -3.36842,0.58203 -5.17969,0.58203 -2.9099,0 -5.49944,-0.20358 -7.80273,-0.58203 z m 218.867184,0 v 2.73046 h 97.92383 v -2.73046 z m 100.4043,0 v 2.73046 h 101.65234 v -2.73046 z m 106.11133,0 v 2.73046 h 43.15039 c 2.91306,-1.30945 6.03368,-2.0625 8.97851,-2.0625 2.86836,0 5.47704,0.71036 7.44532,2.0625 h 1.17383 v -2.73046 z m 63.22656,0 v 2.73046 h 97.92578 v -2.73046 z m 100.40625,0 v 2.73046 h 101.65039 v -2.73046 z m 106.10938,0 v 2.73046 h 9.18164 v -2.73046 z M 0,133.74805 v 2.73047 h 61.402344 c -0.112457,-0.57911 -0.228763,-1.16823 -0.347657,-1.76758 -2.278524,0.40295 -4.96065,0.69726 -7.828125,0.69726 -3.686426,0 -7.280832,-0.5816 -10.673828,-1.66015 z m 65.150391,0 c 0.147807,0.96723 0.295233,1.87788 0.439453,2.73047 H 369.4707 c 0.23656,-0.93221 0.58579,-1.84515 1.03125,-2.73047 h -81.35547 c -2.9373,1.35857 -6.15592,2.15625 -9.32617,2.15625 -3.40227,0 -5.91508,-0.85127 -7.68164,-2.15625 z m 335.888669,0 c -0.22143,0.92647 -0.55558,1.84003 -0.98828,2.73047 h 239.16211 c 0.23655,-0.93221 0.58579,-1.84515 1.03125,-2.73047 h -81.35352 c -2.9373,1.35857 -6.15592,2.15625 -9.32617,2.15625 -3.40227,0 -5.91508,-0.85127 -7.68164,-2.15625 h -34.43359 v 2.72851 h -4.45899 v -2.72851 z m 269.74219,0 c -0.22143,0.92647 -0.55558,1.84003 -0.98828,2.73047 h 130.21875 v -0.002 h -13.63867 v -2.72851 h -9.18164 v 2.72851 h -4.45899 v -2.72851 z" style="baseline-shift:baseline;display:inline;overflow:visible;opacity:1;vector-effect:none;stroke-linejoin:bevel;enable-background:accumulate;stop-color:#000;stop-opacity:1"/>
	<path d="m 289.75195,150.4043 c 21.59051,24.68201 62.43554,29.7268 89.38282,11.03906 -13.2589,6.22176 -29.91917,8.09517 -46.125,6.09375 -16.2066,-2.00152 -31.91095,-7.87152 -43.25782,-17.13281 z m 269.74219,0 c 21.59127,24.68202 62.43631,29.72679 89.38281,11.03906 -13.25859,6.22176 -29.91906,8.09517 -46.125,6.09375 -16.2067,-2.00152 -31.91089,-7.87152 -43.25781,-17.13281 z" style="baseline-shift:baseline;display:inline;overflow:visible;vector-effect:none;fill-rule:evenodd;stroke-linecap:round;stroke-linejoin:round;enable-background:accumulate;stop-color:#000;stop-opacity:1"/>
	<path d="m 554.51953,144.41406 a 0.62,0.62 0 0 0 -0.30273,0.10547 0.62,0.62 0 0 0 -0.0117,0.0625 0.62,0.62 0 0 0 -0.0664,-0.002 0.62,0.62 0 0 0 -0.0781,0.74219 0.62,0.62 0 0 0 -0.0117,0.0586 c 21.77521,32.23329 72.37211,38.48102 101.33398,12.51367 a 0.620062,0.620062 0 0 0 -0.75,-0.98242 c -13.67106,8.79898 -33.01646,11.70546 -51.72851,9.39453 -18.71205,-2.31093 -36.76871,-9.83656 -47.88868,-21.69727 a 0.62,0.62 0 0 0 -0.0566,-0.002 0.62,0.62 0 0 0 -0.27734,-0.18359 0.62,0.62 0 0 0 -0.16211,-0.01 z m -269.96289,0.0996 a 0.62,0.62 0 0 0 -0.082,0.006 0.62,0.62 0 0 0 -0.041,0.0625 0.62,0.62 0 0 0 -0.0371,-0.002 0.62,0.62 0 0 0 -0.082,0.18164 0.62,0.62 0 0 0 -0.0918,0.20312 0.62,0.62 0 0 0 0.0449,0.22657 0.62,0.62 0 0 0 0.0391,0.18945 c 21.75562,32.20579 72.28085,38.46443 101.25586,12.57422 0.0248,-0.0221 0.0534,-0.0384 0.0781,-0.0606 a 0.620062,0.620062 0 0 0 -0.75,-0.98242 c -13.67156,8.79899 -33.01659,11.70546 -51.72851,9.39453 -18.71192,-2.31093 -36.7687,-9.83655 -47.88867,-21.69727 a 0.62,0.62 0 0 0 -0.4043,-0.0137 0.62,0.62 0 0 0 -0.3125,-0.082 z m 5.19531,5.89063 c 11.34687,9.26129 27.05122,15.13129 43.25782,17.13281 16.20583,2.00142 32.8661,0.12801 46.125,-6.09375 -26.94728,18.68774 -67.79231,13.64295 -89.38282,-11.03906 z m 269.74219,0 c 11.34692,9.26129 27.05111,15.13129 43.25781,17.13281 16.20594,2.00142 32.86641,0.12801 46.125,-6.09375 -26.9465,18.68773 -67.79154,13.64296 -89.38281,-11.03906 z" style="baseline-shift:baseline;display:inline;overflow:visible;vector-effect:none;fill-rule:evenodd;stroke-linecap:round;stroke-linejoin:round;enable-background:accumulate;stop-color:#000;stop-opacity:1"/>
	<path d="M502.99 34.549V136.477h4.459V34.549Zm269.742 0V136.477h4.459V34.549ZM786.373 34.549V136.477h13.639V34.549ZM298.453 35.912v76.723c1.451 1.406 2.36 3.281 2.48 5.582V35.912Zm269.744 0v76.723c1.443 1.398 2.351 3.261 2.479 5.545V35.912ZM398.857 48.313v76.721c1.444 1.399 2.352 3.262 2.48 5.547V48.313Zm269.744 0v76.723c1.451 1.406 2.36 3.282 2.48 5.582V48.313Z" style="baseline-shift:baseline;display:inline;overflow:visible;opacity:1;vector-effect:none;stroke-linejoin:bevel;enable-background:accumulate;stop-color:#000;stop-opacity:1"/>
	<path d="M289.836 109.615c-9.625 0-21.129 8.045-21.129 17.268 0 4.263 3.069 9.021 11.113 9.021 10.308 0 21.127-8.433 21.127-17.16 0-5.859-4.958-9.129-11.111-9.129zm269.742 0c-9.625 0-21.127 8.045-21.127 17.268 0 4.263 3.069 9.021 11.113 9.021 10.308 0 21.127-8.433 21.127-17.16 0-5.859-4.96-9.129-11.113-9.129zm-266.068 4.666c2.387 0 3.967 1.394 3.967 3.564 0 4.278-10.012 9.037-10.322 9.238-.295.186-7.534 4.154-11.006 4.154-3.27 0-3.967-2.665-3.967-3.564 0-4.169 9.919-9.023 10.322-9.225.387-.201 7.441-4.168 11.006-4.168zm269.742 0c2.387 0 3.969 1.394 3.969 3.564 0 4.278-10.014 9.037-10.324 9.238-.295.186-7.532 4.154-11.004 4.154-3.27 0-3.969-2.665-3.969-3.564 0-4.169 9.919-9.023 10.322-9.225.387-.201 7.441-4.168 11.006-4.168zm-173.012 7.734c-9.625 0-21.127 8.138-21.127 17.268 0 4.263 3.069 9.021 11.113 9.021 10.308 0 21.127-8.433 21.127-17.16 0-5.859-4.96-9.129-11.113-9.129zm269.742 0c-9.625 0-21.127 8.138-21.127 17.268 0 4.263 3.069 9.021 11.113 9.021 10.308 0 21.127-8.433 21.127-17.16 0-5.859-4.96-9.129-11.113-9.129zM729.506 64.898c-.403 0-.9.001-1.303.109-3.472.589-5.952 3.658-5.844 7.037v.791c.295 1.891 1.194 3.47 2.48 4.57-1.596-.109-3.176-.495-4.664-1.301-4.867-2.573-8.836-7.936-9.223-8.432-.294-.294-.697-.59-1.193-.59h-.201c-.201 0-.496.001-.697.094-.387.31-.588.697-.588 1.1 0 .201.093.496.295.791l18.258 22.027c-1.782-.698-3.471-.992-5.16-.992-.791 0-1.581.093-2.279.201-1.984.295-3.875.991-5.254 1.875-2.185 1.286-3.581 3.674-3.473 6.248v.992c.589 3.472 3.565 6.059 7.037 6.059.403 0 .791-.107 1.193-.107 3.472-.589 5.845-3.564 5.953-6.943 0-.295-.001-.59-.109-.885-.186-1.891-1.084-3.471-2.479-4.664 1.596.093 3.285.494 4.773 1.285 4.851 2.589 8.633 7.642 9.129 8.232l.682.898v-.004c.403.496 1.1.791 1.688.791.201 0 .496-.093.697-.201.295-.186.496-.497.496-.885 0-.294-.092-.602-.402-.99L719.975 79.08c1.891.806 3.874 1.193 5.656 1.193.791 0 1.489-.093 2.186-.201 1.984-.295 3.767-.99 5.162-1.982 2.185-1.178 3.564-3.566 3.564-6.139 0-.31-.001-.697-.094-.992-.496-3.58-3.58-6.061-6.943-6.061zm-270.832.506c-.403 0-.9.001-1.303.109-3.472.589-5.952 3.658-5.844 7.037v.791c.295 1.891 1.194 3.47 2.48 4.57-1.596-.109-3.176-.495-4.664-1.301-4.867-2.573-8.836-7.936-9.223-8.432-.294-.294-.697-.59-1.193-.59h-.201c-.201 0-.496.001-.697.094-.387.31-.588.697-.588 1.1 0 .201.093.496.295.791l18.258 22.027c-1.782-.698-3.471-.992-5.16-.992-.791 0-1.581.093-2.279.201-1.984.295-3.875.991-5.254 1.875-2.185 1.286-3.581 3.674-3.473 6.248v.992c.589 3.472 3.565 6.059 7.037 6.059.403 0 .791-.107 1.193-.107 3.472-.589 5.845-3.564 5.953-6.943 0-.295-.001-.59-.109-.885-.186-1.891-1.084-3.471-2.479-4.664 1.596.093 3.285.496 4.773 1.287 4.851 2.589 8.633 7.64 9.129 8.23l.682.898v-.004c.403.496 1.1.791 1.688.791.201 0 .496-.093.697-.201.295-.186.496-.495.496-.883 0-.294-.092-.604-.402-.992L449.143 79.588c1.891.806 3.874 1.191 5.656 1.191.791 0 1.489-.093 2.186-.201 1.984-.295 3.767-.99 5.162-1.982 2.185-1.178 3.564-3.566 3.564-6.139 0-.31-.001-.697-.094-.992-.496-3.58-3.58-6.061-6.943-6.061zM60.465 0c-.697 0-3.767 1.193-7.037 5.053-6.355 7.548-8.137 20.243-8.137 28.566 0 5.363.496 10.23 2.186 21.344-.109.093-5.271 5.348-7.348 7.037-9.036 8.432-21.529 20.43-21.529 40.285 0 18.538 16.166 33.123 34.627 33.123 2.867 0 5.55-.294 7.828-.697 1.891 9.532 2.977 16.476 2.977 21.73 0 10.323-5.255 15.779-15.268 15.779-2.387 0-4.464-.496-4.666-.496-.093-.109-.295-.202-.295-.295 0-.201.202-.309.496-.402 4.665-.697 9.316-4.666 9.316-11.006 0-5.363-4.062-11.02-11.502-11.02-6.944 0-11.408 5.656-11.408 12.197 0 6.557 5.053 15.191 18.445 15.191 4.665 0 8.742-1.193 12.307-3.379 5.363-3.766 6.742-10.324 6.742-16.57 0-3.859-.588-8.323-1.58-13.98-.295-1.984-.899-4.961-1.488-8.836 9.718-3.177 16.957-13.299 16.957-23.514 0-14.973-10.617-25.094-25.094-25.094-.992-5.952-1.984-11.81-2.883-17.359 10.525-11.021 17.762-23.422 17.762-39.186 0-9.037-2.775-16.367-4.371-19.947C65.13 3.472 62.247 0 60.465 0Zm1.689 14.385c1.488 0 3.859 4.85 3.859 11.701 0 10.323-7.626 18.058-14.477 24.801-.589-3.968-1.084-7.829-1.084-11.998 0-3.673.294-7.052 1.084-10.121.899-3.968 5.456-14.383 10.617-14.383zM50.252 71.625c.883 5.347 1.58 10.013 2.277 14.09-9.036 2.681-15.174 12.198-15.174 21.529 0 6.944 5.455 16.461 13.391 16.461.79 0 1.691-.404 1.691-1.287 0-.899-.992-1.395-2.186-2.186-3.875-2.387-6.061-4.959-6.061-9.826 0-6.045 4.463-10.912 10.322-12.291l5.75 32.627c-1.984.403-3.859.605-5.75.605-14.182 0-26.289-9.922-26.289-24.91 0-12.09 8.526-22.909 17.268-30.457 1.674-1.488 3.272-2.867 4.76-4.355zm8.725 25.885c8.928 0 15.377 6.061 15.377 14.881 0 7.052-2.883 14.291-9.92 17.174-2.077-11.904-4.759-27.684-5.457-32.055zM129.643 3.379c-.806 0-1.396.589-1.396 1.379l.496 59.629c0 .791.59 1.379 1.396 1.379.186 0 .589-.093.791-.186.388-.202 6.836-3.379 12.199-9.424 3.767-4.278 5.254-9.131 5.254-13.207 0-.884-.093-1.673-.201-2.479h-.002c-.589-3.86-2.976-7.533-8.029-7.533-4.96 0-7.842 3.068-8.338 3.672l.402-31.852c0-.79-.589-1.379-1.395-1.379zm7.83 34.424c3.581 0 3.875 3.365 3.875 5.457v1.084l-.002.002c0 1.488-.403 6.044-2.883 9.826-1.69 2.573-5.052 5.254-6.943 6.742l.295-19.344c.202-.899 1.69-3.768 5.658-3.768zm-35.404 2.775c-.806 0-1.395.589-1.395 1.379l.496 59.629c0 .791.589 1.381 1.395 1.381.186 0 .589-.094.791-.187.388-.202 6.836-3.379 12.199-9.424 3.767-4.278 5.254-9.129 5.254-13.205 0-.884-.093-1.674-.201-2.48h-.002c-.589-3.86-2.976-7.533-8.029-7.533-4.96 0-7.842 3.07-8.338 3.674l.402-31.854c0-.79-.589-1.379-1.395-1.379zm7.83 34.426c3.581 0 3.875 3.363 3.875 5.455v1.086h-.002c0 1.488-.403 6.044-2.883 9.826-1.69 2.573-5.052 5.254-6.943 6.742l.295-19.344c.202-.899 1.69-3.766 5.658-3.766zM197.285 58.533c-21.623 0-24.104 17.95-24.104 24.398 0 11.811 1.489 26.598 26.289 26.598 9.827 0 17.468-5.767 17.855-16.385 0-.496-.295-.789-.791-.789h-1.287c-.403 0-.789.402-.789.789-.403 8.246-6.262 13.207-14.988 13.207-8.633 0-12.803-4.666-12.803-13.393V74.002c0-5.549 2.185-11.902 11.02-11.902 4.666 0 6.743 1.689 7.844 3.379.093.201.092.295.092.496 0 .093 0 .294-.201.387-2.48 1.597-4.262 4.463-4.262 7.641 0 .403-.001.792.092 1.195.496 4.061 3.783 7.238 7.844 7.734h1.084c4.96 0 8.93-3.97 8.93-8.93v-.588c0-.403-.094-1.101-.187-1.488-.899-4.263-4.773-13.393-21.637-13.393z" style="stroke-width:.992"/>
	<path d="m 251.41406,184.47852 c -4.75,0 -8.79662,2 -12.14062,6 -3.203,3.813 -4.70313,8.0172 -4.70313,13.1582 0,10.796 7.04725,18.45312 16.90625,18.45312 8,0 13.094,-4.7047 14.25,-13.0957 l -2.35937,-0.4043 c -1.344,7.453 -5.14088,11.1543 -11.29688,11.1543 -7.407,0 -10.90625,-5.1073 -10.90625,-15.9043 0,-5.703 0.74913,-9.45312 2.45313,-12.45312 1.546,-2.797 4.60937,-4.54688 7.85937,-4.54688 3.5,0 6.594,1.84288 8.5,5.04688 0.953,1.656 1.64075,3.50012 2.84375,7.45312 h 2.20313 l -0.75,-14.45312 h -1.90625 l -2,2.95312 c -3.641,-2.657 -5.49913,-3.36132 -8.95313,-3.36132 z m 269.74219,0 c -4.75,0 -8.79662,2 -12.14063,6 -3.20299,3.813 -4.70312,8.0172 -4.70312,13.1582 0,10.796 7.0482,18.45312 16.9082,18.45312 8,0 13.093,-4.7047 14.25,-13.0957 l -2.36133,-0.4043 c -1.344,7.453 -5.13987,11.1543 -11.29687,11.1543 -7.406,0 -10.90625,-5.1073 -10.90625,-15.9043 0,-5.703 0.75013,-9.45312 2.45312,-12.45312 1.54701,-2.797 4.61133,-4.54688 7.86133,-4.54688 3.5,0 6.593,1.84288 8.5,5.04688 0.953,1.656 1.6388,3.50012 2.8418,7.45312 h 2.20312 l -0.75,-14.45312 h -1.90625 l -2,2.95312 c -3.63999,-2.657 -5.50012,-3.36132 -8.95312,-3.36132 z m -240.53906,12.81445 c -5.641,0 -9.75,2.63987 -9.75,6.29687 0,1.843 1.15625,3.04688 2.90625,3.04688 1.594,0 2.70312,-1.04688 2.70312,-2.54688 0,-0.657 -0.25,-1.34387 -0.75,-2.04687 -0.313,-0.36 -0.35937,-0.45313 -0.35937,-0.70313 0,-1 2.00025,-1.9082 4.40625,-1.9082 1.594,0 3.34462,0.5 4.14062,1.25 0.954,0.813 1.3125,2 1.3125,4.25 v 1.95508 c -5.203,0.906 -6.8585,1.296 -9.3125,2.25 -4.343,1.609 -6.39062,3.90442 -6.39062,7.10742 0,3.594 2.797,5.8457 7.25,5.8457 3.453,0 6.54712,-1.40712 8.70312,-3.95312 0.797,2.546 2.04663,3.54492 4.39063,3.54492 2.25,0 4.60937,-1.43567 4.60937,-2.88867 0,-0.36 -0.203,-0.61133 -0.5,-0.61133 -0.203,0 -0.406,0.0641 -0.75,0.20508 -0.703,0.296 -1.00025,0.35742 -1.40625,0.35742 -1.407,0 -1.90625,-0.90417 -1.90625,-3.45117 v -10.04883 c 0,-3.156 -0.546,-4.74817 -2,-5.95117 -1.64,-1.36 -4.09387,-2 -7.29687,-2 z m 269.74218,0 c -5.63999,0 -9.75,2.63987 -9.75,6.29687 0,1.843 1.15625,3.04688 2.90625,3.04688 1.59401,0 2.70508,-1.04688 2.70508,-2.54688 0,-0.657 -0.25,-1.34387 -0.75,-2.04687 -0.313,-0.36 -0.36133,-0.45313 -0.36133,-0.70313 0,-1 2.00026,-1.9082 4.40625,-1.9082 1.59401,0 3.34363,0.5 4.14063,1.25 0.953,0.813 1.31445,2 1.31445,4.25 v 1.95508 c -5.204,0.906 -6.86145,1.296 -9.31445,2.25 -4.344,1.609 -6.39063,3.90442 -6.39063,7.10742 0,3.594 2.79701,5.8457 7.25,5.8457 3.454,0 6.54808,-1.40712 8.70508,-3.95312 0.796,2.546 2.04468,3.54492 4.38867,3.54492 2.25,0 4.61133,-1.43567 4.61133,-2.88867 0,-0.36 -0.204,-0.61133 -0.5,-0.61133 -0.204,0 -0.407,0.0641 -0.75,0.20508 -0.704,0.296 -1.0012,0.35742 -1.4082,0.35742 -1.406,0 -1.90625,-0.90417 -1.90625,-3.45117 v -10.04883 c 0,-3.156 -0.547,-4.74817 -2,-5.95117 -1.641,-1.36 -4.09388,-2 -7.29688,-2 z m -256.28906,0.75 v 1.79687 h 0.90625 c 1.391,0.047 2.04675,0.65613 2.59375,2.45313 l 7.5,19.79687 h 1.75 l 5.95313,-15.79687 6.09375,15.79687 h 1.5625 l 7,-18.45312 c 1.094,-2.954 1.8435,-3.74988 3.6875,-3.79688 h 0.35937 v -1.79687 h -9.45312 v 1.79687 h 0.84375 c 1.75,0 2.45312,0.4988 2.45312,1.8418 0,0.5 -0.14062,1.1565 -0.39062,1.8125 l -4.25,11.39258 -4.90625,-12.84375 c -0.156,-0.36 -0.20313,-0.65783 -0.20313,-1.04883 0,-0.906 0.45375,-1.1543 2.09375,-1.1543 h 1.20313 v -1.79687 h -11.20313 v 1.79687 h 0.85938 c 1.594,0.047 2.25062,0.4518 2.64062,1.8418 l 0.40625,1.3125 -4.40625,11.64258 -4.84375,-12.54688 c -0.094,-0.344 -0.20312,-0.7987 -0.20312,-1.0957 0,-0.859 0.54687,-1.1543 2.04687,-1.1543 h 0.90625 v -1.79687 z m 269.74219,0 v 1.79687 h 0.9082 c 1.39,0.047 2.0448,0.65613 2.5918,2.45313 l 7.5,19.79687 h 1.75 l 5.95312,-15.79687 6.09375,15.79687 h 1.56446 l 7,-18.45312 c 1.093,-2.954 1.84154,-3.74988 3.68554,-3.79688 h 0.36133 v -1.79687 h -9.45508 v 1.79687 h 0.84375 c 1.75,0 2.45313,0.4988 2.45313,1.8418 0,0.5 -0.13867,1.1565 -0.38867,1.8125 l -4.25,11.39258 -4.90821,-12.84375 c -0.15599,-0.36 -0.20312,-0.65783 -0.20312,-1.04883 0,-0.906 0.45275,-1.1543 2.09375,-1.1543 h 1.20312 v -1.79687 h -11.20312 v 1.79687 h 0.85937 c 1.59401,0.047 2.24963,0.4518 2.64063,1.8418 l 0.40625,1.3125 -4.40625,11.64258 -4.84375,-12.54688 c -0.093,-0.344 -0.20313,-0.7987 -0.20313,-1.0957 0,-0.859 0.54688,-1.1543 2.04688,-1.1543 h 0.90625 v -1.79687 z m -278.58594,11 v 2.29687 c 0,3 -0.156,3.703 -1,5 -1.25,1.843 -3.50012,3.0918 -5.70312,3.0918 -2.297,0 -3.95313,-1.63867 -3.95313,-3.88867 0,-2.11 1.047,-3.61025 3.25,-4.65625 1.547,-0.704 3.50025,-1.20375 7.40625,-1.84375 z m 269.74414,0 v 2.29687 c 0,3 -0.157,3.703 -1,5 -1.25,1.843 -3.50108,3.0918 -5.70508,3.0918 -2.296,0 -3.95312,-1.63867 -3.95312,-3.88867 0,-2.11 1.047,-3.61025 3.25,-4.65625 1.547,-0.704 3.5012,-1.20375 7.4082,-1.84375 z"/>
</svg>
