<?xml version="1.0" encoding="UTF-8" standalone="no"?>
<svg xmlns="http://www.w3.org/2000/svg" version="1.2" viewBox="0 0 658.383 238.418">
  <title>One bar of musical notation depicting the call of Silverspot the Crow. This call would translate in English to “hawk, hawk.”</title>
  <path fill="none" stroke="#000" stroke-linejoin="bevel" stroke-width="2.73" d="M336.598 386.198 994.981 386.198M336.598 410.998 994.981 410.998M336.598 435.798 994.981 435.798M336.598 460.598 994.981 460.598M336.598 485.398 994.981 485.398" class="StaffLines" transform="translate(-336.598 -350.285)"/>
  <path fill-rule="evenodd" stroke="#000" stroke-linecap="round" stroke-linejoin="round" stroke-width="1.24" d="M284.821 157.433c11.444 23.133 46.358 35.533 69.829 24.8-25.791 17.265-60.705 4.865-69.829-24.8M483.221 157.433c11.574 23.195 46.716 35.595 70.283 24.8-25.88 17.348-61.021 4.948-70.283-24.8" class="SlurSegment"/>
  <path fill="none" stroke="#000" stroke-linejoin="bevel" stroke-width="4.46" d="M770.474 384.834 770.474 486.762M969.933 384.834 969.933 486.762" class="BarLine" transform="translate(-336.598 -350.285)"/>
  <path fill="none" stroke="#000" stroke-linejoin="bevel" stroke-width="13.64" d="M988.161 384.834 988.161 486.762" class="BarLine" transform="translate(-336.598 -350.285)"/>
  <path fill="none" stroke="#000" stroke-linejoin="bevel" stroke-width="3.97" d="M666.952 510.198 715.545 510.198M865.806 510.198 914.399 510.198" class="LedgerLine" transform="translate(-336.598 -350.285)"/>
  <path fill="none" stroke="#000" stroke-linejoin="bevel" stroke-width="2.48" d="M636.291 481.43 636.291 398.598M706.121 506.23 706.121 423.398M834.691 481.43 834.691 398.598M904.975 506.23 904.975 423.398" class="Stem" transform="translate(-336.598 -350.285)"/>
  <path d="M289.835 122.016c-9.625 0-21.127 8.044-21.127 17.267 0 4.263 3.069 9.021 11.113 9.021 10.308 0 21.127-8.432 21.127-17.159 0-5.859-4.96-9.129-11.113-9.129m-2.681 17.468c-.295.186-7.533 4.154-11.005 4.154-3.27 0-3.968-2.666-3.968-3.565 0-4.169 9.92-9.021 10.323-9.223.387-.201 7.44-4.169 11.005-4.169 2.387 0 3.968 1.395 3.968 3.565 0 4.278-10.013 9.037-10.323 9.238M338.538 164.083c0 4.263 3.069 9.021 11.113 9.021 10.308 0 21.127-8.432 21.127-17.159 0-5.859-4.96-9.129-11.113-9.129-9.625 0-21.127 8.137-21.127 17.267M488.235 122.016c-9.625 0-21.127 8.044-21.127 17.267 0 4.263 3.069 9.021 11.113 9.021 10.308 0 21.127-8.432 21.127-17.159 0-5.859-4.96-9.129-11.113-9.129m-2.681 17.468c-.295.186-7.533 4.154-11.005 4.154-3.27 0-3.968-2.666-3.968-3.565 0-4.169 9.92-9.021 10.323-9.223.387-.201 7.44-4.169 11.005-4.169 2.387 0 3.968 1.395 3.968 3.565 0 4.278-10.013 9.037-10.323 9.238M537.392 164.083c0 4.263 3.069 9.021 11.113 9.021 10.308 0 21.127-8.432 21.127-17.159 0-5.859-4.96-9.129-11.113-9.129-9.625 0-21.127 8.137-21.127 17.267" class="Note" style="stroke-width:.992"/>
  <path d="M415.048 103.797c.403.496 1.101.791 1.689.791.201 0 .496-.093.697-.201.295-.186.496-.496.496-.884 0-.294-.093-.604-.403-.992l-19.344-22.924c1.891.806 3.875 1.193 5.657 1.193.791 0 1.488-.093 2.185-.201 1.984-.295 3.767-.992 5.162-1.984 2.185-1.178 3.565-3.565 3.565-6.138 0-.31 0-.697-.093-.992-.496-3.58-3.581-6.06-6.944-6.06-.403 0-.899 0-1.302.108-3.472.589-5.952 3.658-5.844 7.037 0 .295 0 .496 0 .791.295 1.891 1.194 3.472 2.48 4.572-1.596-.109-3.177-.496-4.665-1.302-4.867-2.573-8.835-7.936-9.222-8.432-.294-.294-.697-.589-1.193-.589 0 0-.093 0-.201 0-.201 0-.496 0-.697.093-.387.31-.589.698-.589 1.101 0 .201.093.496.295.791l18.259 22.026c-1.782-.698-3.472-.992-5.161-.992-.791 0-1.581.093-2.279.201-1.984.295-3.875.992-5.254 1.876-2.185 1.286-3.58 3.673-3.472 6.247 0 .31 0 .697 0 .992.589 3.472 3.565 6.06 7.037 6.06.403 0 .791-.108 1.193-.108 3.472-.589 5.844-3.565 5.952-6.944 0-.295 0-.589-.108-.884-.186-1.891-1.085-3.472-2.48-4.665 1.596.093 3.286.496 4.774 1.287 4.851 2.589 8.633 7.641 9.129 8.231l.682.899M619.763 102.408c.403.496 1.101.791 1.689.791.201 0 .496-.093.697-.201.295-.186.496-.496.496-.884 0-.294-.093-.604-.403-.992l-19.344-22.924c1.891.806 3.875 1.193 5.657 1.193.791 0 1.488-.093 2.185-.201 1.984-.295 3.767-.992 5.162-1.984 2.185-1.178 3.565-3.565 3.565-6.138 0-.31 0-.697-.093-.992-.496-3.58-3.581-6.06-6.944-6.06-.403 0-.899 0-1.302.108-3.472.589-5.952 3.658-5.844 7.037 0 .295 0 .496 0 .791.295 1.891 1.194 3.472 2.48 4.572-1.596-.109-3.177-.496-4.665-1.302-4.867-2.573-8.835-7.936-9.222-8.432-.294-.294-.697-.589-1.193-.589 0 0-.093 0-.201 0-.201 0-.496 0-.697.093-.387.31-.589.698-.589 1.101 0 .201.093.496.295.791l18.259 22.026c-1.782-.698-3.472-.992-5.161-.992-.791 0-1.581.093-2.279.201-1.984.295-3.875.992-5.254 1.876-2.185 1.286-3.58 3.673-3.472 6.247 0 .31 0 .697 0 .992.589 3.472 3.565 6.06 7.037 6.06.403 0 .791-.108 1.193-.108 3.472-.589 5.844-3.565 5.952-6.944 0-.295 0-.589-.108-.884-.186-1.891-1.085-3.472-2.48-4.665 1.596.093 3.286.496 4.774 1.287 4.851 2.589 8.633 7.641 9.129 8.231l.682.899" class="Symbol" style="stroke-width:.992"/>
  <path d="m 74.353475,112.39038 c 0,7.0525 -2.88295,14.291 -9.92,17.17405 -2.07695,-11.90405 -4.758425,-27.68305 -5.456,-32.054104 8.928,0 15.376,6.060544 15.376,14.880054 M 60.264,130.74243 c -1.984,0.40295 -3.859475,0.60442 -5.750525,0.60442 -14.182425,0 -26.28797,-9.92 -26.28797,-24.90847 0,-12.090054 8.52502,-22.909004 17.26702,-30.457529 1.674,-1.488 3.270525,-2.867475 4.758525,-4.355475 0.883475,5.347475 1.58095,10.01295 2.278425,14.089475 -9.036425,2.681475 -15.174425,12.198525 -15.174425,21.529529 0,6.944 5.456,16.461 13.392,16.461 0.790425,0 1.689475,-0.40295 1.689475,-1.28653 0,-0.89895 -0.992,-1.39495 -2.185475,-2.18547 -3.87505,-2.387 -6.060525,-4.96 -6.060525,-9.827 0,-6.045 4.464,-10.912054 10.32295,-12.291529 L 60.264,130.74243 M 51.537475,28.767901 c 0.89905,-3.968 5.456,-14.384 10.617575,-14.384 1.488,0 3.859475,4.851475 3.859475,11.702425 0,10.32305 -7.626,18.057575 -14.47705,24.8 -0.58895,-3.968 -1.08495,-7.827475 -1.08495,-11.99695 0,-3.673475 0.294525,-7.052525 1.08495,-10.121475 m -20.832,132.431999 c 0,6.55653 5.05305,15.19 18.44505,15.19 4.665475,0 8.742,-1.19347 12.30695,-3.37905 C 66.820525,169.24443 68.2,162.6879 68.2,156.44138 c 0,-3.85948 -0.58895,-8.32348 -1.58095,-13.98095 -0.294525,-1.984 -0.89905,-4.96 -1.488,-8.83505 9.718425,-3.17748 16.95695,-13.29895 16.95695,-23.5135 0,-14.973029 -10.617475,-25.094504 -25.094525,-25.094504 -0.992,-5.952 -1.984,-11.81105 -2.88295,-17.36 10.524525,-11.020525 17.76295,-23.420525 17.76295,-39.184 0,-9.036525 -2.774425,-16.368 -4.37095,-19.948128 C 65.13105,3.472 62.248,0 60.465475,0 59.768,0 56.69905,1.193376 53.428525,5.053248 c -6.35505,7.548128 -8.137475,20.242653 -8.137475,28.566128 0,5.36295 0.496,10.23 2.185475,21.343475 -0.108525,0.09305 -5.27,5.347475 -7.34705,7.03705 C 31.09305,70.431901 18.6,82.428851 18.6,102.28438 c 0,18.53805 16.166525,33.12352 34.62705,33.12352 2.867475,0 5.54895,-0.29452 7.827475,-0.69747 1.89095,9.53242 2.976,16.47642 2.976,21.73095 0,10.32305 -5.254525,15.77905 -15.267475,15.77905 -2.38705,0 -4.464,-0.496 -4.665575,-0.496 -0.09295,-0.10853 -0.294425,-0.20158 -0.294425,-0.29453 0,-0.20147 0.201475,-0.31 0.496,-0.40305 4.665475,-0.69747 9.315475,-4.66547 9.315475,-11.00495 0,-5.36305 -4.06105,-11.02052 -11.50105,-11.02052 -6.944,0 -11.408,5.65747 -11.408,12.19852" class="Clef" style="stroke-width:.992"/>
  <path d="M120.606 77.67c-.589-3.86-2.976-7.533-8.029-7.533-4.96 0-7.843 3.069-8.339 3.673l.403-31.853c0-.79-.589-1.379-1.395-1.379h-1.178c-.806 0-1.395.589-1.395 1.379l.496 59.629c0 .791.589 1.38 1.395 1.38.186 0 .589-.093.791-.186.388-.202 6.836-3.379 12.199-9.424 3.767-4.278 5.255-9.13 5.255-13.206 0-.884-.093-1.674-.201-2.48m-6.836 3.875c0 1.488-.403 6.045-2.883 9.827-1.69 2.573-5.053 5.254-6.944 6.742l.295-19.344c.202-.899 1.69-3.767 5.658-3.767 3.581 0 3.875 3.364 3.875 5.456 0 .496 0 .79 0 1.085M148.18 40.47c-.589-3.86-2.976-7.533-8.029-7.533-4.96 0-7.843 3.069-8.339 3.673l.403-31.853c0-.79-.589-1.379-1.395-1.379h-1.178c-.806 0-1.395.589-1.395 1.379l.496 59.629c0 .791.589 1.38 1.395 1.38.186 0 .589-.093.791-.186.388-.202 6.836-3.379 12.199-9.424 3.767-4.278 5.255-9.13 5.255-13.206 0-.884-.093-1.674-.201-2.48m-6.836 3.875c0 1.488-.403 6.045-2.883 9.827-1.69 2.573-5.053 5.254-6.944 6.742l.295-19.344c.202-.899 1.69-3.767 5.658-3.767 3.581 0 3.875 3.364 3.875 5.456 0 .496 0 .79 0 1.085" class="KeySig" style="stroke-width:.992"/>
  <path d="m 205.422,66.361326 c -2.48,1.596525 -4.26252,4.464 -4.26252,7.641575 0,0.40297 0,0.790475 0.093,1.193475 0.496,4.061 3.782,7.238495 7.84296,7.734495 0.29452,0 0.79052,0 1.08504,0 4.96,0 8.928,-3.968 8.928,-8.92797 0,0 0,-0.294525 0,-0.58905 0,-0.40295 -0.093,-1.100525 -0.186,-1.488 -0.89904,-4.262525 -4.774,-13.392 -21.638,-13.392 -21.62252,0 -24.10252,17.94902 -24.10252,24.39702 0,11.81098 1.488,26.598029 26.288,26.598029 9.82705,0 17.46852,-5.766 17.856,-16.383524 0,-0.496 -0.29452,-0.790495 -0.79052,-0.790495 h -1.28643 c -0.40305,0 -0.79053,0.403 -0.79053,0.790495 -0.40304,8.246054 -6.262,13.206054 -14.98852,13.206054 -8.63348,0 -12.80295,-4.66558 -12.80295,-13.392054 V 74.002901 c 0,-5.54905 2.18547,-11.904 11.02043,-11.904 4.66557,0 6.74252,1.689475 7.84304,3.37895 0.093,0.201475 0.093,0.294525 0.093,0.496 0,0.09305 0,0.294525 -0.20148,0.387475" class="TimeSig" style="stroke-width:.992"/>
  <path d="M264.274 201.215h-1.906l-2 2.953c-3.641-2.656-5.5-3.359-8.954-3.359-4.75 0-8.796 2-12.14 6-3.203 3.812-4.703 8.015-4.703 13.156 0 10.797 7.047 18.453 16.906 18.453 8 0 13.094-4.703 14.25-13.094l-2.359-.406c-1.344 7.453-5.141 11.156-11.297 11.156-7.407 0-10.907-5.109-10.907-15.906 0-5.703.75-9.453 2.454-12.453 1.546-2.797 4.609-4.547 7.859-4.547 3.5 0 6.594 1.844 8.5 5.047.953 1.656 1.641 3.5 2.844 7.453h2.203l-.75-14.453m25.64 20.359c0-3.156-.546-4.75-2-5.953-1.64-1.359-4.093-2-7.296-2-5.641 0-9.75 2.641-9.75 6.297 0 1.844 1.156 3.047 2.906 3.047 1.594 0 2.703-1.047 2.703-2.547 0-.656-.25-1.344-.75-2.047-.313-.359-.359-.453-.359-.703 0-1 2-1.906 4.406-1.906 1.594 0 3.344.5 4.14 1.25.954.812 1.313 2 1.313 4.25v1.953c-5.203.906-6.859 1.297-9.313 2.25-4.343 1.609-6.39 3.906-6.39 7.109 0 3.594 2.797 5.844 7.25 5.844 3.453 0 6.547-1.406 8.703-3.953.797 2.547 2.047 3.547 4.391 3.547 2.25 0 4.609-1.438 4.609-2.891 0-.359-.203-.609-.5-.609-.203 0-.406.062-.75.203-.703.297-1 .359-1.406.359-1.407 0-1.907-.906-1.907-3.453v-10.047m-4.687 6.094c0 3-.156 3.703-1 5-1.25 1.844-3.5 3.094-5.703 3.094-2.297 0-3.953-1.641-3.953-3.891 0-2.109 1.047-3.609 3.25-4.656 1.547-.703 3.5-1.203 7.406-1.844v2.297m35.453 3.547-4.906-12.844c-.156-.359-.203-.656-.203-1.047 0-.906.453-1.156 2.093-1.156h1.204v-1.797h-11.204v1.797h.86c1.594.047 2.25.453 2.64 1.844l.407 1.312-4.407 11.641-4.843-12.547c-.094-.344-.203-.797-.203-1.094 0-.859.546-1.156 2.046-1.156h.907v-1.797h-11v1.797h.906c1.391.047 2.047.656 2.594 2.453l7.5 19.797h1.75l5.953-15.797 6.094 15.797h1.562l7-18.453c1.094-2.953 1.844-3.75 3.688-3.797h.359v-1.797h-9.453v1.797h.844c1.75 0 2.453.5 2.453 1.844 0 .5-.141 1.156-.391 1.812l-4.25 11.391M462.674 201.215h-1.906l-2 2.953c-3.641-2.656-5.5-3.359-8.954-3.359-4.75 0-8.796 2-12.14 6-3.203 3.812-4.703 8.015-4.703 13.156 0 10.797 7.047 18.453 16.906 18.453 8 0 13.094-4.703 14.25-13.094l-2.359-.406c-1.344 7.453-5.141 11.156-11.297 11.156-7.407 0-10.907-5.109-10.907-15.906 0-5.703.75-9.453 2.454-12.453 1.546-2.797 4.609-4.547 7.859-4.547 3.5 0 6.594 1.844 8.5 5.047.953 1.656 1.641 3.5 2.844 7.453h2.203l-.75-14.453m25.64 20.359c0-3.156-.546-4.75-2-5.953-1.64-1.359-4.093-2-7.296-2-5.641 0-9.75 2.641-9.75 6.297 0 1.844 1.156 3.047 2.906 3.047 1.594 0 2.703-1.047 2.703-2.547 0-.656-.25-1.344-.75-2.047-.313-.359-.359-.453-.359-.703 0-1 2-1.906 4.406-1.906 1.594 0 3.344.5 4.14 1.25.954.812 1.313 2 1.313 4.25v1.953c-5.203.906-6.859 1.297-9.313 2.25-4.343 1.609-6.39 3.906-6.39 7.109 0 3.594 2.797 5.844 7.25 5.844 3.453 0 6.547-1.406 8.703-3.953.797 2.547 2.047 3.547 4.391 3.547 2.25 0 4.609-1.438 4.609-2.891 0-.359-.203-.609-.5-.609-.203 0-.406.062-.75.203-.703.297-1 .359-1.406.359-1.407 0-1.907-.906-1.907-3.453v-10.047m-4.687 6.094c0 3-.156 3.703-1 5-1.25 1.844-3.5 3.094-5.703 3.094-2.297 0-3.953-1.641-3.953-3.891 0-2.109 1.047-3.609 3.25-4.656 1.547-.703 3.5-1.203 7.406-1.844v2.297m35.453 3.547-4.906-12.844c-.156-.359-.203-.656-.203-1.047 0-.906.453-1.156 2.093-1.156h1.204v-1.797h-11.204v1.797h.86c1.594.047 2.25.453 2.64 1.844l.407 1.312-4.407 11.641-4.843-12.547c-.094-.344-.203-.797-.203-1.094 0-.859.546-1.156 2.046-1.156h.907v-1.797h-11v1.797h.906c1.391.047 2.047.656 2.594 2.453l7.5 19.797h1.75l5.953-15.797 6.094 15.797h1.562l7-18.453c1.094-2.953 1.844-3.75 3.688-3.797h.359v-1.797h-9.453v1.797h.844c1.75 0 2.453.5 2.453 1.844 0 .5-.141 1.156-.391 1.812l-4.25 11.391" class="Lyrics"/>
</svg>
